%TF.GenerationSoftware,KiCad,Pcbnew,9.0.5*%
%TF.CreationDate,2025-11-19T11:21:45-07:00*%
%TF.ProjectId,USlave,55536c61-7665-42e6-9b69-6361645f7063,rev?*%
%TF.SameCoordinates,Original*%
%TF.FileFunction,Legend,Bot*%
%TF.FilePolarity,Positive*%
%FSLAX46Y46*%
G04 Gerber Fmt 4.6, Leading zero omitted, Abs format (unit mm)*
G04 Created by KiCad (PCBNEW 9.0.5) date 2025-11-19 11:21:45*
%MOMM*%
%LPD*%
G01*
G04 APERTURE LIST*
%ADD10C,0.508000*%
%ADD11C,0.000000*%
G04 APERTURE END LIST*
D10*
%TO.C,J9*%
X222681001Y-53884500D02*
G75*
G02*
X221919001Y-53884500I-381000J0D01*
G01*
X221919001Y-53884500D02*
G75*
G02*
X222681001Y-53884500I381000J0D01*
G01*
%TO.C,J6*%
X158573537Y-75982317D02*
G75*
G02*
X157811537Y-75982317I-381000J0D01*
G01*
X157811537Y-75982317D02*
G75*
G02*
X158573537Y-75982317I381000J0D01*
G01*
%TO.C,J8*%
X222423999Y-82384499D02*
G75*
G02*
X221661999Y-82384499I-381000J0D01*
G01*
X221661999Y-82384499D02*
G75*
G02*
X222423999Y-82384499I381000J0D01*
G01*
%TO.C,J7*%
X158460538Y-104482316D02*
G75*
G02*
X157698538Y-104482316I-381000J0D01*
G01*
X157698538Y-104482316D02*
G75*
G02*
X158460538Y-104482316I381000J0D01*
G01*
%TO.C,J1*%
X215018000Y-105735700D02*
G75*
G02*
X214256000Y-105735700I-381000J0D01*
G01*
X214256000Y-105735700D02*
G75*
G02*
X215018000Y-105735700I381000J0D01*
G01*
D11*
%TO.C,G\u002A\u002A\u002A*%
G36*
X184183956Y-108996257D02*
G01*
X184190325Y-109079696D01*
X184175953Y-109096417D01*
X184092514Y-109102785D01*
X184075792Y-109088414D01*
X184069424Y-109004975D01*
X184083796Y-108988253D01*
X184167235Y-108981885D01*
X184183956Y-108996257D01*
G37*
G36*
X184335010Y-112399512D02*
G01*
X184265110Y-112490086D01*
X184198212Y-112543669D01*
X184161784Y-112537798D01*
X184170631Y-112502912D01*
X184237303Y-112406665D01*
X184279455Y-112372242D01*
X184340629Y-112358953D01*
X184335010Y-112399512D01*
G37*
G36*
X183647484Y-109161972D02*
G01*
X183854050Y-109201452D01*
X184070250Y-109266409D01*
X184180620Y-109336385D01*
X184174307Y-109406344D01*
X184120033Y-109432502D01*
X183970743Y-109439735D01*
X183781923Y-109412265D01*
X183595341Y-109360034D01*
X183452762Y-109292984D01*
X183395955Y-109221059D01*
X183408663Y-109170957D01*
X183481939Y-109145292D01*
X183647484Y-109161972D01*
G37*
G36*
X185670326Y-105934965D02*
G01*
X185718415Y-105979019D01*
X185717051Y-105990588D01*
X185675662Y-106155161D01*
X185609931Y-106275898D01*
X185541723Y-106311639D01*
X185489669Y-106273422D01*
X185408872Y-106161073D01*
X185384069Y-106106657D01*
X185438166Y-106106657D01*
X185470075Y-106138566D01*
X185501985Y-106106657D01*
X185470075Y-106074747D01*
X185438166Y-106106657D01*
X185384069Y-106106657D01*
X185350252Y-106032466D01*
X185344233Y-105944203D01*
X185346149Y-105941442D01*
X185426069Y-105910768D01*
X185553502Y-105910412D01*
X185670326Y-105934965D01*
G37*
G36*
X174116043Y-102513979D02*
G01*
X174428423Y-102679480D01*
X174698285Y-102922699D01*
X174900800Y-103233704D01*
X174912893Y-103259905D01*
X175017739Y-103590943D01*
X175010906Y-103900421D01*
X174892060Y-104226426D01*
X174810146Y-104357151D01*
X174576012Y-104584610D01*
X174285411Y-104740512D01*
X173980559Y-104798365D01*
X173881713Y-104788715D01*
X173626489Y-104710221D01*
X173354291Y-104573926D01*
X173111752Y-104405424D01*
X172945509Y-104230309D01*
X172898723Y-104155763D01*
X172739195Y-103787432D01*
X172711135Y-103566298D01*
X173256098Y-103566298D01*
X173313662Y-103779495D01*
X173439547Y-103970495D01*
X173615352Y-104119036D01*
X173822678Y-104204856D01*
X174043122Y-104207693D01*
X174258286Y-104107285D01*
X174364525Y-103980139D01*
X174441952Y-103727572D01*
X174450945Y-103651314D01*
X174447074Y-103505034D01*
X174387910Y-103384922D01*
X174252460Y-103236580D01*
X174103269Y-103113136D01*
X173858743Y-103011371D01*
X173621062Y-103029277D01*
X173405365Y-103168078D01*
X173285256Y-103351166D01*
X173256098Y-103566298D01*
X172711135Y-103566298D01*
X172693384Y-103426401D01*
X172758579Y-103089733D01*
X172932070Y-102794491D01*
X173211148Y-102557737D01*
X173463041Y-102455868D01*
X173785973Y-102436131D01*
X174116043Y-102513979D01*
G37*
G36*
X173659571Y-101118494D02*
G01*
X174129818Y-101199727D01*
X174563800Y-101355365D01*
X175041250Y-101643790D01*
X175452155Y-102016250D01*
X175781828Y-102451823D01*
X176023588Y-102933387D01*
X176170748Y-103443821D01*
X176216625Y-103966006D01*
X176154535Y-104482819D01*
X175977794Y-104977141D01*
X175776295Y-105303054D01*
X175432782Y-105662068D01*
X175017852Y-105935364D01*
X174552172Y-106113023D01*
X174056412Y-106185125D01*
X173551240Y-106141750D01*
X173106970Y-106010001D01*
X172598843Y-105750688D01*
X172154908Y-105400323D01*
X171787660Y-104973988D01*
X171509598Y-104486764D01*
X171333219Y-103953732D01*
X171290059Y-103562559D01*
X172622624Y-103562559D01*
X172651372Y-103786781D01*
X172782189Y-104150866D01*
X173019048Y-104449852D01*
X173368745Y-104694046D01*
X173564853Y-104785124D01*
X173943235Y-104875893D01*
X174296706Y-104848143D01*
X174613645Y-104703786D01*
X174882433Y-104444737D01*
X174939384Y-104361040D01*
X175063513Y-104044528D01*
X175088219Y-103695701D01*
X175020865Y-103340906D01*
X174868814Y-103006487D01*
X174639428Y-102718789D01*
X174340072Y-102504158D01*
X173990213Y-102374208D01*
X173617213Y-102342434D01*
X173271996Y-102425028D01*
X172971790Y-102620523D01*
X172859125Y-102733579D01*
X172700993Y-102963444D01*
X172627303Y-103225893D01*
X172622624Y-103562559D01*
X171290059Y-103562559D01*
X171271017Y-103389974D01*
X171285881Y-103099950D01*
X171398138Y-102577013D01*
X171613444Y-102112692D01*
X171923403Y-101719102D01*
X172319620Y-101408359D01*
X172793699Y-101192580D01*
X173196800Y-101115687D01*
X173659571Y-101118494D01*
G37*
G36*
X180994597Y-109929462D02*
G01*
X181301841Y-109936652D01*
X181354618Y-109938413D01*
X181670230Y-109952244D01*
X181892848Y-109972096D01*
X182052896Y-110003663D01*
X182180802Y-110052637D01*
X182306991Y-110124710D01*
X182474858Y-110262271D01*
X182570713Y-110440610D01*
X182545011Y-110618452D01*
X182396036Y-110783110D01*
X182225766Y-110907143D01*
X182364127Y-111131016D01*
X182428746Y-111241901D01*
X182489457Y-111406101D01*
X182465611Y-111543702D01*
X182356599Y-111700675D01*
X182205536Y-111843309D01*
X181949320Y-111975173D01*
X181610349Y-112049758D01*
X181170447Y-112072765D01*
X180996455Y-112070633D01*
X180719685Y-112053041D01*
X180550253Y-112014282D01*
X180475029Y-111950244D01*
X180480883Y-111856816D01*
X180487438Y-111842737D01*
X180585063Y-111775746D01*
X180787176Y-111754647D01*
X181054263Y-111754647D01*
X181417563Y-111754647D01*
X181656884Y-111752617D01*
X181687491Y-111751973D01*
X181930336Y-111704795D01*
X182072963Y-111581071D01*
X182119573Y-111377395D01*
X182110417Y-111265484D01*
X182048910Y-111162642D01*
X181898256Y-111081290D01*
X181779289Y-111033773D01*
X181589688Y-110982191D01*
X181480131Y-111012906D01*
X181429722Y-111138544D01*
X181417563Y-111371732D01*
X181417563Y-111754647D01*
X181054263Y-111754647D01*
X181033674Y-111371732D01*
X181012426Y-110976555D01*
X180997829Y-110746697D01*
X180996557Y-110733541D01*
X181353744Y-110733541D01*
X181647038Y-110733541D01*
X181717736Y-110730144D01*
X181918488Y-110693779D01*
X182110427Y-110629628D01*
X182254344Y-110552765D01*
X182311030Y-110478265D01*
X182310249Y-110474476D01*
X182250530Y-110415805D01*
X182124835Y-110331977D01*
X182078373Y-110307590D01*
X181872475Y-110231941D01*
X181646192Y-110181905D01*
X181353744Y-110141820D01*
X181353744Y-110437681D01*
X181353744Y-110733541D01*
X180996557Y-110733541D01*
X180968209Y-110440316D01*
X180967754Y-110437681D01*
X180933318Y-110238046D01*
X180894832Y-110151643D01*
X180775569Y-110135591D01*
X180617380Y-110188173D01*
X180477548Y-110286184D01*
X180407973Y-110402844D01*
X180365200Y-110501718D01*
X180236237Y-110542084D01*
X180133399Y-110527506D01*
X180043337Y-110474843D01*
X180038124Y-110417003D01*
X180091820Y-110286085D01*
X180193734Y-110136983D01*
X180315301Y-110009242D01*
X180427955Y-109942404D01*
X180524210Y-109933211D01*
X180725053Y-109928383D01*
X180994597Y-109929462D01*
G37*
G36*
X168107040Y-102655521D02*
G01*
X168259815Y-102674392D01*
X168478214Y-102711442D01*
X168777008Y-102768935D01*
X169170963Y-102849135D01*
X169674849Y-102954306D01*
X169687761Y-102957017D01*
X170058461Y-103034438D01*
X170384700Y-103101794D01*
X170646376Y-103154996D01*
X170823386Y-103189955D01*
X170895624Y-103202583D01*
X170953808Y-103262034D01*
X171019747Y-103428344D01*
X171086578Y-103681284D01*
X171147905Y-104000627D01*
X171234482Y-104416071D01*
X171394357Y-104871574D01*
X171621336Y-105259705D01*
X171930093Y-105610669D01*
X172032397Y-105705899D01*
X172228666Y-105861533D01*
X172439615Y-105983230D01*
X172693270Y-106083153D01*
X173017659Y-106173466D01*
X173440807Y-106266333D01*
X173509865Y-106280046D01*
X173966866Y-106345472D01*
X174365054Y-106345490D01*
X174751185Y-106276556D01*
X175172015Y-106135128D01*
X175192864Y-106126862D01*
X175555357Y-105959298D01*
X175824938Y-105772589D01*
X176034279Y-105538354D01*
X176216050Y-105228214D01*
X176280433Y-105096947D01*
X176366424Y-104895352D01*
X176414373Y-104714089D01*
X176435162Y-104503873D01*
X176439673Y-104215419D01*
X176440121Y-104158440D01*
X176916324Y-104158440D01*
X176934893Y-104257403D01*
X176982819Y-104369591D01*
X177104492Y-104415451D01*
X177144050Y-104418077D01*
X177308815Y-104442431D01*
X177544822Y-104486852D01*
X177815017Y-104544603D01*
X177869230Y-104556784D01*
X178210864Y-104630950D01*
X178565614Y-104704490D01*
X178864799Y-104763106D01*
X178977620Y-104784410D01*
X179252956Y-104837375D01*
X179610195Y-104906927D01*
X180034540Y-104990118D01*
X180511196Y-105084002D01*
X181025368Y-105185634D01*
X181562261Y-105292067D01*
X182107078Y-105400354D01*
X182645026Y-105507551D01*
X183161307Y-105610711D01*
X183641128Y-105706887D01*
X184069692Y-105793133D01*
X184432205Y-105866504D01*
X184713870Y-105924053D01*
X184899893Y-105962834D01*
X184975477Y-105979901D01*
X185029456Y-105964019D01*
X185055251Y-105847375D01*
X185036129Y-105738313D01*
X185006177Y-105701616D01*
X185233683Y-105701616D01*
X185277239Y-105992069D01*
X185290217Y-106073874D01*
X185323937Y-106254054D01*
X185351799Y-106363317D01*
X185353683Y-106366786D01*
X185432885Y-106414147D01*
X185597648Y-106477302D01*
X185813654Y-106546529D01*
X186046588Y-106612104D01*
X186262132Y-106664306D01*
X186425970Y-106693411D01*
X186503785Y-106689698D01*
X186505022Y-106688133D01*
X186464429Y-106655962D01*
X186339838Y-106619012D01*
X186305139Y-106610708D01*
X186191812Y-106556048D01*
X186181747Y-106469346D01*
X186195621Y-106403952D01*
X186155517Y-106446347D01*
X186054491Y-106500046D01*
X185862310Y-106487109D01*
X185823115Y-106479365D01*
X185685311Y-106444244D01*
X185629623Y-106416066D01*
X185637101Y-106391297D01*
X185655536Y-106361933D01*
X185884899Y-106361933D01*
X185916809Y-106393843D01*
X185948719Y-106361933D01*
X185916809Y-106330024D01*
X185884899Y-106361933D01*
X185655536Y-106361933D01*
X185700489Y-106290330D01*
X185799325Y-106164193D01*
X185897954Y-106056516D01*
X185960720Y-106010928D01*
X185984466Y-106021640D01*
X186012538Y-106106657D01*
X186019738Y-106150695D01*
X186076357Y-106202385D01*
X186091611Y-106200531D01*
X186140176Y-106138566D01*
X186154870Y-106070598D01*
X186199587Y-106078950D01*
X186253912Y-106164426D01*
X186296736Y-106304635D01*
X186313200Y-106384513D01*
X186350310Y-106491846D01*
X186384319Y-106472257D01*
X186386777Y-106461428D01*
X186586910Y-106461428D01*
X186600497Y-106533850D01*
X186650729Y-106553390D01*
X186675653Y-106530641D01*
X186714548Y-106421986D01*
X186707969Y-106381442D01*
X186650729Y-106330024D01*
X186612947Y-106355696D01*
X186586910Y-106461428D01*
X186386777Y-106461428D01*
X186417477Y-106326148D01*
X186461176Y-106214602D01*
X186562513Y-106192816D01*
X186708767Y-106235449D01*
X186849802Y-106314947D01*
X186906005Y-106400284D01*
X186873541Y-106527676D01*
X186779328Y-106659170D01*
X186664438Y-106720489D01*
X186652566Y-106721765D01*
X186647063Y-106742463D01*
X186746457Y-106776757D01*
X186760073Y-106780197D01*
X186991885Y-106826173D01*
X187121162Y-106819512D01*
X187161281Y-106759662D01*
X187154972Y-106714847D01*
X187077391Y-106552725D01*
X186935386Y-106367400D01*
X186759344Y-106194847D01*
X186579652Y-106071045D01*
X186545363Y-106054659D01*
X186336930Y-105975334D01*
X186064414Y-105892089D01*
X185777573Y-105820471D01*
X185233683Y-105701616D01*
X185006177Y-105701616D01*
X184975477Y-105664003D01*
X184933931Y-105652812D01*
X184769152Y-105612858D01*
X184518347Y-105554678D01*
X184207501Y-105484073D01*
X183862595Y-105406842D01*
X183509613Y-105328784D01*
X183174537Y-105255698D01*
X182883350Y-105193384D01*
X182662035Y-105147641D01*
X182532503Y-105121173D01*
X182199534Y-105050145D01*
X181829558Y-104968255D01*
X181481382Y-104888415D01*
X181481139Y-104888358D01*
X181102299Y-104803331D01*
X180626689Y-104702542D01*
X180083330Y-104591732D01*
X179501245Y-104476637D01*
X178909455Y-104362997D01*
X178336982Y-104256550D01*
X177812848Y-104163034D01*
X177468351Y-104103263D01*
X177212041Y-104062121D01*
X177046660Y-104045135D01*
X176954231Y-104054238D01*
X176916778Y-104091363D01*
X176916324Y-104158440D01*
X176440121Y-104158440D01*
X176440835Y-104067627D01*
X176452386Y-103825803D01*
X176477930Y-103690676D01*
X176519447Y-103648148D01*
X176526457Y-103648538D01*
X176631728Y-103664271D01*
X176839750Y-103700372D01*
X177131743Y-103753275D01*
X177488926Y-103819417D01*
X177892517Y-103895232D01*
X178323735Y-103977157D01*
X178763800Y-104061628D01*
X179193931Y-104145079D01*
X179595347Y-104223947D01*
X179949267Y-104294667D01*
X180236910Y-104353675D01*
X180292454Y-104365268D01*
X180635337Y-104435778D01*
X180990716Y-104507442D01*
X181289925Y-104566389D01*
X181557868Y-104618769D01*
X181920960Y-104690956D01*
X182247211Y-104756958D01*
X182418906Y-104791740D01*
X182719160Y-104851776D01*
X183088032Y-104924970D01*
X183494241Y-105005116D01*
X183906508Y-105086013D01*
X184156619Y-105136298D01*
X184652735Y-105242019D01*
X185166525Y-105357880D01*
X185650221Y-105472982D01*
X186056056Y-105576426D01*
X186207386Y-105617086D01*
X186533695Y-105707142D01*
X186763109Y-105777036D01*
X186915109Y-105835044D01*
X187009176Y-105889440D01*
X187064788Y-105948499D01*
X187101426Y-106020497D01*
X187111002Y-106043315D01*
X187185391Y-106189273D01*
X187236147Y-106215212D01*
X187266621Y-106118835D01*
X187273893Y-106000132D01*
X188250191Y-106000132D01*
X188263322Y-106293104D01*
X188339237Y-106578927D01*
X188478975Y-106825249D01*
X188668421Y-107023191D01*
X188944049Y-107198231D01*
X189225984Y-107263762D01*
X189496749Y-107216616D01*
X189579200Y-107161111D01*
X190804481Y-107161111D01*
X190809705Y-107233489D01*
X190818781Y-107272556D01*
X190865510Y-107342835D01*
X190968428Y-107410871D01*
X191149633Y-107489378D01*
X191431224Y-107591069D01*
X191602970Y-107649073D01*
X191829990Y-107720343D01*
X191990868Y-107763925D01*
X192058631Y-107772037D01*
X192064905Y-107764842D01*
X192060666Y-107678520D01*
X191956146Y-107568175D01*
X191770009Y-107448943D01*
X191520923Y-107335962D01*
X191241218Y-107230025D01*
X191025854Y-107153625D01*
X190893788Y-107118476D01*
X190826253Y-107121872D01*
X190804481Y-107161111D01*
X189579200Y-107161111D01*
X189738867Y-107053626D01*
X189798216Y-106988074D01*
X189955033Y-106706619D01*
X190012857Y-106389040D01*
X189977446Y-106062606D01*
X189854555Y-105754588D01*
X189649939Y-105492257D01*
X189369354Y-105302883D01*
X189307509Y-105275457D01*
X189103563Y-105204061D01*
X188946681Y-105196861D01*
X188788668Y-105249422D01*
X188739499Y-105274461D01*
X188742605Y-105289826D01*
X188861831Y-105273228D01*
X189014048Y-105264409D01*
X189297485Y-105334827D01*
X189558205Y-105502018D01*
X189770168Y-105746652D01*
X189907339Y-106049398D01*
X189919683Y-106096721D01*
X189952213Y-106433679D01*
X189889128Y-106721302D01*
X189748994Y-106949076D01*
X189550380Y-107106488D01*
X189311851Y-107183024D01*
X189051974Y-107168172D01*
X188789317Y-107051418D01*
X188542446Y-106822248D01*
X188516349Y-106789198D01*
X188408900Y-106620677D01*
X188350575Y-106436485D01*
X188326534Y-106219663D01*
X188702541Y-106219663D01*
X188786308Y-106453097D01*
X188828552Y-106525341D01*
X188984211Y-106669213D01*
X189204154Y-106712938D01*
X189361749Y-106663600D01*
X189471741Y-106527471D01*
X189518295Y-106337054D01*
X189493719Y-106124962D01*
X189390318Y-105923806D01*
X189312290Y-105844893D01*
X189129049Y-105760102D01*
X188943204Y-105777084D01*
X188792287Y-105897490D01*
X188724087Y-106021539D01*
X188702541Y-106219663D01*
X188326534Y-106219663D01*
X188322232Y-106180868D01*
X188313519Y-105983575D01*
X188326611Y-105822050D01*
X188376970Y-105699346D01*
X188476709Y-105567352D01*
X188488004Y-105553895D01*
X188580992Y-105435821D01*
X188591555Y-105397023D01*
X188523993Y-105424509D01*
X188408122Y-105522148D01*
X188298805Y-105732363D01*
X188250191Y-106000132D01*
X187273893Y-106000132D01*
X187280160Y-105897843D01*
X187283875Y-105823314D01*
X187334503Y-105496049D01*
X187426654Y-105189642D01*
X187508763Y-105013908D01*
X187764424Y-104659283D01*
X188092742Y-104402026D01*
X188479906Y-104248591D01*
X188912102Y-104205432D01*
X189375519Y-104279003D01*
X189569742Y-104367070D01*
X189818175Y-104534441D01*
X190074272Y-104748719D01*
X190303301Y-104980659D01*
X190470531Y-105201019D01*
X190622034Y-105507126D01*
X190759584Y-105967898D01*
X190810887Y-106438344D01*
X190813267Y-106833850D01*
X191288871Y-106993757D01*
X191303805Y-106998836D01*
X191568979Y-107105587D01*
X191813426Y-107230691D01*
X191985953Y-107348126D01*
X192166900Y-107489806D01*
X192288887Y-107550387D01*
X192329210Y-107524927D01*
X192278547Y-107420315D01*
X192127578Y-107243440D01*
X192067171Y-107176844D01*
X191981855Y-107057418D01*
X191967633Y-106990842D01*
X191987201Y-106982893D01*
X192103737Y-106998729D01*
X192288489Y-107058184D01*
X192509881Y-107147819D01*
X192736336Y-107254197D01*
X192936275Y-107363879D01*
X193078124Y-107463427D01*
X193210515Y-107613870D01*
X193316891Y-107876041D01*
X193319187Y-107889889D01*
X193331624Y-108033280D01*
X193298728Y-108140768D01*
X193199819Y-108247325D01*
X193014219Y-108387924D01*
X192972524Y-108420372D01*
X192933902Y-108481993D01*
X192944582Y-108580214D01*
X193003349Y-108756095D01*
X193058565Y-108959668D01*
X193108409Y-109237114D01*
X193139774Y-109520978D01*
X193151074Y-109698648D01*
X193151656Y-109889180D01*
X193121673Y-110034633D01*
X193048649Y-110184195D01*
X192920108Y-110387050D01*
X192834188Y-110514114D01*
X192694043Y-110688256D01*
X192543949Y-110813495D01*
X192360369Y-110899423D01*
X192119766Y-110955629D01*
X191798602Y-110991701D01*
X191373342Y-111017230D01*
X191197705Y-111026305D01*
X190779493Y-111050785D01*
X190303592Y-111081505D01*
X189816082Y-111115434D01*
X189363040Y-111149538D01*
X189163248Y-111164863D01*
X188668563Y-111199989D01*
X188148767Y-111233704D01*
X187654617Y-111262797D01*
X187236870Y-111284056D01*
X186259443Y-111327916D01*
X185226568Y-112185286D01*
X185145285Y-112252600D01*
X184831494Y-112509533D01*
X184546191Y-112738717D01*
X184306671Y-112926544D01*
X184130225Y-113059405D01*
X184034146Y-113123692D01*
X184027861Y-113126567D01*
X183904061Y-113157959D01*
X183677863Y-113195697D01*
X183371722Y-113236741D01*
X183008090Y-113278050D01*
X182609420Y-113316585D01*
X182589481Y-113318346D01*
X182115265Y-113357898D01*
X181734498Y-113383187D01*
X181415052Y-113394767D01*
X181124803Y-113393187D01*
X180831624Y-113379000D01*
X180503390Y-113352759D01*
X179784980Y-113284505D01*
X179102718Y-113212663D01*
X178472113Y-113139223D01*
X177905778Y-113065915D01*
X177748736Y-113042991D01*
X178995578Y-113042991D01*
X179035252Y-113064288D01*
X179168049Y-113090017D01*
X179405283Y-113122737D01*
X179758266Y-113165008D01*
X179805072Y-113170376D01*
X180207083Y-113211578D01*
X180556343Y-113234916D01*
X180897756Y-113241352D01*
X181276226Y-113231848D01*
X181736658Y-113207363D01*
X181983112Y-113190549D01*
X182435520Y-113147816D01*
X182777783Y-113096940D01*
X183005545Y-113038887D01*
X183114452Y-112974621D01*
X183100147Y-112905109D01*
X183099570Y-112904620D01*
X183017866Y-112883940D01*
X182830197Y-112857514D01*
X182557379Y-112827628D01*
X182220226Y-112796569D01*
X181839553Y-112766624D01*
X180634156Y-112679377D01*
X180439089Y-112823293D01*
X180382938Y-112861778D01*
X180241750Y-112926833D01*
X180059687Y-112958997D01*
X179793732Y-112967912D01*
X179553084Y-112973479D01*
X179287652Y-112989935D01*
X179088166Y-113013359D01*
X179037716Y-113023564D01*
X178995578Y-113042991D01*
X177748736Y-113042991D01*
X177416327Y-112994468D01*
X177016371Y-112926612D01*
X176718525Y-112864077D01*
X176535402Y-112808593D01*
X176446847Y-112756903D01*
X176264136Y-112626598D01*
X176162275Y-112548280D01*
X183140678Y-112548280D01*
X183142122Y-112552415D01*
X183213549Y-112575060D01*
X183359426Y-112584295D01*
X183387173Y-112583966D01*
X183461840Y-112574971D01*
X183516266Y-112550970D01*
X184059207Y-112550970D01*
X184117779Y-112631461D01*
X184176237Y-112680002D01*
X184250524Y-112679215D01*
X184360594Y-112591142D01*
X184507171Y-112454585D01*
X184376435Y-112323849D01*
X184245700Y-112193113D01*
X184133620Y-112364168D01*
X184074637Y-112462834D01*
X184059207Y-112550970D01*
X183516266Y-112550970D01*
X183533718Y-112543274D01*
X183615326Y-112475130D01*
X183719182Y-112356795D01*
X183857804Y-112174523D01*
X184043711Y-111914569D01*
X184062323Y-111887953D01*
X184461626Y-111887953D01*
X184536432Y-111970533D01*
X184628193Y-112043681D01*
X184710571Y-112063646D01*
X184736156Y-111978014D01*
X184747275Y-111933370D01*
X184831884Y-111882285D01*
X184875922Y-111875085D01*
X184927613Y-111818466D01*
X184923489Y-111795042D01*
X184860163Y-111755813D01*
X184764856Y-111776907D01*
X184695415Y-111850375D01*
X184671094Y-111895227D01*
X184598071Y-111946104D01*
X184584012Y-111906080D01*
X184636808Y-111804266D01*
X184702925Y-111697207D01*
X184736156Y-111612808D01*
X184712854Y-111565665D01*
X184637655Y-111598688D01*
X184531407Y-111717262D01*
X184469021Y-111811326D01*
X184461626Y-111887953D01*
X184062323Y-111887953D01*
X184289422Y-111563189D01*
X184313881Y-111528153D01*
X184433155Y-111361127D01*
X184935150Y-111361127D01*
X185023342Y-111367673D01*
X185124102Y-111349051D01*
X185274861Y-111273974D01*
X185317128Y-111240897D01*
X185356302Y-111191721D01*
X185293987Y-111180275D01*
X185231405Y-111165211D01*
X185131073Y-111076351D01*
X185129704Y-111074646D01*
X186559470Y-111074646D01*
X186582668Y-111098372D01*
X186666869Y-111110452D01*
X186828688Y-111112154D01*
X187084744Y-111104747D01*
X187451651Y-111089499D01*
X187528276Y-111086036D01*
X187931464Y-111064900D01*
X188337301Y-111039476D01*
X188702385Y-111012659D01*
X188983309Y-110987343D01*
X189045623Y-110981015D01*
X189371950Y-110953511D01*
X189695116Y-110933918D01*
X189953367Y-110926132D01*
X190142597Y-110919119D01*
X190294133Y-110899263D01*
X190352236Y-110871251D01*
X190297271Y-110852937D01*
X190133939Y-110832041D01*
X189882134Y-110811070D01*
X189561895Y-110791678D01*
X189193262Y-110775522D01*
X188727558Y-110759769D01*
X188196077Y-110746520D01*
X187767922Y-110743846D01*
X187429246Y-110753072D01*
X187166205Y-110775519D01*
X186964953Y-110812511D01*
X186811646Y-110865372D01*
X186692438Y-110935425D01*
X186593484Y-111023992D01*
X186580658Y-111038007D01*
X186559470Y-111074646D01*
X185129704Y-111074646D01*
X185088736Y-111023606D01*
X185031132Y-111040031D01*
X185020446Y-111068856D01*
X185058029Y-111150082D01*
X185081728Y-111194204D01*
X185011206Y-111280101D01*
X184956570Y-111322886D01*
X184935150Y-111361127D01*
X184433155Y-111361127D01*
X184536714Y-111216108D01*
X184738732Y-110945376D01*
X184907260Y-110732060D01*
X185023382Y-110599393D01*
X185284996Y-110599393D01*
X185317179Y-110687776D01*
X185418442Y-110804038D01*
X185515254Y-110887606D01*
X185557903Y-110903143D01*
X185542575Y-110835995D01*
X185532333Y-110751748D01*
X185600332Y-110603009D01*
X185653470Y-110523221D01*
X185636982Y-110450904D01*
X185576460Y-110458586D01*
X185498327Y-110548918D01*
X185498209Y-110549139D01*
X185430122Y-110637071D01*
X185375464Y-110607711D01*
X185346625Y-110575225D01*
X185288562Y-110589813D01*
X185284996Y-110599393D01*
X185023382Y-110599393D01*
X185029624Y-110592262D01*
X185093148Y-110542084D01*
X185174288Y-110500417D01*
X185258321Y-110382536D01*
X185327974Y-110275024D01*
X185409672Y-110222988D01*
X185450422Y-110211972D01*
X185525064Y-110127260D01*
X185556471Y-110099331D01*
X185700457Y-110061169D01*
X185940949Y-110037418D01*
X186258567Y-110028416D01*
X186633931Y-110034498D01*
X187047661Y-110056003D01*
X187480377Y-110093266D01*
X187680332Y-110113219D01*
X188022506Y-110145591D01*
X188429651Y-110182742D01*
X188866859Y-110221498D01*
X189299221Y-110258685D01*
X189640321Y-110290152D01*
X190073309Y-110336772D01*
X190480726Y-110387390D01*
X190828653Y-110437731D01*
X191083168Y-110483520D01*
X191158051Y-110498897D01*
X191479584Y-110553360D01*
X191794921Y-110591521D01*
X192045284Y-110605903D01*
X192167476Y-110602887D01*
X192431841Y-110557809D01*
X192599658Y-110445744D01*
X192687900Y-110250148D01*
X192713543Y-109954472D01*
X192712312Y-109850019D01*
X192690481Y-109670390D01*
X192620699Y-109571529D01*
X192476518Y-109529652D01*
X192231494Y-109520978D01*
X192146560Y-109517396D01*
X191934369Y-109494041D01*
X191680996Y-109454522D01*
X191419986Y-109405395D01*
X191184887Y-109353218D01*
X191009245Y-109304546D01*
X190926608Y-109265937D01*
X190924738Y-109264295D01*
X190841442Y-109241983D01*
X190658839Y-109212097D01*
X190402240Y-109178342D01*
X190096960Y-109144427D01*
X189792891Y-109110934D01*
X189428530Y-109065364D01*
X189099814Y-109018886D01*
X188852487Y-108977633D01*
X188751921Y-108959429D01*
X188446306Y-108910855D01*
X188095349Y-108861836D01*
X187756674Y-108820627D01*
X187604905Y-108801785D01*
X187277169Y-108749196D01*
X186976548Y-108686825D01*
X186753118Y-108624461D01*
X186604311Y-108578211D01*
X186356620Y-108521721D01*
X186157725Y-108499517D01*
X186155025Y-108499509D01*
X185920256Y-108482230D01*
X185693442Y-108441892D01*
X185549928Y-108405055D01*
X185332185Y-108352217D01*
X185203715Y-108333968D01*
X185141031Y-108353414D01*
X185120646Y-108413657D01*
X185119070Y-108517803D01*
X185119027Y-108526378D01*
X185102355Y-108688821D01*
X185064660Y-108790250D01*
X185040448Y-108831687D01*
X184985451Y-108975387D01*
X184928455Y-109169973D01*
X184904511Y-109254380D01*
X184807107Y-109525798D01*
X184695680Y-109768338D01*
X184644875Y-109865655D01*
X184572945Y-110019281D01*
X184544698Y-110104650D01*
X184540499Y-110117917D01*
X184487702Y-110222524D01*
X184381949Y-110413539D01*
X184232813Y-110674157D01*
X184049868Y-110987572D01*
X183842688Y-111336978D01*
X183764382Y-111468301D01*
X183565266Y-111804380D01*
X183393806Y-112096863D01*
X183259534Y-112329306D01*
X183171981Y-112485260D01*
X183140678Y-112548280D01*
X176162275Y-112548280D01*
X176014570Y-112434713D01*
X175713802Y-112194139D01*
X175377481Y-111917765D01*
X175021259Y-111618480D01*
X174660786Y-111309174D01*
X174311713Y-111002736D01*
X173989691Y-110712055D01*
X173771540Y-110517541D01*
X173535480Y-110319251D01*
X173335417Y-110163676D01*
X173232595Y-110095502D01*
X173759271Y-110095502D01*
X173774907Y-110119038D01*
X173869256Y-110218378D01*
X174036135Y-110380414D01*
X174260687Y-110591577D01*
X174528060Y-110838301D01*
X174823397Y-111107017D01*
X175131845Y-111384159D01*
X175438548Y-111656158D01*
X175728652Y-111909447D01*
X175987302Y-112130459D01*
X176471583Y-112538181D01*
X177897583Y-112502030D01*
X178099618Y-112496568D01*
X178494620Y-112483796D01*
X178836659Y-112469957D01*
X179107070Y-112455956D01*
X179287194Y-112442700D01*
X179358367Y-112431095D01*
X179360178Y-112408605D01*
X179309516Y-112304432D01*
X179200924Y-112143580D01*
X179052606Y-111951914D01*
X178882765Y-111755299D01*
X178870999Y-111742334D01*
X178776092Y-111626495D01*
X178737161Y-111557813D01*
X178734397Y-111547606D01*
X178678681Y-111461867D01*
X178573879Y-111333794D01*
X178562576Y-111320805D01*
X178426325Y-111145153D01*
X178320254Y-110979225D01*
X178259599Y-110874916D01*
X178125881Y-110667945D01*
X177955641Y-110419987D01*
X177766790Y-110155557D01*
X177577240Y-109899169D01*
X177404903Y-109675340D01*
X177267691Y-109508583D01*
X177183515Y-109423414D01*
X177069389Y-109367955D01*
X176888162Y-109335978D01*
X176845387Y-109339580D01*
X176656613Y-109368764D01*
X176373276Y-109422964D01*
X176016488Y-109497671D01*
X175607364Y-109588376D01*
X175167016Y-109690569D01*
X174716558Y-109799743D01*
X174519118Y-109848751D01*
X174211304Y-109926014D01*
X174000163Y-109981344D01*
X173867543Y-110020349D01*
X173795290Y-110048638D01*
X173765250Y-110071819D01*
X173759271Y-110095502D01*
X173232595Y-110095502D01*
X173199489Y-110073552D01*
X173195973Y-110071784D01*
X173082376Y-110031038D01*
X172858804Y-109963492D01*
X172538290Y-109872665D01*
X172133863Y-109762078D01*
X171658556Y-109635251D01*
X171125399Y-109495702D01*
X170547424Y-109346953D01*
X169937663Y-109192522D01*
X169645436Y-109119067D01*
X168881091Y-108926466D01*
X168228691Y-108761162D01*
X167679335Y-108620737D01*
X167224122Y-108502772D01*
X166854149Y-108404851D01*
X166560516Y-108324554D01*
X166334320Y-108259465D01*
X166166660Y-108207165D01*
X166048635Y-108165236D01*
X165971343Y-108131261D01*
X165925883Y-108102821D01*
X165866632Y-108033300D01*
X165811058Y-107951576D01*
X165983925Y-107951576D01*
X165986411Y-107980451D01*
X166006820Y-108009617D01*
X166053986Y-108041593D01*
X166136743Y-108078896D01*
X166263927Y-108124043D01*
X166444373Y-108179552D01*
X166686914Y-108247941D01*
X167000387Y-108331727D01*
X167393625Y-108433428D01*
X167875464Y-108555561D01*
X168454739Y-108700644D01*
X169140283Y-108871195D01*
X169940933Y-109069731D01*
X170051815Y-109097219D01*
X170660734Y-109248663D01*
X171233623Y-109391960D01*
X171757924Y-109523914D01*
X172221079Y-109641330D01*
X172610530Y-109741012D01*
X172913717Y-109819767D01*
X173118084Y-109874398D01*
X173211072Y-109901712D01*
X173266460Y-109919430D01*
X173411559Y-109919588D01*
X173587479Y-109838842D01*
X173706313Y-109776665D01*
X173934747Y-109675231D01*
X174178396Y-109582000D01*
X174193750Y-109576738D01*
X174403457Y-109512670D01*
X174685878Y-109435809D01*
X175013018Y-109352731D01*
X175356886Y-109270012D01*
X175518062Y-109233288D01*
X177907513Y-109233288D01*
X177911310Y-109243511D01*
X177966139Y-109334711D01*
X178072779Y-109496812D01*
X178214056Y-109705094D01*
X178372798Y-109934837D01*
X178531830Y-110161318D01*
X178673977Y-110359819D01*
X178782067Y-110505617D01*
X178838926Y-110573993D01*
X178912381Y-110659856D01*
X179001552Y-110803688D01*
X179071273Y-110928445D01*
X179236997Y-111188483D01*
X179433747Y-111465384D01*
X179641782Y-111734134D01*
X179841357Y-111969717D01*
X180012732Y-112147117D01*
X180136162Y-112241320D01*
X180269491Y-112280372D01*
X180506141Y-112324282D01*
X180819208Y-112369624D01*
X181182978Y-112413547D01*
X181571736Y-112453198D01*
X181959769Y-112485726D01*
X182321363Y-112508278D01*
X182630804Y-112518003D01*
X182918667Y-112520476D01*
X183237085Y-111994938D01*
X183427571Y-111677810D01*
X183651521Y-111298002D01*
X183855700Y-110944426D01*
X184030800Y-110633647D01*
X184167513Y-110382231D01*
X184256531Y-110206743D01*
X184288543Y-110123750D01*
X184286373Y-110114038D01*
X184248393Y-110083865D01*
X184155235Y-110051502D01*
X183996664Y-110015223D01*
X183762441Y-109973298D01*
X183442330Y-109924000D01*
X183026093Y-109865601D01*
X182503495Y-109796374D01*
X181864296Y-109714591D01*
X181699189Y-109693682D01*
X181219584Y-109632658D01*
X180746111Y-109572030D01*
X180308899Y-109515679D01*
X179938074Y-109467482D01*
X179663764Y-109431318D01*
X179422327Y-109401093D01*
X179156050Y-109374381D01*
X178985653Y-109365635D01*
X178917378Y-109373625D01*
X178957469Y-109397122D01*
X179112165Y-109434894D01*
X179387710Y-109485713D01*
X179494563Y-109511707D01*
X179634527Y-109605910D01*
X179669775Y-109763482D01*
X179604789Y-109994937D01*
X179578051Y-110056724D01*
X179508063Y-110168382D01*
X179406770Y-110214159D01*
X179226131Y-110222988D01*
X179013974Y-110204813D01*
X178808953Y-110114926D01*
X178684318Y-109936596D01*
X178624577Y-109655200D01*
X178606838Y-109525275D01*
X178566643Y-109367852D01*
X178521118Y-109297551D01*
X178427249Y-109278085D01*
X178268829Y-109255774D01*
X178098749Y-109237661D01*
X177962984Y-109228561D01*
X177907513Y-109233288D01*
X175518062Y-109233288D01*
X175689490Y-109194228D01*
X175982836Y-109131955D01*
X176208933Y-109089768D01*
X176339788Y-109074245D01*
X176409477Y-109071171D01*
X176447810Y-109048842D01*
X176365662Y-109004646D01*
X176162034Y-108938274D01*
X175835928Y-108849419D01*
X175386345Y-108737772D01*
X174812286Y-108603026D01*
X174609546Y-108556400D01*
X173556987Y-108314188D01*
X172620662Y-108098390D01*
X171793621Y-107907317D01*
X171068913Y-107739280D01*
X170439590Y-107592591D01*
X169898702Y-107465559D01*
X169439298Y-107356497D01*
X169054429Y-107263715D01*
X168737145Y-107185525D01*
X168480497Y-107120236D01*
X168277534Y-107066161D01*
X168121307Y-107021610D01*
X168004867Y-106984895D01*
X167921262Y-106954326D01*
X167863544Y-106928214D01*
X167824763Y-106904871D01*
X167809768Y-106894344D01*
X167672653Y-106810955D01*
X167581980Y-106776757D01*
X167581371Y-106776766D01*
X167494518Y-106814311D01*
X167332049Y-106913548D01*
X167116676Y-107057892D01*
X166871112Y-107230761D01*
X166618070Y-107415570D01*
X166380262Y-107595736D01*
X166180399Y-107754676D01*
X166041196Y-107875805D01*
X165985363Y-107942540D01*
X165983925Y-107951576D01*
X165811058Y-107951576D01*
X165762304Y-107879880D01*
X165644015Y-107684252D01*
X165643912Y-107684071D01*
X165513935Y-107396919D01*
X165445888Y-107114967D01*
X165444229Y-106886510D01*
X165535052Y-106886510D01*
X165542025Y-107083655D01*
X165558619Y-107212596D01*
X165601231Y-107394824D01*
X165651737Y-107498479D01*
X165665868Y-107510730D01*
X165700530Y-107509961D01*
X165706533Y-107420288D01*
X165686156Y-107223491D01*
X165675226Y-107146056D01*
X165633391Y-106941820D01*
X165589944Y-106824528D01*
X165554095Y-106803113D01*
X165535052Y-106886510D01*
X165444229Y-106886510D01*
X165444116Y-106870918D01*
X165500688Y-106728394D01*
X167728367Y-106728394D01*
X168015553Y-106852927D01*
X168169505Y-106907929D01*
X168444312Y-106989901D01*
X168822484Y-107093200D01*
X169292957Y-107215021D01*
X169844668Y-107352561D01*
X170466556Y-107503016D01*
X171147557Y-107663583D01*
X171876608Y-107831458D01*
X171963447Y-107851251D01*
X172366125Y-107943457D01*
X172847275Y-108054145D01*
X173370487Y-108174913D01*
X173899352Y-108297361D01*
X174397462Y-108413089D01*
X174634875Y-108468312D01*
X175076213Y-108570694D01*
X175488379Y-108665975D01*
X175847591Y-108748674D01*
X176130070Y-108813310D01*
X176312035Y-108854400D01*
X176346874Y-108861631D01*
X176588182Y-108898453D01*
X176911530Y-108933288D01*
X177278890Y-108962502D01*
X177652236Y-108982462D01*
X177706141Y-108984626D01*
X178094838Y-109003795D01*
X178482969Y-109028293D01*
X178828192Y-109055195D01*
X179088166Y-109081579D01*
X179093876Y-109082285D01*
X179424648Y-109121948D01*
X179800501Y-109165214D01*
X180141181Y-109202843D01*
X180181565Y-109207246D01*
X180520800Y-109248541D01*
X180922928Y-109303329D01*
X181360882Y-109367339D01*
X181807595Y-109436299D01*
X182235998Y-109505937D01*
X182619025Y-109571982D01*
X182929607Y-109630162D01*
X183140678Y-109676206D01*
X183145939Y-109677528D01*
X183392665Y-109727895D01*
X183699836Y-109775056D01*
X184002236Y-109808962D01*
X184512789Y-109852866D01*
X184592563Y-109592199D01*
X184606712Y-109543417D01*
X184653470Y-109336025D01*
X184672337Y-109170978D01*
X184688291Y-109065071D01*
X184736156Y-109010426D01*
X184764703Y-108970807D01*
X184790197Y-108833784D01*
X184799975Y-108631421D01*
X184799975Y-108252417D01*
X184496834Y-108214826D01*
X184419536Y-108204713D01*
X184140949Y-108163155D01*
X183874598Y-108117565D01*
X183711483Y-108090846D01*
X183423219Y-108053193D01*
X183140678Y-108025071D01*
X183105702Y-108022277D01*
X182548420Y-107969965D01*
X182070553Y-107909978D01*
X181688176Y-107844637D01*
X181417362Y-107776263D01*
X181300497Y-107745229D01*
X181051685Y-107697220D01*
X180745698Y-107651550D01*
X180424005Y-107614952D01*
X180189214Y-107590144D01*
X179904242Y-107552825D01*
X179677035Y-107514890D01*
X179542338Y-107481595D01*
X179362654Y-107435789D01*
X179151985Y-107414948D01*
X178955306Y-107396185D01*
X178757270Y-107346429D01*
X178751648Y-107344338D01*
X178593634Y-107301352D01*
X178359927Y-107254466D01*
X178098970Y-107213467D01*
X177827309Y-107176874D01*
X177506270Y-107133599D01*
X177237412Y-107097327D01*
X177123919Y-107081555D01*
X176843397Y-107040760D01*
X176513611Y-106991195D01*
X176184397Y-106940291D01*
X176169818Y-106938028D01*
X175836232Y-106896192D01*
X175427999Y-106859037D01*
X174995451Y-106830526D01*
X174588920Y-106814624D01*
X174322283Y-106806158D01*
X173604566Y-106754523D01*
X172966977Y-106664210D01*
X172854349Y-106638109D01*
X175414615Y-106638109D01*
X175592094Y-106675097D01*
X175604753Y-106677478D01*
X175726241Y-106697922D01*
X175957916Y-106735627D01*
X176287377Y-106788637D01*
X176702221Y-106854992D01*
X177190047Y-106932735D01*
X177738452Y-107019907D01*
X178335035Y-107114551D01*
X178967394Y-107214709D01*
X179623127Y-107318421D01*
X180289831Y-107423731D01*
X180955105Y-107528680D01*
X181606547Y-107631311D01*
X182231754Y-107729664D01*
X182818326Y-107821782D01*
X183353859Y-107905708D01*
X183825952Y-107979482D01*
X184222203Y-108041147D01*
X184530210Y-108088745D01*
X184737571Y-108120318D01*
X184831884Y-108133907D01*
X184869008Y-108135837D01*
X184918915Y-108114107D01*
X184948982Y-108038530D01*
X184966305Y-107884510D01*
X184975892Y-107673353D01*
X185182887Y-107673353D01*
X185183022Y-107910282D01*
X185198453Y-108066617D01*
X185251173Y-108163383D01*
X185363174Y-108221604D01*
X185556448Y-108262303D01*
X185852990Y-108306505D01*
X185892721Y-108312491D01*
X186145844Y-108352198D01*
X186478001Y-108406041D01*
X186850613Y-108467711D01*
X187225100Y-108530897D01*
X187434585Y-108566404D01*
X187875109Y-108640163D01*
X188368934Y-108721965D01*
X188869720Y-108804150D01*
X189331131Y-108879058D01*
X189564061Y-108916659D01*
X190072044Y-108998924D01*
X190606360Y-109085741D01*
X191116222Y-109168850D01*
X191550845Y-109239995D01*
X191800496Y-109279760D01*
X192119660Y-109326619D01*
X192378113Y-109359813D01*
X192554172Y-109376632D01*
X192626151Y-109374367D01*
X192643158Y-109325682D01*
X192636058Y-109182211D01*
X192597397Y-108997723D01*
X192537987Y-108819003D01*
X192468642Y-108692835D01*
X192432121Y-108659858D01*
X192311897Y-108597924D01*
X192110967Y-108531461D01*
X191814139Y-108455798D01*
X191406219Y-108366267D01*
X190449900Y-108166192D01*
X190175175Y-108469636D01*
X189900449Y-108773079D01*
X189385397Y-108730125D01*
X189347523Y-108726771D01*
X189069912Y-108691746D01*
X188819411Y-108644238D01*
X188646210Y-108593522D01*
X188615743Y-108581130D01*
X188447001Y-108523362D01*
X188329883Y-108499873D01*
X188312314Y-108498681D01*
X188162272Y-108434806D01*
X187974976Y-108290807D01*
X187777712Y-108090600D01*
X187597763Y-107858103D01*
X187495111Y-107720893D01*
X187360341Y-107578537D01*
X187257010Y-107511149D01*
X187236973Y-107506665D01*
X187097409Y-107478782D01*
X186867059Y-107435014D01*
X186572791Y-107380416D01*
X186241472Y-107320046D01*
X186132882Y-107300546D01*
X185816962Y-107245165D01*
X185550685Y-107200447D01*
X185359345Y-107170560D01*
X185268230Y-107159672D01*
X185244867Y-107166682D01*
X185208358Y-107236714D01*
X185188737Y-107396966D01*
X185182889Y-107665924D01*
X185182887Y-107673353D01*
X184975892Y-107673353D01*
X184977976Y-107627454D01*
X184980524Y-107550667D01*
X184983316Y-107316811D01*
X184970938Y-107176718D01*
X184938783Y-107103600D01*
X184882247Y-107070670D01*
X184855729Y-107063091D01*
X184686138Y-107023890D01*
X184401877Y-106966646D01*
X184001053Y-106891014D01*
X183481768Y-106796646D01*
X182842127Y-106683198D01*
X182080235Y-106550323D01*
X181194196Y-106397675D01*
X181019849Y-106367786D01*
X180381203Y-106258322D01*
X179849569Y-106167271D01*
X179409851Y-106092091D01*
X179046955Y-106030240D01*
X178745786Y-105979176D01*
X178491250Y-105936356D01*
X178268250Y-105899240D01*
X178061694Y-105865283D01*
X177856485Y-105831945D01*
X177637529Y-105796683D01*
X177389731Y-105756955D01*
X177356376Y-105751627D01*
X177047504Y-105703753D01*
X176783090Y-105665260D01*
X176590290Y-105639955D01*
X176496264Y-105631648D01*
X176428888Y-105668590D01*
X176306977Y-105784542D01*
X176166921Y-105951445D01*
X176056211Y-106085446D01*
X175855944Y-106293761D01*
X175670346Y-106452859D01*
X175414615Y-106638109D01*
X172854349Y-106638109D01*
X172420545Y-106537577D01*
X171976300Y-106376986D01*
X171645269Y-106184795D01*
X171509042Y-106064586D01*
X171309210Y-105850039D01*
X171134634Y-105624345D01*
X170892880Y-105269671D01*
X169693538Y-105126919D01*
X169315220Y-105081242D01*
X168958232Y-105036879D01*
X168657538Y-104998216D01*
X168436634Y-104968278D01*
X168319015Y-104950085D01*
X168259234Y-104940900D01*
X168149465Y-104964622D01*
X168079693Y-105084706D01*
X168066054Y-105120991D01*
X168032098Y-105229834D01*
X168023102Y-105333217D01*
X168043043Y-105462735D01*
X168095896Y-105649983D01*
X168185637Y-105926556D01*
X168199777Y-105969693D01*
X168281788Y-106250514D01*
X168305948Y-106439550D01*
X168265667Y-106559414D01*
X168154353Y-106632720D01*
X167965415Y-106682081D01*
X167728367Y-106728394D01*
X165500688Y-106728394D01*
X165512961Y-106697473D01*
X165515536Y-106694304D01*
X165531719Y-106635773D01*
X165461098Y-106583934D01*
X165284275Y-106524078D01*
X165069879Y-106450820D01*
X164949607Y-106365844D01*
X164915770Y-106261460D01*
X165213759Y-106261460D01*
X165275047Y-106316239D01*
X165441943Y-106358475D01*
X165462651Y-106362808D01*
X165590948Y-106373762D01*
X165592254Y-106372900D01*
X166807676Y-106372900D01*
X166815199Y-106526874D01*
X166829986Y-106585300D01*
X166839211Y-106583303D01*
X166930038Y-106539997D01*
X167072679Y-106457900D01*
X167275168Y-106372489D01*
X167584774Y-106330262D01*
X167680914Y-106328899D01*
X167821344Y-106308423D01*
X167879077Y-106243755D01*
X167865547Y-106110257D01*
X167792186Y-105883290D01*
X167771734Y-105818130D01*
X167718004Y-105558021D01*
X167696457Y-105300894D01*
X167695458Y-105235472D01*
X167671752Y-105051673D01*
X167616683Y-104990763D01*
X167446616Y-105037441D01*
X167233857Y-105184427D01*
X167023229Y-105413002D01*
X166926605Y-105550390D01*
X166858017Y-105696987D01*
X166823800Y-105874223D01*
X166809527Y-106130538D01*
X166808853Y-106155335D01*
X166807676Y-106372900D01*
X165592254Y-106372900D01*
X165672024Y-106320241D01*
X165752185Y-106174833D01*
X165807653Y-106086512D01*
X165953106Y-105909315D01*
X166152374Y-105699148D01*
X166379312Y-105484781D01*
X166553882Y-105328520D01*
X166739960Y-105160318D01*
X166872543Y-105038506D01*
X166930628Y-104982231D01*
X166981880Y-104941769D01*
X167115880Y-104851799D01*
X167297588Y-104737435D01*
X167454282Y-104632135D01*
X167598957Y-104492175D01*
X167621363Y-104382892D01*
X167520955Y-104305335D01*
X167460715Y-104276837D01*
X167324939Y-104179700D01*
X167259250Y-104134106D01*
X167083179Y-104117162D01*
X166870976Y-104202037D01*
X166641757Y-104383041D01*
X166622099Y-104402750D01*
X166484018Y-104552794D01*
X166301001Y-104764286D01*
X166091361Y-105014624D01*
X165873409Y-105281208D01*
X165665456Y-105541437D01*
X165485813Y-105772711D01*
X165352792Y-105952430D01*
X165284702Y-106057991D01*
X165238496Y-106156714D01*
X165213759Y-106261460D01*
X164915770Y-106261460D01*
X164908919Y-106240325D01*
X164924311Y-106042838D01*
X164959757Y-105826535D01*
X165001996Y-105662160D01*
X165050778Y-105589305D01*
X165114343Y-105588255D01*
X165127173Y-105591206D01*
X165222710Y-105545311D01*
X165332728Y-105408567D01*
X165346186Y-105387136D01*
X165493396Y-105173673D01*
X165691965Y-104908689D01*
X165911638Y-104630607D01*
X166122155Y-104377850D01*
X166293261Y-104188839D01*
X166334776Y-104143504D01*
X166441971Y-103991546D01*
X166485924Y-103869744D01*
X166499003Y-103767591D01*
X166582605Y-103633432D01*
X166757962Y-103545381D01*
X167041955Y-103491967D01*
X167222942Y-103463713D01*
X167467192Y-103405628D01*
X167647035Y-103339872D01*
X167652044Y-103337322D01*
X167785749Y-103253775D01*
X167837187Y-103154836D01*
X167835634Y-102985493D01*
X167842983Y-102789055D01*
X167899453Y-102682199D01*
X167939294Y-102663265D01*
X168005123Y-102652567D01*
X168107040Y-102655521D01*
G37*
%TD*%
M02*
