%TF.GenerationSoftware,KiCad,Pcbnew,9.0.5*%
%TF.CreationDate,2025-11-19T11:21:45-07:00*%
%TF.ProjectId,USlave,55536c61-7665-42e6-9b69-6361645f7063,rev?*%
%TF.SameCoordinates,Original*%
%TF.FileFunction,Copper,L1,Top*%
%TF.FilePolarity,Positive*%
%FSLAX46Y46*%
G04 Gerber Fmt 4.6, Leading zero omitted, Abs format (unit mm)*
G04 Created by KiCad (PCBNEW 9.0.5) date 2025-11-19 11:21:45*
%MOMM*%
%LPD*%
G01*
G04 APERTURE LIST*
G04 Aperture macros list*
%AMRoundRect*
0 Rectangle with rounded corners*
0 $1 Rounding radius*
0 $2 $3 $4 $5 $6 $7 $8 $9 X,Y pos of 4 corners*
0 Add a 4 corners polygon primitive as box body*
4,1,4,$2,$3,$4,$5,$6,$7,$8,$9,$2,$3,0*
0 Add four circle primitives for the rounded corners*
1,1,$1+$1,$2,$3*
1,1,$1+$1,$4,$5*
1,1,$1+$1,$6,$7*
1,1,$1+$1,$8,$9*
0 Add four rect primitives between the rounded corners*
20,1,$1+$1,$2,$3,$4,$5,0*
20,1,$1+$1,$4,$5,$6,$7,0*
20,1,$1+$1,$6,$7,$8,$9,0*
20,1,$1+$1,$8,$9,$2,$3,0*%
G04 Aperture macros list end*
%TA.AperFunction,SMDPad,CuDef*%
%ADD10RoundRect,0.250000X-0.337500X-0.475000X0.337500X-0.475000X0.337500X0.475000X-0.337500X0.475000X0*%
%TD*%
%TA.AperFunction,ComponentPad*%
%ADD11RoundRect,0.250000X-0.337500X-0.475000X0.337500X-0.475000X0.337500X0.475000X-0.337500X0.475000X0*%
%TD*%
%TA.AperFunction,ComponentPad*%
%ADD12RoundRect,0.476250X0.476250X0.476250X-0.476250X0.476250X-0.476250X-0.476250X0.476250X-0.476250X0*%
%TD*%
%TA.AperFunction,ComponentPad*%
%ADD13RoundRect,0.476250X-0.476250X-0.476250X0.476250X-0.476250X0.476250X0.476250X-0.476250X0.476250X0*%
%TD*%
%TA.AperFunction,ComponentPad*%
%ADD14R,2.921000X1.270000*%
%TD*%
%TA.AperFunction,SMDPad,CuDef*%
%ADD15R,1.651000X3.429000*%
%TD*%
%TA.AperFunction,SMDPad,CuDef*%
%ADD16RoundRect,0.100000X0.850000X0.100000X-0.850000X0.100000X-0.850000X-0.100000X0.850000X-0.100000X0*%
%TD*%
%TA.AperFunction,SMDPad,CuDef*%
%ADD17RoundRect,0.250000X0.450000X-0.325000X0.450000X0.325000X-0.450000X0.325000X-0.450000X-0.325000X0*%
%TD*%
%TA.AperFunction,SMDPad,CuDef*%
%ADD18RoundRect,0.250000X-0.325000X-0.450000X0.325000X-0.450000X0.325000X0.450000X-0.325000X0.450000X0*%
%TD*%
%TA.AperFunction,SMDPad,CuDef*%
%ADD19RoundRect,0.250000X0.337500X0.475000X-0.337500X0.475000X-0.337500X-0.475000X0.337500X-0.475000X0*%
%TD*%
%TA.AperFunction,SMDPad,CuDef*%
%ADD20RoundRect,0.250000X0.475000X-0.337500X0.475000X0.337500X-0.475000X0.337500X-0.475000X-0.337500X0*%
%TD*%
%TA.AperFunction,ComponentPad*%
%ADD21RoundRect,0.250000X0.475000X-0.337500X0.475000X0.337500X-0.475000X0.337500X-0.475000X-0.337500X0*%
%TD*%
%TA.AperFunction,ComponentPad*%
%ADD22C,1.574800*%
%TD*%
%TA.AperFunction,ComponentPad*%
%ADD23C,1.400000*%
%TD*%
%TA.AperFunction,ComponentPad*%
%ADD24C,1.700000*%
%TD*%
%TA.AperFunction,ComponentPad*%
%ADD25C,1.600000*%
%TD*%
%TA.AperFunction,ViaPad*%
%ADD26C,0.600000*%
%TD*%
%TA.AperFunction,Conductor*%
%ADD27C,0.500000*%
%TD*%
%TA.AperFunction,Conductor*%
%ADD28C,0.300000*%
%TD*%
%TA.AperFunction,Conductor*%
%ADD29C,0.762000*%
%TD*%
%TA.AperFunction,Conductor*%
%ADD30C,0.381000*%
%TD*%
G04 APERTURE END LIST*
D10*
%TO.P,R6,1*%
%TO.N,Net-(D2-K)*%
X199962500Y-73000000D03*
D11*
%TO.P,R6,2*%
%TO.N,GND*%
X202037500Y-73000000D03*
%TD*%
D12*
%TO.P,J3,1*%
%TO.N,Net-(D1-K)*%
X191080000Y-101000000D03*
%TO.P,J3,2*%
%TO.N,Net-(U1-V_{DD})*%
X188540000Y-101000000D03*
%TO.P,J3,3*%
%TO.N,GND*%
X186000000Y-101000000D03*
%TO.P,J3,4*%
%TO.N,Net-(U1-ICSPDAT{slash}RB7)*%
X183460000Y-101000000D03*
%TO.P,J3,5*%
%TO.N,Net-(U1-ICSPCLK{slash}RB6)*%
X180920000Y-101000000D03*
%TO.P,J3,6*%
%TO.N,unconnected-(J3-Pad6)*%
X178380000Y-101000000D03*
%TD*%
D13*
%TO.P,R2,1,COM*%
%TO.N,Net-(U1-V_{DD})*%
X210802999Y-79250000D03*
%TO.P,R2,2,R1*%
%TO.N,Net-(R2-R1)*%
X213342999Y-79250000D03*
%TO.P,R2,3,R2*%
%TO.N,Net-(R2-R2)*%
X215882999Y-79250000D03*
%TO.P,R2,4,R3*%
%TO.N,Net-(R2-R3)*%
X218422999Y-79250000D03*
%TO.P,R2,5,R4*%
%TO.N,Net-(R2-R4)*%
X220962999Y-79250000D03*
%TO.P,R2,6,R5*%
%TO.N,Net-(R2-R5)*%
X223502999Y-79250000D03*
%TO.P,R2,7,R6*%
%TO.N,Net-(R2-R6)*%
X226042999Y-79250000D03*
%TO.P,R2,8,R7*%
%TO.N,Net-(R2-R7)*%
X228582999Y-79250000D03*
%TO.P,R2,9,R8*%
%TO.N,Net-(R2-R8)*%
X231127441Y-79259999D03*
%TD*%
D14*
%TO.P,J9,1,1*%
%TO.N,Net-(R2-R8)*%
X222300000Y-60500001D03*
%TO.P,J9,2,2*%
%TO.N,Net-(R2-R7)*%
X222300000Y-63500000D03*
%TO.P,J9,3,3*%
%TO.N,Net-(R2-R6)*%
X222300000Y-66500000D03*
%TO.P,J9,4,4*%
%TO.N,Net-(R2-R5)*%
X222300000Y-69499999D03*
%TO.P,J9,5,5*%
%TO.N,Net-(U1-RC0)*%
X217670001Y-60500001D03*
%TO.P,J9,6,6*%
%TO.N,Net-(U1-RA7)*%
X217670001Y-63500000D03*
%TO.P,J9,7,7*%
%TO.N,Net-(U1-RA5)*%
X217670001Y-66500000D03*
%TO.P,J9,8,8*%
%TO.N,Net-(U1-RA4)*%
X217670001Y-69499999D03*
D15*
%TO.P,J9,9*%
%TO.N,N/C*%
X227770001Y-73385000D03*
%TO.P,J9,10*%
X227770001Y-56615000D03*
%TD*%
D16*
%TO.P,U1,1,RE3/~{MCLR}/V_{PP}*%
%TO.N,Net-(D1-K)*%
X188000000Y-81300000D03*
%TO.P,U1,2,RA0*%
%TO.N,Net-(U1-RA0)*%
X188000000Y-80650000D03*
%TO.P,U1,3,RA1*%
%TO.N,Net-(U1-RA1)*%
X188000000Y-80000000D03*
%TO.P,U1,4,RA2*%
%TO.N,Net-(U1-RA2)*%
X188000000Y-79350000D03*
%TO.P,U1,5,RA3*%
%TO.N,Net-(U1-RA3)*%
X188000000Y-78700000D03*
%TO.P,U1,6,RA4*%
%TO.N,Net-(U1-RA4)*%
X188000000Y-78050000D03*
%TO.P,U1,7,RA5*%
%TO.N,Net-(U1-RA5)*%
X188000000Y-77400000D03*
%TO.P,U1,8,V_{SS}*%
%TO.N,GND*%
X188000000Y-76750000D03*
%TO.P,U1,9,RA7*%
%TO.N,Net-(U1-RA7)*%
X188000000Y-76100000D03*
%TO.P,U1,10,RA6*%
%TO.N,Net-(U1-RA6)*%
X188000000Y-75450000D03*
%TO.P,U1,11,RC0*%
%TO.N,Net-(U1-RC0)*%
X188000000Y-74800000D03*
%TO.P,U1,12,RC1*%
%TO.N,Net-(D2-A)*%
X188000000Y-74150000D03*
%TO.P,U1,13,RC2*%
%TO.N,Net-(D3-A)*%
X188000000Y-73500000D03*
%TO.P,U1,14,RC3*%
%TO.N,Net-(U1-RC3)*%
X188000000Y-72850000D03*
%TO.P,U1,15,RC4*%
%TO.N,Net-(U1-RC4)*%
X181000000Y-72850000D03*
%TO.P,U1,16,RC5*%
%TO.N,Net-(U1-RC5)*%
X181000000Y-73500000D03*
%TO.P,U1,17,RC6*%
%TO.N,Net-(U1-RC6)*%
X181000000Y-74150000D03*
%TO.P,U1,18,RC7*%
%TO.N,Net-(U1-RC7)*%
X181000000Y-74800000D03*
%TO.P,U1,19,V_{SS}*%
%TO.N,GND*%
X181000000Y-75450000D03*
%TO.P,U1,20,V_{DD}*%
%TO.N,Net-(U1-V_{DD})*%
X181000000Y-76100000D03*
%TO.P,U1,21,RB0*%
%TO.N,Net-(U1-RB0)*%
X181000000Y-76750000D03*
%TO.P,U1,22,RB1*%
%TO.N,Net-(U1-RB1)*%
X181000000Y-77400000D03*
%TO.P,U1,23,RB2*%
%TO.N,Net-(U1-RB2)*%
X181000000Y-78050000D03*
%TO.P,U1,24,RB3*%
%TO.N,Net-(U1-RB3)*%
X181000000Y-78700000D03*
%TO.P,U1,25,RB4*%
%TO.N,Net-(U1-RB4)*%
X181000000Y-79350000D03*
%TO.P,U1,26,RB5*%
%TO.N,unconnected-(U1-RB5-Pad26)*%
X181000000Y-80000000D03*
%TO.P,U1,27,ICSPCLK/RB6*%
%TO.N,Net-(U1-ICSPCLK{slash}RB6)*%
X181000000Y-80650000D03*
%TO.P,U1,28,ICSPDAT/RB7*%
%TO.N,Net-(U1-ICSPDAT{slash}RB7)*%
X181000000Y-81300000D03*
%TD*%
D17*
%TO.P,D1,1,K*%
%TO.N,Net-(D1-K)*%
X192000000Y-84000000D03*
%TO.P,D1,2,A*%
%TO.N,Net-(D1-A)*%
X192000000Y-86032000D03*
%TD*%
D14*
%TO.P,J6,1,1*%
%TO.N,Net-(R3-R1)*%
X158192538Y-69366816D03*
%TO.P,J6,2,2*%
%TO.N,Net-(R3-R2)*%
X158192538Y-66366817D03*
%TO.P,J6,3,3*%
%TO.N,Net-(R3-R3)*%
X158192538Y-63366817D03*
%TO.P,J6,4,4*%
%TO.N,Net-(R3-R4)*%
X158192538Y-60366818D03*
%TO.P,J6,5,5*%
%TO.N,Net-(U1-RB0)*%
X162822537Y-69366816D03*
%TO.P,J6,6,6*%
%TO.N,Net-(U1-RC7)*%
X162822537Y-66366817D03*
%TO.P,J6,7,7*%
%TO.N,Net-(U1-RC6)*%
X162822537Y-63366817D03*
%TO.P,J6,8,8*%
%TO.N,Net-(U1-RC5)*%
X162822537Y-60366818D03*
D15*
%TO.P,J6,9*%
%TO.N,N/C*%
X152722537Y-56481817D03*
%TO.P,J6,10*%
X152722537Y-73251817D03*
%TD*%
D18*
%TO.P,D2,1,K*%
%TO.N,Net-(D2-K)*%
X196270000Y-72762000D03*
%TO.P,D2,2,A*%
%TO.N,Net-(D2-A)*%
X194238000Y-72762000D03*
%TD*%
D19*
%TO.P,R4,1*%
%TO.N,Net-(U1-V_{DD})*%
X190037500Y-69000000D03*
%TO.P,R4,2*%
%TO.N,Net-(U1-RC3)*%
X187962500Y-69000000D03*
%TD*%
D14*
%TO.P,J8,1,1*%
%TO.N,Net-(R2-R1)*%
X222042998Y-89000000D03*
%TO.P,J8,2,2*%
%TO.N,Net-(R2-R2)*%
X222042998Y-91999999D03*
%TO.P,J8,3,3*%
%TO.N,Net-(R2-R3)*%
X222042998Y-94999999D03*
%TO.P,J8,4,4*%
%TO.N,Net-(R2-R4)*%
X222042998Y-97999998D03*
%TO.P,J8,5,5*%
%TO.N,Net-(U1-RA3)*%
X217412999Y-89000000D03*
%TO.P,J8,6,6*%
%TO.N,Net-(U1-RA2)*%
X217412999Y-91999999D03*
%TO.P,J8,7,7*%
%TO.N,Net-(U1-RA1)*%
X217412999Y-94999999D03*
%TO.P,J8,8,8*%
%TO.N,Net-(U1-RA0)*%
X217412999Y-97999998D03*
D15*
%TO.P,J8,9*%
%TO.N,N/C*%
X227512999Y-101884999D03*
%TO.P,J8,10*%
X227512999Y-85114999D03*
%TD*%
D12*
%TO.P,J2,1*%
%TO.N,Net-(U1-RC3)*%
X185680000Y-66300000D03*
%TO.P,J2,2*%
%TO.N,Net-(U1-RC4)*%
X183140000Y-66300000D03*
%TD*%
D13*
%TO.P,TP1,1,1*%
%TO.N,GND*%
X201800000Y-107100000D03*
%TD*%
D14*
%TO.P,J7,1,1*%
%TO.N,Net-(R3-R8)*%
X158079539Y-97866815D03*
%TO.P,J7,2,2*%
%TO.N,Net-(R3-R7)*%
X158079539Y-94866816D03*
%TO.P,J7,3,3*%
%TO.N,Net-(R3-R6)*%
X158079539Y-91866816D03*
%TO.P,J7,4,4*%
%TO.N,Net-(R3-R5)*%
X158079539Y-88866817D03*
%TO.P,J7,5,5*%
%TO.N,Net-(U1-RB4)*%
X162709538Y-97866815D03*
%TO.P,J7,6,6*%
%TO.N,Net-(U1-RB3)*%
X162709538Y-94866816D03*
%TO.P,J7,7,7*%
%TO.N,Net-(U1-RB2)*%
X162709538Y-91866816D03*
%TO.P,J7,8,8*%
%TO.N,Net-(U1-RB1)*%
X162709538Y-88866817D03*
D15*
%TO.P,J7,9*%
%TO.N,N/C*%
X152609538Y-84981816D03*
%TO.P,J7,10*%
X152609538Y-101751816D03*
%TD*%
D20*
%TO.P,R1,1*%
%TO.N,Net-(R1-Pad1)*%
X196000000Y-97075000D03*
D21*
%TO.P,R1,2*%
%TO.N,Net-(D1-A)*%
X196000000Y-95000000D03*
%TD*%
D22*
%TO.P,J1,1*%
%TO.N,Net-(U1-V_{DD})*%
X210039600Y-105735700D03*
%TO.P,J1,2*%
%TO.N,GND*%
X210039600Y-102735701D03*
%TD*%
D23*
%TO.P,J5,1*%
%TO.N,GND*%
X197127401Y-58328877D03*
%TO.P,J5,2*%
%TO.N,Net-(U1-V_{DD})*%
X195857401Y-60868877D03*
%TO.P,J5,3*%
%TO.N,Net-(U1-RC4)*%
X194587401Y-58328877D03*
%TO.P,J5,4*%
%TO.N,Net-(U1-RC3)*%
X193317401Y-60868877D03*
%TD*%
D10*
%TO.P,R7,1*%
%TO.N,Net-(D3-K)*%
X199962500Y-70000000D03*
D11*
%TO.P,R7,2*%
%TO.N,GND*%
X202037500Y-70000000D03*
%TD*%
D23*
%TO.P,J4,1*%
%TO.N,GND*%
X179905000Y-58350000D03*
%TO.P,J4,2*%
%TO.N,Net-(U1-V_{DD})*%
X178635000Y-60890000D03*
%TO.P,J4,3*%
%TO.N,Net-(U1-RC4)*%
X177365000Y-58350000D03*
%TO.P,J4,4*%
%TO.N,Net-(U1-RC3)*%
X176095000Y-60890000D03*
%TD*%
D12*
%TO.P,R3,1,COM*%
%TO.N,Net-(U1-V_{DD})*%
X169600000Y-79100000D03*
%TO.P,R3,2,R1*%
%TO.N,Net-(R3-R1)*%
X167060000Y-79100000D03*
%TO.P,R3,3,R2*%
%TO.N,Net-(R3-R2)*%
X164520000Y-79100000D03*
%TO.P,R3,4,R3*%
%TO.N,Net-(R3-R3)*%
X161980000Y-79100000D03*
%TO.P,R3,5,R4*%
%TO.N,Net-(R3-R4)*%
X159440000Y-79100000D03*
%TO.P,R3,6,R5*%
%TO.N,Net-(R3-R5)*%
X156900000Y-79100000D03*
%TO.P,R3,7,R6*%
%TO.N,Net-(R3-R6)*%
X154360000Y-79100000D03*
%TO.P,R3,8,R7*%
%TO.N,Net-(R3-R7)*%
X151820000Y-79100000D03*
%TO.P,R3,9,R8*%
%TO.N,Net-(R3-R8)*%
X149275558Y-79090001D03*
%TD*%
D24*
%TO.P,SW1,1,1*%
%TO.N,GND*%
X182000000Y-93500000D03*
X182000000Y-87000000D03*
%TO.P,SW1,2,2*%
%TO.N,Net-(D1-A)*%
X186500000Y-93500000D03*
X186500000Y-87000000D03*
%TD*%
D11*
%TO.P,R5,1*%
%TO.N,Net-(U1-V_{DD})*%
X179000000Y-69000000D03*
D10*
%TO.P,R5,2*%
%TO.N,Net-(U1-RC4)*%
X181075000Y-69000000D03*
%TD*%
D13*
%TO.P,TP2,1,1*%
%TO.N,Net-(U1-RA6)*%
X196600000Y-77000000D03*
%TD*%
D18*
%TO.P,D3,1,K*%
%TO.N,Net-(D3-K)*%
X196270000Y-69762000D03*
%TO.P,D3,2,A*%
%TO.N,Net-(D3-A)*%
X194238000Y-69762000D03*
%TD*%
D25*
%TO.P,C1,1*%
%TO.N,Net-(D1-A)*%
X201000000Y-98000000D03*
%TO.P,C1,2*%
%TO.N,GND*%
X201000000Y-100500000D03*
%TD*%
D26*
%TO.N,GND*%
X185000000Y-76000000D03*
%TO.N,Net-(U1-V_{DD})*%
X183000000Y-77000000D03*
%TD*%
D27*
%TO.N,Net-(D1-A)*%
X187468000Y-86032000D02*
X192000000Y-86032000D01*
X198000000Y-95000000D02*
X196000000Y-95000000D01*
X186500000Y-87000000D02*
X187468000Y-86032000D01*
X186500000Y-93500000D02*
X186500000Y-87000000D01*
X201000000Y-98000000D02*
X198000000Y-95000000D01*
%TO.N,Net-(D1-K)*%
X195000000Y-86000000D02*
X193000000Y-84000000D01*
X195000000Y-91000000D02*
X195000000Y-86000000D01*
X191080000Y-101000000D02*
X191080000Y-94920000D01*
D28*
X188000000Y-81300000D02*
X190300000Y-81300000D01*
D27*
X191080000Y-94920000D02*
X195000000Y-91000000D01*
D28*
X192000000Y-83000000D02*
X192000000Y-84000000D01*
X190300000Y-81300000D02*
X192000000Y-83000000D01*
D27*
X193000000Y-84000000D02*
X192000000Y-84000000D01*
%TO.N,Net-(D2-K)*%
X199962500Y-73000000D02*
X196508000Y-73000000D01*
X196508000Y-73000000D02*
X196270000Y-72762000D01*
%TO.N,Net-(D3-K)*%
X196762000Y-69762000D02*
X196270000Y-69762000D01*
X199962500Y-70000000D02*
X197000000Y-70000000D01*
X197000000Y-70000000D02*
X196762000Y-69762000D01*
D28*
%TO.N,Net-(D3-A)*%
X189500000Y-73500000D02*
X193238000Y-69762000D01*
X193238000Y-69762000D02*
X194238000Y-69762000D01*
X188000000Y-73500000D02*
X189500000Y-73500000D01*
%TO.N,GND*%
X185750000Y-76750000D02*
X188000000Y-76750000D01*
X184450000Y-75450000D02*
X185000000Y-76000000D01*
X181000000Y-75450000D02*
X184450000Y-75450000D01*
X185000000Y-76000000D02*
X185750000Y-76750000D01*
D27*
%TO.N,Net-(U1-RC3)*%
X187886278Y-66300000D02*
X185680000Y-66300000D01*
D28*
X188000000Y-71620000D02*
X185680000Y-69300000D01*
D27*
X176095000Y-60890000D02*
X177484000Y-59501000D01*
D28*
X188000000Y-71620000D02*
X188000000Y-69037500D01*
D27*
X177484000Y-59501000D02*
X191861000Y-59501000D01*
D28*
X188000000Y-72850000D02*
X188000000Y-71620000D01*
X188000000Y-69037500D02*
X187962500Y-69000000D01*
D27*
X187962500Y-69000000D02*
X187962500Y-68582500D01*
X191861000Y-59501000D02*
X193600000Y-61240000D01*
D28*
X185680000Y-69300000D02*
X185680000Y-66300000D01*
D27*
X192946278Y-61240000D02*
X187886278Y-66300000D01*
D28*
%TO.N,Net-(U1-RC4)*%
X181000000Y-69075000D02*
X181075000Y-69000000D01*
D27*
X178715000Y-57000000D02*
X193170000Y-57000000D01*
X177365000Y-58350000D02*
X178715000Y-57000000D01*
X175650000Y-58350000D02*
X174000000Y-60000000D01*
X193170000Y-57000000D02*
X194870000Y-58700000D01*
D28*
X181000000Y-72850000D02*
X181000000Y-71447500D01*
D27*
X174000000Y-60000000D02*
X174000000Y-64000000D01*
D28*
X181000000Y-71447500D02*
X183140000Y-69307500D01*
D27*
X174000000Y-64000000D02*
X176300000Y-66300000D01*
D28*
X183140000Y-69307500D02*
X183140000Y-66300000D01*
X181000000Y-72850000D02*
X181000000Y-69075000D01*
D27*
X177365000Y-58350000D02*
X175650000Y-58350000D01*
X176300000Y-66300000D02*
X183140000Y-66300000D01*
D28*
%TO.N,Net-(U1-ICSPDAT{slash}RB7)*%
X183460000Y-99460000D02*
X178000000Y-94000000D01*
X181000000Y-83150000D02*
X181000000Y-81300000D01*
X178000000Y-94000000D02*
X178000000Y-86150000D01*
X183460000Y-101000000D02*
X183460000Y-99460000D01*
X178000000Y-86150000D02*
X181000000Y-83150000D01*
%TO.N,Net-(U1-ICSPCLK{slash}RB6)*%
X176000000Y-94000000D02*
X176000000Y-82000000D01*
X180920000Y-98920000D02*
X176000000Y-94000000D01*
X177350000Y-80650000D02*
X181000000Y-80650000D01*
X176000000Y-82000000D02*
X177350000Y-80650000D01*
X180920000Y-101000000D02*
X180920000Y-98920000D01*
D27*
%TO.N,Net-(R3-R2)*%
X158199539Y-71216817D02*
X156290903Y-71216817D01*
X164220000Y-77237278D02*
X158199539Y-71216817D01*
X154600539Y-67315817D02*
X155549539Y-66366817D01*
X155549539Y-66366817D02*
X158192538Y-66366817D01*
X154600539Y-69526453D02*
X154600539Y-67315817D01*
X156290903Y-71216817D02*
X154600539Y-69526453D01*
X164220000Y-79100000D02*
X164220000Y-77237278D01*
%TO.N,Net-(R3-R3)*%
X161680000Y-77597278D02*
X153899539Y-69816817D01*
X161680000Y-79100000D02*
X161680000Y-77597278D01*
X153899539Y-69816817D02*
X153899539Y-64616817D01*
X155149539Y-63366817D02*
X158192538Y-63366817D01*
X153899539Y-64616817D02*
X155149539Y-63366817D01*
%TO.N,Net-(R3-R4)*%
X155149538Y-60366818D02*
X158192538Y-60366818D01*
X153198539Y-70107181D02*
X153198539Y-62317817D01*
X153198539Y-62317817D02*
X155149538Y-60366818D01*
X159140000Y-79100000D02*
X159140000Y-76048642D01*
X159140000Y-76048642D02*
X153198539Y-70107181D01*
%TO.N,Net-(R3-R1)*%
X166760000Y-79100000D02*
X166760000Y-78341528D01*
X158192538Y-69774066D02*
X158192538Y-69366816D01*
%TO.N,Net-(R3-R8)*%
X154149537Y-97866815D02*
X158079539Y-97866815D01*
X148975558Y-92692836D02*
X154149537Y-97866815D01*
X148975558Y-79366357D02*
X148975558Y-92692836D01*
%TO.N,Net-(R3-R7)*%
X150899539Y-92616817D02*
X150899539Y-82616817D01*
X158079539Y-94866816D02*
X153149538Y-94866816D01*
X150899539Y-82616817D02*
X151520000Y-81996356D01*
X153149538Y-94866816D02*
X150899539Y-92616817D01*
X151520000Y-81996356D02*
X151520000Y-79376356D01*
%TO.N,Net-(R3-R6)*%
X154060000Y-79376356D02*
X154060000Y-89777278D01*
X154060000Y-89777278D02*
X156149538Y-91866816D01*
X156149538Y-91866816D02*
X158079539Y-91866816D01*
%TO.N,Net-(R3-R5)*%
X158079539Y-84896817D02*
X158079539Y-88866817D01*
X156600000Y-83417278D02*
X158079539Y-84896817D01*
X156600000Y-79376356D02*
X156600000Y-83417278D01*
%TO.N,Net-(R2-R2)*%
X215882999Y-81470000D02*
X220412999Y-86000000D01*
X224712999Y-91300000D02*
X224013000Y-91999999D01*
X223712999Y-86000000D02*
X224712999Y-87000000D01*
X224712999Y-87000000D02*
X224712999Y-91300000D01*
X215882999Y-79250000D02*
X215882999Y-81470000D01*
X220412999Y-86000000D02*
X223712999Y-86000000D01*
X224013000Y-91999999D02*
X222042998Y-91999999D01*
%TO.N,Net-(R2-R4)*%
X227412999Y-98000000D02*
X230412999Y-95000000D01*
X227412997Y-97999998D02*
X227412999Y-98000000D01*
X230412999Y-95000000D02*
X230412999Y-83000000D01*
X230412999Y-83000000D02*
X229412999Y-82000000D01*
X220962999Y-81550000D02*
X220962999Y-79250000D01*
X222042998Y-97999998D02*
X227412997Y-97999998D01*
X221412999Y-82000000D02*
X220962999Y-81550000D01*
X229412999Y-82000000D02*
X221412999Y-82000000D01*
%TO.N,Net-(R2-R3)*%
X220912999Y-85000000D02*
X218422999Y-82510000D01*
X225712999Y-86300000D02*
X224412999Y-85000000D01*
X224413000Y-94999999D02*
X225712999Y-93700000D01*
X225712999Y-93700000D02*
X225712999Y-86300000D01*
X222042998Y-94999999D02*
X224413000Y-94999999D01*
X224412999Y-85000000D02*
X220912999Y-85000000D01*
X218422999Y-82510000D02*
X218422999Y-79250000D01*
%TO.N,Net-(R2-R5)*%
X222412999Y-73000000D02*
X222412999Y-69612998D01*
X223502999Y-79250000D02*
X223502999Y-74090000D01*
X222412999Y-69612998D02*
X222300000Y-69499999D01*
X223502999Y-74090000D02*
X222412999Y-73000000D01*
%TO.N,Net-(R2-R8)*%
X228106500Y-60500001D02*
X222300000Y-60500001D01*
X231127441Y-79259999D02*
X231127441Y-63520942D01*
X231127441Y-63520942D02*
X228106500Y-60500001D01*
%TO.N,Net-(R2-R6)*%
X223912999Y-66500000D02*
X222300000Y-66500000D01*
X226042999Y-79250000D02*
X226042999Y-68630000D01*
X226042999Y-68630000D02*
X223912999Y-66500000D01*
%TO.N,Net-(R2-R7)*%
X228582999Y-79250000D02*
X228582999Y-76040000D01*
X229412999Y-75210000D02*
X229412999Y-66000000D01*
X228582999Y-76040000D02*
X229412999Y-75210000D01*
X226912999Y-63500000D02*
X222300000Y-63500000D01*
X229412999Y-66000000D02*
X226912999Y-63500000D01*
D28*
%TO.N,Net-(U1-RA6)*%
X194000000Y-77000000D02*
X192450000Y-75450000D01*
X192450000Y-75450000D02*
X188000000Y-75450000D01*
X196600000Y-77000000D02*
X194000000Y-77000000D01*
D29*
%TO.N,Net-(U1-V_{DD})*%
X190037500Y-66688778D02*
X190037500Y-69000000D01*
D30*
X181000000Y-76100000D02*
X182100000Y-76100000D01*
D29*
X195857401Y-60868877D02*
X190037500Y-66688778D01*
D30*
X182100000Y-76100000D02*
X183000000Y-77000000D01*
D28*
%TO.N,Net-(U1-RA1)*%
X205999999Y-94999999D02*
X217412999Y-94999999D01*
X191000000Y-80000000D02*
X205999999Y-94999999D01*
X188000000Y-80000000D02*
X191000000Y-80000000D01*
%TO.N,Net-(U1-RA0)*%
X188000000Y-80650000D02*
X190750000Y-80650000D01*
X190750000Y-80650000D02*
X208099998Y-97999998D01*
X208099998Y-97999998D02*
X217412999Y-97999998D01*
%TO.N,Net-(U1-RB0)*%
X171666816Y-69366816D02*
X162822537Y-69366816D01*
X181000000Y-76750000D02*
X179050000Y-76750000D01*
X179050000Y-76750000D02*
X171666816Y-69366816D01*
%TO.N,Net-(U1-RA5)*%
X192000000Y-77400000D02*
X195300000Y-80700000D01*
X214500000Y-66500000D02*
X217500000Y-66500000D01*
X200300000Y-80700000D02*
X214500000Y-66500000D01*
X195300000Y-80700000D02*
X200300000Y-80700000D01*
X188000000Y-77400000D02*
X192000000Y-77400000D01*
%TO.N,Net-(U1-RB4)*%
X175300000Y-88900000D02*
X166333185Y-97866815D01*
X181000000Y-79350000D02*
X177650000Y-79350000D01*
X166333185Y-97866815D02*
X162709538Y-97866815D01*
X175300000Y-81700000D02*
X175300000Y-88900000D01*
X177650000Y-79350000D02*
X175300000Y-81700000D01*
%TO.N,Net-(U1-RB2)*%
X170133184Y-91866816D02*
X162709538Y-91866816D01*
X173800000Y-88200000D02*
X170133184Y-91866816D01*
X173800000Y-81300000D02*
X173800000Y-88200000D01*
X181000000Y-78050000D02*
X177050000Y-78050000D01*
X177050000Y-78050000D02*
X173800000Y-81300000D01*
%TO.N,Net-(U1-RB3)*%
X174500000Y-81500000D02*
X174500000Y-88600000D01*
X181000000Y-78700000D02*
X177300000Y-78700000D01*
X177300000Y-78700000D02*
X174500000Y-81500000D01*
X168233184Y-94866816D02*
X162709538Y-94866816D01*
X174500000Y-88600000D02*
X168233184Y-94866816D01*
%TO.N,Net-(U1-RC5)*%
X179400000Y-73500000D02*
X166266818Y-60366818D01*
X166266818Y-60366818D02*
X162822537Y-60366818D01*
X181000000Y-73500000D02*
X179400000Y-73500000D01*
%TO.N,Net-(U1-RC6)*%
X179250000Y-74150000D02*
X168466817Y-63366817D01*
X168466817Y-63366817D02*
X162822537Y-63366817D01*
X181000000Y-74150000D02*
X179250000Y-74150000D01*
%TO.N,Net-(U1-RC7)*%
X181000000Y-74800000D02*
X179100000Y-74800000D01*
X179100000Y-74800000D02*
X170666817Y-66366817D01*
X170666817Y-66366817D02*
X162822537Y-66366817D01*
%TO.N,Net-(U1-RB1)*%
X181000000Y-77400000D02*
X176800000Y-77400000D01*
X176800000Y-77400000D02*
X173100000Y-81100000D01*
X173100000Y-87900000D02*
X172133183Y-88866817D01*
X173100000Y-81100000D02*
X173100000Y-87900000D01*
X172133183Y-88866817D02*
X162709538Y-88866817D01*
%TO.N,Net-(U1-RA2)*%
X188000000Y-79350000D02*
X191250000Y-79350000D01*
X203899999Y-91999999D02*
X217412999Y-91999999D01*
X191250000Y-79350000D02*
X203899999Y-91999999D01*
%TO.N,Net-(U1-RA4)*%
X191750000Y-78050000D02*
X196200000Y-82500000D01*
X201800000Y-82500000D02*
X214800001Y-69499999D01*
X188000000Y-78050000D02*
X191750000Y-78050000D01*
X214800001Y-69499999D02*
X217670001Y-69499999D01*
X196200000Y-82500000D02*
X201800000Y-82500000D01*
%TO.N,Net-(U1-RA3)*%
X217412999Y-89000000D02*
X201800000Y-89000000D01*
X191500000Y-78700000D02*
X188000000Y-78700000D01*
X201800000Y-89000000D02*
X191500000Y-78700000D01*
%TO.N,Net-(U1-RC0)*%
X213499999Y-60500001D02*
X217670001Y-60500001D01*
X188000000Y-74800000D02*
X202400000Y-74800000D01*
X210900000Y-63100000D02*
X213400000Y-60600000D01*
X202400000Y-74800000D02*
X210900000Y-66300000D01*
X213400000Y-60600000D02*
X213499999Y-60500001D01*
X210900000Y-66300000D02*
X210900000Y-63100000D01*
%TO.N,Net-(D2-A)*%
X191238000Y-72762000D02*
X194238000Y-72762000D01*
X188000000Y-74150000D02*
X189850000Y-74150000D01*
X189850000Y-74150000D02*
X191238000Y-72762000D01*
%TO.N,Net-(U1-RA7)*%
X191600000Y-76100000D02*
X194800000Y-79300000D01*
X194800000Y-79300000D02*
X198800000Y-79300000D01*
X214600000Y-63500000D02*
X217670001Y-63500000D01*
X198800000Y-79300000D02*
X214600000Y-63500000D01*
X188000000Y-76100000D02*
X191600000Y-76100000D01*
%TD*%
M02*
