M48
; DRILL file {KiCad 9.0.5} date 2025-11-19T11:21:49-0700
; FORMAT={-:-/ absolute / metric / decimal}
; #@! TF.CreationDate,2025-11-19T11:21:49-07:00
; #@! TF.GenerationSoftware,Kicad,Pcbnew,9.0.5
; #@! TF.FileFunction,Plated,1,2,PTH
FMAT,2
METRIC
; #@! TA.AperFunction,Plated,PTH,ViaDrill
T1C0.300
; #@! TA.AperFunction,Plated,PTH,ComponentDrill
T2C0.400
; #@! TA.AperFunction,Plated,PTH,ComponentDrill
T3C0.500
; #@! TA.AperFunction,Plated,PTH,ComponentDrill
T4C0.800
; #@! TA.AperFunction,Plated,PTH,ComponentDrill
T5C0.900
; #@! TA.AperFunction,Plated,PTH,ComponentDrill
T6C1.000
; #@! TA.AperFunction,Plated,PTH,ComponentDrill
T7C1.067
; #@! TA.AperFunction,Plated,PTH,ComponentDrill
T8C1.270
%
G90
G05
T1
X183.0Y-77.0
X185.0Y-76.0
T2
X196.0Y-95.0
T3
X158.08Y-88.867
X158.08Y-91.867
X158.08Y-94.867
X158.08Y-97.867
X158.193Y-60.367
X158.193Y-63.367
X158.193Y-66.367
X158.193Y-69.367
X162.71Y-88.867
X162.71Y-91.867
X162.71Y-94.867
X162.71Y-97.867
X162.823Y-60.367
X162.823Y-63.367
X162.823Y-66.367
X162.823Y-69.367
X179.0Y-69.0
X202.037Y-70.0
X202.037Y-73.0
X217.413Y-89.0
X217.413Y-92.0
X217.413Y-95.0
X217.413Y-98.0
X217.67Y-60.5
X217.67Y-63.5
X217.67Y-66.5
X217.67Y-69.5
X222.043Y-89.0
X222.043Y-92.0
X222.043Y-95.0
X222.043Y-98.0
X222.3Y-60.5
X222.3Y-63.5
X222.3Y-66.5
X222.3Y-69.5
T4
X201.0Y-98.0
X201.0Y-100.5
T5
X176.095Y-60.89
X177.365Y-58.35
X178.635Y-60.89
X179.905Y-58.35
X193.317Y-60.869
X194.587Y-58.329
X195.857Y-60.869
X197.127Y-58.329
T6
X182.0Y-87.0
X182.0Y-93.5
X186.5Y-87.0
X186.5Y-93.5
T7
X210.04Y-102.736
X210.04Y-105.736
T8
X149.276Y-79.09
X151.82Y-79.1
X154.36Y-79.1
X156.9Y-79.1
X159.44Y-79.1
X161.98Y-79.1
X164.52Y-79.1
X167.06Y-79.1
X169.6Y-79.1
X178.38Y-101.0
X180.92Y-101.0
X183.14Y-66.3
X183.46Y-101.0
X185.68Y-66.3
X186.0Y-101.0
X188.54Y-101.0
X191.08Y-101.0
X196.6Y-77.0
X201.8Y-107.1
X210.803Y-79.25
X213.343Y-79.25
X215.883Y-79.25
X218.423Y-79.25
X220.963Y-79.25
X223.503Y-79.25
X226.043Y-79.25
X228.583Y-79.25
X231.127Y-79.26
M30
