%TF.GenerationSoftware,KiCad,Pcbnew,9.0.5*%
%TF.CreationDate,2025-11-19T11:21:45-07:00*%
%TF.ProjectId,USlave,55536c61-7665-42e6-9b69-6361645f7063,rev?*%
%TF.SameCoordinates,Original*%
%TF.FileFunction,Soldermask,Bot*%
%TF.FilePolarity,Negative*%
%FSLAX46Y46*%
G04 Gerber Fmt 4.6, Leading zero omitted, Abs format (unit mm)*
G04 Created by KiCad (PCBNEW 9.0.5) date 2025-11-19 11:21:45*
%MOMM*%
%LPD*%
G01*
G04 APERTURE LIST*
G04 Aperture macros list*
%AMRoundRect*
0 Rectangle with rounded corners*
0 $1 Rounding radius*
0 $2 $3 $4 $5 $6 $7 $8 $9 X,Y pos of 4 corners*
0 Add a 4 corners polygon primitive as box body*
4,1,4,$2,$3,$4,$5,$6,$7,$8,$9,$2,$3,0*
0 Add four circle primitives for the rounded corners*
1,1,$1+$1,$2,$3*
1,1,$1+$1,$4,$5*
1,1,$1+$1,$6,$7*
1,1,$1+$1,$8,$9*
0 Add four rect primitives between the rounded corners*
20,1,$1+$1,$2,$3,$4,$5,0*
20,1,$1+$1,$4,$5,$6,$7,0*
20,1,$1+$1,$6,$7,$8,$9,0*
20,1,$1+$1,$8,$9,$2,$3,0*%
G04 Aperture macros list end*
%ADD10RoundRect,0.250000X-0.337500X-0.475000X0.337500X-0.475000X0.337500X0.475000X-0.337500X0.475000X0*%
%ADD11RoundRect,0.476250X0.476250X0.476250X-0.476250X0.476250X-0.476250X-0.476250X0.476250X-0.476250X0*%
%ADD12RoundRect,0.476250X-0.476250X-0.476250X0.476250X-0.476250X0.476250X0.476250X-0.476250X0.476250X0*%
%ADD13R,2.921000X1.270000*%
%ADD14C,3.200000*%
%ADD15RoundRect,0.250000X0.475000X-0.337500X0.475000X0.337500X-0.475000X0.337500X-0.475000X-0.337500X0*%
%ADD16C,1.574800*%
%ADD17C,1.400000*%
%ADD18C,1.700000*%
%ADD19C,1.600000*%
G04 APERTURE END LIST*
D10*
%TO.C,R6*%
X202037500Y-73000000D03*
%TD*%
D11*
%TO.C,J3*%
X191080000Y-101000000D03*
X188540000Y-101000000D03*
X186000000Y-101000000D03*
X183460000Y-101000000D03*
X180920000Y-101000000D03*
X178380000Y-101000000D03*
%TD*%
D12*
%TO.C,R2*%
X210802999Y-79250000D03*
X213342999Y-79250000D03*
X215882999Y-79250000D03*
X218422999Y-79250000D03*
X220962999Y-79250000D03*
X223502999Y-79250000D03*
X226042999Y-79250000D03*
X228582999Y-79250000D03*
X231127441Y-79259999D03*
%TD*%
D13*
%TO.C,J9*%
X222300000Y-60500001D03*
X222300000Y-63500000D03*
X222300000Y-66500000D03*
X222300000Y-69499999D03*
X217670001Y-60500001D03*
X217670001Y-63500000D03*
X217670001Y-66500000D03*
X217670001Y-69499999D03*
%TD*%
%TO.C,J6*%
X158192538Y-69366816D03*
X158192538Y-66366817D03*
X158192538Y-63366817D03*
X158192538Y-60366818D03*
X162822537Y-69366816D03*
X162822537Y-66366817D03*
X162822537Y-63366817D03*
X162822537Y-60366818D03*
%TD*%
D14*
%TO.C,REF\u002A\u002A*%
X152400000Y-47600000D03*
%TD*%
D13*
%TO.C,J8*%
X222042998Y-89000000D03*
X222042998Y-91999999D03*
X222042998Y-94999999D03*
X222042998Y-97999998D03*
X217412999Y-89000000D03*
X217412999Y-91999999D03*
X217412999Y-94999999D03*
X217412999Y-97999998D03*
%TD*%
D14*
%TO.C,REF\u002A\u002A*%
X228600000Y-47600000D03*
%TD*%
D11*
%TO.C,J2*%
X185680000Y-66300000D03*
X183140000Y-66300000D03*
%TD*%
D12*
%TO.C,TP1*%
X201800000Y-107100000D03*
%TD*%
D13*
%TO.C,J7*%
X158079539Y-97866815D03*
X158079539Y-94866816D03*
X158079539Y-91866816D03*
X158079539Y-88866817D03*
X162709538Y-97866815D03*
X162709538Y-94866816D03*
X162709538Y-91866816D03*
X162709538Y-88866817D03*
%TD*%
D15*
%TO.C,R1*%
X196000000Y-95000000D03*
%TD*%
D16*
%TO.C,J1*%
X210039600Y-105735700D03*
X210039600Y-102735701D03*
%TD*%
D14*
%TO.C,REF\u002A\u002A*%
X228600000Y-111200000D03*
%TD*%
%TO.C,J5*%
X200302401Y-51978877D03*
X190142401Y-51978877D03*
D17*
X197127401Y-58328877D03*
X195857401Y-60868877D03*
X194587401Y-58328877D03*
X193317401Y-60868877D03*
%TD*%
D10*
%TO.C,R7*%
X202037500Y-70000000D03*
%TD*%
D14*
%TO.C,J4*%
X183080000Y-52000000D03*
X172920000Y-52000000D03*
D17*
X179905000Y-58350000D03*
X178635000Y-60890000D03*
X177365000Y-58350000D03*
X176095000Y-60890000D03*
%TD*%
D11*
%TO.C,R3*%
X169600000Y-79100000D03*
X167060000Y-79100000D03*
X164520000Y-79100000D03*
X161980000Y-79100000D03*
X159440000Y-79100000D03*
X156900000Y-79100000D03*
X154360000Y-79100000D03*
X151820000Y-79100000D03*
X149275558Y-79090001D03*
%TD*%
D18*
%TO.C,SW1*%
X182000000Y-93500000D03*
X182000000Y-87000000D03*
X186500000Y-93500000D03*
X186500000Y-87000000D03*
%TD*%
D10*
%TO.C,R5*%
X179000000Y-69000000D03*
%TD*%
D12*
%TO.C,TP2*%
X196600000Y-77000000D03*
%TD*%
D19*
%TO.C,C1*%
X201000000Y-98000000D03*
X201000000Y-100500000D03*
%TD*%
D14*
%TO.C,REF\u002A\u002A*%
X152400000Y-111200000D03*
%TD*%
M02*
