%TF.GenerationSoftware,KiCad,Pcbnew,9.0.0*%
%TF.CreationDate,2025-04-04T10:54:07-06:00*%
%TF.ProjectId,Solenoid Breakout Board,536f6c65-6e6f-4696-9420-427265616b6f,rev?*%
%TF.SameCoordinates,Original*%
%TF.FileFunction,Legend,Bot*%
%TF.FilePolarity,Positive*%
%FSLAX46Y46*%
G04 Gerber Fmt 4.6, Leading zero omitted, Abs format (unit mm)*
G04 Created by KiCad (PCBNEW 9.0.0) date 2025-04-04 10:54:07*
%MOMM*%
%LPD*%
G01*
G04 APERTURE LIST*
%ADD10C,0.150000*%
%ADD11C,0.120000*%
G04 APERTURE END LIST*
D10*
X92170238Y-114605057D02*
X92265476Y-114557438D01*
X92265476Y-114557438D02*
X92360714Y-114462200D01*
X92360714Y-114462200D02*
X92503571Y-114319342D01*
X92503571Y-114319342D02*
X92598809Y-114271723D01*
X92598809Y-114271723D02*
X92694047Y-114271723D01*
X92646428Y-114509819D02*
X92741666Y-114462200D01*
X92741666Y-114462200D02*
X92836904Y-114366961D01*
X92836904Y-114366961D02*
X92884523Y-114176485D01*
X92884523Y-114176485D02*
X92884523Y-113843152D01*
X92884523Y-113843152D02*
X92836904Y-113652676D01*
X92836904Y-113652676D02*
X92741666Y-113557438D01*
X92741666Y-113557438D02*
X92646428Y-113509819D01*
X92646428Y-113509819D02*
X92455952Y-113509819D01*
X92455952Y-113509819D02*
X92360714Y-113557438D01*
X92360714Y-113557438D02*
X92265476Y-113652676D01*
X92265476Y-113652676D02*
X92217857Y-113843152D01*
X92217857Y-113843152D02*
X92217857Y-114176485D01*
X92217857Y-114176485D02*
X92265476Y-114366961D01*
X92265476Y-114366961D02*
X92360714Y-114462200D01*
X92360714Y-114462200D02*
X92455952Y-114509819D01*
X92455952Y-114509819D02*
X92646428Y-114509819D01*
X91313095Y-113509819D02*
X91789285Y-113509819D01*
X91789285Y-113509819D02*
X91836904Y-113986009D01*
X91836904Y-113986009D02*
X91789285Y-113938390D01*
X91789285Y-113938390D02*
X91694047Y-113890771D01*
X91694047Y-113890771D02*
X91455952Y-113890771D01*
X91455952Y-113890771D02*
X91360714Y-113938390D01*
X91360714Y-113938390D02*
X91313095Y-113986009D01*
X91313095Y-113986009D02*
X91265476Y-114081247D01*
X91265476Y-114081247D02*
X91265476Y-114319342D01*
X91265476Y-114319342D02*
X91313095Y-114414580D01*
X91313095Y-114414580D02*
X91360714Y-114462200D01*
X91360714Y-114462200D02*
X91455952Y-114509819D01*
X91455952Y-114509819D02*
X91694047Y-114509819D01*
X91694047Y-114509819D02*
X91789285Y-114462200D01*
X91789285Y-114462200D02*
X91836904Y-114414580D01*
X168846428Y-114605057D02*
X168941666Y-114557438D01*
X168941666Y-114557438D02*
X169036904Y-114462200D01*
X169036904Y-114462200D02*
X169179761Y-114319342D01*
X169179761Y-114319342D02*
X169274999Y-114271723D01*
X169274999Y-114271723D02*
X169370237Y-114271723D01*
X169322618Y-114509819D02*
X169417856Y-114462200D01*
X169417856Y-114462200D02*
X169513094Y-114366961D01*
X169513094Y-114366961D02*
X169560713Y-114176485D01*
X169560713Y-114176485D02*
X169560713Y-113843152D01*
X169560713Y-113843152D02*
X169513094Y-113652676D01*
X169513094Y-113652676D02*
X169417856Y-113557438D01*
X169417856Y-113557438D02*
X169322618Y-113509819D01*
X169322618Y-113509819D02*
X169132142Y-113509819D01*
X169132142Y-113509819D02*
X169036904Y-113557438D01*
X169036904Y-113557438D02*
X168941666Y-113652676D01*
X168941666Y-113652676D02*
X168894047Y-113843152D01*
X168894047Y-113843152D02*
X168894047Y-114176485D01*
X168894047Y-114176485D02*
X168941666Y-114366961D01*
X168941666Y-114366961D02*
X169036904Y-114462200D01*
X169036904Y-114462200D02*
X169132142Y-114509819D01*
X169132142Y-114509819D02*
X169322618Y-114509819D01*
X167941666Y-114509819D02*
X168513094Y-114509819D01*
X168227380Y-114509819D02*
X168227380Y-113509819D01*
X168227380Y-113509819D02*
X168322618Y-113652676D01*
X168322618Y-113652676D02*
X168417856Y-113747914D01*
X168417856Y-113747914D02*
X168513094Y-113795533D01*
X167084523Y-113843152D02*
X167084523Y-114509819D01*
X167322618Y-113462200D02*
X167560713Y-114176485D01*
X167560713Y-114176485D02*
X166941666Y-114176485D01*
X104235238Y-114605057D02*
X104330476Y-114557438D01*
X104330476Y-114557438D02*
X104425714Y-114462200D01*
X104425714Y-114462200D02*
X104568571Y-114319342D01*
X104568571Y-114319342D02*
X104663809Y-114271723D01*
X104663809Y-114271723D02*
X104759047Y-114271723D01*
X104711428Y-114509819D02*
X104806666Y-114462200D01*
X104806666Y-114462200D02*
X104901904Y-114366961D01*
X104901904Y-114366961D02*
X104949523Y-114176485D01*
X104949523Y-114176485D02*
X104949523Y-113843152D01*
X104949523Y-113843152D02*
X104901904Y-113652676D01*
X104901904Y-113652676D02*
X104806666Y-113557438D01*
X104806666Y-113557438D02*
X104711428Y-113509819D01*
X104711428Y-113509819D02*
X104520952Y-113509819D01*
X104520952Y-113509819D02*
X104425714Y-113557438D01*
X104425714Y-113557438D02*
X104330476Y-113652676D01*
X104330476Y-113652676D02*
X104282857Y-113843152D01*
X104282857Y-113843152D02*
X104282857Y-114176485D01*
X104282857Y-114176485D02*
X104330476Y-114366961D01*
X104330476Y-114366961D02*
X104425714Y-114462200D01*
X104425714Y-114462200D02*
X104520952Y-114509819D01*
X104520952Y-114509819D02*
X104711428Y-114509819D01*
X103949523Y-113509819D02*
X103282857Y-113509819D01*
X103282857Y-113509819D02*
X103711428Y-114509819D01*
X104870238Y-73815057D02*
X104965476Y-73767438D01*
X104965476Y-73767438D02*
X105060714Y-73672200D01*
X105060714Y-73672200D02*
X105203571Y-73529342D01*
X105203571Y-73529342D02*
X105298809Y-73481723D01*
X105298809Y-73481723D02*
X105394047Y-73481723D01*
X105346428Y-73719819D02*
X105441666Y-73672200D01*
X105441666Y-73672200D02*
X105536904Y-73576961D01*
X105536904Y-73576961D02*
X105584523Y-73386485D01*
X105584523Y-73386485D02*
X105584523Y-73053152D01*
X105584523Y-73053152D02*
X105536904Y-72862676D01*
X105536904Y-72862676D02*
X105441666Y-72767438D01*
X105441666Y-72767438D02*
X105346428Y-72719819D01*
X105346428Y-72719819D02*
X105155952Y-72719819D01*
X105155952Y-72719819D02*
X105060714Y-72767438D01*
X105060714Y-72767438D02*
X104965476Y-72862676D01*
X104965476Y-72862676D02*
X104917857Y-73053152D01*
X104917857Y-73053152D02*
X104917857Y-73386485D01*
X104917857Y-73386485D02*
X104965476Y-73576961D01*
X104965476Y-73576961D02*
X105060714Y-73672200D01*
X105060714Y-73672200D02*
X105155952Y-73719819D01*
X105155952Y-73719819D02*
X105346428Y-73719819D01*
X104346428Y-73148390D02*
X104441666Y-73100771D01*
X104441666Y-73100771D02*
X104489285Y-73053152D01*
X104489285Y-73053152D02*
X104536904Y-72957914D01*
X104536904Y-72957914D02*
X104536904Y-72910295D01*
X104536904Y-72910295D02*
X104489285Y-72815057D01*
X104489285Y-72815057D02*
X104441666Y-72767438D01*
X104441666Y-72767438D02*
X104346428Y-72719819D01*
X104346428Y-72719819D02*
X104155952Y-72719819D01*
X104155952Y-72719819D02*
X104060714Y-72767438D01*
X104060714Y-72767438D02*
X104013095Y-72815057D01*
X104013095Y-72815057D02*
X103965476Y-72910295D01*
X103965476Y-72910295D02*
X103965476Y-72957914D01*
X103965476Y-72957914D02*
X104013095Y-73053152D01*
X104013095Y-73053152D02*
X104060714Y-73100771D01*
X104060714Y-73100771D02*
X104155952Y-73148390D01*
X104155952Y-73148390D02*
X104346428Y-73148390D01*
X104346428Y-73148390D02*
X104441666Y-73196009D01*
X104441666Y-73196009D02*
X104489285Y-73243628D01*
X104489285Y-73243628D02*
X104536904Y-73338866D01*
X104536904Y-73338866D02*
X104536904Y-73529342D01*
X104536904Y-73529342D02*
X104489285Y-73624580D01*
X104489285Y-73624580D02*
X104441666Y-73672200D01*
X104441666Y-73672200D02*
X104346428Y-73719819D01*
X104346428Y-73719819D02*
X104155952Y-73719819D01*
X104155952Y-73719819D02*
X104060714Y-73672200D01*
X104060714Y-73672200D02*
X104013095Y-73624580D01*
X104013095Y-73624580D02*
X103965476Y-73529342D01*
X103965476Y-73529342D02*
X103965476Y-73338866D01*
X103965476Y-73338866D02*
X104013095Y-73243628D01*
X104013095Y-73243628D02*
X104060714Y-73196009D01*
X104060714Y-73196009D02*
X104155952Y-73148390D01*
X118046428Y-73815057D02*
X118141666Y-73767438D01*
X118141666Y-73767438D02*
X118236904Y-73672200D01*
X118236904Y-73672200D02*
X118379761Y-73529342D01*
X118379761Y-73529342D02*
X118474999Y-73481723D01*
X118474999Y-73481723D02*
X118570237Y-73481723D01*
X118522618Y-73719819D02*
X118617856Y-73672200D01*
X118617856Y-73672200D02*
X118713094Y-73576961D01*
X118713094Y-73576961D02*
X118760713Y-73386485D01*
X118760713Y-73386485D02*
X118760713Y-73053152D01*
X118760713Y-73053152D02*
X118713094Y-72862676D01*
X118713094Y-72862676D02*
X118617856Y-72767438D01*
X118617856Y-72767438D02*
X118522618Y-72719819D01*
X118522618Y-72719819D02*
X118332142Y-72719819D01*
X118332142Y-72719819D02*
X118236904Y-72767438D01*
X118236904Y-72767438D02*
X118141666Y-72862676D01*
X118141666Y-72862676D02*
X118094047Y-73053152D01*
X118094047Y-73053152D02*
X118094047Y-73386485D01*
X118094047Y-73386485D02*
X118141666Y-73576961D01*
X118141666Y-73576961D02*
X118236904Y-73672200D01*
X118236904Y-73672200D02*
X118332142Y-73719819D01*
X118332142Y-73719819D02*
X118522618Y-73719819D01*
X117141666Y-73719819D02*
X117713094Y-73719819D01*
X117427380Y-73719819D02*
X117427380Y-72719819D01*
X117427380Y-72719819D02*
X117522618Y-72862676D01*
X117522618Y-72862676D02*
X117617856Y-72957914D01*
X117617856Y-72957914D02*
X117713094Y-73005533D01*
X116189285Y-73719819D02*
X116760713Y-73719819D01*
X116474999Y-73719819D02*
X116474999Y-72719819D01*
X116474999Y-72719819D02*
X116570237Y-72862676D01*
X116570237Y-72862676D02*
X116665475Y-72957914D01*
X116665475Y-72957914D02*
X116760713Y-73005533D01*
X181546428Y-114605057D02*
X181641666Y-114557438D01*
X181641666Y-114557438D02*
X181736904Y-114462200D01*
X181736904Y-114462200D02*
X181879761Y-114319342D01*
X181879761Y-114319342D02*
X181974999Y-114271723D01*
X181974999Y-114271723D02*
X182070237Y-114271723D01*
X182022618Y-114509819D02*
X182117856Y-114462200D01*
X182117856Y-114462200D02*
X182213094Y-114366961D01*
X182213094Y-114366961D02*
X182260713Y-114176485D01*
X182260713Y-114176485D02*
X182260713Y-113843152D01*
X182260713Y-113843152D02*
X182213094Y-113652676D01*
X182213094Y-113652676D02*
X182117856Y-113557438D01*
X182117856Y-113557438D02*
X182022618Y-113509819D01*
X182022618Y-113509819D02*
X181832142Y-113509819D01*
X181832142Y-113509819D02*
X181736904Y-113557438D01*
X181736904Y-113557438D02*
X181641666Y-113652676D01*
X181641666Y-113652676D02*
X181594047Y-113843152D01*
X181594047Y-113843152D02*
X181594047Y-114176485D01*
X181594047Y-114176485D02*
X181641666Y-114366961D01*
X181641666Y-114366961D02*
X181736904Y-114462200D01*
X181736904Y-114462200D02*
X181832142Y-114509819D01*
X181832142Y-114509819D02*
X182022618Y-114509819D01*
X180641666Y-114509819D02*
X181213094Y-114509819D01*
X180927380Y-114509819D02*
X180927380Y-113509819D01*
X180927380Y-113509819D02*
X181022618Y-113652676D01*
X181022618Y-113652676D02*
X181117856Y-113747914D01*
X181117856Y-113747914D02*
X181213094Y-113795533D01*
X180165475Y-114509819D02*
X179974999Y-114509819D01*
X179974999Y-114509819D02*
X179879761Y-114462200D01*
X179879761Y-114462200D02*
X179832142Y-114414580D01*
X179832142Y-114414580D02*
X179736904Y-114271723D01*
X179736904Y-114271723D02*
X179689285Y-114081247D01*
X179689285Y-114081247D02*
X179689285Y-113700295D01*
X179689285Y-113700295D02*
X179736904Y-113605057D01*
X179736904Y-113605057D02*
X179784523Y-113557438D01*
X179784523Y-113557438D02*
X179879761Y-113509819D01*
X179879761Y-113509819D02*
X180070237Y-113509819D01*
X180070237Y-113509819D02*
X180165475Y-113557438D01*
X180165475Y-113557438D02*
X180213094Y-113605057D01*
X180213094Y-113605057D02*
X180260713Y-113700295D01*
X180260713Y-113700295D02*
X180260713Y-113938390D01*
X180260713Y-113938390D02*
X180213094Y-114033628D01*
X180213094Y-114033628D02*
X180165475Y-114081247D01*
X180165475Y-114081247D02*
X180070237Y-114128866D01*
X180070237Y-114128866D02*
X179879761Y-114128866D01*
X179879761Y-114128866D02*
X179784523Y-114081247D01*
X179784523Y-114081247D02*
X179736904Y-114033628D01*
X179736904Y-114033628D02*
X179689285Y-113938390D01*
X156146428Y-114605057D02*
X156241666Y-114557438D01*
X156241666Y-114557438D02*
X156336904Y-114462200D01*
X156336904Y-114462200D02*
X156479761Y-114319342D01*
X156479761Y-114319342D02*
X156574999Y-114271723D01*
X156574999Y-114271723D02*
X156670237Y-114271723D01*
X156622618Y-114509819D02*
X156717856Y-114462200D01*
X156717856Y-114462200D02*
X156813094Y-114366961D01*
X156813094Y-114366961D02*
X156860713Y-114176485D01*
X156860713Y-114176485D02*
X156860713Y-113843152D01*
X156860713Y-113843152D02*
X156813094Y-113652676D01*
X156813094Y-113652676D02*
X156717856Y-113557438D01*
X156717856Y-113557438D02*
X156622618Y-113509819D01*
X156622618Y-113509819D02*
X156432142Y-113509819D01*
X156432142Y-113509819D02*
X156336904Y-113557438D01*
X156336904Y-113557438D02*
X156241666Y-113652676D01*
X156241666Y-113652676D02*
X156194047Y-113843152D01*
X156194047Y-113843152D02*
X156194047Y-114176485D01*
X156194047Y-114176485D02*
X156241666Y-114366961D01*
X156241666Y-114366961D02*
X156336904Y-114462200D01*
X156336904Y-114462200D02*
X156432142Y-114509819D01*
X156432142Y-114509819D02*
X156622618Y-114509819D01*
X155241666Y-114509819D02*
X155813094Y-114509819D01*
X155527380Y-114509819D02*
X155527380Y-113509819D01*
X155527380Y-113509819D02*
X155622618Y-113652676D01*
X155622618Y-113652676D02*
X155717856Y-113747914D01*
X155717856Y-113747914D02*
X155813094Y-113795533D01*
X154336904Y-113509819D02*
X154813094Y-113509819D01*
X154813094Y-113509819D02*
X154860713Y-113986009D01*
X154860713Y-113986009D02*
X154813094Y-113938390D01*
X154813094Y-113938390D02*
X154717856Y-113890771D01*
X154717856Y-113890771D02*
X154479761Y-113890771D01*
X154479761Y-113890771D02*
X154384523Y-113938390D01*
X154384523Y-113938390D02*
X154336904Y-113986009D01*
X154336904Y-113986009D02*
X154289285Y-114081247D01*
X154289285Y-114081247D02*
X154289285Y-114319342D01*
X154289285Y-114319342D02*
X154336904Y-114414580D01*
X154336904Y-114414580D02*
X154384523Y-114462200D01*
X154384523Y-114462200D02*
X154479761Y-114509819D01*
X154479761Y-114509819D02*
X154717856Y-114509819D01*
X154717856Y-114509819D02*
X154813094Y-114462200D01*
X154813094Y-114462200D02*
X154860713Y-114414580D01*
X131381428Y-73815057D02*
X131476666Y-73767438D01*
X131476666Y-73767438D02*
X131571904Y-73672200D01*
X131571904Y-73672200D02*
X131714761Y-73529342D01*
X131714761Y-73529342D02*
X131809999Y-73481723D01*
X131809999Y-73481723D02*
X131905237Y-73481723D01*
X131857618Y-73719819D02*
X131952856Y-73672200D01*
X131952856Y-73672200D02*
X132048094Y-73576961D01*
X132048094Y-73576961D02*
X132095713Y-73386485D01*
X132095713Y-73386485D02*
X132095713Y-73053152D01*
X132095713Y-73053152D02*
X132048094Y-72862676D01*
X132048094Y-72862676D02*
X131952856Y-72767438D01*
X131952856Y-72767438D02*
X131857618Y-72719819D01*
X131857618Y-72719819D02*
X131667142Y-72719819D01*
X131667142Y-72719819D02*
X131571904Y-72767438D01*
X131571904Y-72767438D02*
X131476666Y-72862676D01*
X131476666Y-72862676D02*
X131429047Y-73053152D01*
X131429047Y-73053152D02*
X131429047Y-73386485D01*
X131429047Y-73386485D02*
X131476666Y-73576961D01*
X131476666Y-73576961D02*
X131571904Y-73672200D01*
X131571904Y-73672200D02*
X131667142Y-73719819D01*
X131667142Y-73719819D02*
X131857618Y-73719819D01*
X130476666Y-73719819D02*
X131048094Y-73719819D01*
X130762380Y-73719819D02*
X130762380Y-72719819D01*
X130762380Y-72719819D02*
X130857618Y-72862676D01*
X130857618Y-72862676D02*
X130952856Y-72957914D01*
X130952856Y-72957914D02*
X131048094Y-73005533D01*
X130143332Y-72719819D02*
X129524285Y-72719819D01*
X129524285Y-72719819D02*
X129857618Y-73100771D01*
X129857618Y-73100771D02*
X129714761Y-73100771D01*
X129714761Y-73100771D02*
X129619523Y-73148390D01*
X129619523Y-73148390D02*
X129571904Y-73196009D01*
X129571904Y-73196009D02*
X129524285Y-73291247D01*
X129524285Y-73291247D02*
X129524285Y-73529342D01*
X129524285Y-73529342D02*
X129571904Y-73624580D01*
X129571904Y-73624580D02*
X129619523Y-73672200D01*
X129619523Y-73672200D02*
X129714761Y-73719819D01*
X129714761Y-73719819D02*
X130000475Y-73719819D01*
X130000475Y-73719819D02*
X130095713Y-73672200D01*
X130095713Y-73672200D02*
X130143332Y-73624580D01*
X130746428Y-114605057D02*
X130841666Y-114557438D01*
X130841666Y-114557438D02*
X130936904Y-114462200D01*
X130936904Y-114462200D02*
X131079761Y-114319342D01*
X131079761Y-114319342D02*
X131174999Y-114271723D01*
X131174999Y-114271723D02*
X131270237Y-114271723D01*
X131222618Y-114509819D02*
X131317856Y-114462200D01*
X131317856Y-114462200D02*
X131413094Y-114366961D01*
X131413094Y-114366961D02*
X131460713Y-114176485D01*
X131460713Y-114176485D02*
X131460713Y-113843152D01*
X131460713Y-113843152D02*
X131413094Y-113652676D01*
X131413094Y-113652676D02*
X131317856Y-113557438D01*
X131317856Y-113557438D02*
X131222618Y-113509819D01*
X131222618Y-113509819D02*
X131032142Y-113509819D01*
X131032142Y-113509819D02*
X130936904Y-113557438D01*
X130936904Y-113557438D02*
X130841666Y-113652676D01*
X130841666Y-113652676D02*
X130794047Y-113843152D01*
X130794047Y-113843152D02*
X130794047Y-114176485D01*
X130794047Y-114176485D02*
X130841666Y-114366961D01*
X130841666Y-114366961D02*
X130936904Y-114462200D01*
X130936904Y-114462200D02*
X131032142Y-114509819D01*
X131032142Y-114509819D02*
X131222618Y-114509819D01*
X129841666Y-114509819D02*
X130413094Y-114509819D01*
X130127380Y-114509819D02*
X130127380Y-113509819D01*
X130127380Y-113509819D02*
X130222618Y-113652676D01*
X130222618Y-113652676D02*
X130317856Y-113747914D01*
X130317856Y-113747914D02*
X130413094Y-113795533D01*
X129460713Y-113605057D02*
X129413094Y-113557438D01*
X129413094Y-113557438D02*
X129317856Y-113509819D01*
X129317856Y-113509819D02*
X129079761Y-113509819D01*
X129079761Y-113509819D02*
X128984523Y-113557438D01*
X128984523Y-113557438D02*
X128936904Y-113605057D01*
X128936904Y-113605057D02*
X128889285Y-113700295D01*
X128889285Y-113700295D02*
X128889285Y-113795533D01*
X128889285Y-113795533D02*
X128936904Y-113938390D01*
X128936904Y-113938390D02*
X129508332Y-114509819D01*
X129508332Y-114509819D02*
X128889285Y-114509819D01*
X181546428Y-73965057D02*
X181641666Y-73917438D01*
X181641666Y-73917438D02*
X181736904Y-73822200D01*
X181736904Y-73822200D02*
X181879761Y-73679342D01*
X181879761Y-73679342D02*
X181974999Y-73631723D01*
X181974999Y-73631723D02*
X182070237Y-73631723D01*
X182022618Y-73869819D02*
X182117856Y-73822200D01*
X182117856Y-73822200D02*
X182213094Y-73726961D01*
X182213094Y-73726961D02*
X182260713Y-73536485D01*
X182260713Y-73536485D02*
X182260713Y-73203152D01*
X182260713Y-73203152D02*
X182213094Y-73012676D01*
X182213094Y-73012676D02*
X182117856Y-72917438D01*
X182117856Y-72917438D02*
X182022618Y-72869819D01*
X182022618Y-72869819D02*
X181832142Y-72869819D01*
X181832142Y-72869819D02*
X181736904Y-72917438D01*
X181736904Y-72917438D02*
X181641666Y-73012676D01*
X181641666Y-73012676D02*
X181594047Y-73203152D01*
X181594047Y-73203152D02*
X181594047Y-73536485D01*
X181594047Y-73536485D02*
X181641666Y-73726961D01*
X181641666Y-73726961D02*
X181736904Y-73822200D01*
X181736904Y-73822200D02*
X181832142Y-73869819D01*
X181832142Y-73869819D02*
X182022618Y-73869819D01*
X181213094Y-72965057D02*
X181165475Y-72917438D01*
X181165475Y-72917438D02*
X181070237Y-72869819D01*
X181070237Y-72869819D02*
X180832142Y-72869819D01*
X180832142Y-72869819D02*
X180736904Y-72917438D01*
X180736904Y-72917438D02*
X180689285Y-72965057D01*
X180689285Y-72965057D02*
X180641666Y-73060295D01*
X180641666Y-73060295D02*
X180641666Y-73155533D01*
X180641666Y-73155533D02*
X180689285Y-73298390D01*
X180689285Y-73298390D02*
X181260713Y-73869819D01*
X181260713Y-73869819D02*
X180641666Y-73869819D01*
X180022618Y-72869819D02*
X179927380Y-72869819D01*
X179927380Y-72869819D02*
X179832142Y-72917438D01*
X179832142Y-72917438D02*
X179784523Y-72965057D01*
X179784523Y-72965057D02*
X179736904Y-73060295D01*
X179736904Y-73060295D02*
X179689285Y-73250771D01*
X179689285Y-73250771D02*
X179689285Y-73488866D01*
X179689285Y-73488866D02*
X179736904Y-73679342D01*
X179736904Y-73679342D02*
X179784523Y-73774580D01*
X179784523Y-73774580D02*
X179832142Y-73822200D01*
X179832142Y-73822200D02*
X179927380Y-73869819D01*
X179927380Y-73869819D02*
X180022618Y-73869819D01*
X180022618Y-73869819D02*
X180117856Y-73822200D01*
X180117856Y-73822200D02*
X180165475Y-73774580D01*
X180165475Y-73774580D02*
X180213094Y-73679342D01*
X180213094Y-73679342D02*
X180260713Y-73488866D01*
X180260713Y-73488866D02*
X180260713Y-73250771D01*
X180260713Y-73250771D02*
X180213094Y-73060295D01*
X180213094Y-73060295D02*
X180165475Y-72965057D01*
X180165475Y-72965057D02*
X180117856Y-72917438D01*
X180117856Y-72917438D02*
X180022618Y-72869819D01*
X156146428Y-73965057D02*
X156241666Y-73917438D01*
X156241666Y-73917438D02*
X156336904Y-73822200D01*
X156336904Y-73822200D02*
X156479761Y-73679342D01*
X156479761Y-73679342D02*
X156574999Y-73631723D01*
X156574999Y-73631723D02*
X156670237Y-73631723D01*
X156622618Y-73869819D02*
X156717856Y-73822200D01*
X156717856Y-73822200D02*
X156813094Y-73726961D01*
X156813094Y-73726961D02*
X156860713Y-73536485D01*
X156860713Y-73536485D02*
X156860713Y-73203152D01*
X156860713Y-73203152D02*
X156813094Y-73012676D01*
X156813094Y-73012676D02*
X156717856Y-72917438D01*
X156717856Y-72917438D02*
X156622618Y-72869819D01*
X156622618Y-72869819D02*
X156432142Y-72869819D01*
X156432142Y-72869819D02*
X156336904Y-72917438D01*
X156336904Y-72917438D02*
X156241666Y-73012676D01*
X156241666Y-73012676D02*
X156194047Y-73203152D01*
X156194047Y-73203152D02*
X156194047Y-73536485D01*
X156194047Y-73536485D02*
X156241666Y-73726961D01*
X156241666Y-73726961D02*
X156336904Y-73822200D01*
X156336904Y-73822200D02*
X156432142Y-73869819D01*
X156432142Y-73869819D02*
X156622618Y-73869819D01*
X155241666Y-73869819D02*
X155813094Y-73869819D01*
X155527380Y-73869819D02*
X155527380Y-72869819D01*
X155527380Y-72869819D02*
X155622618Y-73012676D01*
X155622618Y-73012676D02*
X155717856Y-73107914D01*
X155717856Y-73107914D02*
X155813094Y-73155533D01*
X154384523Y-72869819D02*
X154574999Y-72869819D01*
X154574999Y-72869819D02*
X154670237Y-72917438D01*
X154670237Y-72917438D02*
X154717856Y-72965057D01*
X154717856Y-72965057D02*
X154813094Y-73107914D01*
X154813094Y-73107914D02*
X154860713Y-73298390D01*
X154860713Y-73298390D02*
X154860713Y-73679342D01*
X154860713Y-73679342D02*
X154813094Y-73774580D01*
X154813094Y-73774580D02*
X154765475Y-73822200D01*
X154765475Y-73822200D02*
X154670237Y-73869819D01*
X154670237Y-73869819D02*
X154479761Y-73869819D01*
X154479761Y-73869819D02*
X154384523Y-73822200D01*
X154384523Y-73822200D02*
X154336904Y-73774580D01*
X154336904Y-73774580D02*
X154289285Y-73679342D01*
X154289285Y-73679342D02*
X154289285Y-73441247D01*
X154289285Y-73441247D02*
X154336904Y-73346009D01*
X154336904Y-73346009D02*
X154384523Y-73298390D01*
X154384523Y-73298390D02*
X154479761Y-73250771D01*
X154479761Y-73250771D02*
X154670237Y-73250771D01*
X154670237Y-73250771D02*
X154765475Y-73298390D01*
X154765475Y-73298390D02*
X154813094Y-73346009D01*
X154813094Y-73346009D02*
X154860713Y-73441247D01*
X116935238Y-114605057D02*
X117030476Y-114557438D01*
X117030476Y-114557438D02*
X117125714Y-114462200D01*
X117125714Y-114462200D02*
X117268571Y-114319342D01*
X117268571Y-114319342D02*
X117363809Y-114271723D01*
X117363809Y-114271723D02*
X117459047Y-114271723D01*
X117411428Y-114509819D02*
X117506666Y-114462200D01*
X117506666Y-114462200D02*
X117601904Y-114366961D01*
X117601904Y-114366961D02*
X117649523Y-114176485D01*
X117649523Y-114176485D02*
X117649523Y-113843152D01*
X117649523Y-113843152D02*
X117601904Y-113652676D01*
X117601904Y-113652676D02*
X117506666Y-113557438D01*
X117506666Y-113557438D02*
X117411428Y-113509819D01*
X117411428Y-113509819D02*
X117220952Y-113509819D01*
X117220952Y-113509819D02*
X117125714Y-113557438D01*
X117125714Y-113557438D02*
X117030476Y-113652676D01*
X117030476Y-113652676D02*
X116982857Y-113843152D01*
X116982857Y-113843152D02*
X116982857Y-114176485D01*
X116982857Y-114176485D02*
X117030476Y-114366961D01*
X117030476Y-114366961D02*
X117125714Y-114462200D01*
X117125714Y-114462200D02*
X117220952Y-114509819D01*
X117220952Y-114509819D02*
X117411428Y-114509819D01*
X116506666Y-114509819D02*
X116316190Y-114509819D01*
X116316190Y-114509819D02*
X116220952Y-114462200D01*
X116220952Y-114462200D02*
X116173333Y-114414580D01*
X116173333Y-114414580D02*
X116078095Y-114271723D01*
X116078095Y-114271723D02*
X116030476Y-114081247D01*
X116030476Y-114081247D02*
X116030476Y-113700295D01*
X116030476Y-113700295D02*
X116078095Y-113605057D01*
X116078095Y-113605057D02*
X116125714Y-113557438D01*
X116125714Y-113557438D02*
X116220952Y-113509819D01*
X116220952Y-113509819D02*
X116411428Y-113509819D01*
X116411428Y-113509819D02*
X116506666Y-113557438D01*
X116506666Y-113557438D02*
X116554285Y-113605057D01*
X116554285Y-113605057D02*
X116601904Y-113700295D01*
X116601904Y-113700295D02*
X116601904Y-113938390D01*
X116601904Y-113938390D02*
X116554285Y-114033628D01*
X116554285Y-114033628D02*
X116506666Y-114081247D01*
X116506666Y-114081247D02*
X116411428Y-114128866D01*
X116411428Y-114128866D02*
X116220952Y-114128866D01*
X116220952Y-114128866D02*
X116125714Y-114081247D01*
X116125714Y-114081247D02*
X116078095Y-114033628D01*
X116078095Y-114033628D02*
X116030476Y-113938390D01*
X92170238Y-73965057D02*
X92265476Y-73917438D01*
X92265476Y-73917438D02*
X92360714Y-73822200D01*
X92360714Y-73822200D02*
X92503571Y-73679342D01*
X92503571Y-73679342D02*
X92598809Y-73631723D01*
X92598809Y-73631723D02*
X92694047Y-73631723D01*
X92646428Y-73869819D02*
X92741666Y-73822200D01*
X92741666Y-73822200D02*
X92836904Y-73726961D01*
X92836904Y-73726961D02*
X92884523Y-73536485D01*
X92884523Y-73536485D02*
X92884523Y-73203152D01*
X92884523Y-73203152D02*
X92836904Y-73012676D01*
X92836904Y-73012676D02*
X92741666Y-72917438D01*
X92741666Y-72917438D02*
X92646428Y-72869819D01*
X92646428Y-72869819D02*
X92455952Y-72869819D01*
X92455952Y-72869819D02*
X92360714Y-72917438D01*
X92360714Y-72917438D02*
X92265476Y-73012676D01*
X92265476Y-73012676D02*
X92217857Y-73203152D01*
X92217857Y-73203152D02*
X92217857Y-73536485D01*
X92217857Y-73536485D02*
X92265476Y-73726961D01*
X92265476Y-73726961D02*
X92360714Y-73822200D01*
X92360714Y-73822200D02*
X92455952Y-73869819D01*
X92455952Y-73869819D02*
X92646428Y-73869819D01*
X91360714Y-72869819D02*
X91551190Y-72869819D01*
X91551190Y-72869819D02*
X91646428Y-72917438D01*
X91646428Y-72917438D02*
X91694047Y-72965057D01*
X91694047Y-72965057D02*
X91789285Y-73107914D01*
X91789285Y-73107914D02*
X91836904Y-73298390D01*
X91836904Y-73298390D02*
X91836904Y-73679342D01*
X91836904Y-73679342D02*
X91789285Y-73774580D01*
X91789285Y-73774580D02*
X91741666Y-73822200D01*
X91741666Y-73822200D02*
X91646428Y-73869819D01*
X91646428Y-73869819D02*
X91455952Y-73869819D01*
X91455952Y-73869819D02*
X91360714Y-73822200D01*
X91360714Y-73822200D02*
X91313095Y-73774580D01*
X91313095Y-73774580D02*
X91265476Y-73679342D01*
X91265476Y-73679342D02*
X91265476Y-73441247D01*
X91265476Y-73441247D02*
X91313095Y-73346009D01*
X91313095Y-73346009D02*
X91360714Y-73298390D01*
X91360714Y-73298390D02*
X91455952Y-73250771D01*
X91455952Y-73250771D02*
X91646428Y-73250771D01*
X91646428Y-73250771D02*
X91741666Y-73298390D01*
X91741666Y-73298390D02*
X91789285Y-73346009D01*
X91789285Y-73346009D02*
X91836904Y-73441247D01*
X67405238Y-73965057D02*
X67500476Y-73917438D01*
X67500476Y-73917438D02*
X67595714Y-73822200D01*
X67595714Y-73822200D02*
X67738571Y-73679342D01*
X67738571Y-73679342D02*
X67833809Y-73631723D01*
X67833809Y-73631723D02*
X67929047Y-73631723D01*
X67881428Y-73869819D02*
X67976666Y-73822200D01*
X67976666Y-73822200D02*
X68071904Y-73726961D01*
X68071904Y-73726961D02*
X68119523Y-73536485D01*
X68119523Y-73536485D02*
X68119523Y-73203152D01*
X68119523Y-73203152D02*
X68071904Y-73012676D01*
X68071904Y-73012676D02*
X67976666Y-72917438D01*
X67976666Y-72917438D02*
X67881428Y-72869819D01*
X67881428Y-72869819D02*
X67690952Y-72869819D01*
X67690952Y-72869819D02*
X67595714Y-72917438D01*
X67595714Y-72917438D02*
X67500476Y-73012676D01*
X67500476Y-73012676D02*
X67452857Y-73203152D01*
X67452857Y-73203152D02*
X67452857Y-73536485D01*
X67452857Y-73536485D02*
X67500476Y-73726961D01*
X67500476Y-73726961D02*
X67595714Y-73822200D01*
X67595714Y-73822200D02*
X67690952Y-73869819D01*
X67690952Y-73869819D02*
X67881428Y-73869819D01*
X67071904Y-72965057D02*
X67024285Y-72917438D01*
X67024285Y-72917438D02*
X66929047Y-72869819D01*
X66929047Y-72869819D02*
X66690952Y-72869819D01*
X66690952Y-72869819D02*
X66595714Y-72917438D01*
X66595714Y-72917438D02*
X66548095Y-72965057D01*
X66548095Y-72965057D02*
X66500476Y-73060295D01*
X66500476Y-73060295D02*
X66500476Y-73155533D01*
X66500476Y-73155533D02*
X66548095Y-73298390D01*
X66548095Y-73298390D02*
X67119523Y-73869819D01*
X67119523Y-73869819D02*
X66500476Y-73869819D01*
X79470238Y-114605057D02*
X79565476Y-114557438D01*
X79565476Y-114557438D02*
X79660714Y-114462200D01*
X79660714Y-114462200D02*
X79803571Y-114319342D01*
X79803571Y-114319342D02*
X79898809Y-114271723D01*
X79898809Y-114271723D02*
X79994047Y-114271723D01*
X79946428Y-114509819D02*
X80041666Y-114462200D01*
X80041666Y-114462200D02*
X80136904Y-114366961D01*
X80136904Y-114366961D02*
X80184523Y-114176485D01*
X80184523Y-114176485D02*
X80184523Y-113843152D01*
X80184523Y-113843152D02*
X80136904Y-113652676D01*
X80136904Y-113652676D02*
X80041666Y-113557438D01*
X80041666Y-113557438D02*
X79946428Y-113509819D01*
X79946428Y-113509819D02*
X79755952Y-113509819D01*
X79755952Y-113509819D02*
X79660714Y-113557438D01*
X79660714Y-113557438D02*
X79565476Y-113652676D01*
X79565476Y-113652676D02*
X79517857Y-113843152D01*
X79517857Y-113843152D02*
X79517857Y-114176485D01*
X79517857Y-114176485D02*
X79565476Y-114366961D01*
X79565476Y-114366961D02*
X79660714Y-114462200D01*
X79660714Y-114462200D02*
X79755952Y-114509819D01*
X79755952Y-114509819D02*
X79946428Y-114509819D01*
X79184523Y-113509819D02*
X78565476Y-113509819D01*
X78565476Y-113509819D02*
X78898809Y-113890771D01*
X78898809Y-113890771D02*
X78755952Y-113890771D01*
X78755952Y-113890771D02*
X78660714Y-113938390D01*
X78660714Y-113938390D02*
X78613095Y-113986009D01*
X78613095Y-113986009D02*
X78565476Y-114081247D01*
X78565476Y-114081247D02*
X78565476Y-114319342D01*
X78565476Y-114319342D02*
X78613095Y-114414580D01*
X78613095Y-114414580D02*
X78660714Y-114462200D01*
X78660714Y-114462200D02*
X78755952Y-114509819D01*
X78755952Y-114509819D02*
X79041666Y-114509819D01*
X79041666Y-114509819D02*
X79136904Y-114462200D01*
X79136904Y-114462200D02*
X79184523Y-114414580D01*
X144081428Y-73965057D02*
X144176666Y-73917438D01*
X144176666Y-73917438D02*
X144271904Y-73822200D01*
X144271904Y-73822200D02*
X144414761Y-73679342D01*
X144414761Y-73679342D02*
X144509999Y-73631723D01*
X144509999Y-73631723D02*
X144605237Y-73631723D01*
X144557618Y-73869819D02*
X144652856Y-73822200D01*
X144652856Y-73822200D02*
X144748094Y-73726961D01*
X144748094Y-73726961D02*
X144795713Y-73536485D01*
X144795713Y-73536485D02*
X144795713Y-73203152D01*
X144795713Y-73203152D02*
X144748094Y-73012676D01*
X144748094Y-73012676D02*
X144652856Y-72917438D01*
X144652856Y-72917438D02*
X144557618Y-72869819D01*
X144557618Y-72869819D02*
X144367142Y-72869819D01*
X144367142Y-72869819D02*
X144271904Y-72917438D01*
X144271904Y-72917438D02*
X144176666Y-73012676D01*
X144176666Y-73012676D02*
X144129047Y-73203152D01*
X144129047Y-73203152D02*
X144129047Y-73536485D01*
X144129047Y-73536485D02*
X144176666Y-73726961D01*
X144176666Y-73726961D02*
X144271904Y-73822200D01*
X144271904Y-73822200D02*
X144367142Y-73869819D01*
X144367142Y-73869819D02*
X144557618Y-73869819D01*
X143176666Y-73869819D02*
X143748094Y-73869819D01*
X143462380Y-73869819D02*
X143462380Y-72869819D01*
X143462380Y-72869819D02*
X143557618Y-73012676D01*
X143557618Y-73012676D02*
X143652856Y-73107914D01*
X143652856Y-73107914D02*
X143748094Y-73155533D01*
X142843332Y-72869819D02*
X142176666Y-72869819D01*
X142176666Y-72869819D02*
X142605237Y-73869819D01*
X169481428Y-73965057D02*
X169576666Y-73917438D01*
X169576666Y-73917438D02*
X169671904Y-73822200D01*
X169671904Y-73822200D02*
X169814761Y-73679342D01*
X169814761Y-73679342D02*
X169909999Y-73631723D01*
X169909999Y-73631723D02*
X170005237Y-73631723D01*
X169957618Y-73869819D02*
X170052856Y-73822200D01*
X170052856Y-73822200D02*
X170148094Y-73726961D01*
X170148094Y-73726961D02*
X170195713Y-73536485D01*
X170195713Y-73536485D02*
X170195713Y-73203152D01*
X170195713Y-73203152D02*
X170148094Y-73012676D01*
X170148094Y-73012676D02*
X170052856Y-72917438D01*
X170052856Y-72917438D02*
X169957618Y-72869819D01*
X169957618Y-72869819D02*
X169767142Y-72869819D01*
X169767142Y-72869819D02*
X169671904Y-72917438D01*
X169671904Y-72917438D02*
X169576666Y-73012676D01*
X169576666Y-73012676D02*
X169529047Y-73203152D01*
X169529047Y-73203152D02*
X169529047Y-73536485D01*
X169529047Y-73536485D02*
X169576666Y-73726961D01*
X169576666Y-73726961D02*
X169671904Y-73822200D01*
X169671904Y-73822200D02*
X169767142Y-73869819D01*
X169767142Y-73869819D02*
X169957618Y-73869819D01*
X168576666Y-73869819D02*
X169148094Y-73869819D01*
X168862380Y-73869819D02*
X168862380Y-72869819D01*
X168862380Y-72869819D02*
X168957618Y-73012676D01*
X168957618Y-73012676D02*
X169052856Y-73107914D01*
X169052856Y-73107914D02*
X169148094Y-73155533D01*
X168005237Y-73298390D02*
X168100475Y-73250771D01*
X168100475Y-73250771D02*
X168148094Y-73203152D01*
X168148094Y-73203152D02*
X168195713Y-73107914D01*
X168195713Y-73107914D02*
X168195713Y-73060295D01*
X168195713Y-73060295D02*
X168148094Y-72965057D01*
X168148094Y-72965057D02*
X168100475Y-72917438D01*
X168100475Y-72917438D02*
X168005237Y-72869819D01*
X168005237Y-72869819D02*
X167814761Y-72869819D01*
X167814761Y-72869819D02*
X167719523Y-72917438D01*
X167719523Y-72917438D02*
X167671904Y-72965057D01*
X167671904Y-72965057D02*
X167624285Y-73060295D01*
X167624285Y-73060295D02*
X167624285Y-73107914D01*
X167624285Y-73107914D02*
X167671904Y-73203152D01*
X167671904Y-73203152D02*
X167719523Y-73250771D01*
X167719523Y-73250771D02*
X167814761Y-73298390D01*
X167814761Y-73298390D02*
X168005237Y-73298390D01*
X168005237Y-73298390D02*
X168100475Y-73346009D01*
X168100475Y-73346009D02*
X168148094Y-73393628D01*
X168148094Y-73393628D02*
X168195713Y-73488866D01*
X168195713Y-73488866D02*
X168195713Y-73679342D01*
X168195713Y-73679342D02*
X168148094Y-73774580D01*
X168148094Y-73774580D02*
X168100475Y-73822200D01*
X168100475Y-73822200D02*
X168005237Y-73869819D01*
X168005237Y-73869819D02*
X167814761Y-73869819D01*
X167814761Y-73869819D02*
X167719523Y-73822200D01*
X167719523Y-73822200D02*
X167671904Y-73774580D01*
X167671904Y-73774580D02*
X167624285Y-73679342D01*
X167624285Y-73679342D02*
X167624285Y-73488866D01*
X167624285Y-73488866D02*
X167671904Y-73393628D01*
X167671904Y-73393628D02*
X167719523Y-73346009D01*
X167719523Y-73346009D02*
X167814761Y-73298390D01*
X66135238Y-114605057D02*
X66230476Y-114557438D01*
X66230476Y-114557438D02*
X66325714Y-114462200D01*
X66325714Y-114462200D02*
X66468571Y-114319342D01*
X66468571Y-114319342D02*
X66563809Y-114271723D01*
X66563809Y-114271723D02*
X66659047Y-114271723D01*
X66611428Y-114509819D02*
X66706666Y-114462200D01*
X66706666Y-114462200D02*
X66801904Y-114366961D01*
X66801904Y-114366961D02*
X66849523Y-114176485D01*
X66849523Y-114176485D02*
X66849523Y-113843152D01*
X66849523Y-113843152D02*
X66801904Y-113652676D01*
X66801904Y-113652676D02*
X66706666Y-113557438D01*
X66706666Y-113557438D02*
X66611428Y-113509819D01*
X66611428Y-113509819D02*
X66420952Y-113509819D01*
X66420952Y-113509819D02*
X66325714Y-113557438D01*
X66325714Y-113557438D02*
X66230476Y-113652676D01*
X66230476Y-113652676D02*
X66182857Y-113843152D01*
X66182857Y-113843152D02*
X66182857Y-114176485D01*
X66182857Y-114176485D02*
X66230476Y-114366961D01*
X66230476Y-114366961D02*
X66325714Y-114462200D01*
X66325714Y-114462200D02*
X66420952Y-114509819D01*
X66420952Y-114509819D02*
X66611428Y-114509819D01*
X65230476Y-114509819D02*
X65801904Y-114509819D01*
X65516190Y-114509819D02*
X65516190Y-113509819D01*
X65516190Y-113509819D02*
X65611428Y-113652676D01*
X65611428Y-113652676D02*
X65706666Y-113747914D01*
X65706666Y-113747914D02*
X65801904Y-113795533D01*
X79470238Y-73965057D02*
X79565476Y-73917438D01*
X79565476Y-73917438D02*
X79660714Y-73822200D01*
X79660714Y-73822200D02*
X79803571Y-73679342D01*
X79803571Y-73679342D02*
X79898809Y-73631723D01*
X79898809Y-73631723D02*
X79994047Y-73631723D01*
X79946428Y-73869819D02*
X80041666Y-73822200D01*
X80041666Y-73822200D02*
X80136904Y-73726961D01*
X80136904Y-73726961D02*
X80184523Y-73536485D01*
X80184523Y-73536485D02*
X80184523Y-73203152D01*
X80184523Y-73203152D02*
X80136904Y-73012676D01*
X80136904Y-73012676D02*
X80041666Y-72917438D01*
X80041666Y-72917438D02*
X79946428Y-72869819D01*
X79946428Y-72869819D02*
X79755952Y-72869819D01*
X79755952Y-72869819D02*
X79660714Y-72917438D01*
X79660714Y-72917438D02*
X79565476Y-73012676D01*
X79565476Y-73012676D02*
X79517857Y-73203152D01*
X79517857Y-73203152D02*
X79517857Y-73536485D01*
X79517857Y-73536485D02*
X79565476Y-73726961D01*
X79565476Y-73726961D02*
X79660714Y-73822200D01*
X79660714Y-73822200D02*
X79755952Y-73869819D01*
X79755952Y-73869819D02*
X79946428Y-73869819D01*
X78660714Y-73203152D02*
X78660714Y-73869819D01*
X78898809Y-72822200D02*
X79136904Y-73536485D01*
X79136904Y-73536485D02*
X78517857Y-73536485D01*
X143446428Y-114605057D02*
X143541666Y-114557438D01*
X143541666Y-114557438D02*
X143636904Y-114462200D01*
X143636904Y-114462200D02*
X143779761Y-114319342D01*
X143779761Y-114319342D02*
X143874999Y-114271723D01*
X143874999Y-114271723D02*
X143970237Y-114271723D01*
X143922618Y-114509819D02*
X144017856Y-114462200D01*
X144017856Y-114462200D02*
X144113094Y-114366961D01*
X144113094Y-114366961D02*
X144160713Y-114176485D01*
X144160713Y-114176485D02*
X144160713Y-113843152D01*
X144160713Y-113843152D02*
X144113094Y-113652676D01*
X144113094Y-113652676D02*
X144017856Y-113557438D01*
X144017856Y-113557438D02*
X143922618Y-113509819D01*
X143922618Y-113509819D02*
X143732142Y-113509819D01*
X143732142Y-113509819D02*
X143636904Y-113557438D01*
X143636904Y-113557438D02*
X143541666Y-113652676D01*
X143541666Y-113652676D02*
X143494047Y-113843152D01*
X143494047Y-113843152D02*
X143494047Y-114176485D01*
X143494047Y-114176485D02*
X143541666Y-114366961D01*
X143541666Y-114366961D02*
X143636904Y-114462200D01*
X143636904Y-114462200D02*
X143732142Y-114509819D01*
X143732142Y-114509819D02*
X143922618Y-114509819D01*
X142541666Y-114509819D02*
X143113094Y-114509819D01*
X142827380Y-114509819D02*
X142827380Y-113509819D01*
X142827380Y-113509819D02*
X142922618Y-113652676D01*
X142922618Y-113652676D02*
X143017856Y-113747914D01*
X143017856Y-113747914D02*
X143113094Y-113795533D01*
X141922618Y-113509819D02*
X141827380Y-113509819D01*
X141827380Y-113509819D02*
X141732142Y-113557438D01*
X141732142Y-113557438D02*
X141684523Y-113605057D01*
X141684523Y-113605057D02*
X141636904Y-113700295D01*
X141636904Y-113700295D02*
X141589285Y-113890771D01*
X141589285Y-113890771D02*
X141589285Y-114128866D01*
X141589285Y-114128866D02*
X141636904Y-114319342D01*
X141636904Y-114319342D02*
X141684523Y-114414580D01*
X141684523Y-114414580D02*
X141732142Y-114462200D01*
X141732142Y-114462200D02*
X141827380Y-114509819D01*
X141827380Y-114509819D02*
X141922618Y-114509819D01*
X141922618Y-114509819D02*
X142017856Y-114462200D01*
X142017856Y-114462200D02*
X142065475Y-114414580D01*
X142065475Y-114414580D02*
X142113094Y-114319342D01*
X142113094Y-114319342D02*
X142160713Y-114128866D01*
X142160713Y-114128866D02*
X142160713Y-113890771D01*
X142160713Y-113890771D02*
X142113094Y-113700295D01*
X142113094Y-113700295D02*
X142065475Y-113605057D01*
X142065475Y-113605057D02*
X142017856Y-113557438D01*
X142017856Y-113557438D02*
X141922618Y-113509819D01*
D11*
%TO.C,Q5*%
X81240000Y-94475000D02*
X82440000Y-94475000D01*
X81240000Y-95835000D02*
X81240000Y-94635000D01*
X81240000Y-98235000D02*
X81240000Y-97035000D01*
X81240000Y-100635000D02*
X81240000Y-99435000D01*
X81240000Y-100875000D02*
X91480000Y-100875000D01*
X81240000Y-110365000D02*
X81240000Y-100875000D01*
X81240000Y-110365000D02*
X91480000Y-110365000D01*
X83639000Y-94475000D02*
X84840000Y-94475000D01*
X83820000Y-112905000D02*
X83820000Y-110365000D01*
X86040000Y-94475000D02*
X87240000Y-94475000D01*
X86360000Y-112905000D02*
X86360000Y-110365000D01*
X88440000Y-94475000D02*
X89640000Y-94475000D01*
X88900000Y-112905000D02*
X88900000Y-110365000D01*
X90840000Y-94475000D02*
X91480000Y-94475000D01*
X91480000Y-95835000D02*
X91480000Y-94635000D01*
X91480000Y-98235000D02*
X91480000Y-97035000D01*
X91480000Y-100635000D02*
X91480000Y-99435000D01*
X91480000Y-110365000D02*
X91480000Y-100875000D01*
%TO.C,Q14*%
X157440000Y-94625000D02*
X158640000Y-94625000D01*
X157440000Y-95985000D02*
X157440000Y-94785000D01*
X157440000Y-98385000D02*
X157440000Y-97185000D01*
X157440000Y-100785000D02*
X157440000Y-99585000D01*
X157440000Y-101025000D02*
X167680000Y-101025000D01*
X157440000Y-110515000D02*
X157440000Y-101025000D01*
X157440000Y-110515000D02*
X167680000Y-110515000D01*
X159839000Y-94625000D02*
X161040000Y-94625000D01*
X160020000Y-113055000D02*
X160020000Y-110515000D01*
X162240000Y-94625000D02*
X163440000Y-94625000D01*
X162560000Y-113055000D02*
X162560000Y-110515000D01*
X164640000Y-94625000D02*
X165840000Y-94625000D01*
X165100000Y-113055000D02*
X165100000Y-110515000D01*
X167040000Y-94625000D02*
X167680000Y-94625000D01*
X167680000Y-95985000D02*
X167680000Y-94785000D01*
X167680000Y-98385000D02*
X167680000Y-97185000D01*
X167680000Y-100785000D02*
X167680000Y-99585000D01*
X167680000Y-110515000D02*
X167680000Y-101025000D01*
%TO.C,Q7*%
X93940000Y-94475000D02*
X95140000Y-94475000D01*
X93940000Y-95835000D02*
X93940000Y-94635000D01*
X93940000Y-98235000D02*
X93940000Y-97035000D01*
X93940000Y-100635000D02*
X93940000Y-99435000D01*
X93940000Y-100875000D02*
X104180000Y-100875000D01*
X93940000Y-110365000D02*
X93940000Y-100875000D01*
X93940000Y-110365000D02*
X104180000Y-110365000D01*
X96339000Y-94475000D02*
X97540000Y-94475000D01*
X96520000Y-112905000D02*
X96520000Y-110365000D01*
X98740000Y-94475000D02*
X99940000Y-94475000D01*
X99060000Y-112905000D02*
X99060000Y-110365000D01*
X101140000Y-94475000D02*
X102340000Y-94475000D01*
X101600000Y-112905000D02*
X101600000Y-110365000D01*
X103540000Y-94475000D02*
X104180000Y-94475000D01*
X104180000Y-95835000D02*
X104180000Y-94635000D01*
X104180000Y-98235000D02*
X104180000Y-97035000D01*
X104180000Y-100635000D02*
X104180000Y-99435000D01*
X104180000Y-110365000D02*
X104180000Y-100875000D01*
%TO.C,Q8*%
X93940000Y-77590000D02*
X93940000Y-87080000D01*
X93940000Y-87320000D02*
X93940000Y-88520000D01*
X93940000Y-89720000D02*
X93940000Y-90920000D01*
X93940000Y-92120000D02*
X93940000Y-93320000D01*
X94580000Y-93480000D02*
X93940000Y-93480000D01*
X96520000Y-75050000D02*
X96520000Y-77590000D01*
X96980000Y-93480000D02*
X95780000Y-93480000D01*
X99060000Y-75050000D02*
X99060000Y-77590000D01*
X99380000Y-93480000D02*
X98180000Y-93480000D01*
X101600000Y-75050000D02*
X101600000Y-77590000D01*
X101781000Y-93480000D02*
X100580000Y-93480000D01*
X104180000Y-77590000D02*
X93940000Y-77590000D01*
X104180000Y-77590000D02*
X104180000Y-87080000D01*
X104180000Y-87080000D02*
X93940000Y-87080000D01*
X104180000Y-87320000D02*
X104180000Y-88520000D01*
X104180000Y-89720000D02*
X104180000Y-90920000D01*
X104180000Y-92120000D02*
X104180000Y-93320000D01*
X104180000Y-93480000D02*
X102980000Y-93480000D01*
%TO.C,Q11*%
X106640000Y-77590000D02*
X106640000Y-87080000D01*
X106640000Y-87320000D02*
X106640000Y-88520000D01*
X106640000Y-89720000D02*
X106640000Y-90920000D01*
X106640000Y-92120000D02*
X106640000Y-93320000D01*
X107280000Y-93480000D02*
X106640000Y-93480000D01*
X109220000Y-75050000D02*
X109220000Y-77590000D01*
X109680000Y-93480000D02*
X108480000Y-93480000D01*
X111760000Y-75050000D02*
X111760000Y-77590000D01*
X112080000Y-93480000D02*
X110880000Y-93480000D01*
X114300000Y-75050000D02*
X114300000Y-77590000D01*
X114481000Y-93480000D02*
X113280000Y-93480000D01*
X116880000Y-77590000D02*
X106640000Y-77590000D01*
X116880000Y-77590000D02*
X116880000Y-87080000D01*
X116880000Y-87080000D02*
X106640000Y-87080000D01*
X116880000Y-87320000D02*
X116880000Y-88520000D01*
X116880000Y-89720000D02*
X116880000Y-90920000D01*
X116880000Y-92120000D02*
X116880000Y-93320000D01*
X116880000Y-93480000D02*
X115680000Y-93480000D01*
%TO.C,Q19*%
X170140000Y-94625000D02*
X171340000Y-94625000D01*
X170140000Y-95985000D02*
X170140000Y-94785000D01*
X170140000Y-98385000D02*
X170140000Y-97185000D01*
X170140000Y-100785000D02*
X170140000Y-99585000D01*
X170140000Y-101025000D02*
X180380000Y-101025000D01*
X170140000Y-110515000D02*
X170140000Y-101025000D01*
X170140000Y-110515000D02*
X180380000Y-110515000D01*
X172539000Y-94625000D02*
X173740000Y-94625000D01*
X172720000Y-113055000D02*
X172720000Y-110515000D01*
X174940000Y-94625000D02*
X176140000Y-94625000D01*
X175260000Y-113055000D02*
X175260000Y-110515000D01*
X177340000Y-94625000D02*
X178540000Y-94625000D01*
X177800000Y-113055000D02*
X177800000Y-110515000D01*
X179740000Y-94625000D02*
X180380000Y-94625000D01*
X180380000Y-95985000D02*
X180380000Y-94785000D01*
X180380000Y-98385000D02*
X180380000Y-97185000D01*
X180380000Y-100785000D02*
X180380000Y-99585000D01*
X180380000Y-110515000D02*
X180380000Y-101025000D01*
%TO.C,Q15*%
X144740000Y-94475000D02*
X145940000Y-94475000D01*
X144740000Y-95835000D02*
X144740000Y-94635000D01*
X144740000Y-98235000D02*
X144740000Y-97035000D01*
X144740000Y-100635000D02*
X144740000Y-99435000D01*
X144740000Y-100875000D02*
X154980000Y-100875000D01*
X144740000Y-110365000D02*
X144740000Y-100875000D01*
X144740000Y-110365000D02*
X154980000Y-110365000D01*
X147139000Y-94475000D02*
X148340000Y-94475000D01*
X147320000Y-112905000D02*
X147320000Y-110365000D01*
X149540000Y-94475000D02*
X150740000Y-94475000D01*
X149860000Y-112905000D02*
X149860000Y-110365000D01*
X151940000Y-94475000D02*
X153140000Y-94475000D01*
X152400000Y-112905000D02*
X152400000Y-110365000D01*
X154340000Y-94475000D02*
X154980000Y-94475000D01*
X154980000Y-95835000D02*
X154980000Y-94635000D01*
X154980000Y-98235000D02*
X154980000Y-97035000D01*
X154980000Y-100635000D02*
X154980000Y-99435000D01*
X154980000Y-110365000D02*
X154980000Y-100875000D01*
%TO.C,Q13*%
X119340000Y-77590000D02*
X119340000Y-87080000D01*
X119340000Y-87320000D02*
X119340000Y-88520000D01*
X119340000Y-89720000D02*
X119340000Y-90920000D01*
X119340000Y-92120000D02*
X119340000Y-93320000D01*
X119980000Y-93480000D02*
X119340000Y-93480000D01*
X121920000Y-75050000D02*
X121920000Y-77590000D01*
X122380000Y-93480000D02*
X121180000Y-93480000D01*
X124460000Y-75050000D02*
X124460000Y-77590000D01*
X124780000Y-93480000D02*
X123580000Y-93480000D01*
X127000000Y-75050000D02*
X127000000Y-77590000D01*
X127181000Y-93480000D02*
X125980000Y-93480000D01*
X129580000Y-77590000D02*
X119340000Y-77590000D01*
X129580000Y-77590000D02*
X129580000Y-87080000D01*
X129580000Y-87080000D02*
X119340000Y-87080000D01*
X129580000Y-87320000D02*
X129580000Y-88520000D01*
X129580000Y-89720000D02*
X129580000Y-90920000D01*
X129580000Y-92120000D02*
X129580000Y-93320000D01*
X129580000Y-93480000D02*
X128380000Y-93480000D01*
%TO.C,Q12*%
X119340000Y-94475000D02*
X120540000Y-94475000D01*
X119340000Y-95835000D02*
X119340000Y-94635000D01*
X119340000Y-98235000D02*
X119340000Y-97035000D01*
X119340000Y-100635000D02*
X119340000Y-99435000D01*
X119340000Y-100875000D02*
X129580000Y-100875000D01*
X119340000Y-110365000D02*
X119340000Y-100875000D01*
X119340000Y-110365000D02*
X129580000Y-110365000D01*
X121739000Y-94475000D02*
X122940000Y-94475000D01*
X121920000Y-112905000D02*
X121920000Y-110365000D01*
X124140000Y-94475000D02*
X125340000Y-94475000D01*
X124460000Y-112905000D02*
X124460000Y-110365000D01*
X126540000Y-94475000D02*
X127740000Y-94475000D01*
X127000000Y-112905000D02*
X127000000Y-110365000D01*
X128940000Y-94475000D02*
X129580000Y-94475000D01*
X129580000Y-95835000D02*
X129580000Y-94635000D01*
X129580000Y-98235000D02*
X129580000Y-97035000D01*
X129580000Y-100635000D02*
X129580000Y-99435000D01*
X129580000Y-110365000D02*
X129580000Y-100875000D01*
%TO.C,Q20*%
X170140000Y-77590000D02*
X170140000Y-87080000D01*
X170140000Y-87320000D02*
X170140000Y-88520000D01*
X170140000Y-89720000D02*
X170140000Y-90920000D01*
X170140000Y-92120000D02*
X170140000Y-93320000D01*
X170780000Y-93480000D02*
X170140000Y-93480000D01*
X172720000Y-75050000D02*
X172720000Y-77590000D01*
X173180000Y-93480000D02*
X171980000Y-93480000D01*
X175260000Y-75050000D02*
X175260000Y-77590000D01*
X175580000Y-93480000D02*
X174380000Y-93480000D01*
X177800000Y-75050000D02*
X177800000Y-77590000D01*
X177981000Y-93480000D02*
X176780000Y-93480000D01*
X180380000Y-77590000D02*
X170140000Y-77590000D01*
X180380000Y-77590000D02*
X180380000Y-87080000D01*
X180380000Y-87080000D02*
X170140000Y-87080000D01*
X180380000Y-87320000D02*
X180380000Y-88520000D01*
X180380000Y-89720000D02*
X180380000Y-90920000D01*
X180380000Y-92120000D02*
X180380000Y-93320000D01*
X180380000Y-93480000D02*
X179180000Y-93480000D01*
%TO.C,Q16*%
X144740000Y-77590000D02*
X144740000Y-87080000D01*
X144740000Y-87320000D02*
X144740000Y-88520000D01*
X144740000Y-89720000D02*
X144740000Y-90920000D01*
X144740000Y-92120000D02*
X144740000Y-93320000D01*
X145380000Y-93480000D02*
X144740000Y-93480000D01*
X147320000Y-75050000D02*
X147320000Y-77590000D01*
X147780000Y-93480000D02*
X146580000Y-93480000D01*
X149860000Y-75050000D02*
X149860000Y-77590000D01*
X150180000Y-93480000D02*
X148980000Y-93480000D01*
X152400000Y-75050000D02*
X152400000Y-77590000D01*
X152581000Y-93480000D02*
X151380000Y-93480000D01*
X154980000Y-77590000D02*
X144740000Y-77590000D01*
X154980000Y-77590000D02*
X154980000Y-87080000D01*
X154980000Y-87080000D02*
X144740000Y-87080000D01*
X154980000Y-87320000D02*
X154980000Y-88520000D01*
X154980000Y-89720000D02*
X154980000Y-90920000D01*
X154980000Y-92120000D02*
X154980000Y-93320000D01*
X154980000Y-93480000D02*
X153780000Y-93480000D01*
%TO.C,Q9*%
X106640000Y-94475000D02*
X107840000Y-94475000D01*
X106640000Y-95835000D02*
X106640000Y-94635000D01*
X106640000Y-98235000D02*
X106640000Y-97035000D01*
X106640000Y-100635000D02*
X106640000Y-99435000D01*
X106640000Y-100875000D02*
X116880000Y-100875000D01*
X106640000Y-110365000D02*
X106640000Y-100875000D01*
X106640000Y-110365000D02*
X116880000Y-110365000D01*
X109039000Y-94475000D02*
X110240000Y-94475000D01*
X109220000Y-112905000D02*
X109220000Y-110365000D01*
X111440000Y-94475000D02*
X112640000Y-94475000D01*
X111760000Y-112905000D02*
X111760000Y-110365000D01*
X113840000Y-94475000D02*
X115040000Y-94475000D01*
X114300000Y-112905000D02*
X114300000Y-110365000D01*
X116240000Y-94475000D02*
X116880000Y-94475000D01*
X116880000Y-95835000D02*
X116880000Y-94635000D01*
X116880000Y-98235000D02*
X116880000Y-97035000D01*
X116880000Y-100635000D02*
X116880000Y-99435000D01*
X116880000Y-110365000D02*
X116880000Y-100875000D01*
%TO.C,Q6*%
X81240000Y-77590000D02*
X81240000Y-87080000D01*
X81240000Y-87320000D02*
X81240000Y-88520000D01*
X81240000Y-89720000D02*
X81240000Y-90920000D01*
X81240000Y-92120000D02*
X81240000Y-93320000D01*
X81880000Y-93480000D02*
X81240000Y-93480000D01*
X83820000Y-75050000D02*
X83820000Y-77590000D01*
X84280000Y-93480000D02*
X83080000Y-93480000D01*
X86360000Y-75050000D02*
X86360000Y-77590000D01*
X86680000Y-93480000D02*
X85480000Y-93480000D01*
X88900000Y-75050000D02*
X88900000Y-77590000D01*
X89081000Y-93480000D02*
X87880000Y-93480000D01*
X91480000Y-77590000D02*
X81240000Y-77590000D01*
X91480000Y-77590000D02*
X91480000Y-87080000D01*
X91480000Y-87080000D02*
X81240000Y-87080000D01*
X91480000Y-87320000D02*
X91480000Y-88520000D01*
X91480000Y-89720000D02*
X91480000Y-90920000D01*
X91480000Y-92120000D02*
X91480000Y-93320000D01*
X91480000Y-93480000D02*
X90280000Y-93480000D01*
%TO.C,Q2*%
X55840000Y-77590000D02*
X55840000Y-87080000D01*
X55840000Y-87320000D02*
X55840000Y-88520000D01*
X55840000Y-89720000D02*
X55840000Y-90920000D01*
X55840000Y-92120000D02*
X55840000Y-93320000D01*
X56480000Y-93480000D02*
X55840000Y-93480000D01*
X58420000Y-75050000D02*
X58420000Y-77590000D01*
X58880000Y-93480000D02*
X57680000Y-93480000D01*
X60960000Y-75050000D02*
X60960000Y-77590000D01*
X61280000Y-93480000D02*
X60080000Y-93480000D01*
X63500000Y-75050000D02*
X63500000Y-77590000D01*
X63681000Y-93480000D02*
X62480000Y-93480000D01*
X66080000Y-77590000D02*
X55840000Y-77590000D01*
X66080000Y-77590000D02*
X66080000Y-87080000D01*
X66080000Y-87080000D02*
X55840000Y-87080000D01*
X66080000Y-87320000D02*
X66080000Y-88520000D01*
X66080000Y-89720000D02*
X66080000Y-90920000D01*
X66080000Y-92120000D02*
X66080000Y-93320000D01*
X66080000Y-93480000D02*
X64880000Y-93480000D01*
%TO.C,Q3*%
X68540000Y-94475000D02*
X69740000Y-94475000D01*
X68540000Y-95835000D02*
X68540000Y-94635000D01*
X68540000Y-98235000D02*
X68540000Y-97035000D01*
X68540000Y-100635000D02*
X68540000Y-99435000D01*
X68540000Y-100875000D02*
X78780000Y-100875000D01*
X68540000Y-110365000D02*
X68540000Y-100875000D01*
X68540000Y-110365000D02*
X78780000Y-110365000D01*
X70939000Y-94475000D02*
X72140000Y-94475000D01*
X71120000Y-112905000D02*
X71120000Y-110365000D01*
X73340000Y-94475000D02*
X74540000Y-94475000D01*
X73660000Y-112905000D02*
X73660000Y-110365000D01*
X75740000Y-94475000D02*
X76940000Y-94475000D01*
X76200000Y-112905000D02*
X76200000Y-110365000D01*
X78140000Y-94475000D02*
X78780000Y-94475000D01*
X78780000Y-95835000D02*
X78780000Y-94635000D01*
X78780000Y-98235000D02*
X78780000Y-97035000D01*
X78780000Y-100635000D02*
X78780000Y-99435000D01*
X78780000Y-110365000D02*
X78780000Y-100875000D01*
%TO.C,Q17*%
X132040000Y-77590000D02*
X132040000Y-87080000D01*
X132040000Y-87320000D02*
X132040000Y-88520000D01*
X132040000Y-89720000D02*
X132040000Y-90920000D01*
X132040000Y-92120000D02*
X132040000Y-93320000D01*
X132680000Y-93480000D02*
X132040000Y-93480000D01*
X134620000Y-75050000D02*
X134620000Y-77590000D01*
X135080000Y-93480000D02*
X133880000Y-93480000D01*
X137160000Y-75050000D02*
X137160000Y-77590000D01*
X137480000Y-93480000D02*
X136280000Y-93480000D01*
X139700000Y-75050000D02*
X139700000Y-77590000D01*
X139881000Y-93480000D02*
X138680000Y-93480000D01*
X142280000Y-77590000D02*
X132040000Y-77590000D01*
X142280000Y-77590000D02*
X142280000Y-87080000D01*
X142280000Y-87080000D02*
X132040000Y-87080000D01*
X142280000Y-87320000D02*
X142280000Y-88520000D01*
X142280000Y-89720000D02*
X142280000Y-90920000D01*
X142280000Y-92120000D02*
X142280000Y-93320000D01*
X142280000Y-93480000D02*
X141080000Y-93480000D01*
%TO.C,Q18*%
X157440000Y-77590000D02*
X157440000Y-87080000D01*
X157440000Y-87320000D02*
X157440000Y-88520000D01*
X157440000Y-89720000D02*
X157440000Y-90920000D01*
X157440000Y-92120000D02*
X157440000Y-93320000D01*
X158080000Y-93480000D02*
X157440000Y-93480000D01*
X160020000Y-75050000D02*
X160020000Y-77590000D01*
X160480000Y-93480000D02*
X159280000Y-93480000D01*
X162560000Y-75050000D02*
X162560000Y-77590000D01*
X162880000Y-93480000D02*
X161680000Y-93480000D01*
X165100000Y-75050000D02*
X165100000Y-77590000D01*
X165281000Y-93480000D02*
X164080000Y-93480000D01*
X167680000Y-77590000D02*
X157440000Y-77590000D01*
X167680000Y-77590000D02*
X167680000Y-87080000D01*
X167680000Y-87080000D02*
X157440000Y-87080000D01*
X167680000Y-87320000D02*
X167680000Y-88520000D01*
X167680000Y-89720000D02*
X167680000Y-90920000D01*
X167680000Y-92120000D02*
X167680000Y-93320000D01*
X167680000Y-93480000D02*
X166480000Y-93480000D01*
%TO.C,Q1*%
X55840000Y-94475000D02*
X57040000Y-94475000D01*
X55840000Y-95835000D02*
X55840000Y-94635000D01*
X55840000Y-98235000D02*
X55840000Y-97035000D01*
X55840000Y-100635000D02*
X55840000Y-99435000D01*
X55840000Y-100875000D02*
X66080000Y-100875000D01*
X55840000Y-110365000D02*
X55840000Y-100875000D01*
X55840000Y-110365000D02*
X66080000Y-110365000D01*
X58239000Y-94475000D02*
X59440000Y-94475000D01*
X58420000Y-112905000D02*
X58420000Y-110365000D01*
X60640000Y-94475000D02*
X61840000Y-94475000D01*
X60960000Y-112905000D02*
X60960000Y-110365000D01*
X63040000Y-94475000D02*
X64240000Y-94475000D01*
X63500000Y-112905000D02*
X63500000Y-110365000D01*
X65440000Y-94475000D02*
X66080000Y-94475000D01*
X66080000Y-95835000D02*
X66080000Y-94635000D01*
X66080000Y-98235000D02*
X66080000Y-97035000D01*
X66080000Y-100635000D02*
X66080000Y-99435000D01*
X66080000Y-110365000D02*
X66080000Y-100875000D01*
%TO.C,Q4*%
X68540000Y-77590000D02*
X68540000Y-87080000D01*
X68540000Y-87320000D02*
X68540000Y-88520000D01*
X68540000Y-89720000D02*
X68540000Y-90920000D01*
X68540000Y-92120000D02*
X68540000Y-93320000D01*
X69180000Y-93480000D02*
X68540000Y-93480000D01*
X71120000Y-75050000D02*
X71120000Y-77590000D01*
X71580000Y-93480000D02*
X70380000Y-93480000D01*
X73660000Y-75050000D02*
X73660000Y-77590000D01*
X73980000Y-93480000D02*
X72780000Y-93480000D01*
X76200000Y-75050000D02*
X76200000Y-77590000D01*
X76381000Y-93480000D02*
X75180000Y-93480000D01*
X78780000Y-77590000D02*
X68540000Y-77590000D01*
X78780000Y-77590000D02*
X78780000Y-87080000D01*
X78780000Y-87080000D02*
X68540000Y-87080000D01*
X78780000Y-87320000D02*
X78780000Y-88520000D01*
X78780000Y-89720000D02*
X78780000Y-90920000D01*
X78780000Y-92120000D02*
X78780000Y-93320000D01*
X78780000Y-93480000D02*
X77580000Y-93480000D01*
%TO.C,Q10*%
X132040000Y-94475000D02*
X133240000Y-94475000D01*
X132040000Y-95835000D02*
X132040000Y-94635000D01*
X132040000Y-98235000D02*
X132040000Y-97035000D01*
X132040000Y-100635000D02*
X132040000Y-99435000D01*
X132040000Y-100875000D02*
X142280000Y-100875000D01*
X132040000Y-110365000D02*
X132040000Y-100875000D01*
X132040000Y-110365000D02*
X142280000Y-110365000D01*
X134439000Y-94475000D02*
X135640000Y-94475000D01*
X134620000Y-112905000D02*
X134620000Y-110365000D01*
X136840000Y-94475000D02*
X138040000Y-94475000D01*
X137160000Y-112905000D02*
X137160000Y-110365000D01*
X139240000Y-94475000D02*
X140440000Y-94475000D01*
X139700000Y-112905000D02*
X139700000Y-110365000D01*
X141640000Y-94475000D02*
X142280000Y-94475000D01*
X142280000Y-95835000D02*
X142280000Y-94635000D01*
X142280000Y-98235000D02*
X142280000Y-97035000D01*
X142280000Y-100635000D02*
X142280000Y-99435000D01*
X142280000Y-110365000D02*
X142280000Y-100875000D01*
%TD*%
M02*
