%TF.GenerationSoftware,KiCad,Pcbnew,9.0.0*%
%TF.CreationDate,2025-04-04T10:54:07-06:00*%
%TF.ProjectId,Solenoid Breakout Board,536f6c65-6e6f-4696-9420-427265616b6f,rev?*%
%TF.SameCoordinates,Original*%
%TF.FileFunction,Soldermask,Top*%
%TF.FilePolarity,Negative*%
%FSLAX46Y46*%
G04 Gerber Fmt 4.6, Leading zero omitted, Abs format (unit mm)*
G04 Created by KiCad (PCBNEW 9.0.0) date 2025-04-04 10:54:07*
%MOMM*%
%LPD*%
G01*
G04 APERTURE LIST*
G04 Aperture macros list*
%AMRoundRect*
0 Rectangle with rounded corners*
0 $1 Rounding radius*
0 $2 $3 $4 $5 $6 $7 $8 $9 X,Y pos of 4 corners*
0 Add a 4 corners polygon primitive as box body*
4,1,4,$2,$3,$4,$5,$6,$7,$8,$9,$2,$3,0*
0 Add four circle primitives for the rounded corners*
1,1,$1+$1,$2,$3*
1,1,$1+$1,$4,$5*
1,1,$1+$1,$6,$7*
1,1,$1+$1,$8,$9*
0 Add four rect primitives between the rounded corners*
20,1,$1+$1,$2,$3,$4,$5,0*
20,1,$1+$1,$4,$5,$6,$7,0*
20,1,$1+$1,$6,$7,$8,$9,0*
20,1,$1+$1,$8,$9,$2,$3,0*%
G04 Aperture macros list end*
%ADD10RoundRect,0.250000X0.350000X0.450000X-0.350000X0.450000X-0.350000X-0.450000X0.350000X-0.450000X0*%
%ADD11RoundRect,0.250000X0.450000X-0.350000X0.450000X0.350000X-0.450000X0.350000X-0.450000X-0.350000X0*%
%ADD12C,1.905000*%
%ADD13RoundRect,0.250000X-0.450000X0.325000X-0.450000X-0.325000X0.450000X-0.325000X0.450000X0.325000X0*%
%ADD14RoundRect,1.746250X-1.746250X-1.746250X1.746250X-1.746250X1.746250X1.746250X-1.746250X1.746250X0*%
%ADD15RoundRect,0.250000X0.450000X-0.325000X0.450000X0.325000X-0.450000X0.325000X-0.450000X-0.325000X0*%
%ADD16RoundRect,0.162500X0.162500X-0.750000X0.162500X0.750000X-0.162500X0.750000X-0.162500X-0.750000X0*%
%ADD17RoundRect,0.250000X-0.350000X-0.450000X0.350000X-0.450000X0.350000X0.450000X-0.350000X0.450000X0*%
%ADD18C,2.311400*%
%ADD19RoundRect,0.250000X0.625000X-0.400000X0.625000X0.400000X-0.625000X0.400000X-0.625000X-0.400000X0*%
%ADD20RoundRect,0.250000X-0.625000X0.400000X-0.625000X-0.400000X0.625000X-0.400000X0.625000X0.400000X0*%
%ADD21RoundRect,0.250000X0.325000X0.450000X-0.325000X0.450000X-0.325000X-0.450000X0.325000X-0.450000X0*%
%ADD22R,1.700000X1.700000*%
%ADD23O,1.700000X1.700000*%
%ADD24C,3.500000*%
%ADD25R,1.905000X2.000000*%
%ADD26O,1.905000X2.000000*%
G04 APERTURE END LIST*
D10*
%TO.C,R16*%
X85820000Y-110880000D03*
X83820000Y-110880000D03*
%TD*%
D11*
%TO.C,R29*%
X106680000Y-149320000D03*
X106680000Y-147320000D03*
%TD*%
D12*
%TO.C,L4*%
X74930000Y-64770000D03*
X74930000Y-68580000D03*
%TD*%
D13*
%TO.C,D12*%
X88900000Y-63990000D03*
X88900000Y-66040000D03*
%TD*%
D14*
%TO.C,REF\u002A\u002A*%
X48260000Y-57150000D03*
%TD*%
D15*
%TO.C,D2*%
X65405000Y-122455000D03*
X65405000Y-120405000D03*
%TD*%
D16*
%TO.C,U5*%
X125730000Y-144780000D03*
X127000000Y-144780000D03*
X128270000Y-144780000D03*
X129540000Y-144780000D03*
X130810000Y-144780000D03*
X132080000Y-144780000D03*
X133350000Y-144780000D03*
X134620000Y-144780000D03*
X134620000Y-138605000D03*
X133350000Y-138605000D03*
X132080000Y-138605000D03*
X130810000Y-138605000D03*
X129540000Y-138605000D03*
X128270000Y-138605000D03*
X127000000Y-138605000D03*
X125730000Y-138605000D03*
%TD*%
D17*
%TO.C,R17*%
X83725000Y-77075000D03*
X85725000Y-77075000D03*
%TD*%
D11*
%TO.C,R43*%
X118110000Y-149320000D03*
X118110000Y-147320000D03*
%TD*%
D10*
%TO.C,R32*%
X136525000Y-110880000D03*
X134525000Y-110880000D03*
%TD*%
D18*
%TO.C,J2*%
X48895000Y-124460000D03*
X48895000Y-129540000D03*
%TD*%
D13*
%TO.C,D33*%
X181610000Y-64135000D03*
X181610000Y-66185000D03*
%TD*%
D10*
%TO.C,R5*%
X60325000Y-110880000D03*
X58325000Y-110880000D03*
%TD*%
D12*
%TO.C,L9*%
X119380000Y-64770000D03*
X119380000Y-68580000D03*
%TD*%
D19*
%TO.C,R27*%
X123825000Y-71120000D03*
X123825000Y-68020000D03*
%TD*%
D14*
%TO.C,REF\u002A\u002A*%
X48260000Y-151765000D03*
%TD*%
%TO.C,REF\u002A\u002A*%
X184785000Y-151765000D03*
%TD*%
D13*
%TO.C,D18*%
X123825000Y-64135000D03*
X123825000Y-66185000D03*
%TD*%
D19*
%TO.C,R12*%
X79375000Y-71120000D03*
X79375000Y-68020000D03*
%TD*%
D17*
%TO.C,R33*%
X109125000Y-77225000D03*
X111125000Y-77225000D03*
%TD*%
D10*
%TO.C,R34*%
X123920000Y-110880000D03*
X121920000Y-110880000D03*
%TD*%
D11*
%TO.C,R28*%
X115570000Y-149320000D03*
X115570000Y-147320000D03*
%TD*%
D19*
%TO.C,R37*%
X132080000Y-71120000D03*
X132080000Y-68020000D03*
%TD*%
D10*
%TO.C,R44*%
X161925000Y-110880000D03*
X159925000Y-110880000D03*
%TD*%
D16*
%TO.C,U4*%
X114300000Y-144780000D03*
X115570000Y-144780000D03*
X116840000Y-144780000D03*
X118110000Y-144780000D03*
X119380000Y-144780000D03*
X120650000Y-144780000D03*
X121920000Y-144780000D03*
X123190000Y-144780000D03*
X123190000Y-138605000D03*
X121920000Y-138605000D03*
X120650000Y-138605000D03*
X119380000Y-138605000D03*
X118110000Y-138605000D03*
X116840000Y-138605000D03*
X115570000Y-138605000D03*
X114300000Y-138605000D03*
%TD*%
D20*
%TO.C,R58*%
X182245000Y-90880000D03*
X182245000Y-93980000D03*
%TD*%
D12*
%TO.C,L20*%
X186055000Y-74930000D03*
X182245000Y-74930000D03*
%TD*%
D10*
%TO.C,R56*%
X174625000Y-110880000D03*
X172625000Y-110880000D03*
%TD*%
D17*
%TO.C,R35*%
X121920000Y-77225000D03*
X123920000Y-77225000D03*
%TD*%
D21*
%TO.C,D39*%
X186835000Y-117475000D03*
X184785000Y-117475000D03*
%TD*%
D15*
%TO.C,D21*%
X121285000Y-122455000D03*
X121285000Y-120405000D03*
%TD*%
%TO.C,D11*%
X95250000Y-122455000D03*
X95250000Y-120405000D03*
%TD*%
D12*
%TO.C,L14*%
X186055000Y-99060000D03*
X182245000Y-99060000D03*
%TD*%
D15*
%TO.C,D3*%
X69850000Y-122455000D03*
X69850000Y-120405000D03*
%TD*%
D11*
%TO.C,R2*%
X83820000Y-149320000D03*
X83820000Y-147320000D03*
%TD*%
D17*
%TO.C,R24*%
X96520000Y-77225000D03*
X98520000Y-77225000D03*
%TD*%
D19*
%TO.C,R50*%
X181610000Y-71120000D03*
X181610000Y-68020000D03*
%TD*%
D15*
%TO.C,D36*%
X170815000Y-122310000D03*
X170815000Y-120260000D03*
%TD*%
D19*
%TO.C,R39*%
X148590000Y-71120000D03*
X148590000Y-68020000D03*
%TD*%
%TO.C,R49*%
X173355000Y-71120000D03*
X173355000Y-68020000D03*
%TD*%
D15*
%TO.C,D9*%
X82550000Y-122455000D03*
X82550000Y-120405000D03*
%TD*%
D11*
%TO.C,R41*%
X120650000Y-149320000D03*
X120650000Y-147320000D03*
%TD*%
D12*
%TO.C,L10*%
X152400000Y-64770000D03*
X152400000Y-68580000D03*
%TD*%
D15*
%TO.C,D35*%
X166370000Y-122310000D03*
X166370000Y-120260000D03*
%TD*%
%TO.C,D29*%
X153670000Y-122310000D03*
X153670000Y-120260000D03*
%TD*%
D10*
%TO.C,R25*%
X111220000Y-110880000D03*
X109220000Y-110880000D03*
%TD*%
D19*
%TO.C,R20*%
X97790000Y-71045000D03*
X97790000Y-67945000D03*
%TD*%
D12*
%TO.C,L13*%
X144145000Y-64770000D03*
X144145000Y-68580000D03*
%TD*%
D11*
%TO.C,R52*%
X129540000Y-149320000D03*
X129540000Y-147320000D03*
%TD*%
D13*
%TO.C,D34*%
X165100000Y-64135000D03*
X165100000Y-66185000D03*
%TD*%
D19*
%TO.C,R9*%
X52705000Y-71120000D03*
X52705000Y-68020000D03*
%TD*%
D12*
%TO.C,L7*%
X102235000Y-64770000D03*
X102235000Y-68580000D03*
%TD*%
D10*
%TO.C,R45*%
X149320000Y-110880000D03*
X147320000Y-110880000D03*
%TD*%
D11*
%TO.C,R22*%
X100330000Y-149320000D03*
X100330000Y-147320000D03*
%TD*%
D17*
%TO.C,R46*%
X147225000Y-77225000D03*
X149225000Y-77225000D03*
%TD*%
D12*
%TO.C,L5*%
X83820000Y-64770000D03*
X83820000Y-68580000D03*
%TD*%
D15*
%TO.C,D30*%
X141605000Y-122310000D03*
X141605000Y-120260000D03*
%TD*%
%TO.C,D27*%
X158750000Y-122310000D03*
X158750000Y-120260000D03*
%TD*%
D11*
%TO.C,R1*%
X81280000Y-149320000D03*
X81280000Y-147320000D03*
%TD*%
%TO.C,R14*%
X95250000Y-149320000D03*
X95250000Y-147320000D03*
%TD*%
D13*
%TO.C,D23*%
X156845000Y-64135000D03*
X156845000Y-66185000D03*
%TD*%
%TO.C,D32*%
X173355000Y-64135000D03*
X173355000Y-66185000D03*
%TD*%
D15*
%TO.C,D4*%
X77470000Y-122455000D03*
X77470000Y-120405000D03*
%TD*%
D12*
%TO.C,L1*%
X48260000Y-64845000D03*
X48260000Y-68655000D03*
%TD*%
%TO.C,L17*%
X160655000Y-64770000D03*
X160655000Y-68580000D03*
%TD*%
D19*
%TO.C,R21*%
X106680000Y-71045000D03*
X106680000Y-67945000D03*
%TD*%
D15*
%TO.C,D28*%
X146050000Y-122310000D03*
X146050000Y-120260000D03*
%TD*%
D17*
%TO.C,R57*%
X172625000Y-77225000D03*
X174625000Y-77225000D03*
%TD*%
D12*
%TO.C,L16*%
X177165000Y-64770000D03*
X177165000Y-68580000D03*
%TD*%
D15*
%TO.C,D10*%
X90805000Y-122455000D03*
X90805000Y-120405000D03*
%TD*%
D11*
%TO.C,R30*%
X109220000Y-149320000D03*
X109220000Y-147320000D03*
%TD*%
D12*
%TO.C,L2*%
X57150000Y-64770000D03*
X57150000Y-68580000D03*
%TD*%
D15*
%TO.C,D15*%
X103505000Y-122455000D03*
X103505000Y-120405000D03*
%TD*%
D22*
%TO.C,J1*%
X80645000Y-153670000D03*
D23*
X83185000Y-153670000D03*
X85725000Y-153670000D03*
X88265000Y-153670000D03*
X90805000Y-153670000D03*
X93345000Y-153670000D03*
X95885000Y-153670000D03*
X98425000Y-153670000D03*
X100965000Y-153670000D03*
X103505000Y-153670000D03*
X106045000Y-153670000D03*
X108585000Y-153670000D03*
X111125000Y-153670000D03*
X113665000Y-153670000D03*
X116205000Y-153670000D03*
X118745000Y-153670000D03*
X121285000Y-153670000D03*
X123825000Y-153670000D03*
X126365000Y-153670000D03*
X128905000Y-153670000D03*
X131445000Y-153670000D03*
%TD*%
D11*
%TO.C,R4*%
X88900000Y-149320000D03*
X88900000Y-147320000D03*
%TD*%
D21*
%TO.C,D40*%
X186690000Y-79375000D03*
X184640000Y-79375000D03*
%TD*%
D17*
%TO.C,R47*%
X134620000Y-77225000D03*
X136620000Y-77225000D03*
%TD*%
D19*
%TO.C,R51*%
X165100000Y-71045000D03*
X165100000Y-67945000D03*
%TD*%
%TO.C,R38*%
X140335000Y-71120000D03*
X140335000Y-68020000D03*
%TD*%
D20*
%TO.C,R60*%
X182245000Y-79375000D03*
X182245000Y-82475000D03*
%TD*%
D11*
%TO.C,R15*%
X97790000Y-149320000D03*
X97790000Y-147320000D03*
%TD*%
D13*
%TO.C,D8*%
X79375000Y-64135000D03*
X79375000Y-66185000D03*
%TD*%
D12*
%TO.C,L3*%
X66040000Y-64770000D03*
X66040000Y-68580000D03*
%TD*%
%TO.C,L19*%
X186055000Y-113030000D03*
X182245000Y-113030000D03*
%TD*%
D11*
%TO.C,R3*%
X86360000Y-149320000D03*
X86360000Y-147320000D03*
%TD*%
D13*
%TO.C,D26*%
X148590000Y-64135000D03*
X148590000Y-66185000D03*
%TD*%
D21*
%TO.C,D31*%
X186690000Y-103505000D03*
X184640000Y-103505000D03*
%TD*%
D12*
%TO.C,L6*%
X93345000Y-64770000D03*
X93345000Y-68580000D03*
%TD*%
D15*
%TO.C,D22*%
X128270000Y-122310000D03*
X128270000Y-120260000D03*
%TD*%
%TO.C,D20*%
X115570000Y-122455000D03*
X115570000Y-120405000D03*
%TD*%
%TO.C,D19*%
X133350000Y-122310000D03*
X133350000Y-120260000D03*
%TD*%
D11*
%TO.C,R23*%
X104140000Y-149320000D03*
X104140000Y-147320000D03*
%TD*%
D19*
%TO.C,R19*%
X88900000Y-71120000D03*
X88900000Y-68020000D03*
%TD*%
D12*
%TO.C,L8*%
X111125000Y-64770000D03*
X111125000Y-68580000D03*
%TD*%
D16*
%TO.C,U3*%
X102870000Y-144780000D03*
X104140000Y-144780000D03*
X105410000Y-144780000D03*
X106680000Y-144780000D03*
X107950000Y-144780000D03*
X109220000Y-144780000D03*
X110490000Y-144780000D03*
X111760000Y-144780000D03*
X111760000Y-138605000D03*
X110490000Y-138605000D03*
X109220000Y-138605000D03*
X107950000Y-138605000D03*
X106680000Y-138605000D03*
X105410000Y-138605000D03*
X104140000Y-138605000D03*
X102870000Y-138605000D03*
%TD*%
D10*
%TO.C,R18*%
X98520000Y-110880000D03*
X96520000Y-110880000D03*
%TD*%
D11*
%TO.C,R40*%
X127000000Y-149320000D03*
X127000000Y-147320000D03*
%TD*%
D15*
%TO.C,D16*%
X107950000Y-122455000D03*
X107950000Y-120405000D03*
%TD*%
D11*
%TO.C,R53*%
X132080000Y-149320000D03*
X132080000Y-147320000D03*
%TD*%
D15*
%TO.C,D1*%
X57150000Y-122175500D03*
X57150000Y-120125500D03*
%TD*%
D19*
%TO.C,R11*%
X70485000Y-71045000D03*
X70485000Y-67945000D03*
%TD*%
D14*
%TO.C,REF\u002A\u002A*%
X184785000Y-57150000D03*
%TD*%
D16*
%TO.C,U2*%
X91440000Y-144780000D03*
X92710000Y-144780000D03*
X93980000Y-144780000D03*
X95250000Y-144780000D03*
X96520000Y-144780000D03*
X97790000Y-144780000D03*
X99060000Y-144780000D03*
X100330000Y-144780000D03*
X100330000Y-138605000D03*
X99060000Y-138605000D03*
X97790000Y-138605000D03*
X96520000Y-138605000D03*
X95250000Y-138605000D03*
X93980000Y-138605000D03*
X92710000Y-138605000D03*
X91440000Y-138605000D03*
%TD*%
D17*
%TO.C,R8*%
X71390000Y-77075000D03*
X73390000Y-77075000D03*
%TD*%
D11*
%TO.C,R13*%
X92710000Y-149320000D03*
X92710000Y-147320000D03*
%TD*%
D12*
%TO.C,L15*%
X168910000Y-64770000D03*
X168910000Y-68580000D03*
%TD*%
%TO.C,L12*%
X135890000Y-64770000D03*
X135890000Y-68580000D03*
%TD*%
D16*
%TO.C,U1*%
X80010000Y-144780000D03*
X81280000Y-144780000D03*
X82550000Y-144780000D03*
X83820000Y-144780000D03*
X85090000Y-144780000D03*
X86360000Y-144780000D03*
X87630000Y-144780000D03*
X88900000Y-144780000D03*
X88900000Y-138605000D03*
X87630000Y-138605000D03*
X86360000Y-138605000D03*
X85090000Y-138605000D03*
X83820000Y-138605000D03*
X82550000Y-138605000D03*
X81280000Y-138605000D03*
X80010000Y-138605000D03*
%TD*%
D13*
%TO.C,D25*%
X140335000Y-64135000D03*
X140335000Y-66185000D03*
%TD*%
%TO.C,D6*%
X61595000Y-63990000D03*
X61595000Y-66040000D03*
%TD*%
D15*
%TO.C,D37*%
X178435000Y-122310000D03*
X178435000Y-120260000D03*
%TD*%
D10*
%TO.C,R7*%
X73120000Y-110880000D03*
X71120000Y-110880000D03*
%TD*%
D19*
%TO.C,R10*%
X61595000Y-71045000D03*
X61595000Y-67945000D03*
%TD*%
D20*
%TO.C,R59*%
X182245000Y-117475000D03*
X182245000Y-120575000D03*
%TD*%
D17*
%TO.C,R55*%
X159925000Y-77075000D03*
X161925000Y-77075000D03*
%TD*%
D11*
%TO.C,R31*%
X111760000Y-149320000D03*
X111760000Y-147320000D03*
%TD*%
D18*
%TO.C,J3*%
X184150000Y-138430000D03*
X184150000Y-133350000D03*
%TD*%
D13*
%TO.C,D7*%
X70485000Y-63990000D03*
X70485000Y-66040000D03*
%TD*%
D19*
%TO.C,R26*%
X115570000Y-71045000D03*
X115570000Y-67945000D03*
%TD*%
D20*
%TO.C,R48*%
X182245000Y-103580000D03*
X182245000Y-106680000D03*
%TD*%
D11*
%TO.C,R54*%
X134620000Y-149320000D03*
X134620000Y-147320000D03*
%TD*%
D21*
%TO.C,D38*%
X187325000Y-90805000D03*
X185275000Y-90805000D03*
%TD*%
D12*
%TO.C,L11*%
X127635000Y-64770000D03*
X127635000Y-68580000D03*
%TD*%
D19*
%TO.C,R36*%
X156845000Y-71120000D03*
X156845000Y-68020000D03*
%TD*%
D12*
%TO.C,L18*%
X186055000Y-86360000D03*
X182245000Y-86360000D03*
%TD*%
D13*
%TO.C,D17*%
X115570000Y-63990000D03*
X115570000Y-66040000D03*
%TD*%
D17*
%TO.C,R6*%
X57785000Y-77075000D03*
X59785000Y-77075000D03*
%TD*%
D13*
%TO.C,D14*%
X106680000Y-63990000D03*
X106680000Y-66040000D03*
%TD*%
D11*
%TO.C,R42*%
X123190000Y-149320000D03*
X123190000Y-147320000D03*
%TD*%
D13*
%TO.C,D24*%
X132080000Y-64135000D03*
X132080000Y-66185000D03*
%TD*%
%TO.C,D13*%
X97790000Y-63990000D03*
X97790000Y-66040000D03*
%TD*%
%TO.C,D5*%
X52705000Y-64065000D03*
X52705000Y-66115000D03*
%TD*%
D24*
%TO.C,Q5*%
X86360000Y-97395000D03*
D25*
X83820000Y-114055000D03*
D26*
X86360000Y-114055000D03*
X88900000Y-114055000D03*
%TD*%
D24*
%TO.C,Q14*%
X162560000Y-97545000D03*
D25*
X160020000Y-114205000D03*
D26*
X162560000Y-114205000D03*
X165100000Y-114205000D03*
%TD*%
D24*
%TO.C,Q7*%
X99060000Y-97395000D03*
D25*
X96520000Y-114055000D03*
D26*
X99060000Y-114055000D03*
X101600000Y-114055000D03*
%TD*%
D24*
%TO.C,Q8*%
X99060000Y-90560000D03*
D25*
X101600000Y-73900000D03*
D26*
X99060000Y-73900000D03*
X96520000Y-73900000D03*
%TD*%
D24*
%TO.C,Q11*%
X111760000Y-90560000D03*
D25*
X114300000Y-73900000D03*
D26*
X111760000Y-73900000D03*
X109220000Y-73900000D03*
%TD*%
D24*
%TO.C,Q19*%
X175260000Y-97545000D03*
D25*
X172720000Y-114205000D03*
D26*
X175260000Y-114205000D03*
X177800000Y-114205000D03*
%TD*%
D24*
%TO.C,Q15*%
X149860000Y-97395000D03*
D25*
X147320000Y-114055000D03*
D26*
X149860000Y-114055000D03*
X152400000Y-114055000D03*
%TD*%
D24*
%TO.C,Q13*%
X124460000Y-90560000D03*
D25*
X127000000Y-73900000D03*
D26*
X124460000Y-73900000D03*
X121920000Y-73900000D03*
%TD*%
D24*
%TO.C,Q12*%
X124460000Y-97395000D03*
D25*
X121920000Y-114055000D03*
D26*
X124460000Y-114055000D03*
X127000000Y-114055000D03*
%TD*%
D24*
%TO.C,Q20*%
X175260000Y-90560000D03*
D25*
X177800000Y-73900000D03*
D26*
X175260000Y-73900000D03*
X172720000Y-73900000D03*
%TD*%
D24*
%TO.C,Q16*%
X149860000Y-90560000D03*
D25*
X152400000Y-73900000D03*
D26*
X149860000Y-73900000D03*
X147320000Y-73900000D03*
%TD*%
D24*
%TO.C,Q9*%
X111760000Y-97395000D03*
D25*
X109220000Y-114055000D03*
D26*
X111760000Y-114055000D03*
X114300000Y-114055000D03*
%TD*%
D24*
%TO.C,Q6*%
X86360000Y-90560000D03*
D25*
X88900000Y-73900000D03*
D26*
X86360000Y-73900000D03*
X83820000Y-73900000D03*
%TD*%
D24*
%TO.C,Q2*%
X60960000Y-90560000D03*
D25*
X63500000Y-73900000D03*
D26*
X60960000Y-73900000D03*
X58420000Y-73900000D03*
%TD*%
D24*
%TO.C,Q3*%
X73660000Y-97395000D03*
D25*
X71120000Y-114055000D03*
D26*
X73660000Y-114055000D03*
X76200000Y-114055000D03*
%TD*%
D24*
%TO.C,Q17*%
X137160000Y-90560000D03*
D25*
X139700000Y-73900000D03*
D26*
X137160000Y-73900000D03*
X134620000Y-73900000D03*
%TD*%
D24*
%TO.C,Q18*%
X162560000Y-90560000D03*
D25*
X165100000Y-73900000D03*
D26*
X162560000Y-73900000D03*
X160020000Y-73900000D03*
%TD*%
D24*
%TO.C,Q1*%
X60960000Y-97395000D03*
D25*
X58420000Y-114055000D03*
D26*
X60960000Y-114055000D03*
X63500000Y-114055000D03*
%TD*%
D24*
%TO.C,Q4*%
X73660000Y-90560000D03*
D25*
X76200000Y-73900000D03*
D26*
X73660000Y-73900000D03*
X71120000Y-73900000D03*
%TD*%
D24*
%TO.C,Q10*%
X137160000Y-97395000D03*
D25*
X134620000Y-114055000D03*
D26*
X137160000Y-114055000D03*
X139700000Y-114055000D03*
%TD*%
M02*
