%TF.GenerationSoftware,KiCad,Pcbnew,9.0.0*%
%TF.CreationDate,2025-04-04T10:54:07-06:00*%
%TF.ProjectId,Solenoid Breakout Board,536f6c65-6e6f-4696-9420-427265616b6f,rev?*%
%TF.SameCoordinates,Original*%
%TF.FileFunction,Soldermask,Bot*%
%TF.FilePolarity,Negative*%
%FSLAX46Y46*%
G04 Gerber Fmt 4.6, Leading zero omitted, Abs format (unit mm)*
G04 Created by KiCad (PCBNEW 9.0.0) date 2025-04-04 10:54:07*
%MOMM*%
%LPD*%
G01*
G04 APERTURE LIST*
G04 Aperture macros list*
%AMRoundRect*
0 Rectangle with rounded corners*
0 $1 Rounding radius*
0 $2 $3 $4 $5 $6 $7 $8 $9 X,Y pos of 4 corners*
0 Add a 4 corners polygon primitive as box body*
4,1,4,$2,$3,$4,$5,$6,$7,$8,$9,$2,$3,0*
0 Add four circle primitives for the rounded corners*
1,1,$1+$1,$2,$3*
1,1,$1+$1,$4,$5*
1,1,$1+$1,$6,$7*
1,1,$1+$1,$8,$9*
0 Add four rect primitives between the rounded corners*
20,1,$1+$1,$2,$3,$4,$5,0*
20,1,$1+$1,$4,$5,$6,$7,0*
20,1,$1+$1,$6,$7,$8,$9,0*
20,1,$1+$1,$8,$9,$2,$3,0*%
G04 Aperture macros list end*
%ADD10RoundRect,0.250000X0.450000X-0.350000X0.450000X0.350000X-0.450000X0.350000X-0.450000X-0.350000X0*%
%ADD11C,1.905000*%
%ADD12RoundRect,1.746250X-1.746250X-1.746250X1.746250X-1.746250X1.746250X1.746250X-1.746250X1.746250X0*%
%ADD13RoundRect,0.250000X0.450000X-0.325000X0.450000X0.325000X-0.450000X0.325000X-0.450000X-0.325000X0*%
%ADD14C,2.311400*%
%ADD15R,1.700000X1.700000*%
%ADD16O,1.700000X1.700000*%
%ADD17C,3.500000*%
%ADD18R,1.905000X2.000000*%
%ADD19O,1.905000X2.000000*%
G04 APERTURE END LIST*
D10*
%TO.C,R29*%
X106680000Y-149320000D03*
%TD*%
D11*
%TO.C,L4*%
X74930000Y-64770000D03*
X74930000Y-68580000D03*
%TD*%
D12*
%TO.C,REF\u002A\u002A*%
X48260000Y-57150000D03*
%TD*%
D13*
%TO.C,D2*%
X65405000Y-120405000D03*
%TD*%
D10*
%TO.C,R43*%
X118110000Y-149320000D03*
%TD*%
D14*
%TO.C,J2*%
X48895000Y-124460000D03*
X48895000Y-129540000D03*
%TD*%
D11*
%TO.C,L9*%
X119380000Y-64770000D03*
X119380000Y-68580000D03*
%TD*%
D12*
%TO.C,REF\u002A\u002A*%
X48260000Y-151765000D03*
%TD*%
%TO.C,REF\u002A\u002A*%
X184785000Y-151765000D03*
%TD*%
D10*
%TO.C,R28*%
X115570000Y-149320000D03*
%TD*%
D11*
%TO.C,L20*%
X186055000Y-74930000D03*
X182245000Y-74930000D03*
%TD*%
D13*
%TO.C,D21*%
X121285000Y-120405000D03*
%TD*%
%TO.C,D11*%
X95250000Y-120405000D03*
%TD*%
D11*
%TO.C,L14*%
X186055000Y-99060000D03*
X182245000Y-99060000D03*
%TD*%
D13*
%TO.C,D3*%
X69850000Y-120405000D03*
%TD*%
D10*
%TO.C,R2*%
X83820000Y-149320000D03*
%TD*%
D13*
%TO.C,D36*%
X170815000Y-120260000D03*
%TD*%
%TO.C,D9*%
X82550000Y-120405000D03*
%TD*%
D10*
%TO.C,R41*%
X120650000Y-149320000D03*
%TD*%
D11*
%TO.C,L10*%
X152400000Y-64770000D03*
X152400000Y-68580000D03*
%TD*%
D13*
%TO.C,D35*%
X166370000Y-120260000D03*
%TD*%
%TO.C,D29*%
X153670000Y-120260000D03*
%TD*%
D11*
%TO.C,L13*%
X144145000Y-64770000D03*
X144145000Y-68580000D03*
%TD*%
D10*
%TO.C,R52*%
X129540000Y-149320000D03*
%TD*%
D11*
%TO.C,L7*%
X102235000Y-64770000D03*
X102235000Y-68580000D03*
%TD*%
D10*
%TO.C,R22*%
X100330000Y-149320000D03*
%TD*%
D11*
%TO.C,L5*%
X83820000Y-64770000D03*
X83820000Y-68580000D03*
%TD*%
D13*
%TO.C,D30*%
X141605000Y-120260000D03*
%TD*%
%TO.C,D27*%
X158750000Y-120260000D03*
%TD*%
D10*
%TO.C,R1*%
X81280000Y-149320000D03*
%TD*%
%TO.C,R14*%
X95250000Y-149320000D03*
%TD*%
D13*
%TO.C,D4*%
X77470000Y-120405000D03*
%TD*%
D11*
%TO.C,L1*%
X48260000Y-64845000D03*
X48260000Y-68655000D03*
%TD*%
%TO.C,L17*%
X160655000Y-64770000D03*
X160655000Y-68580000D03*
%TD*%
D13*
%TO.C,D28*%
X146050000Y-120260000D03*
%TD*%
D11*
%TO.C,L16*%
X177165000Y-64770000D03*
X177165000Y-68580000D03*
%TD*%
D13*
%TO.C,D10*%
X90805000Y-120405000D03*
%TD*%
D10*
%TO.C,R30*%
X109220000Y-149320000D03*
%TD*%
D11*
%TO.C,L2*%
X57150000Y-64770000D03*
X57150000Y-68580000D03*
%TD*%
D13*
%TO.C,D15*%
X103505000Y-120405000D03*
%TD*%
D15*
%TO.C,J1*%
X80645000Y-153670000D03*
D16*
X83185000Y-153670000D03*
X85725000Y-153670000D03*
X88265000Y-153670000D03*
X90805000Y-153670000D03*
X93345000Y-153670000D03*
X95885000Y-153670000D03*
X98425000Y-153670000D03*
X100965000Y-153670000D03*
X103505000Y-153670000D03*
X106045000Y-153670000D03*
X108585000Y-153670000D03*
X111125000Y-153670000D03*
X113665000Y-153670000D03*
X116205000Y-153670000D03*
X118745000Y-153670000D03*
X121285000Y-153670000D03*
X123825000Y-153670000D03*
X126365000Y-153670000D03*
X128905000Y-153670000D03*
X131445000Y-153670000D03*
%TD*%
D10*
%TO.C,R4*%
X88900000Y-149320000D03*
%TD*%
%TO.C,R15*%
X97790000Y-149320000D03*
%TD*%
D11*
%TO.C,L3*%
X66040000Y-64770000D03*
X66040000Y-68580000D03*
%TD*%
%TO.C,L19*%
X186055000Y-113030000D03*
X182245000Y-113030000D03*
%TD*%
D10*
%TO.C,R3*%
X86360000Y-149320000D03*
%TD*%
D11*
%TO.C,L6*%
X93345000Y-64770000D03*
X93345000Y-68580000D03*
%TD*%
D13*
%TO.C,D22*%
X128270000Y-120260000D03*
%TD*%
%TO.C,D20*%
X115570000Y-120405000D03*
%TD*%
%TO.C,D19*%
X133350000Y-120260000D03*
%TD*%
D10*
%TO.C,R23*%
X104140000Y-149320000D03*
%TD*%
D11*
%TO.C,L8*%
X111125000Y-64770000D03*
X111125000Y-68580000D03*
%TD*%
D10*
%TO.C,R40*%
X127000000Y-149320000D03*
%TD*%
D13*
%TO.C,D16*%
X107950000Y-120405000D03*
%TD*%
D10*
%TO.C,R53*%
X132080000Y-149320000D03*
%TD*%
D13*
%TO.C,D1*%
X57150000Y-120125500D03*
%TD*%
D12*
%TO.C,REF\u002A\u002A*%
X184785000Y-57150000D03*
%TD*%
D10*
%TO.C,R13*%
X92710000Y-149320000D03*
%TD*%
D11*
%TO.C,L15*%
X168910000Y-64770000D03*
X168910000Y-68580000D03*
%TD*%
%TO.C,L12*%
X135890000Y-64770000D03*
X135890000Y-68580000D03*
%TD*%
D13*
%TO.C,D37*%
X178435000Y-120260000D03*
%TD*%
D10*
%TO.C,R31*%
X111760000Y-149320000D03*
%TD*%
D14*
%TO.C,J3*%
X184150000Y-138430000D03*
X184150000Y-133350000D03*
%TD*%
D10*
%TO.C,R54*%
X134620000Y-149320000D03*
%TD*%
D11*
%TO.C,L11*%
X127635000Y-64770000D03*
X127635000Y-68580000D03*
%TD*%
%TO.C,L18*%
X186055000Y-86360000D03*
X182245000Y-86360000D03*
%TD*%
D10*
%TO.C,R42*%
X123190000Y-149320000D03*
%TD*%
D17*
%TO.C,Q5*%
X86360000Y-97395000D03*
D18*
X83820000Y-114055000D03*
D19*
X86360000Y-114055000D03*
X88900000Y-114055000D03*
%TD*%
D17*
%TO.C,Q14*%
X162560000Y-97545000D03*
D18*
X160020000Y-114205000D03*
D19*
X162560000Y-114205000D03*
X165100000Y-114205000D03*
%TD*%
D17*
%TO.C,Q7*%
X99060000Y-97395000D03*
D18*
X96520000Y-114055000D03*
D19*
X99060000Y-114055000D03*
X101600000Y-114055000D03*
%TD*%
D17*
%TO.C,Q8*%
X99060000Y-90560000D03*
D18*
X101600000Y-73900000D03*
D19*
X99060000Y-73900000D03*
X96520000Y-73900000D03*
%TD*%
D17*
%TO.C,Q11*%
X111760000Y-90560000D03*
D18*
X114300000Y-73900000D03*
D19*
X111760000Y-73900000D03*
X109220000Y-73900000D03*
%TD*%
D17*
%TO.C,Q19*%
X175260000Y-97545000D03*
D18*
X172720000Y-114205000D03*
D19*
X175260000Y-114205000D03*
X177800000Y-114205000D03*
%TD*%
D17*
%TO.C,Q15*%
X149860000Y-97395000D03*
D18*
X147320000Y-114055000D03*
D19*
X149860000Y-114055000D03*
X152400000Y-114055000D03*
%TD*%
D17*
%TO.C,Q13*%
X124460000Y-90560000D03*
D18*
X127000000Y-73900000D03*
D19*
X124460000Y-73900000D03*
X121920000Y-73900000D03*
%TD*%
D17*
%TO.C,Q12*%
X124460000Y-97395000D03*
D18*
X121920000Y-114055000D03*
D19*
X124460000Y-114055000D03*
X127000000Y-114055000D03*
%TD*%
D17*
%TO.C,Q20*%
X175260000Y-90560000D03*
D18*
X177800000Y-73900000D03*
D19*
X175260000Y-73900000D03*
X172720000Y-73900000D03*
%TD*%
D17*
%TO.C,Q16*%
X149860000Y-90560000D03*
D18*
X152400000Y-73900000D03*
D19*
X149860000Y-73900000D03*
X147320000Y-73900000D03*
%TD*%
D17*
%TO.C,Q9*%
X111760000Y-97395000D03*
D18*
X109220000Y-114055000D03*
D19*
X111760000Y-114055000D03*
X114300000Y-114055000D03*
%TD*%
D17*
%TO.C,Q6*%
X86360000Y-90560000D03*
D18*
X88900000Y-73900000D03*
D19*
X86360000Y-73900000D03*
X83820000Y-73900000D03*
%TD*%
D17*
%TO.C,Q2*%
X60960000Y-90560000D03*
D18*
X63500000Y-73900000D03*
D19*
X60960000Y-73900000D03*
X58420000Y-73900000D03*
%TD*%
D17*
%TO.C,Q3*%
X73660000Y-97395000D03*
D18*
X71120000Y-114055000D03*
D19*
X73660000Y-114055000D03*
X76200000Y-114055000D03*
%TD*%
D17*
%TO.C,Q17*%
X137160000Y-90560000D03*
D18*
X139700000Y-73900000D03*
D19*
X137160000Y-73900000D03*
X134620000Y-73900000D03*
%TD*%
D17*
%TO.C,Q18*%
X162560000Y-90560000D03*
D18*
X165100000Y-73900000D03*
D19*
X162560000Y-73900000D03*
X160020000Y-73900000D03*
%TD*%
D17*
%TO.C,Q1*%
X60960000Y-97395000D03*
D18*
X58420000Y-114055000D03*
D19*
X60960000Y-114055000D03*
X63500000Y-114055000D03*
%TD*%
D17*
%TO.C,Q4*%
X73660000Y-90560000D03*
D18*
X76200000Y-73900000D03*
D19*
X73660000Y-73900000D03*
X71120000Y-73900000D03*
%TD*%
D17*
%TO.C,Q10*%
X137160000Y-97395000D03*
D18*
X134620000Y-114055000D03*
D19*
X137160000Y-114055000D03*
X139700000Y-114055000D03*
%TD*%
M02*
