%TF.GenerationSoftware,KiCad,Pcbnew,9.0.5*%
%TF.CreationDate,2025-11-19T13:21:17-07:00*%
%TF.ProjectId,Tx,54782e6b-6963-4616-945f-706362585858,rev?*%
%TF.SameCoordinates,Original*%
%TF.FileFunction,Legend,Bot*%
%TF.FilePolarity,Positive*%
%FSLAX46Y46*%
G04 Gerber Fmt 4.6, Leading zero omitted, Abs format (unit mm)*
G04 Created by KiCad (PCBNEW 9.0.5) date 2025-11-19 13:21:17*
%MOMM*%
%LPD*%
G01*
G04 APERTURE LIST*
%ADD10C,0.100000*%
%ADD11C,0.508000*%
%ADD12C,0.000000*%
G04 APERTURE END LIST*
D10*
X158601905Y-101873135D02*
X158601905Y-102873135D01*
X158601905Y-102873135D02*
X158840000Y-102873135D01*
X158840000Y-102873135D02*
X158982857Y-102825516D01*
X158982857Y-102825516D02*
X159078095Y-102730278D01*
X159078095Y-102730278D02*
X159125714Y-102635040D01*
X159125714Y-102635040D02*
X159173333Y-102444564D01*
X159173333Y-102444564D02*
X159173333Y-102301707D01*
X159173333Y-102301707D02*
X159125714Y-102111231D01*
X159125714Y-102111231D02*
X159078095Y-102015993D01*
X159078095Y-102015993D02*
X158982857Y-101920755D01*
X158982857Y-101920755D02*
X158840000Y-101873135D01*
X158840000Y-101873135D02*
X158601905Y-101873135D01*
X159506667Y-102873135D02*
X160125714Y-102873135D01*
X160125714Y-102873135D02*
X159792381Y-102492183D01*
X159792381Y-102492183D02*
X159935238Y-102492183D01*
X159935238Y-102492183D02*
X160030476Y-102444564D01*
X160030476Y-102444564D02*
X160078095Y-102396945D01*
X160078095Y-102396945D02*
X160125714Y-102301707D01*
X160125714Y-102301707D02*
X160125714Y-102063612D01*
X160125714Y-102063612D02*
X160078095Y-101968374D01*
X160078095Y-101968374D02*
X160030476Y-101920755D01*
X160030476Y-101920755D02*
X159935238Y-101873135D01*
X159935238Y-101873135D02*
X159649524Y-101873135D01*
X159649524Y-101873135D02*
X159554286Y-101920755D01*
X159554286Y-101920755D02*
X159506667Y-101968374D01*
X158301905Y-112673135D02*
X158301905Y-113673135D01*
X158301905Y-113673135D02*
X158540000Y-113673135D01*
X158540000Y-113673135D02*
X158682857Y-113625516D01*
X158682857Y-113625516D02*
X158778095Y-113530278D01*
X158778095Y-113530278D02*
X158825714Y-113435040D01*
X158825714Y-113435040D02*
X158873333Y-113244564D01*
X158873333Y-113244564D02*
X158873333Y-113101707D01*
X158873333Y-113101707D02*
X158825714Y-112911231D01*
X158825714Y-112911231D02*
X158778095Y-112815993D01*
X158778095Y-112815993D02*
X158682857Y-112720755D01*
X158682857Y-112720755D02*
X158540000Y-112673135D01*
X158540000Y-112673135D02*
X158301905Y-112673135D01*
X159730476Y-113339802D02*
X159730476Y-112673135D01*
X159492381Y-113720755D02*
X159254286Y-113006469D01*
X159254286Y-113006469D02*
X159873333Y-113006469D01*
X158231905Y-124373135D02*
X158231905Y-125373135D01*
X158231905Y-125373135D02*
X158470000Y-125373135D01*
X158470000Y-125373135D02*
X158612857Y-125325516D01*
X158612857Y-125325516D02*
X158708095Y-125230278D01*
X158708095Y-125230278D02*
X158755714Y-125135040D01*
X158755714Y-125135040D02*
X158803333Y-124944564D01*
X158803333Y-124944564D02*
X158803333Y-124801707D01*
X158803333Y-124801707D02*
X158755714Y-124611231D01*
X158755714Y-124611231D02*
X158708095Y-124515993D01*
X158708095Y-124515993D02*
X158612857Y-124420755D01*
X158612857Y-124420755D02*
X158470000Y-124373135D01*
X158470000Y-124373135D02*
X158231905Y-124373135D01*
X159708095Y-125373135D02*
X159231905Y-125373135D01*
X159231905Y-125373135D02*
X159184286Y-124896945D01*
X159184286Y-124896945D02*
X159231905Y-124944564D01*
X159231905Y-124944564D02*
X159327143Y-124992183D01*
X159327143Y-124992183D02*
X159565238Y-124992183D01*
X159565238Y-124992183D02*
X159660476Y-124944564D01*
X159660476Y-124944564D02*
X159708095Y-124896945D01*
X159708095Y-124896945D02*
X159755714Y-124801707D01*
X159755714Y-124801707D02*
X159755714Y-124563612D01*
X159755714Y-124563612D02*
X159708095Y-124468374D01*
X159708095Y-124468374D02*
X159660476Y-124420755D01*
X159660476Y-124420755D02*
X159565238Y-124373135D01*
X159565238Y-124373135D02*
X159327143Y-124373135D01*
X159327143Y-124373135D02*
X159231905Y-124420755D01*
X159231905Y-124420755D02*
X159184286Y-124468374D01*
X158510510Y-91917317D02*
X158510510Y-92917317D01*
X158510510Y-92917317D02*
X158748605Y-92917317D01*
X158748605Y-92917317D02*
X158891462Y-92869698D01*
X158891462Y-92869698D02*
X158986700Y-92774460D01*
X158986700Y-92774460D02*
X159034319Y-92679222D01*
X159034319Y-92679222D02*
X159081938Y-92488746D01*
X159081938Y-92488746D02*
X159081938Y-92345889D01*
X159081938Y-92345889D02*
X159034319Y-92155413D01*
X159034319Y-92155413D02*
X158986700Y-92060175D01*
X158986700Y-92060175D02*
X158891462Y-91964937D01*
X158891462Y-91964937D02*
X158748605Y-91917317D01*
X158748605Y-91917317D02*
X158510510Y-91917317D01*
X159462891Y-92822079D02*
X159510510Y-92869698D01*
X159510510Y-92869698D02*
X159605748Y-92917317D01*
X159605748Y-92917317D02*
X159843843Y-92917317D01*
X159843843Y-92917317D02*
X159939081Y-92869698D01*
X159939081Y-92869698D02*
X159986700Y-92822079D01*
X159986700Y-92822079D02*
X160034319Y-92726841D01*
X160034319Y-92726841D02*
X160034319Y-92631603D01*
X160034319Y-92631603D02*
X159986700Y-92488746D01*
X159986700Y-92488746D02*
X159415272Y-91917317D01*
X159415272Y-91917317D02*
X160034319Y-91917317D01*
D11*
%TO.C,J1*%
X139916700Y-84963000D02*
G75*
G02*
X139154700Y-84963000I-381000J0D01*
G01*
X139154700Y-84963000D02*
G75*
G02*
X139916700Y-84963000I381000J0D01*
G01*
D10*
%TO.C,D3*%
X157600000Y-103200000D02*
X161200000Y-103200000D01*
X157600000Y-103500000D02*
X157600000Y-103200000D01*
X157600000Y-106700000D02*
X157600000Y-106500000D01*
X161200000Y-103200000D02*
X161200000Y-106900000D01*
X161200000Y-106900000D02*
X157700000Y-106900000D01*
X157660555Y-106960555D02*
G75*
G02*
X156939445Y-106960555I-360555J0D01*
G01*
X156939445Y-106960555D02*
G75*
G02*
X157660555Y-106960555I360555J0D01*
G01*
%TO.C,D4*%
X157300000Y-114100000D02*
X160900000Y-114100000D01*
X157300000Y-114400000D02*
X157300000Y-114100000D01*
X157300000Y-117600000D02*
X157300000Y-117400000D01*
X160900000Y-114100000D02*
X160900000Y-117800000D01*
X160900000Y-117800000D02*
X157400000Y-117800000D01*
X157360555Y-117860555D02*
G75*
G02*
X156639445Y-117860555I-360555J0D01*
G01*
X156639445Y-117860555D02*
G75*
G02*
X157360555Y-117860555I360555J0D01*
G01*
%TO.C,D5*%
X157200000Y-125800000D02*
X160800000Y-125800000D01*
X157200000Y-126100000D02*
X157200000Y-125800000D01*
X157200000Y-129300000D02*
X157200000Y-129100000D01*
X160800000Y-125800000D02*
X160800000Y-129500000D01*
X160800000Y-129500000D02*
X157300000Y-129500000D01*
X157260555Y-129560555D02*
G75*
G02*
X156539445Y-129560555I-360555J0D01*
G01*
X156539445Y-129560555D02*
G75*
G02*
X157260555Y-129560555I360555J0D01*
G01*
D12*
%TO.C,G\u002A\u002A\u002A*%
G36*
X119596610Y-111538947D02*
G01*
X119602979Y-111622386D01*
X119588607Y-111639107D01*
X119505168Y-111645475D01*
X119488446Y-111631104D01*
X119482078Y-111547665D01*
X119496450Y-111530943D01*
X119579889Y-111524575D01*
X119596610Y-111538947D01*
G37*
G36*
X119747664Y-114942202D02*
G01*
X119677764Y-115032776D01*
X119610866Y-115086359D01*
X119574438Y-115080488D01*
X119583285Y-115045602D01*
X119649957Y-114949355D01*
X119692109Y-114914932D01*
X119753283Y-114901643D01*
X119747664Y-114942202D01*
G37*
G36*
X119060138Y-111704662D02*
G01*
X119266704Y-111744142D01*
X119482904Y-111809099D01*
X119593274Y-111879075D01*
X119586961Y-111949034D01*
X119532687Y-111975192D01*
X119383397Y-111982425D01*
X119194577Y-111954955D01*
X119007995Y-111902724D01*
X118865416Y-111835674D01*
X118808609Y-111763749D01*
X118821317Y-111713647D01*
X118894593Y-111687982D01*
X119060138Y-111704662D01*
G37*
G36*
X121082980Y-108477655D02*
G01*
X121131069Y-108521709D01*
X121129705Y-108533278D01*
X121088316Y-108697851D01*
X121022585Y-108818588D01*
X120954377Y-108854329D01*
X120902323Y-108816112D01*
X120821526Y-108703763D01*
X120796723Y-108649347D01*
X120850820Y-108649347D01*
X120882729Y-108681256D01*
X120914639Y-108649347D01*
X120882729Y-108617437D01*
X120850820Y-108649347D01*
X120796723Y-108649347D01*
X120762906Y-108575156D01*
X120756887Y-108486893D01*
X120758803Y-108484132D01*
X120838723Y-108453458D01*
X120966156Y-108453102D01*
X121082980Y-108477655D01*
G37*
G36*
X109528697Y-105056669D02*
G01*
X109841077Y-105222170D01*
X110110939Y-105465389D01*
X110313454Y-105776394D01*
X110325547Y-105802595D01*
X110430393Y-106133633D01*
X110423560Y-106443111D01*
X110304714Y-106769116D01*
X110222800Y-106899841D01*
X109988666Y-107127300D01*
X109698065Y-107283202D01*
X109393213Y-107341055D01*
X109294367Y-107331405D01*
X109039143Y-107252911D01*
X108766945Y-107116616D01*
X108524406Y-106948114D01*
X108358163Y-106772999D01*
X108311377Y-106698453D01*
X108151849Y-106330122D01*
X108123789Y-106108988D01*
X108668752Y-106108988D01*
X108726316Y-106322185D01*
X108852201Y-106513185D01*
X109028006Y-106661726D01*
X109235332Y-106747546D01*
X109455776Y-106750383D01*
X109670940Y-106649975D01*
X109777179Y-106522829D01*
X109854606Y-106270262D01*
X109863599Y-106194004D01*
X109859728Y-106047724D01*
X109800564Y-105927612D01*
X109665114Y-105779270D01*
X109515923Y-105655826D01*
X109271397Y-105554061D01*
X109033716Y-105571967D01*
X108818019Y-105710768D01*
X108697910Y-105893856D01*
X108668752Y-106108988D01*
X108123789Y-106108988D01*
X108106038Y-105969091D01*
X108171233Y-105632423D01*
X108344724Y-105337181D01*
X108623802Y-105100427D01*
X108875695Y-104998558D01*
X109198627Y-104978821D01*
X109528697Y-105056669D01*
G37*
G36*
X109072225Y-103661184D02*
G01*
X109542472Y-103742417D01*
X109976454Y-103898055D01*
X110453904Y-104186480D01*
X110864809Y-104558940D01*
X111194482Y-104994513D01*
X111436242Y-105476077D01*
X111583402Y-105986511D01*
X111629279Y-106508696D01*
X111567189Y-107025509D01*
X111390448Y-107519831D01*
X111188949Y-107845744D01*
X110845436Y-108204758D01*
X110430506Y-108478054D01*
X109964826Y-108655713D01*
X109469066Y-108727815D01*
X108963894Y-108684440D01*
X108519624Y-108552691D01*
X108011497Y-108293378D01*
X107567562Y-107943013D01*
X107200314Y-107516678D01*
X106922252Y-107029454D01*
X106745873Y-106496422D01*
X106702713Y-106105249D01*
X108035278Y-106105249D01*
X108064026Y-106329471D01*
X108194843Y-106693556D01*
X108431702Y-106992542D01*
X108781399Y-107236736D01*
X108977507Y-107327814D01*
X109355889Y-107418583D01*
X109709360Y-107390833D01*
X110026299Y-107246476D01*
X110295087Y-106987427D01*
X110352038Y-106903730D01*
X110476167Y-106587218D01*
X110500873Y-106238391D01*
X110433519Y-105883596D01*
X110281468Y-105549177D01*
X110052082Y-105261479D01*
X109752726Y-105046848D01*
X109402867Y-104916898D01*
X109029867Y-104885124D01*
X108684650Y-104967718D01*
X108384444Y-105163213D01*
X108271779Y-105276269D01*
X108113647Y-105506134D01*
X108039957Y-105768583D01*
X108035278Y-106105249D01*
X106702713Y-106105249D01*
X106683671Y-105932664D01*
X106698535Y-105642640D01*
X106810792Y-105119703D01*
X107026098Y-104655382D01*
X107336057Y-104261792D01*
X107732274Y-103951049D01*
X108206353Y-103735270D01*
X108609454Y-103658377D01*
X109072225Y-103661184D01*
G37*
G36*
X116407251Y-112472152D02*
G01*
X116714495Y-112479342D01*
X116767272Y-112481103D01*
X117082884Y-112494934D01*
X117305502Y-112514786D01*
X117465550Y-112546353D01*
X117593456Y-112595327D01*
X117719645Y-112667400D01*
X117887512Y-112804961D01*
X117983367Y-112983300D01*
X117957665Y-113161142D01*
X117808690Y-113325800D01*
X117638420Y-113449833D01*
X117776781Y-113673706D01*
X117841400Y-113784591D01*
X117902111Y-113948791D01*
X117878265Y-114086392D01*
X117769253Y-114243365D01*
X117618190Y-114385999D01*
X117361974Y-114517863D01*
X117023003Y-114592448D01*
X116583101Y-114615455D01*
X116409109Y-114613323D01*
X116132339Y-114595731D01*
X115962907Y-114556972D01*
X115887683Y-114492934D01*
X115893537Y-114399506D01*
X115900092Y-114385427D01*
X115997717Y-114318436D01*
X116199830Y-114297337D01*
X116466917Y-114297337D01*
X116830217Y-114297337D01*
X117069538Y-114295307D01*
X117100145Y-114294663D01*
X117342990Y-114247485D01*
X117485617Y-114123761D01*
X117532227Y-113920085D01*
X117523071Y-113808174D01*
X117461564Y-113705332D01*
X117310910Y-113623980D01*
X117191943Y-113576463D01*
X117002342Y-113524881D01*
X116892785Y-113555596D01*
X116842376Y-113681234D01*
X116830217Y-113914422D01*
X116830217Y-114297337D01*
X116466917Y-114297337D01*
X116446328Y-113914422D01*
X116425080Y-113519245D01*
X116410483Y-113289387D01*
X116409211Y-113276231D01*
X116766398Y-113276231D01*
X117059692Y-113276231D01*
X117130390Y-113272834D01*
X117331142Y-113236469D01*
X117523081Y-113172318D01*
X117666998Y-113095455D01*
X117723684Y-113020955D01*
X117722903Y-113017166D01*
X117663184Y-112958495D01*
X117537489Y-112874667D01*
X117491027Y-112850280D01*
X117285129Y-112774631D01*
X117058846Y-112724595D01*
X116766398Y-112684510D01*
X116766398Y-112980371D01*
X116766398Y-113276231D01*
X116409211Y-113276231D01*
X116380863Y-112983006D01*
X116380408Y-112980371D01*
X116345972Y-112780736D01*
X116307486Y-112694333D01*
X116188223Y-112678281D01*
X116030034Y-112730863D01*
X115890202Y-112828874D01*
X115820627Y-112945534D01*
X115777854Y-113044408D01*
X115648891Y-113084774D01*
X115546053Y-113070196D01*
X115455991Y-113017533D01*
X115450778Y-112959693D01*
X115504474Y-112828775D01*
X115606388Y-112679673D01*
X115727955Y-112551932D01*
X115840609Y-112485094D01*
X115936864Y-112475901D01*
X116137707Y-112471073D01*
X116407251Y-112472152D01*
G37*
G36*
X103519694Y-105198211D02*
G01*
X103672469Y-105217082D01*
X103890868Y-105254132D01*
X104189662Y-105311625D01*
X104583617Y-105391825D01*
X105087503Y-105496996D01*
X105100415Y-105499707D01*
X105471115Y-105577128D01*
X105797354Y-105644484D01*
X106059030Y-105697686D01*
X106236040Y-105732645D01*
X106308278Y-105745273D01*
X106366462Y-105804724D01*
X106432401Y-105971034D01*
X106499232Y-106223974D01*
X106560559Y-106543317D01*
X106647136Y-106958761D01*
X106807011Y-107414264D01*
X107033990Y-107802395D01*
X107342747Y-108153359D01*
X107445051Y-108248589D01*
X107641320Y-108404223D01*
X107852269Y-108525920D01*
X108105924Y-108625843D01*
X108430313Y-108716156D01*
X108853461Y-108809023D01*
X108922519Y-108822736D01*
X109379520Y-108888162D01*
X109777708Y-108888180D01*
X110163839Y-108819246D01*
X110584669Y-108677818D01*
X110605518Y-108669552D01*
X110968011Y-108501988D01*
X111237592Y-108315279D01*
X111446933Y-108081044D01*
X111628704Y-107770904D01*
X111693087Y-107639637D01*
X111779078Y-107438042D01*
X111827027Y-107256779D01*
X111847816Y-107046563D01*
X111852327Y-106758109D01*
X111852775Y-106701130D01*
X112328978Y-106701130D01*
X112347547Y-106800093D01*
X112395473Y-106912281D01*
X112517146Y-106958141D01*
X112556704Y-106960767D01*
X112721469Y-106985121D01*
X112957476Y-107029542D01*
X113227671Y-107087293D01*
X113281884Y-107099474D01*
X113623518Y-107173640D01*
X113978268Y-107247180D01*
X114277453Y-107305796D01*
X114390274Y-107327100D01*
X114665610Y-107380065D01*
X115022849Y-107449617D01*
X115447194Y-107532808D01*
X115923850Y-107626692D01*
X116438022Y-107728324D01*
X116974915Y-107834757D01*
X117519732Y-107943044D01*
X118057680Y-108050241D01*
X118573961Y-108153401D01*
X119053782Y-108249577D01*
X119482346Y-108335823D01*
X119844859Y-108409194D01*
X120126524Y-108466743D01*
X120312547Y-108505524D01*
X120388131Y-108522591D01*
X120442110Y-108506709D01*
X120467905Y-108390065D01*
X120448783Y-108281003D01*
X120418831Y-108244306D01*
X120646337Y-108244306D01*
X120689893Y-108534759D01*
X120702871Y-108616564D01*
X120736591Y-108796744D01*
X120764453Y-108906007D01*
X120766337Y-108909476D01*
X120845539Y-108956837D01*
X121010302Y-109019992D01*
X121226308Y-109089219D01*
X121459242Y-109154794D01*
X121674786Y-109206996D01*
X121838624Y-109236101D01*
X121916439Y-109232388D01*
X121917676Y-109230823D01*
X121877083Y-109198652D01*
X121752492Y-109161702D01*
X121717793Y-109153398D01*
X121604466Y-109098738D01*
X121594401Y-109012036D01*
X121608275Y-108946642D01*
X121568171Y-108989037D01*
X121467145Y-109042736D01*
X121274964Y-109029799D01*
X121235769Y-109022055D01*
X121097965Y-108986934D01*
X121042277Y-108958756D01*
X121049755Y-108933987D01*
X121068190Y-108904623D01*
X121297553Y-108904623D01*
X121329463Y-108936533D01*
X121361373Y-108904623D01*
X121329463Y-108872714D01*
X121297553Y-108904623D01*
X121068190Y-108904623D01*
X121113143Y-108833020D01*
X121211979Y-108706883D01*
X121310608Y-108599206D01*
X121373374Y-108553618D01*
X121397120Y-108564330D01*
X121425192Y-108649347D01*
X121432392Y-108693385D01*
X121489011Y-108745075D01*
X121504265Y-108743221D01*
X121552830Y-108681256D01*
X121567524Y-108613288D01*
X121612241Y-108621640D01*
X121666566Y-108707116D01*
X121709390Y-108847325D01*
X121725854Y-108927203D01*
X121762964Y-109034536D01*
X121796973Y-109014947D01*
X121799431Y-109004118D01*
X121999564Y-109004118D01*
X122013151Y-109076540D01*
X122063383Y-109096080D01*
X122088307Y-109073331D01*
X122127202Y-108964676D01*
X122120623Y-108924132D01*
X122063383Y-108872714D01*
X122025601Y-108898386D01*
X121999564Y-109004118D01*
X121799431Y-109004118D01*
X121830131Y-108868838D01*
X121873830Y-108757292D01*
X121975167Y-108735506D01*
X122121421Y-108778139D01*
X122262456Y-108857637D01*
X122318659Y-108942974D01*
X122286195Y-109070366D01*
X122191982Y-109201860D01*
X122077092Y-109263179D01*
X122065220Y-109264455D01*
X122059717Y-109285153D01*
X122159111Y-109319447D01*
X122172727Y-109322887D01*
X122404539Y-109368863D01*
X122533816Y-109362202D01*
X122573935Y-109302352D01*
X122567626Y-109257537D01*
X122490045Y-109095415D01*
X122348040Y-108910090D01*
X122171998Y-108737537D01*
X121992306Y-108613735D01*
X121958017Y-108597349D01*
X121749584Y-108518024D01*
X121477068Y-108434779D01*
X121190227Y-108363161D01*
X120646337Y-108244306D01*
X120418831Y-108244306D01*
X120388131Y-108206693D01*
X120346585Y-108195502D01*
X120181806Y-108155548D01*
X119931001Y-108097368D01*
X119620155Y-108026763D01*
X119275249Y-107949532D01*
X118922267Y-107871474D01*
X118587191Y-107798388D01*
X118296004Y-107736074D01*
X118074689Y-107690331D01*
X117945157Y-107663863D01*
X117612188Y-107592835D01*
X117242212Y-107510945D01*
X116894036Y-107431105D01*
X116893793Y-107431048D01*
X116514953Y-107346021D01*
X116039343Y-107245232D01*
X115495984Y-107134422D01*
X114913899Y-107019327D01*
X114322109Y-106905687D01*
X113749636Y-106799240D01*
X113225502Y-106705724D01*
X112881005Y-106645953D01*
X112624695Y-106604811D01*
X112459314Y-106587825D01*
X112366885Y-106596928D01*
X112329432Y-106634053D01*
X112328978Y-106701130D01*
X111852775Y-106701130D01*
X111853489Y-106610317D01*
X111865040Y-106368493D01*
X111890584Y-106233366D01*
X111932101Y-106190838D01*
X111939111Y-106191228D01*
X112044382Y-106206961D01*
X112252404Y-106243062D01*
X112544397Y-106295965D01*
X112901580Y-106362107D01*
X113305171Y-106437922D01*
X113736389Y-106519847D01*
X114176454Y-106604318D01*
X114606585Y-106687769D01*
X115008001Y-106766637D01*
X115361921Y-106837357D01*
X115649564Y-106896365D01*
X115705108Y-106907958D01*
X116047991Y-106978468D01*
X116403370Y-107050132D01*
X116702579Y-107109079D01*
X116970522Y-107161459D01*
X117333614Y-107233646D01*
X117659865Y-107299648D01*
X117831560Y-107334430D01*
X118131814Y-107394466D01*
X118500686Y-107467660D01*
X118906895Y-107547806D01*
X119319162Y-107628703D01*
X119569273Y-107678988D01*
X120065389Y-107784709D01*
X120579179Y-107900570D01*
X121062875Y-108015672D01*
X121468710Y-108119116D01*
X121620040Y-108159776D01*
X121946349Y-108249832D01*
X122175763Y-108319726D01*
X122327763Y-108377734D01*
X122421830Y-108432130D01*
X122477442Y-108491189D01*
X122514080Y-108563187D01*
X122523656Y-108586005D01*
X122598045Y-108731963D01*
X122648801Y-108757902D01*
X122679275Y-108661525D01*
X122686547Y-108542822D01*
X123662845Y-108542822D01*
X123675976Y-108835794D01*
X123751891Y-109121617D01*
X123891629Y-109367939D01*
X124081075Y-109565881D01*
X124356703Y-109740921D01*
X124638638Y-109806452D01*
X124909403Y-109759306D01*
X124991854Y-109703801D01*
X126217135Y-109703801D01*
X126222359Y-109776179D01*
X126231435Y-109815246D01*
X126278164Y-109885525D01*
X126381082Y-109953561D01*
X126562287Y-110032068D01*
X126843878Y-110133759D01*
X127015624Y-110191763D01*
X127242644Y-110263033D01*
X127403522Y-110306615D01*
X127471285Y-110314727D01*
X127477559Y-110307532D01*
X127473320Y-110221210D01*
X127368800Y-110110865D01*
X127182663Y-109991633D01*
X126933577Y-109878652D01*
X126653872Y-109772715D01*
X126438508Y-109696315D01*
X126306442Y-109661166D01*
X126238907Y-109664562D01*
X126217135Y-109703801D01*
X124991854Y-109703801D01*
X125151521Y-109596316D01*
X125210870Y-109530764D01*
X125367687Y-109249309D01*
X125425511Y-108931730D01*
X125390100Y-108605296D01*
X125267209Y-108297278D01*
X125062593Y-108034947D01*
X124782008Y-107845573D01*
X124720163Y-107818147D01*
X124516217Y-107746751D01*
X124359335Y-107739551D01*
X124201322Y-107792112D01*
X124152153Y-107817151D01*
X124155259Y-107832516D01*
X124274485Y-107815918D01*
X124426702Y-107807099D01*
X124710139Y-107877517D01*
X124970859Y-108044708D01*
X125182822Y-108289342D01*
X125319993Y-108592088D01*
X125332337Y-108639411D01*
X125364867Y-108976369D01*
X125301782Y-109263992D01*
X125161648Y-109491766D01*
X124963034Y-109649178D01*
X124724505Y-109725714D01*
X124464628Y-109710862D01*
X124201971Y-109594108D01*
X123955100Y-109364938D01*
X123929003Y-109331888D01*
X123821554Y-109163367D01*
X123763229Y-108979175D01*
X123739188Y-108762353D01*
X124115195Y-108762353D01*
X124198962Y-108995787D01*
X124241206Y-109068031D01*
X124396865Y-109211903D01*
X124616808Y-109255628D01*
X124774403Y-109206290D01*
X124884395Y-109070161D01*
X124930949Y-108879744D01*
X124906373Y-108667652D01*
X124802972Y-108466496D01*
X124724944Y-108387583D01*
X124541703Y-108302792D01*
X124355858Y-108319774D01*
X124204941Y-108440180D01*
X124136741Y-108564229D01*
X124115195Y-108762353D01*
X123739188Y-108762353D01*
X123734886Y-108723558D01*
X123726173Y-108526265D01*
X123739265Y-108364740D01*
X123789624Y-108242036D01*
X123889363Y-108110042D01*
X123900658Y-108096585D01*
X123993646Y-107978511D01*
X124004209Y-107939713D01*
X123936647Y-107967199D01*
X123820776Y-108064838D01*
X123711459Y-108275053D01*
X123662845Y-108542822D01*
X122686547Y-108542822D01*
X122692814Y-108440533D01*
X122696529Y-108366004D01*
X122747157Y-108038739D01*
X122839308Y-107732332D01*
X122921417Y-107556598D01*
X123177078Y-107201973D01*
X123505396Y-106944716D01*
X123892560Y-106791281D01*
X124324756Y-106748122D01*
X124788173Y-106821693D01*
X124982396Y-106909760D01*
X125230829Y-107077131D01*
X125486926Y-107291409D01*
X125715955Y-107523349D01*
X125883185Y-107743709D01*
X126034688Y-108049816D01*
X126172238Y-108510588D01*
X126223541Y-108981034D01*
X126225921Y-109376540D01*
X126701525Y-109536447D01*
X126716459Y-109541526D01*
X126981633Y-109648277D01*
X127226080Y-109773381D01*
X127398607Y-109890816D01*
X127579554Y-110032496D01*
X127701541Y-110093077D01*
X127741864Y-110067617D01*
X127691201Y-109963005D01*
X127540232Y-109786130D01*
X127479825Y-109719534D01*
X127394509Y-109600108D01*
X127380287Y-109533532D01*
X127399855Y-109525583D01*
X127516391Y-109541419D01*
X127701143Y-109600874D01*
X127922535Y-109690509D01*
X128148990Y-109796887D01*
X128348929Y-109906569D01*
X128490778Y-110006117D01*
X128623169Y-110156560D01*
X128729545Y-110418731D01*
X128731841Y-110432579D01*
X128744278Y-110575970D01*
X128711382Y-110683458D01*
X128612473Y-110790015D01*
X128426873Y-110930614D01*
X128385178Y-110963062D01*
X128346556Y-111024683D01*
X128357236Y-111122904D01*
X128416003Y-111298785D01*
X128471219Y-111502358D01*
X128521063Y-111779804D01*
X128552428Y-112063668D01*
X128563728Y-112241338D01*
X128564310Y-112431870D01*
X128534327Y-112577323D01*
X128461303Y-112726885D01*
X128332762Y-112929740D01*
X128246842Y-113056804D01*
X128106697Y-113230946D01*
X127956603Y-113356185D01*
X127773023Y-113442113D01*
X127532420Y-113498319D01*
X127211256Y-113534391D01*
X126785996Y-113559920D01*
X126610359Y-113568995D01*
X126192147Y-113593475D01*
X125716246Y-113624195D01*
X125228736Y-113658124D01*
X124775694Y-113692228D01*
X124575902Y-113707553D01*
X124081217Y-113742679D01*
X123561421Y-113776394D01*
X123067271Y-113805487D01*
X122649524Y-113826746D01*
X121672097Y-113870606D01*
X120639222Y-114727976D01*
X120557939Y-114795290D01*
X120244148Y-115052223D01*
X119958845Y-115281407D01*
X119719325Y-115469234D01*
X119542879Y-115602095D01*
X119446800Y-115666382D01*
X119440515Y-115669257D01*
X119316715Y-115700649D01*
X119090517Y-115738387D01*
X118784376Y-115779431D01*
X118420744Y-115820740D01*
X118022074Y-115859275D01*
X118002135Y-115861036D01*
X117527919Y-115900588D01*
X117147152Y-115925877D01*
X116827706Y-115937457D01*
X116537457Y-115935877D01*
X116244278Y-115921690D01*
X115916044Y-115895449D01*
X115197634Y-115827195D01*
X114515372Y-115755353D01*
X113884767Y-115681913D01*
X113318432Y-115608605D01*
X113161390Y-115585681D01*
X114408232Y-115585681D01*
X114447906Y-115606978D01*
X114580703Y-115632707D01*
X114817937Y-115665427D01*
X115170920Y-115707698D01*
X115217726Y-115713066D01*
X115619737Y-115754268D01*
X115968997Y-115777606D01*
X116310410Y-115784042D01*
X116688880Y-115774538D01*
X117149312Y-115750053D01*
X117395766Y-115733239D01*
X117848174Y-115690506D01*
X118190437Y-115639630D01*
X118418199Y-115581577D01*
X118527106Y-115517311D01*
X118512801Y-115447799D01*
X118512224Y-115447310D01*
X118430520Y-115426630D01*
X118242851Y-115400204D01*
X117970033Y-115370318D01*
X117632880Y-115339259D01*
X117252207Y-115309314D01*
X116046810Y-115222067D01*
X115851743Y-115365983D01*
X115795592Y-115404468D01*
X115654404Y-115469523D01*
X115472341Y-115501687D01*
X115206386Y-115510602D01*
X114965738Y-115516169D01*
X114700306Y-115532625D01*
X114500820Y-115556049D01*
X114450370Y-115566254D01*
X114408232Y-115585681D01*
X113161390Y-115585681D01*
X112828981Y-115537158D01*
X112429025Y-115469302D01*
X112131179Y-115406767D01*
X111948056Y-115351283D01*
X111859501Y-115299593D01*
X111676790Y-115169288D01*
X111574929Y-115090970D01*
X118553332Y-115090970D01*
X118554776Y-115095105D01*
X118626203Y-115117750D01*
X118772080Y-115126985D01*
X118799827Y-115126656D01*
X118874494Y-115117661D01*
X118928920Y-115093660D01*
X119471861Y-115093660D01*
X119530433Y-115174151D01*
X119588891Y-115222692D01*
X119663178Y-115221905D01*
X119773248Y-115133832D01*
X119919825Y-114997275D01*
X119789089Y-114866539D01*
X119658354Y-114735803D01*
X119546274Y-114906858D01*
X119487291Y-115005524D01*
X119471861Y-115093660D01*
X118928920Y-115093660D01*
X118946372Y-115085964D01*
X119027980Y-115017820D01*
X119131836Y-114899485D01*
X119270458Y-114717213D01*
X119456365Y-114457259D01*
X119474977Y-114430643D01*
X119874280Y-114430643D01*
X119949086Y-114513223D01*
X120040847Y-114586371D01*
X120123225Y-114606336D01*
X120148810Y-114520704D01*
X120159929Y-114476060D01*
X120244538Y-114424975D01*
X120288576Y-114417775D01*
X120340267Y-114361156D01*
X120336143Y-114337732D01*
X120272817Y-114298503D01*
X120177510Y-114319597D01*
X120108069Y-114393065D01*
X120083748Y-114437917D01*
X120010725Y-114488794D01*
X119996666Y-114448770D01*
X120049462Y-114346956D01*
X120115579Y-114239897D01*
X120148810Y-114155498D01*
X120125508Y-114108355D01*
X120050309Y-114141378D01*
X119944061Y-114259952D01*
X119881675Y-114354016D01*
X119874280Y-114430643D01*
X119474977Y-114430643D01*
X119702076Y-114105879D01*
X119726535Y-114070843D01*
X119845809Y-113903817D01*
X120347804Y-113903817D01*
X120435996Y-113910363D01*
X120536756Y-113891741D01*
X120687515Y-113816664D01*
X120729782Y-113783587D01*
X120768956Y-113734411D01*
X120706641Y-113722965D01*
X120644059Y-113707901D01*
X120543727Y-113619041D01*
X120542358Y-113617336D01*
X121972124Y-113617336D01*
X121995322Y-113641062D01*
X122079523Y-113653142D01*
X122241342Y-113654844D01*
X122497398Y-113647437D01*
X122864305Y-113632189D01*
X122940930Y-113628726D01*
X123344118Y-113607590D01*
X123749955Y-113582166D01*
X124115039Y-113555349D01*
X124395963Y-113530033D01*
X124458277Y-113523705D01*
X124784604Y-113496201D01*
X125107770Y-113476608D01*
X125366021Y-113468822D01*
X125555251Y-113461809D01*
X125706787Y-113441953D01*
X125764890Y-113413941D01*
X125709925Y-113395627D01*
X125546593Y-113374731D01*
X125294788Y-113353760D01*
X124974549Y-113334368D01*
X124605916Y-113318212D01*
X124140212Y-113302459D01*
X123608731Y-113289210D01*
X123180576Y-113286536D01*
X122841900Y-113295762D01*
X122578859Y-113318209D01*
X122377607Y-113355201D01*
X122224300Y-113408062D01*
X122105092Y-113478115D01*
X122006138Y-113566682D01*
X121993312Y-113580697D01*
X121972124Y-113617336D01*
X120542358Y-113617336D01*
X120501390Y-113566296D01*
X120443786Y-113582721D01*
X120433100Y-113611546D01*
X120470683Y-113692772D01*
X120494382Y-113736894D01*
X120423860Y-113822791D01*
X120369224Y-113865576D01*
X120347804Y-113903817D01*
X119845809Y-113903817D01*
X119949368Y-113758798D01*
X120151386Y-113488066D01*
X120319914Y-113274750D01*
X120436036Y-113142083D01*
X120697650Y-113142083D01*
X120729833Y-113230466D01*
X120831096Y-113346728D01*
X120927908Y-113430296D01*
X120970557Y-113445833D01*
X120955229Y-113378685D01*
X120944987Y-113294438D01*
X121012986Y-113145699D01*
X121066124Y-113065911D01*
X121049636Y-112993594D01*
X120989114Y-113001276D01*
X120910981Y-113091608D01*
X120910863Y-113091829D01*
X120842776Y-113179761D01*
X120788118Y-113150401D01*
X120759279Y-113117915D01*
X120701216Y-113132503D01*
X120697650Y-113142083D01*
X120436036Y-113142083D01*
X120442278Y-113134952D01*
X120505802Y-113084774D01*
X120586942Y-113043107D01*
X120670975Y-112925226D01*
X120740628Y-112817714D01*
X120822326Y-112765678D01*
X120863076Y-112754662D01*
X120937718Y-112669950D01*
X120969125Y-112642021D01*
X121113111Y-112603859D01*
X121353603Y-112580108D01*
X121671221Y-112571106D01*
X122046585Y-112577188D01*
X122460315Y-112598693D01*
X122893031Y-112635956D01*
X123092986Y-112655909D01*
X123435160Y-112688281D01*
X123842305Y-112725432D01*
X124279513Y-112764188D01*
X124711875Y-112801375D01*
X125052975Y-112832842D01*
X125485963Y-112879462D01*
X125893380Y-112930080D01*
X126241307Y-112980421D01*
X126495822Y-113026210D01*
X126570705Y-113041587D01*
X126892238Y-113096050D01*
X127207575Y-113134211D01*
X127457938Y-113148593D01*
X127580130Y-113145577D01*
X127844495Y-113100499D01*
X128012312Y-112988434D01*
X128100554Y-112792838D01*
X128126197Y-112497162D01*
X128124966Y-112392709D01*
X128103135Y-112213080D01*
X128033353Y-112114219D01*
X127889172Y-112072342D01*
X127644148Y-112063668D01*
X127559214Y-112060086D01*
X127347023Y-112036731D01*
X127093650Y-111997212D01*
X126832640Y-111948085D01*
X126597541Y-111895908D01*
X126421899Y-111847236D01*
X126339262Y-111808627D01*
X126337392Y-111806985D01*
X126254096Y-111784673D01*
X126071493Y-111754787D01*
X125814894Y-111721032D01*
X125509614Y-111687117D01*
X125205545Y-111653624D01*
X124841184Y-111608054D01*
X124512468Y-111561576D01*
X124265141Y-111520323D01*
X124164575Y-111502119D01*
X123858960Y-111453545D01*
X123508003Y-111404526D01*
X123169328Y-111363317D01*
X123017559Y-111344475D01*
X122689823Y-111291886D01*
X122389202Y-111229515D01*
X122165772Y-111167151D01*
X122016965Y-111120901D01*
X121769274Y-111064411D01*
X121570379Y-111042207D01*
X121567679Y-111042199D01*
X121332910Y-111024920D01*
X121106096Y-110984582D01*
X120962582Y-110947745D01*
X120744839Y-110894907D01*
X120616369Y-110876658D01*
X120553685Y-110896104D01*
X120533300Y-110956347D01*
X120531724Y-111060493D01*
X120531681Y-111069068D01*
X120515009Y-111231511D01*
X120477314Y-111332940D01*
X120453102Y-111374377D01*
X120398105Y-111518077D01*
X120341109Y-111712663D01*
X120317165Y-111797070D01*
X120219761Y-112068488D01*
X120108334Y-112311028D01*
X120057529Y-112408345D01*
X119985599Y-112561971D01*
X119957352Y-112647340D01*
X119953153Y-112660607D01*
X119900356Y-112765214D01*
X119794603Y-112956229D01*
X119645467Y-113216847D01*
X119462522Y-113530262D01*
X119255342Y-113879668D01*
X119177036Y-114010991D01*
X118977920Y-114347070D01*
X118806460Y-114639553D01*
X118672188Y-114871996D01*
X118584635Y-115027950D01*
X118553332Y-115090970D01*
X111574929Y-115090970D01*
X111427224Y-114977403D01*
X111126456Y-114736829D01*
X110790135Y-114460455D01*
X110433913Y-114161170D01*
X110073440Y-113851864D01*
X109724367Y-113545426D01*
X109402345Y-113254745D01*
X109184194Y-113060231D01*
X108948134Y-112861941D01*
X108748071Y-112706366D01*
X108645249Y-112638192D01*
X109171925Y-112638192D01*
X109187561Y-112661728D01*
X109281910Y-112761068D01*
X109448789Y-112923104D01*
X109673341Y-113134267D01*
X109940714Y-113380991D01*
X110236051Y-113649707D01*
X110544499Y-113926849D01*
X110851202Y-114198848D01*
X111141306Y-114452137D01*
X111399956Y-114673149D01*
X111884237Y-115080871D01*
X113310237Y-115044720D01*
X113512272Y-115039258D01*
X113907274Y-115026486D01*
X114249313Y-115012647D01*
X114519724Y-114998646D01*
X114699848Y-114985390D01*
X114771021Y-114973785D01*
X114772832Y-114951295D01*
X114722170Y-114847122D01*
X114613578Y-114686270D01*
X114465260Y-114494604D01*
X114295419Y-114297989D01*
X114283653Y-114285024D01*
X114188746Y-114169185D01*
X114149815Y-114100503D01*
X114147051Y-114090296D01*
X114091335Y-114004557D01*
X113986533Y-113876484D01*
X113975230Y-113863495D01*
X113838979Y-113687843D01*
X113732908Y-113521915D01*
X113672253Y-113417606D01*
X113538535Y-113210635D01*
X113368295Y-112962677D01*
X113179444Y-112698247D01*
X112989894Y-112441859D01*
X112817557Y-112218030D01*
X112680345Y-112051273D01*
X112596169Y-111966104D01*
X112482043Y-111910645D01*
X112300816Y-111878668D01*
X112258041Y-111882270D01*
X112069267Y-111911454D01*
X111785930Y-111965654D01*
X111429142Y-112040361D01*
X111020018Y-112131066D01*
X110579670Y-112233259D01*
X110129212Y-112342433D01*
X109931772Y-112391441D01*
X109623958Y-112468704D01*
X109412817Y-112524034D01*
X109280197Y-112563039D01*
X109207944Y-112591328D01*
X109177904Y-112614509D01*
X109171925Y-112638192D01*
X108645249Y-112638192D01*
X108612143Y-112616242D01*
X108608627Y-112614474D01*
X108495030Y-112573728D01*
X108271458Y-112506182D01*
X107950944Y-112415355D01*
X107546517Y-112304768D01*
X107071210Y-112177941D01*
X106538053Y-112038392D01*
X105960078Y-111889643D01*
X105350317Y-111735212D01*
X105058090Y-111661757D01*
X104293745Y-111469156D01*
X103641345Y-111303852D01*
X103091989Y-111163427D01*
X102636776Y-111045462D01*
X102266803Y-110947541D01*
X101973170Y-110867244D01*
X101746974Y-110802155D01*
X101579314Y-110749855D01*
X101461289Y-110707926D01*
X101383997Y-110673951D01*
X101338537Y-110645511D01*
X101279286Y-110575990D01*
X101223712Y-110494266D01*
X101396579Y-110494266D01*
X101399065Y-110523141D01*
X101419474Y-110552307D01*
X101466640Y-110584283D01*
X101549397Y-110621586D01*
X101676581Y-110666733D01*
X101857027Y-110722242D01*
X102099568Y-110790631D01*
X102413041Y-110874417D01*
X102806279Y-110976118D01*
X103288118Y-111098251D01*
X103867393Y-111243334D01*
X104552937Y-111413885D01*
X105353587Y-111612421D01*
X105464469Y-111639909D01*
X106073388Y-111791353D01*
X106646277Y-111934650D01*
X107170578Y-112066604D01*
X107633733Y-112184020D01*
X108023184Y-112283702D01*
X108326371Y-112362457D01*
X108530738Y-112417088D01*
X108623726Y-112444402D01*
X108679114Y-112462120D01*
X108824213Y-112462278D01*
X109000133Y-112381532D01*
X109118967Y-112319355D01*
X109347401Y-112217921D01*
X109591050Y-112124690D01*
X109606404Y-112119428D01*
X109816111Y-112055360D01*
X110098532Y-111978499D01*
X110425672Y-111895421D01*
X110769540Y-111812702D01*
X110930716Y-111775978D01*
X113320167Y-111775978D01*
X113323964Y-111786201D01*
X113378793Y-111877401D01*
X113485433Y-112039502D01*
X113626710Y-112247784D01*
X113785452Y-112477527D01*
X113944484Y-112704008D01*
X114086631Y-112902509D01*
X114194721Y-113048307D01*
X114251580Y-113116683D01*
X114325035Y-113202546D01*
X114414206Y-113346378D01*
X114483927Y-113471135D01*
X114649651Y-113731173D01*
X114846401Y-114008074D01*
X115054436Y-114276824D01*
X115254011Y-114512407D01*
X115425386Y-114689807D01*
X115548816Y-114784010D01*
X115682145Y-114823062D01*
X115918795Y-114866972D01*
X116231862Y-114912314D01*
X116595632Y-114956237D01*
X116984390Y-114995888D01*
X117372423Y-115028416D01*
X117734017Y-115050968D01*
X118043458Y-115060693D01*
X118331321Y-115063166D01*
X118649739Y-114537628D01*
X118840225Y-114220500D01*
X119064175Y-113840692D01*
X119268354Y-113487116D01*
X119443454Y-113176337D01*
X119580167Y-112924921D01*
X119669185Y-112749433D01*
X119701197Y-112666440D01*
X119699027Y-112656728D01*
X119661047Y-112626555D01*
X119567889Y-112594192D01*
X119409318Y-112557913D01*
X119175095Y-112515988D01*
X118854984Y-112466690D01*
X118438747Y-112408291D01*
X117916149Y-112339064D01*
X117276950Y-112257281D01*
X117111843Y-112236372D01*
X116632238Y-112175348D01*
X116158765Y-112114720D01*
X115721553Y-112058369D01*
X115350728Y-112010172D01*
X115076418Y-111974008D01*
X114834981Y-111943783D01*
X114568704Y-111917071D01*
X114398307Y-111908325D01*
X114330032Y-111916315D01*
X114370123Y-111939812D01*
X114524819Y-111977584D01*
X114800364Y-112028403D01*
X114907217Y-112054397D01*
X115047181Y-112148600D01*
X115082429Y-112306172D01*
X115017443Y-112537627D01*
X114990705Y-112599414D01*
X114920717Y-112711072D01*
X114819424Y-112756849D01*
X114638785Y-112765678D01*
X114426628Y-112747503D01*
X114221607Y-112657616D01*
X114096972Y-112479286D01*
X114037231Y-112197890D01*
X114019492Y-112067965D01*
X113979297Y-111910542D01*
X113933772Y-111840241D01*
X113839903Y-111820775D01*
X113681483Y-111798464D01*
X113511403Y-111780351D01*
X113375638Y-111771251D01*
X113320167Y-111775978D01*
X110930716Y-111775978D01*
X111102144Y-111736918D01*
X111395490Y-111674645D01*
X111621587Y-111632458D01*
X111752442Y-111616935D01*
X111822131Y-111613861D01*
X111860464Y-111591532D01*
X111778316Y-111547336D01*
X111574688Y-111480964D01*
X111248582Y-111392109D01*
X110798999Y-111280462D01*
X110224940Y-111145716D01*
X110022200Y-111099090D01*
X108969641Y-110856878D01*
X108033316Y-110641080D01*
X107206275Y-110450007D01*
X106481567Y-110281970D01*
X105852244Y-110135281D01*
X105311356Y-110008249D01*
X104851952Y-109899187D01*
X104467083Y-109806405D01*
X104149799Y-109728215D01*
X103893151Y-109662926D01*
X103690188Y-109608851D01*
X103533961Y-109564300D01*
X103417521Y-109527585D01*
X103333916Y-109497016D01*
X103276198Y-109470904D01*
X103237417Y-109447561D01*
X103222422Y-109437034D01*
X103085307Y-109353645D01*
X102994634Y-109319447D01*
X102994025Y-109319456D01*
X102907172Y-109357001D01*
X102744703Y-109456238D01*
X102529330Y-109600582D01*
X102283766Y-109773451D01*
X102030724Y-109958260D01*
X101792916Y-110138426D01*
X101593053Y-110297366D01*
X101453850Y-110418495D01*
X101398017Y-110485230D01*
X101396579Y-110494266D01*
X101223712Y-110494266D01*
X101174958Y-110422570D01*
X101056669Y-110226942D01*
X101056566Y-110226761D01*
X100926589Y-109939609D01*
X100858542Y-109657657D01*
X100856883Y-109429200D01*
X100947706Y-109429200D01*
X100954679Y-109626345D01*
X100971273Y-109755286D01*
X101013885Y-109937514D01*
X101064391Y-110041169D01*
X101078522Y-110053420D01*
X101113184Y-110052651D01*
X101119187Y-109962978D01*
X101098810Y-109766181D01*
X101087880Y-109688746D01*
X101046045Y-109484510D01*
X101002598Y-109367218D01*
X100966749Y-109345803D01*
X100947706Y-109429200D01*
X100856883Y-109429200D01*
X100856770Y-109413608D01*
X100913342Y-109271084D01*
X103141021Y-109271084D01*
X103428207Y-109395617D01*
X103582159Y-109450619D01*
X103856966Y-109532591D01*
X104235138Y-109635890D01*
X104705611Y-109757711D01*
X105257322Y-109895251D01*
X105879210Y-110045706D01*
X106560211Y-110206273D01*
X107289262Y-110374148D01*
X107376101Y-110393941D01*
X107778779Y-110486147D01*
X108259929Y-110596835D01*
X108783141Y-110717603D01*
X109312006Y-110840051D01*
X109810116Y-110955779D01*
X110047529Y-111011002D01*
X110488867Y-111113384D01*
X110901033Y-111208665D01*
X111260245Y-111291364D01*
X111542724Y-111356000D01*
X111724689Y-111397090D01*
X111759528Y-111404321D01*
X112000836Y-111441143D01*
X112324184Y-111475978D01*
X112691544Y-111505192D01*
X113064890Y-111525152D01*
X113118795Y-111527316D01*
X113507492Y-111546485D01*
X113895623Y-111570983D01*
X114240846Y-111597885D01*
X114500820Y-111624269D01*
X114506530Y-111624975D01*
X114837302Y-111664638D01*
X115213155Y-111707904D01*
X115553835Y-111745533D01*
X115594219Y-111749936D01*
X115933454Y-111791231D01*
X116335582Y-111846019D01*
X116773536Y-111910029D01*
X117220249Y-111978989D01*
X117648652Y-112048627D01*
X118031679Y-112114672D01*
X118342261Y-112172852D01*
X118553332Y-112218896D01*
X118558593Y-112220218D01*
X118805319Y-112270585D01*
X119112490Y-112317746D01*
X119414890Y-112351652D01*
X119925443Y-112395556D01*
X120005217Y-112134889D01*
X120019366Y-112086107D01*
X120066124Y-111878715D01*
X120084991Y-111713668D01*
X120100945Y-111607761D01*
X120148810Y-111553116D01*
X120177357Y-111513497D01*
X120202851Y-111376474D01*
X120212629Y-111174111D01*
X120212629Y-110795107D01*
X119909488Y-110757516D01*
X119832190Y-110747403D01*
X119553603Y-110705845D01*
X119287252Y-110660255D01*
X119124137Y-110633536D01*
X118835873Y-110595883D01*
X118553332Y-110567761D01*
X118518356Y-110564967D01*
X117961074Y-110512655D01*
X117483207Y-110452668D01*
X117100830Y-110387327D01*
X116830016Y-110318953D01*
X116713151Y-110287919D01*
X116464339Y-110239910D01*
X116158352Y-110194240D01*
X115836659Y-110157642D01*
X115601868Y-110132834D01*
X115316896Y-110095515D01*
X115089689Y-110057580D01*
X114954992Y-110024285D01*
X114775308Y-109978479D01*
X114564639Y-109957638D01*
X114367960Y-109938875D01*
X114169924Y-109889119D01*
X114164302Y-109887028D01*
X114006288Y-109844042D01*
X113772581Y-109797156D01*
X113511624Y-109756157D01*
X113239963Y-109719564D01*
X112918924Y-109676289D01*
X112650066Y-109640017D01*
X112536573Y-109624245D01*
X112256051Y-109583450D01*
X111926265Y-109533885D01*
X111597051Y-109482981D01*
X111582472Y-109480718D01*
X111248886Y-109438882D01*
X110840653Y-109401727D01*
X110408105Y-109373216D01*
X110001574Y-109357314D01*
X109734937Y-109348848D01*
X109017220Y-109297213D01*
X108379631Y-109206900D01*
X108267003Y-109180799D01*
X110827269Y-109180799D01*
X111004748Y-109217787D01*
X111017407Y-109220168D01*
X111138895Y-109240612D01*
X111370570Y-109278317D01*
X111700031Y-109331327D01*
X112114875Y-109397682D01*
X112602701Y-109475425D01*
X113151106Y-109562597D01*
X113747689Y-109657241D01*
X114380048Y-109757399D01*
X115035781Y-109861111D01*
X115702485Y-109966421D01*
X116367759Y-110071370D01*
X117019201Y-110174001D01*
X117644408Y-110272354D01*
X118230980Y-110364472D01*
X118766513Y-110448398D01*
X119238606Y-110522172D01*
X119634857Y-110583837D01*
X119942864Y-110631435D01*
X120150225Y-110663008D01*
X120244538Y-110676597D01*
X120281662Y-110678527D01*
X120331569Y-110656797D01*
X120361636Y-110581220D01*
X120378959Y-110427200D01*
X120388546Y-110216043D01*
X120595541Y-110216043D01*
X120595676Y-110452972D01*
X120611107Y-110609307D01*
X120663827Y-110706073D01*
X120775828Y-110764294D01*
X120969102Y-110804993D01*
X121265644Y-110849195D01*
X121305375Y-110855181D01*
X121558498Y-110894888D01*
X121890655Y-110948731D01*
X122263267Y-111010401D01*
X122637754Y-111073587D01*
X122847239Y-111109094D01*
X123287763Y-111182853D01*
X123781588Y-111264655D01*
X124282374Y-111346840D01*
X124743785Y-111421748D01*
X124976715Y-111459349D01*
X125484698Y-111541614D01*
X126019014Y-111628431D01*
X126528876Y-111711540D01*
X126963499Y-111782685D01*
X127213150Y-111822450D01*
X127532314Y-111869309D01*
X127790767Y-111902503D01*
X127966826Y-111919322D01*
X128038805Y-111917057D01*
X128055812Y-111868372D01*
X128048712Y-111724901D01*
X128010051Y-111540413D01*
X127950641Y-111361693D01*
X127881296Y-111235525D01*
X127844775Y-111202548D01*
X127724551Y-111140614D01*
X127523621Y-111074151D01*
X127226793Y-110998488D01*
X126818873Y-110908957D01*
X125862554Y-110708882D01*
X125587829Y-111012326D01*
X125313103Y-111315769D01*
X124798051Y-111272815D01*
X124760177Y-111269461D01*
X124482566Y-111234436D01*
X124232065Y-111186928D01*
X124058864Y-111136212D01*
X124028397Y-111123820D01*
X123859655Y-111066052D01*
X123742537Y-111042563D01*
X123724968Y-111041371D01*
X123574926Y-110977496D01*
X123387630Y-110833497D01*
X123190366Y-110633290D01*
X123010417Y-110400793D01*
X122907765Y-110263583D01*
X122772995Y-110121227D01*
X122669664Y-110053839D01*
X122649627Y-110049355D01*
X122510063Y-110021472D01*
X122279713Y-109977704D01*
X121985445Y-109923106D01*
X121654126Y-109862736D01*
X121545536Y-109843236D01*
X121229616Y-109787855D01*
X120963339Y-109743137D01*
X120771999Y-109713250D01*
X120680884Y-109702362D01*
X120657521Y-109709372D01*
X120621012Y-109779404D01*
X120601391Y-109939656D01*
X120595543Y-110208614D01*
X120595541Y-110216043D01*
X120388546Y-110216043D01*
X120390630Y-110170144D01*
X120393178Y-110093357D01*
X120395970Y-109859501D01*
X120383592Y-109719408D01*
X120351437Y-109646290D01*
X120294901Y-109613360D01*
X120268383Y-109605781D01*
X120098792Y-109566580D01*
X119814531Y-109509336D01*
X119413707Y-109433704D01*
X118894422Y-109339336D01*
X118254781Y-109225888D01*
X117492889Y-109093013D01*
X116606850Y-108940365D01*
X116432503Y-108910476D01*
X115793857Y-108801012D01*
X115262223Y-108709961D01*
X114822505Y-108634781D01*
X114459609Y-108572930D01*
X114158440Y-108521866D01*
X113903904Y-108479046D01*
X113680904Y-108441930D01*
X113474348Y-108407973D01*
X113269139Y-108374635D01*
X113050183Y-108339373D01*
X112802385Y-108299645D01*
X112769030Y-108294317D01*
X112460158Y-108246443D01*
X112195744Y-108207950D01*
X112002944Y-108182645D01*
X111908918Y-108174338D01*
X111841542Y-108211280D01*
X111719631Y-108327232D01*
X111579575Y-108494135D01*
X111468865Y-108628136D01*
X111268598Y-108836451D01*
X111083000Y-108995549D01*
X110827269Y-109180799D01*
X108267003Y-109180799D01*
X107833199Y-109080267D01*
X107388954Y-108919676D01*
X107057923Y-108727485D01*
X106921696Y-108607276D01*
X106721864Y-108392729D01*
X106547288Y-108167035D01*
X106305534Y-107812361D01*
X105106192Y-107669609D01*
X104727874Y-107623932D01*
X104370886Y-107579569D01*
X104070192Y-107540906D01*
X103849288Y-107510968D01*
X103731669Y-107492775D01*
X103671888Y-107483590D01*
X103562119Y-107507312D01*
X103492347Y-107627396D01*
X103478708Y-107663681D01*
X103444752Y-107772524D01*
X103435756Y-107875907D01*
X103455697Y-108005425D01*
X103508550Y-108192673D01*
X103598291Y-108469246D01*
X103612431Y-108512383D01*
X103694442Y-108793204D01*
X103718602Y-108982240D01*
X103678321Y-109102104D01*
X103567007Y-109175410D01*
X103378069Y-109224771D01*
X103141021Y-109271084D01*
X100913342Y-109271084D01*
X100925615Y-109240163D01*
X100928190Y-109236994D01*
X100944373Y-109178463D01*
X100873752Y-109126624D01*
X100696929Y-109066768D01*
X100482533Y-108993510D01*
X100362261Y-108908534D01*
X100328424Y-108804150D01*
X100626413Y-108804150D01*
X100687701Y-108858929D01*
X100854597Y-108901165D01*
X100875305Y-108905498D01*
X101003602Y-108916452D01*
X101004908Y-108915590D01*
X102220330Y-108915590D01*
X102227853Y-109069564D01*
X102242640Y-109127990D01*
X102251865Y-109125993D01*
X102342692Y-109082687D01*
X102485333Y-109000590D01*
X102687822Y-108915179D01*
X102997428Y-108872952D01*
X103093568Y-108871589D01*
X103233998Y-108851113D01*
X103291731Y-108786445D01*
X103278201Y-108652947D01*
X103204840Y-108425980D01*
X103184388Y-108360820D01*
X103130658Y-108100711D01*
X103109111Y-107843584D01*
X103108112Y-107778162D01*
X103084406Y-107594363D01*
X103029337Y-107533453D01*
X102859270Y-107580131D01*
X102646511Y-107727117D01*
X102435883Y-107955692D01*
X102339259Y-108093080D01*
X102270671Y-108239677D01*
X102236454Y-108416913D01*
X102222181Y-108673228D01*
X102221507Y-108698025D01*
X102220330Y-108915590D01*
X101004908Y-108915590D01*
X101084678Y-108862931D01*
X101164839Y-108717523D01*
X101220307Y-108629202D01*
X101365760Y-108452005D01*
X101565028Y-108241838D01*
X101791966Y-108027471D01*
X101966536Y-107871210D01*
X102152614Y-107703008D01*
X102285197Y-107581196D01*
X102343282Y-107524921D01*
X102394534Y-107484459D01*
X102528534Y-107394489D01*
X102710242Y-107280125D01*
X102866936Y-107174825D01*
X103011611Y-107034865D01*
X103034017Y-106925582D01*
X102933609Y-106848025D01*
X102873369Y-106819527D01*
X102737593Y-106722390D01*
X102671904Y-106676796D01*
X102495833Y-106659852D01*
X102283630Y-106744727D01*
X102054411Y-106925731D01*
X102034753Y-106945440D01*
X101896672Y-107095484D01*
X101713655Y-107306976D01*
X101504015Y-107557314D01*
X101286063Y-107823898D01*
X101078110Y-108084127D01*
X100898467Y-108315401D01*
X100765446Y-108495120D01*
X100697356Y-108600681D01*
X100651150Y-108699404D01*
X100626413Y-108804150D01*
X100328424Y-108804150D01*
X100321573Y-108783015D01*
X100336965Y-108585528D01*
X100372411Y-108369225D01*
X100414650Y-108204850D01*
X100463432Y-108131995D01*
X100526997Y-108130945D01*
X100539827Y-108133896D01*
X100635364Y-108088001D01*
X100745382Y-107951257D01*
X100758840Y-107929826D01*
X100906050Y-107716363D01*
X101104619Y-107451379D01*
X101324292Y-107173297D01*
X101534809Y-106920540D01*
X101705915Y-106731529D01*
X101747430Y-106686194D01*
X101854625Y-106534236D01*
X101898578Y-106412434D01*
X101911657Y-106310281D01*
X101995259Y-106176122D01*
X102170616Y-106088071D01*
X102454609Y-106034657D01*
X102635596Y-106006403D01*
X102879846Y-105948318D01*
X103059689Y-105882562D01*
X103064698Y-105880012D01*
X103198403Y-105796465D01*
X103249841Y-105697526D01*
X103248288Y-105528183D01*
X103255637Y-105331745D01*
X103312107Y-105224889D01*
X103351948Y-105205955D01*
X103417777Y-105195257D01*
X103519694Y-105198211D01*
G37*
D10*
%TO.C,D2*%
X157668605Y-93294182D02*
X161268605Y-93294182D01*
X157668605Y-93594182D02*
X157668605Y-93294182D01*
X157668605Y-96794182D02*
X157668605Y-96594182D01*
X161268605Y-93294182D02*
X161268605Y-96994182D01*
X161268605Y-96994182D02*
X157768605Y-96994182D01*
X157729160Y-97054737D02*
G75*
G02*
X157008050Y-97054737I-360555J0D01*
G01*
X157008050Y-97054737D02*
G75*
G02*
X157729160Y-97054737I360555J0D01*
G01*
%TD*%
M02*
