M48
; DRILL file {KiCad 9.0.5} date 2025-11-19T13:21:20-0700
; FORMAT={-:-/ absolute / metric / decimal}
; #@! TF.CreationDate,2025-11-19T13:21:20-07:00
; #@! TF.GenerationSoftware,Kicad,Pcbnew,9.0.5
; #@! TF.FileFunction,Plated,1,2,PTH
FMAT,2
METRIC
; #@! TA.AperFunction,Plated,PTH,ComponentDrill
T1C0.350
; #@! TA.AperFunction,Plated,PTH,ComponentDrill
T2C0.500
; #@! TA.AperFunction,Plated,PTH,ComponentDrill
T3C1.000
; #@! TA.AperFunction,Plated,PTH,ComponentDrill
T4C1.067
; #@! TA.AperFunction,Plated,PTH,ComponentDrill
T5C1.100
; #@! TA.AperFunction,Plated,PTH,ComponentDrill
T6C1.200
; #@! TA.AperFunction,Plated,PTH,ComponentDrill
T7C1.270
; #@! TA.AperFunction,Plated,PTH,ComponentDrill
T8C1.500
; #@! TA.AperFunction,Plated,PTH,ComponentDrill
T9C2.700
%
G90
G05
T1
X137.525Y-99.135
X137.55Y-122.47
X142.475Y-99.135
X142.5Y-122.47
T2
X121.94Y-92.085
X136.3Y-106.6
X136.3Y-114.2
X143.9Y-106.6
X143.9Y-114.2
T3
X101.32Y-87.114
X101.34Y-131.5
X106.4Y-89.4
X106.42Y-129.214
X111.48Y-87.114
X111.5Y-131.5
T4
X136.536Y-89.56
X139.536Y-89.56
T5
X173.96Y-115.95
X174.1Y-95.1
X174.1Y-105.0
X174.105Y-127.584
X179.04Y-115.95
X179.18Y-95.1
X179.18Y-105.0
X179.185Y-127.584
X189.3Y-105.0
X189.333Y-115.931
X189.341Y-127.532
X189.36Y-95.05
X194.38Y-105.0
X194.413Y-115.931
X194.421Y-127.532
X194.44Y-95.05
T6
X98.78Y-97.02
X98.8Y-121.594
X101.32Y-98.925
X101.34Y-119.689
X106.4Y-97.02
X106.42Y-121.594
X111.48Y-98.925
X111.5Y-119.689
X114.02Y-97.02
X114.04Y-121.594
T7
X115.675Y-111.1
X128.2Y-86.1
X130.6Y-111.0
X156.9Y-132.6
X157.4Y-120.9
X157.6Y-110.1
X157.8Y-100.3
T8
X157.1Y-127.6
X157.2Y-115.9
X157.5Y-105.0
X157.569Y-95.094
X159.3Y-127.6
X159.4Y-115.9
X159.7Y-105.0
X159.769Y-95.094
T9
X128.3Y-93.0
X128.3Y-98.0
M30
