%TF.GenerationSoftware,KiCad,Pcbnew,9.0.5*%
%TF.CreationDate,2025-11-19T10:45:20-07:00*%
%TF.ProjectId,UMaster,554d6173-7465-4722-9e6b-696361645f70,rev?*%
%TF.SameCoordinates,Original*%
%TF.FileFunction,Legend,Bot*%
%TF.FilePolarity,Positive*%
%FSLAX46Y46*%
G04 Gerber Fmt 4.6, Leading zero omitted, Abs format (unit mm)*
G04 Created by KiCad (PCBNEW 9.0.5) date 2025-11-19 10:45:20*
%MOMM*%
%LPD*%
G01*
G04 APERTURE LIST*
%ADD10C,0.508000*%
%ADD11C,0.000000*%
G04 APERTURE END LIST*
D10*
%TO.C,J1*%
X119944000Y-79564301D02*
G75*
G02*
X119182000Y-79564301I-381000J0D01*
G01*
X119182000Y-79564301D02*
G75*
G02*
X119944000Y-79564301I381000J0D01*
G01*
D11*
%TO.C,G\u002A\u002A\u002A*%
G36*
X115059107Y-112316484D02*
G01*
X115065475Y-112399923D01*
X115051104Y-112416645D01*
X114967665Y-112423013D01*
X114950943Y-112408641D01*
X114944575Y-112325202D01*
X114958947Y-112308481D01*
X115042386Y-112302112D01*
X115059107Y-112316484D01*
G37*
G36*
X118362202Y-112157427D02*
G01*
X118452776Y-112227327D01*
X118506359Y-112294225D01*
X118500488Y-112330653D01*
X118465602Y-112321806D01*
X118369355Y-112255134D01*
X118334932Y-112212982D01*
X118321643Y-112151808D01*
X118362202Y-112157427D01*
G37*
G36*
X115369034Y-112318130D02*
G01*
X115395192Y-112372404D01*
X115402425Y-112521694D01*
X115374955Y-112710514D01*
X115322724Y-112897096D01*
X115255674Y-113039675D01*
X115183749Y-113096482D01*
X115133647Y-113083774D01*
X115107982Y-113010498D01*
X115124662Y-112844953D01*
X115164142Y-112638387D01*
X115229099Y-112422187D01*
X115299075Y-112311817D01*
X115369034Y-112318130D01*
G37*
G36*
X111953278Y-110775386D02*
G01*
X112117851Y-110816775D01*
X112238588Y-110882506D01*
X112274329Y-110950714D01*
X112236112Y-111002768D01*
X112123763Y-111083565D01*
X112069347Y-111108368D01*
X111995156Y-111142185D01*
X111906893Y-111148204D01*
X111904132Y-111146288D01*
X111873458Y-111066368D01*
X111873335Y-111022362D01*
X112037437Y-111022362D01*
X112069347Y-111054271D01*
X112101256Y-111022362D01*
X112069347Y-110990452D01*
X112037437Y-111022362D01*
X111873335Y-111022362D01*
X111873102Y-110938935D01*
X111897655Y-110822111D01*
X111941709Y-110774022D01*
X111953278Y-110775386D01*
G37*
G36*
X109863111Y-121481531D02*
G01*
X110189116Y-121600377D01*
X110319841Y-121682291D01*
X110547300Y-121916425D01*
X110703202Y-122207026D01*
X110761055Y-122511878D01*
X110751405Y-122610724D01*
X110672911Y-122865948D01*
X110536616Y-123138146D01*
X110368114Y-123380685D01*
X110192999Y-123546928D01*
X110118453Y-123593714D01*
X109750122Y-123753242D01*
X109528988Y-123781302D01*
X109389091Y-123799053D01*
X109052423Y-123733858D01*
X108757181Y-123560367D01*
X108520427Y-123281289D01*
X108418558Y-123029396D01*
X108398821Y-122706464D01*
X108415984Y-122633694D01*
X108974061Y-122633694D01*
X108991967Y-122871375D01*
X109130768Y-123087072D01*
X109313856Y-123207181D01*
X109528988Y-123236339D01*
X109742185Y-123178775D01*
X109933185Y-123052890D01*
X110081726Y-122877085D01*
X110167546Y-122669759D01*
X110170383Y-122449315D01*
X110069975Y-122234151D01*
X109942829Y-122127912D01*
X109690262Y-122050485D01*
X109614004Y-122041492D01*
X109467724Y-122045363D01*
X109347612Y-122104527D01*
X109199270Y-122239977D01*
X109075826Y-122389168D01*
X108974061Y-122633694D01*
X108415984Y-122633694D01*
X108476669Y-122376394D01*
X108642170Y-122064014D01*
X108885389Y-121794152D01*
X109196394Y-121591637D01*
X109222595Y-121579544D01*
X109553633Y-121474698D01*
X109863111Y-121481531D01*
G37*
G36*
X110445509Y-120337902D02*
G01*
X110939831Y-120514643D01*
X111265744Y-120716142D01*
X111624758Y-121059655D01*
X111898054Y-121474585D01*
X112075713Y-121940265D01*
X112147815Y-122436025D01*
X112104440Y-122941197D01*
X111972691Y-123385467D01*
X111713378Y-123893594D01*
X111363013Y-124337529D01*
X110936678Y-124704777D01*
X110449454Y-124982839D01*
X109916422Y-125159218D01*
X109525249Y-125202378D01*
X109352664Y-125221420D01*
X109062640Y-125206556D01*
X108539703Y-125094299D01*
X108075382Y-124878993D01*
X107681792Y-124569034D01*
X107371049Y-124172817D01*
X107155270Y-123698738D01*
X107078377Y-123295637D01*
X107080927Y-122875224D01*
X108305124Y-122875224D01*
X108387718Y-123220441D01*
X108583213Y-123520647D01*
X108696269Y-123633312D01*
X108926134Y-123791444D01*
X109188583Y-123865134D01*
X109525249Y-123869813D01*
X109749471Y-123841065D01*
X110113556Y-123710248D01*
X110412542Y-123473389D01*
X110656736Y-123123692D01*
X110747814Y-122927584D01*
X110838583Y-122549202D01*
X110810833Y-122195731D01*
X110666476Y-121878792D01*
X110407427Y-121610004D01*
X110323730Y-121553053D01*
X110007218Y-121428924D01*
X109658391Y-121404218D01*
X109303596Y-121471572D01*
X108969177Y-121623623D01*
X108681479Y-121853009D01*
X108466848Y-122152365D01*
X108336898Y-122502224D01*
X108305124Y-122875224D01*
X107080927Y-122875224D01*
X107081184Y-122832866D01*
X107162417Y-122362619D01*
X107318055Y-121928637D01*
X107606480Y-121451187D01*
X107978940Y-121040282D01*
X108414513Y-120710609D01*
X108896077Y-120468849D01*
X109406511Y-120321689D01*
X109928696Y-120275812D01*
X110445509Y-120337902D01*
G37*
G36*
X116581142Y-113947426D02*
G01*
X116745800Y-114096401D01*
X116869833Y-114266671D01*
X117093706Y-114128310D01*
X117204591Y-114063691D01*
X117368791Y-114002980D01*
X117506392Y-114026826D01*
X117663365Y-114135838D01*
X117805999Y-114286901D01*
X117937863Y-114543117D01*
X118012448Y-114882088D01*
X118035455Y-115321990D01*
X118033323Y-115495982D01*
X118015731Y-115772752D01*
X117976972Y-115942184D01*
X117912934Y-116017408D01*
X117819506Y-116011554D01*
X117805427Y-116004999D01*
X117738436Y-115907374D01*
X117717337Y-115705261D01*
X117717337Y-115438174D01*
X117334422Y-115458763D01*
X116939245Y-115480011D01*
X116709387Y-115494608D01*
X116403006Y-115524228D01*
X116400371Y-115524683D01*
X116200736Y-115559119D01*
X116114333Y-115597605D01*
X116098281Y-115716868D01*
X116150863Y-115875057D01*
X116248874Y-116014889D01*
X116365534Y-116084464D01*
X116464408Y-116127237D01*
X116504774Y-116256200D01*
X116490196Y-116359038D01*
X116437533Y-116449100D01*
X116379693Y-116454313D01*
X116248775Y-116400617D01*
X116099673Y-116298703D01*
X115971932Y-116177136D01*
X115905094Y-116064482D01*
X115895901Y-115968227D01*
X115891073Y-115767384D01*
X115892152Y-115497840D01*
X115899342Y-115190596D01*
X115901074Y-115138693D01*
X116104510Y-115138693D01*
X116400371Y-115138693D01*
X116696231Y-115138693D01*
X116696231Y-114902749D01*
X116944881Y-114902749D01*
X116975596Y-115012306D01*
X117101234Y-115062715D01*
X117334422Y-115074874D01*
X117717337Y-115074874D01*
X117715307Y-114835553D01*
X117714663Y-114804946D01*
X117667485Y-114562101D01*
X117543761Y-114419474D01*
X117340085Y-114372864D01*
X117228174Y-114382020D01*
X117125332Y-114443527D01*
X117043980Y-114594181D01*
X116996463Y-114713148D01*
X116944881Y-114902749D01*
X116696231Y-114902749D01*
X116696231Y-114845399D01*
X116692834Y-114774701D01*
X116656469Y-114573949D01*
X116592318Y-114382010D01*
X116515455Y-114238093D01*
X116440955Y-114181407D01*
X116437166Y-114182188D01*
X116378495Y-114241907D01*
X116294667Y-114367602D01*
X116270280Y-114414064D01*
X116194631Y-114619962D01*
X116144595Y-114846245D01*
X116104510Y-115138693D01*
X115901074Y-115138693D01*
X115901103Y-115137819D01*
X115914934Y-114822207D01*
X115934786Y-114599589D01*
X115966353Y-114439541D01*
X116015327Y-114311635D01*
X116087400Y-114185446D01*
X116224961Y-114017579D01*
X116403300Y-113921724D01*
X116581142Y-113947426D01*
G37*
G36*
X114103458Y-103193709D02*
G01*
X114210015Y-103292618D01*
X114350614Y-103478218D01*
X114383062Y-103519913D01*
X114444683Y-103558535D01*
X114542904Y-103547855D01*
X114718785Y-103489088D01*
X114922358Y-103433872D01*
X115199804Y-103384028D01*
X115483668Y-103352663D01*
X115661338Y-103341363D01*
X115851870Y-103340781D01*
X115997323Y-103370764D01*
X116146885Y-103443788D01*
X116349740Y-103572329D01*
X116476804Y-103658249D01*
X116650946Y-103798394D01*
X116776185Y-103948488D01*
X116862113Y-104132068D01*
X116918319Y-104372671D01*
X116954391Y-104693835D01*
X116979920Y-105119095D01*
X116988995Y-105294732D01*
X117013475Y-105712944D01*
X117044195Y-106188845D01*
X117078124Y-106676355D01*
X117112228Y-107129397D01*
X117127553Y-107329189D01*
X117162679Y-107823874D01*
X117196394Y-108343670D01*
X117225487Y-108837820D01*
X117246746Y-109255567D01*
X117290606Y-110232994D01*
X118147976Y-111265869D01*
X118215290Y-111347152D01*
X118472223Y-111660943D01*
X118701407Y-111946246D01*
X118889234Y-112185766D01*
X119022095Y-112362212D01*
X119086382Y-112458291D01*
X119089257Y-112464576D01*
X119120649Y-112588376D01*
X119158387Y-112814574D01*
X119199431Y-113120715D01*
X119240740Y-113484347D01*
X119279275Y-113883017D01*
X119281036Y-113902956D01*
X119320588Y-114377172D01*
X119345877Y-114757939D01*
X119357457Y-115077385D01*
X119355877Y-115367634D01*
X119341690Y-115660813D01*
X119315449Y-115989047D01*
X119247195Y-116707457D01*
X119175353Y-117389719D01*
X119101913Y-118020324D01*
X119028605Y-118586659D01*
X119005681Y-118743701D01*
X118957158Y-119076110D01*
X118889302Y-119476066D01*
X118826767Y-119773912D01*
X118771283Y-119957035D01*
X118719593Y-120045590D01*
X118589288Y-120228301D01*
X118510970Y-120330162D01*
X118397403Y-120477867D01*
X118156829Y-120778635D01*
X117880455Y-121114956D01*
X117581170Y-121471178D01*
X117271864Y-121831651D01*
X116965426Y-122180724D01*
X116674745Y-122502746D01*
X116480231Y-122720897D01*
X116281941Y-122956957D01*
X116126366Y-123157020D01*
X116058192Y-123259842D01*
X116036242Y-123292948D01*
X116034474Y-123296464D01*
X115993728Y-123410061D01*
X115926182Y-123633633D01*
X115835355Y-123954147D01*
X115724768Y-124358574D01*
X115597941Y-124833881D01*
X115458392Y-125367038D01*
X115309643Y-125945013D01*
X115155212Y-126554774D01*
X115081757Y-126847001D01*
X114889156Y-127611346D01*
X114723852Y-128263746D01*
X114583427Y-128813102D01*
X114465462Y-129268315D01*
X114367541Y-129638288D01*
X114287244Y-129931921D01*
X114222155Y-130158117D01*
X114169855Y-130325777D01*
X114127926Y-130443802D01*
X114093951Y-130521094D01*
X114065511Y-130566554D01*
X113995990Y-130625805D01*
X113914266Y-130681379D01*
X113842570Y-130730133D01*
X113646942Y-130848422D01*
X113646761Y-130848525D01*
X113359609Y-130978502D01*
X113077657Y-131046549D01*
X112849200Y-131048208D01*
X112833608Y-131048321D01*
X112691084Y-130991749D01*
X112660163Y-130979476D01*
X112656994Y-130976901D01*
X112598463Y-130960718D01*
X112546624Y-131031339D01*
X112486768Y-131208162D01*
X112413510Y-131422558D01*
X112328534Y-131542830D01*
X112224150Y-131576667D01*
X112203015Y-131583518D01*
X112005528Y-131568126D01*
X111789225Y-131532680D01*
X111624850Y-131490441D01*
X111551995Y-131441659D01*
X111550945Y-131378094D01*
X111553896Y-131365264D01*
X111508001Y-131269727D01*
X111371257Y-131159709D01*
X111349826Y-131146251D01*
X111136363Y-130999041D01*
X110871379Y-130800472D01*
X110593297Y-130580799D01*
X110340540Y-130370282D01*
X110151529Y-130199176D01*
X110106194Y-130157661D01*
X109954236Y-130050466D01*
X109832434Y-130006513D01*
X109730281Y-129993434D01*
X109596122Y-129909832D01*
X109508071Y-129734475D01*
X109454657Y-129450482D01*
X109448221Y-129409258D01*
X110079852Y-129409258D01*
X110164727Y-129621461D01*
X110345731Y-129850680D01*
X110365440Y-129870338D01*
X110515484Y-130008419D01*
X110726976Y-130191436D01*
X110977314Y-130401076D01*
X111243898Y-130619028D01*
X111504127Y-130826981D01*
X111735401Y-131006624D01*
X111915120Y-131139645D01*
X112020681Y-131207735D01*
X112119404Y-131253941D01*
X112224150Y-131278678D01*
X112278929Y-131217390D01*
X112321165Y-131050494D01*
X112325498Y-131029786D01*
X112333305Y-130938342D01*
X112765803Y-130938342D01*
X112849200Y-130957385D01*
X113046345Y-130950412D01*
X113175286Y-130933818D01*
X113357514Y-130891206D01*
X113461169Y-130840700D01*
X113473420Y-130826569D01*
X113472651Y-130791907D01*
X113382978Y-130785904D01*
X113186181Y-130806281D01*
X113108746Y-130817211D01*
X112904510Y-130859046D01*
X112787218Y-130902493D01*
X112765803Y-130938342D01*
X112333305Y-130938342D01*
X112336452Y-130901489D01*
X112335590Y-130900183D01*
X112282931Y-130820413D01*
X112137523Y-130740252D01*
X112049202Y-130684784D01*
X111872005Y-130539331D01*
X111661838Y-130340063D01*
X111447471Y-130113125D01*
X111291210Y-129938555D01*
X111123008Y-129752477D01*
X111001196Y-129619894D01*
X110944921Y-129561809D01*
X110904459Y-129510557D01*
X110814489Y-129376557D01*
X110700125Y-129194849D01*
X110594825Y-129038155D01*
X110454865Y-128893480D01*
X110368408Y-128875754D01*
X110953453Y-128875754D01*
X111000131Y-129045821D01*
X111147117Y-129258580D01*
X111375692Y-129469208D01*
X111513080Y-129565832D01*
X111659677Y-129634420D01*
X111836913Y-129668637D01*
X112093228Y-129682910D01*
X112118025Y-129683584D01*
X112335590Y-129684761D01*
X112489564Y-129677238D01*
X112547990Y-129662451D01*
X112545993Y-129653226D01*
X112502687Y-129562399D01*
X112420590Y-129419758D01*
X112335179Y-129217269D01*
X112293333Y-128910457D01*
X112739447Y-128910457D01*
X112739456Y-128911066D01*
X112777001Y-128997919D01*
X112876238Y-129160388D01*
X113020582Y-129375761D01*
X113193451Y-129621325D01*
X113378260Y-129874367D01*
X113558426Y-130112175D01*
X113717366Y-130312038D01*
X113838495Y-130451241D01*
X113905230Y-130507074D01*
X113914266Y-130508512D01*
X113943141Y-130506026D01*
X113972307Y-130485617D01*
X114004283Y-130438451D01*
X114041586Y-130355694D01*
X114086733Y-130228510D01*
X114142242Y-130048064D01*
X114210631Y-129805523D01*
X114294417Y-129492050D01*
X114396118Y-129098812D01*
X114518251Y-128616973D01*
X114663334Y-128037698D01*
X114833885Y-127352154D01*
X115032421Y-126551504D01*
X115059909Y-126440622D01*
X115211353Y-125831703D01*
X115354650Y-125258814D01*
X115486604Y-124734513D01*
X115604020Y-124271358D01*
X115703702Y-123881907D01*
X115782457Y-123578720D01*
X115837088Y-123374353D01*
X115864402Y-123281365D01*
X115882120Y-123225977D01*
X115882278Y-123080878D01*
X115801532Y-122904958D01*
X115739355Y-122786124D01*
X115637921Y-122557690D01*
X115544690Y-122314041D01*
X115539428Y-122298687D01*
X115475360Y-122088980D01*
X115398499Y-121806559D01*
X115315421Y-121479419D01*
X115232702Y-121135551D01*
X115195978Y-120974375D01*
X115156918Y-120802947D01*
X115094645Y-120509601D01*
X115052458Y-120283504D01*
X115036935Y-120152649D01*
X115033861Y-120082960D01*
X115011532Y-120044627D01*
X114967336Y-120126775D01*
X114900964Y-120330403D01*
X114812109Y-120656509D01*
X114700462Y-121106092D01*
X114565716Y-121680151D01*
X114519090Y-121882891D01*
X114276878Y-122935450D01*
X114061080Y-123871775D01*
X113870007Y-124698816D01*
X113701970Y-125423524D01*
X113555281Y-126052847D01*
X113428249Y-126593735D01*
X113319187Y-127053139D01*
X113226405Y-127438008D01*
X113148215Y-127755292D01*
X113082926Y-128011940D01*
X113028851Y-128214903D01*
X112984300Y-128371130D01*
X112947585Y-128487570D01*
X112917016Y-128571175D01*
X112890904Y-128628893D01*
X112867561Y-128667674D01*
X112857034Y-128682669D01*
X112773645Y-128819784D01*
X112739447Y-128910457D01*
X112293333Y-128910457D01*
X112292952Y-128907663D01*
X112291589Y-128811523D01*
X112271113Y-128671093D01*
X112206445Y-128613360D01*
X112072947Y-128626890D01*
X111845980Y-128700251D01*
X111780820Y-128720703D01*
X111520711Y-128774433D01*
X111263584Y-128795980D01*
X111198162Y-128796979D01*
X111014363Y-128820685D01*
X110953453Y-128875754D01*
X110368408Y-128875754D01*
X110345582Y-128871074D01*
X110268025Y-128971482D01*
X110239527Y-129031722D01*
X110142390Y-129167498D01*
X110096796Y-129233187D01*
X110079852Y-129409258D01*
X109448221Y-129409258D01*
X109426403Y-129269495D01*
X109368318Y-129025245D01*
X109302562Y-128845402D01*
X109300012Y-128840393D01*
X109216465Y-128706688D01*
X109117526Y-128655250D01*
X108948183Y-128656803D01*
X108751745Y-128649454D01*
X108644889Y-128592984D01*
X108625955Y-128553143D01*
X108615257Y-128487314D01*
X108618211Y-128385397D01*
X108637010Y-128233203D01*
X110903590Y-128233203D01*
X110927312Y-128342972D01*
X111047396Y-128412744D01*
X111083681Y-128426383D01*
X111192524Y-128460339D01*
X111295907Y-128469335D01*
X111425425Y-128449394D01*
X111612673Y-128396541D01*
X111889246Y-128306800D01*
X111932383Y-128292660D01*
X112213204Y-128210649D01*
X112402240Y-128186489D01*
X112522104Y-128226770D01*
X112595410Y-128338084D01*
X112644771Y-128527022D01*
X112691084Y-128764070D01*
X112815617Y-128476884D01*
X112870619Y-128322932D01*
X112952591Y-128048125D01*
X113055890Y-127669953D01*
X113177711Y-127199480D01*
X113315251Y-126647769D01*
X113465706Y-126025881D01*
X113626273Y-125344880D01*
X113794148Y-124615829D01*
X113813941Y-124528990D01*
X113906147Y-124126312D01*
X114016835Y-123645162D01*
X114137603Y-123121950D01*
X114260051Y-122593085D01*
X114375779Y-122094975D01*
X114431002Y-121857562D01*
X114533384Y-121416224D01*
X114628665Y-121004058D01*
X114711364Y-120644846D01*
X114776000Y-120362367D01*
X114817090Y-120180402D01*
X114824321Y-120145563D01*
X114861143Y-119904255D01*
X114893461Y-119604275D01*
X115298668Y-119604275D01*
X115302270Y-119647050D01*
X115331454Y-119835824D01*
X115385654Y-120119161D01*
X115460361Y-120475949D01*
X115551066Y-120885073D01*
X115653259Y-121325421D01*
X115762433Y-121775879D01*
X115811441Y-121973319D01*
X115888704Y-122281133D01*
X115944034Y-122492274D01*
X115983039Y-122624894D01*
X116011328Y-122697147D01*
X116034509Y-122727187D01*
X116058192Y-122733166D01*
X116081728Y-122717530D01*
X116181068Y-122623181D01*
X116343104Y-122456302D01*
X116554267Y-122231750D01*
X116800991Y-121964377D01*
X117069707Y-121669040D01*
X117346849Y-121360592D01*
X117618848Y-121053889D01*
X117872137Y-120763785D01*
X118093149Y-120505135D01*
X118500871Y-120020854D01*
X118464720Y-118594854D01*
X118459258Y-118392819D01*
X118446486Y-117997817D01*
X118432647Y-117655778D01*
X118418646Y-117385367D01*
X118405390Y-117205243D01*
X118393785Y-117134070D01*
X118371295Y-117132259D01*
X118267122Y-117182921D01*
X118106270Y-117291513D01*
X117914604Y-117439831D01*
X117717989Y-117609672D01*
X117705024Y-117621438D01*
X117589185Y-117716345D01*
X117520503Y-117755276D01*
X117510296Y-117758040D01*
X117424557Y-117813756D01*
X117296484Y-117918558D01*
X117283495Y-117929861D01*
X117107843Y-118066112D01*
X116941915Y-118172183D01*
X116837606Y-118232838D01*
X116630635Y-118366556D01*
X116382677Y-118536796D01*
X116118247Y-118725647D01*
X115861859Y-118915197D01*
X115638030Y-119087534D01*
X115471273Y-119224746D01*
X115386104Y-119308922D01*
X115330645Y-119423048D01*
X115298668Y-119604275D01*
X114893461Y-119604275D01*
X114895978Y-119580907D01*
X114925192Y-119213547D01*
X114945152Y-118840201D01*
X114947316Y-118786296D01*
X114959982Y-118529453D01*
X115191251Y-118529453D01*
X115195978Y-118584924D01*
X115206201Y-118581127D01*
X115297401Y-118526298D01*
X115459502Y-118419658D01*
X115667784Y-118278381D01*
X115897527Y-118119639D01*
X116124008Y-117960607D01*
X116322509Y-117818460D01*
X116468307Y-117710370D01*
X116536683Y-117653511D01*
X116622546Y-117580056D01*
X116766378Y-117490885D01*
X116891135Y-117421164D01*
X117151173Y-117255440D01*
X117428074Y-117058690D01*
X117696824Y-116850655D01*
X117932407Y-116651080D01*
X118109807Y-116479705D01*
X118204010Y-116356275D01*
X118243062Y-116222946D01*
X118286972Y-115986296D01*
X118305513Y-115858281D01*
X118642067Y-115858281D01*
X118785983Y-116053348D01*
X118824468Y-116109499D01*
X118889523Y-116250687D01*
X118921687Y-116432750D01*
X118930602Y-116698705D01*
X118936169Y-116939353D01*
X118952625Y-117204785D01*
X118976049Y-117404271D01*
X118986254Y-117454721D01*
X119005681Y-117496859D01*
X119026978Y-117457185D01*
X119052707Y-117324388D01*
X119085427Y-117087154D01*
X119127698Y-116734171D01*
X119133066Y-116687365D01*
X119174268Y-116285354D01*
X119197606Y-115936094D01*
X119204042Y-115594681D01*
X119194538Y-115216211D01*
X119170053Y-114755779D01*
X119153239Y-114509325D01*
X119110506Y-114056917D01*
X119059630Y-113714654D01*
X119001577Y-113486892D01*
X118937311Y-113377985D01*
X118867799Y-113392290D01*
X118867310Y-113392867D01*
X118846630Y-113474571D01*
X118820204Y-113662240D01*
X118790318Y-113935058D01*
X118759259Y-114272211D01*
X118729314Y-114652884D01*
X118642067Y-115858281D01*
X118305513Y-115858281D01*
X118332314Y-115673229D01*
X118376237Y-115309459D01*
X118415888Y-114920701D01*
X118448416Y-114532668D01*
X118470968Y-114171074D01*
X118480693Y-113861633D01*
X118483166Y-113573770D01*
X117957628Y-113255352D01*
X117640500Y-113064866D01*
X117260692Y-112840916D01*
X116907116Y-112636737D01*
X116596337Y-112461637D01*
X116344921Y-112324924D01*
X116169433Y-112235906D01*
X116086440Y-112203894D01*
X116076728Y-112206064D01*
X116046555Y-112244044D01*
X116014192Y-112337202D01*
X115977913Y-112495773D01*
X115935988Y-112729996D01*
X115886690Y-113050107D01*
X115828291Y-113466344D01*
X115759064Y-113988942D01*
X115677281Y-114628141D01*
X115656372Y-114793248D01*
X115595348Y-115272853D01*
X115534720Y-115746326D01*
X115478369Y-116183538D01*
X115430172Y-116554363D01*
X115394008Y-116828673D01*
X115363783Y-117070110D01*
X115337071Y-117336387D01*
X115328325Y-117506784D01*
X115336315Y-117575059D01*
X115359812Y-117534968D01*
X115397584Y-117380272D01*
X115448403Y-117104727D01*
X115474397Y-116997874D01*
X115568600Y-116857910D01*
X115726172Y-116822662D01*
X115957627Y-116887648D01*
X116019414Y-116914386D01*
X116131072Y-116984374D01*
X116176849Y-117085667D01*
X116185678Y-117266306D01*
X116167503Y-117478463D01*
X116077616Y-117683484D01*
X115899286Y-117808119D01*
X115617890Y-117867860D01*
X115487965Y-117885599D01*
X115330542Y-117925794D01*
X115260241Y-117971319D01*
X115240775Y-118065188D01*
X115218464Y-118223608D01*
X115200351Y-118393688D01*
X115191251Y-118529453D01*
X114959982Y-118529453D01*
X114966485Y-118397599D01*
X114990983Y-118009468D01*
X115017885Y-117664245D01*
X115044269Y-117404271D01*
X115044975Y-117398561D01*
X115084638Y-117067789D01*
X115127904Y-116691936D01*
X115165533Y-116351256D01*
X115169936Y-116310872D01*
X115211231Y-115971637D01*
X115266019Y-115569509D01*
X115330029Y-115131555D01*
X115398989Y-114684842D01*
X115468627Y-114256439D01*
X115534672Y-113873412D01*
X115592852Y-113562830D01*
X115638896Y-113351759D01*
X115640218Y-113346498D01*
X115690585Y-113099772D01*
X115737746Y-112792601D01*
X115771652Y-112490201D01*
X115815556Y-111979648D01*
X115554889Y-111899874D01*
X115506107Y-111885725D01*
X115298715Y-111838967D01*
X115133668Y-111820100D01*
X115027761Y-111804146D01*
X114973116Y-111756281D01*
X114933497Y-111727734D01*
X114796474Y-111702240D01*
X114594111Y-111692462D01*
X114215107Y-111692462D01*
X114177516Y-111995603D01*
X114167403Y-112072901D01*
X114125845Y-112351488D01*
X114080255Y-112617839D01*
X114053536Y-112780954D01*
X114015883Y-113069218D01*
X113987761Y-113351759D01*
X113984967Y-113386735D01*
X113932655Y-113944017D01*
X113872668Y-114421884D01*
X113807327Y-114804261D01*
X113738953Y-115075075D01*
X113707919Y-115191940D01*
X113659910Y-115440752D01*
X113614240Y-115746739D01*
X113577642Y-116068432D01*
X113552834Y-116303223D01*
X113515515Y-116588195D01*
X113477580Y-116815402D01*
X113444285Y-116950099D01*
X113398479Y-117129783D01*
X113377638Y-117340452D01*
X113358875Y-117537131D01*
X113309119Y-117735167D01*
X113307028Y-117740789D01*
X113264042Y-117898803D01*
X113217156Y-118132510D01*
X113176157Y-118393467D01*
X113139564Y-118665128D01*
X113096289Y-118986167D01*
X113060017Y-119255025D01*
X113044245Y-119368518D01*
X113003450Y-119649040D01*
X112953885Y-119978826D01*
X112902981Y-120308040D01*
X112900718Y-120322619D01*
X112858882Y-120656205D01*
X112821727Y-121064438D01*
X112793216Y-121496986D01*
X112777314Y-121903517D01*
X112768848Y-122170154D01*
X112717213Y-122887871D01*
X112626900Y-123525460D01*
X112600799Y-123638088D01*
X112500267Y-124071892D01*
X112339676Y-124516137D01*
X112147485Y-124847168D01*
X112027276Y-124983395D01*
X111812729Y-125183227D01*
X111587035Y-125357803D01*
X111232361Y-125599557D01*
X111089609Y-126798899D01*
X111043932Y-127177217D01*
X110999569Y-127534205D01*
X110960906Y-127834899D01*
X110930968Y-128055803D01*
X110912775Y-128173422D01*
X110903590Y-128233203D01*
X108637010Y-128233203D01*
X108637082Y-128232622D01*
X108674132Y-128014223D01*
X108731625Y-127715429D01*
X108811825Y-127321474D01*
X108916996Y-126817588D01*
X108919707Y-126804676D01*
X108997128Y-126433976D01*
X109064484Y-126107737D01*
X109117686Y-125846061D01*
X109152645Y-125669051D01*
X109165273Y-125596813D01*
X109224724Y-125538629D01*
X109391034Y-125472690D01*
X109643974Y-125405859D01*
X109963317Y-125344532D01*
X110378761Y-125257955D01*
X110834264Y-125098080D01*
X111222395Y-124871101D01*
X111573359Y-124562344D01*
X111668589Y-124460040D01*
X111824223Y-124263771D01*
X111945920Y-124052822D01*
X112045843Y-123799167D01*
X112136156Y-123474778D01*
X112229023Y-123051630D01*
X112242736Y-122982572D01*
X112308162Y-122525571D01*
X112308180Y-122127383D01*
X112239246Y-121741252D01*
X112097818Y-121320422D01*
X112089552Y-121299573D01*
X111921988Y-120937080D01*
X111735279Y-120667499D01*
X111501044Y-120458158D01*
X111190904Y-120276387D01*
X111059637Y-120212004D01*
X110858042Y-120126013D01*
X110676779Y-120078064D01*
X110466563Y-120057275D01*
X110178109Y-120052764D01*
X110121130Y-120052316D01*
X110030317Y-120051602D01*
X109788493Y-120040051D01*
X109653366Y-120014507D01*
X109634586Y-119996173D01*
X111594338Y-119996173D01*
X111631280Y-120063549D01*
X111747232Y-120185460D01*
X111914135Y-120325516D01*
X112048136Y-120436226D01*
X112256451Y-120636493D01*
X112415549Y-120822091D01*
X112600799Y-121077822D01*
X112637787Y-120900343D01*
X112640168Y-120887684D01*
X112660612Y-120766196D01*
X112698317Y-120534521D01*
X112751327Y-120205060D01*
X112817682Y-119790216D01*
X112895425Y-119302390D01*
X112982597Y-118753985D01*
X113077241Y-118157402D01*
X113177399Y-117525043D01*
X113281111Y-116869310D01*
X113386421Y-116202606D01*
X113491370Y-115537332D01*
X113594001Y-114885890D01*
X113692354Y-114260683D01*
X113784472Y-113674111D01*
X113868398Y-113138578D01*
X113942172Y-112666485D01*
X114003837Y-112270234D01*
X114051435Y-111962227D01*
X114083008Y-111754866D01*
X114096597Y-111660553D01*
X114098527Y-111623429D01*
X114076797Y-111573522D01*
X114001220Y-111543455D01*
X113847200Y-111526132D01*
X113636043Y-111516545D01*
X113590144Y-111514461D01*
X113513357Y-111511913D01*
X113279501Y-111509121D01*
X113139408Y-111521499D01*
X113066290Y-111553654D01*
X113033360Y-111610190D01*
X113025781Y-111636708D01*
X112986580Y-111806299D01*
X112929336Y-112090560D01*
X112853704Y-112491384D01*
X112759336Y-113010669D01*
X112645888Y-113650310D01*
X112513013Y-114412202D01*
X112360365Y-115298241D01*
X112330476Y-115472588D01*
X112221012Y-116111234D01*
X112129961Y-116642868D01*
X112054781Y-117082586D01*
X111992930Y-117445482D01*
X111941866Y-117746651D01*
X111899046Y-118001187D01*
X111861930Y-118224187D01*
X111827973Y-118430743D01*
X111794635Y-118635952D01*
X111759373Y-118854908D01*
X111719645Y-119102706D01*
X111714317Y-119136061D01*
X111666443Y-119444933D01*
X111627950Y-119709347D01*
X111602645Y-119902147D01*
X111594338Y-119996173D01*
X109634586Y-119996173D01*
X109610838Y-119972990D01*
X109611228Y-119965980D01*
X109626961Y-119860709D01*
X109663062Y-119652687D01*
X109700550Y-119445777D01*
X110007825Y-119445777D01*
X110016928Y-119538206D01*
X110054053Y-119575659D01*
X110121130Y-119576113D01*
X110220093Y-119557544D01*
X110332281Y-119509618D01*
X110378141Y-119387945D01*
X110380767Y-119348387D01*
X110405121Y-119183622D01*
X110449542Y-118947615D01*
X110507293Y-118677420D01*
X110519474Y-118623207D01*
X110593640Y-118281573D01*
X110667180Y-117926823D01*
X110725796Y-117627638D01*
X110747100Y-117514817D01*
X110800065Y-117239481D01*
X110869617Y-116882242D01*
X110952808Y-116457897D01*
X111046692Y-115981241D01*
X111148324Y-115467069D01*
X111254757Y-114930176D01*
X111363044Y-114385359D01*
X111470241Y-113847411D01*
X111573401Y-113331130D01*
X111669577Y-112851309D01*
X111755823Y-112422745D01*
X111829194Y-112060232D01*
X111886743Y-111778567D01*
X111925524Y-111592544D01*
X111942591Y-111516960D01*
X111926709Y-111462981D01*
X111810065Y-111437186D01*
X111701003Y-111456308D01*
X111664306Y-111486260D01*
X111626693Y-111516960D01*
X111615502Y-111558506D01*
X111575548Y-111723285D01*
X111517368Y-111974090D01*
X111446763Y-112284936D01*
X111369532Y-112629842D01*
X111291474Y-112982824D01*
X111218388Y-113317900D01*
X111156074Y-113609087D01*
X111110331Y-113830402D01*
X111083863Y-113959934D01*
X111012835Y-114292903D01*
X110930945Y-114662879D01*
X110851105Y-115011055D01*
X110851048Y-115011298D01*
X110766021Y-115390138D01*
X110665232Y-115865748D01*
X110554422Y-116409107D01*
X110439327Y-116991192D01*
X110325687Y-117582982D01*
X110219240Y-118155455D01*
X110125724Y-118679589D01*
X110065953Y-119024086D01*
X110024811Y-119280396D01*
X110007825Y-119445777D01*
X109700550Y-119445777D01*
X109715965Y-119360694D01*
X109782107Y-119003511D01*
X109857922Y-118599920D01*
X109939847Y-118168702D01*
X110024318Y-117728637D01*
X110107769Y-117298506D01*
X110186637Y-116897090D01*
X110257357Y-116543170D01*
X110316365Y-116255527D01*
X110327958Y-116199983D01*
X110398468Y-115857100D01*
X110470132Y-115501721D01*
X110529079Y-115202512D01*
X110581459Y-114934569D01*
X110653646Y-114571477D01*
X110719648Y-114245226D01*
X110754430Y-114073531D01*
X110814466Y-113773277D01*
X110887660Y-113404405D01*
X110967806Y-112998196D01*
X111048703Y-112585929D01*
X111098988Y-112335818D01*
X111204709Y-111839702D01*
X111320570Y-111325912D01*
X111336551Y-111258754D01*
X111664306Y-111258754D01*
X111894683Y-111224207D01*
X113122362Y-111224207D01*
X113129372Y-111247570D01*
X113199404Y-111284079D01*
X113359656Y-111303700D01*
X113628614Y-111309548D01*
X113636043Y-111309550D01*
X113872972Y-111309415D01*
X114029307Y-111293984D01*
X114038965Y-111288722D01*
X114296658Y-111288722D01*
X114316104Y-111351406D01*
X114376347Y-111371791D01*
X114480493Y-111373367D01*
X114489068Y-111373410D01*
X114651511Y-111390082D01*
X114752940Y-111427777D01*
X114794377Y-111451989D01*
X114938077Y-111506986D01*
X115132663Y-111563982D01*
X115217070Y-111587926D01*
X115488488Y-111685330D01*
X115731028Y-111796757D01*
X115828345Y-111847562D01*
X115981971Y-111919492D01*
X116067340Y-111947739D01*
X116080607Y-111951938D01*
X116185214Y-112004735D01*
X116376229Y-112110488D01*
X116636847Y-112259624D01*
X116950262Y-112442569D01*
X117299668Y-112649749D01*
X117430991Y-112728055D01*
X117767070Y-112927171D01*
X118059553Y-113098631D01*
X118291996Y-113232903D01*
X118447950Y-113320456D01*
X118510970Y-113351759D01*
X118515105Y-113350315D01*
X118537750Y-113278888D01*
X118546985Y-113133011D01*
X118546656Y-113105264D01*
X118537661Y-113030597D01*
X118513660Y-112976171D01*
X118505964Y-112958719D01*
X118437820Y-112877111D01*
X118319485Y-112773255D01*
X118137213Y-112634633D01*
X117877259Y-112448726D01*
X117850643Y-112430114D01*
X117588404Y-112246737D01*
X118155803Y-112246737D01*
X118326858Y-112358817D01*
X118425524Y-112417800D01*
X118513660Y-112433230D01*
X118594151Y-112374658D01*
X118642692Y-112316200D01*
X118641905Y-112241913D01*
X118553832Y-112131843D01*
X118417275Y-111985266D01*
X118286539Y-112116002D01*
X118155803Y-112246737D01*
X117588404Y-112246737D01*
X117525879Y-112203015D01*
X117490843Y-112178556D01*
X117323817Y-112059282D01*
X117178798Y-111955723D01*
X116942746Y-111779583D01*
X117528355Y-111779583D01*
X117561378Y-111854782D01*
X117679952Y-111961030D01*
X117774016Y-112023416D01*
X117850643Y-112030811D01*
X117933223Y-111956005D01*
X118006371Y-111864244D01*
X118026336Y-111781866D01*
X117940704Y-111756281D01*
X117896060Y-111745162D01*
X117844975Y-111660553D01*
X117837775Y-111616515D01*
X117781156Y-111564824D01*
X117757732Y-111568948D01*
X117718503Y-111632274D01*
X117739597Y-111727581D01*
X117813065Y-111797022D01*
X117857917Y-111821343D01*
X117908794Y-111894366D01*
X117868770Y-111908425D01*
X117766956Y-111855629D01*
X117659897Y-111789512D01*
X117575498Y-111756281D01*
X117528355Y-111779583D01*
X116942746Y-111779583D01*
X116908066Y-111753705D01*
X116694750Y-111585177D01*
X116562083Y-111469055D01*
X116554952Y-111462813D01*
X116508259Y-111403701D01*
X116986296Y-111403701D01*
X117002721Y-111461305D01*
X117031546Y-111471991D01*
X117112772Y-111434408D01*
X117156894Y-111410709D01*
X117242791Y-111481231D01*
X117285576Y-111535867D01*
X117323817Y-111557287D01*
X117330363Y-111469095D01*
X117311741Y-111368335D01*
X117236664Y-111217576D01*
X117203587Y-111175309D01*
X117154411Y-111136135D01*
X117142965Y-111198450D01*
X117127901Y-111261032D01*
X117039041Y-111361364D01*
X117037336Y-111362733D01*
X116986296Y-111403701D01*
X116508259Y-111403701D01*
X116504774Y-111399289D01*
X116463107Y-111318149D01*
X116345226Y-111234116D01*
X116237714Y-111164463D01*
X116185678Y-111082765D01*
X116174662Y-111042015D01*
X116089950Y-110967373D01*
X116062021Y-110935966D01*
X116040682Y-110855455D01*
X116413594Y-110855455D01*
X116421276Y-110915977D01*
X116511608Y-110994110D01*
X116511829Y-110994228D01*
X116599761Y-111062315D01*
X116570401Y-111116973D01*
X116537915Y-111145812D01*
X116552503Y-111203875D01*
X116562083Y-111207441D01*
X116650466Y-111175258D01*
X116766728Y-111073995D01*
X116850296Y-110977183D01*
X116865833Y-110934534D01*
X116798685Y-110949862D01*
X116714438Y-110960104D01*
X116565699Y-110892105D01*
X116485911Y-110838967D01*
X116413594Y-110855455D01*
X116040682Y-110855455D01*
X116023859Y-110791980D01*
X116000108Y-110551488D01*
X115991106Y-110233870D01*
X115997188Y-109858506D01*
X116018693Y-109444776D01*
X116055956Y-109012060D01*
X116075909Y-108812105D01*
X116084196Y-108724515D01*
X116706536Y-108724515D01*
X116715762Y-109063191D01*
X116738209Y-109326232D01*
X116775201Y-109527484D01*
X116828062Y-109680791D01*
X116898115Y-109799999D01*
X116986682Y-109898953D01*
X117000697Y-109911779D01*
X117037336Y-109932967D01*
X117061062Y-109909769D01*
X117073142Y-109825568D01*
X117074844Y-109663749D01*
X117067437Y-109407693D01*
X117052189Y-109040786D01*
X117048726Y-108964161D01*
X117027590Y-108560973D01*
X117002166Y-108155136D01*
X116975349Y-107790052D01*
X116950033Y-107509128D01*
X116943705Y-107446814D01*
X116916201Y-107120487D01*
X116896608Y-106797321D01*
X116888822Y-106539070D01*
X116881809Y-106349840D01*
X116861953Y-106198304D01*
X116833941Y-106140201D01*
X116815627Y-106195166D01*
X116794731Y-106358498D01*
X116773760Y-106610303D01*
X116754368Y-106930542D01*
X116738212Y-107299175D01*
X116722459Y-107764879D01*
X116709210Y-108296360D01*
X116706536Y-108724515D01*
X116084196Y-108724515D01*
X116108281Y-108469931D01*
X116145432Y-108062786D01*
X116184188Y-107625578D01*
X116221375Y-107193216D01*
X116252842Y-106852116D01*
X116299462Y-106419128D01*
X116350080Y-106011711D01*
X116400421Y-105663784D01*
X116446210Y-105409269D01*
X116461587Y-105334386D01*
X116516050Y-105012853D01*
X116554211Y-104697516D01*
X116568593Y-104447153D01*
X116565577Y-104324961D01*
X116520499Y-104060596D01*
X116408434Y-103892779D01*
X116212838Y-103804537D01*
X115917162Y-103778894D01*
X115812709Y-103780125D01*
X115633080Y-103801956D01*
X115534219Y-103871738D01*
X115492342Y-104015919D01*
X115483668Y-104260943D01*
X115480086Y-104345877D01*
X115456731Y-104558068D01*
X115417212Y-104811441D01*
X115368085Y-105072451D01*
X115315908Y-105307550D01*
X115267236Y-105483192D01*
X115228627Y-105565829D01*
X115226985Y-105567699D01*
X115204673Y-105650995D01*
X115174787Y-105833598D01*
X115141032Y-106090197D01*
X115107117Y-106395477D01*
X115073624Y-106699546D01*
X115028054Y-107063907D01*
X114981576Y-107392623D01*
X114940323Y-107639950D01*
X114922119Y-107740516D01*
X114873545Y-108046131D01*
X114824526Y-108397088D01*
X114783317Y-108735763D01*
X114764475Y-108887532D01*
X114711886Y-109215268D01*
X114649515Y-109515889D01*
X114587151Y-109739319D01*
X114540901Y-109888126D01*
X114484411Y-110135817D01*
X114462207Y-110334712D01*
X114462199Y-110337412D01*
X114444920Y-110572181D01*
X114404582Y-110798995D01*
X114367745Y-110942509D01*
X114314907Y-111160252D01*
X114296658Y-111288722D01*
X114038965Y-111288722D01*
X114126073Y-111241264D01*
X114184294Y-111129263D01*
X114224993Y-110935989D01*
X114269195Y-110639447D01*
X114275181Y-110599716D01*
X114314888Y-110346593D01*
X114368731Y-110014436D01*
X114430401Y-109641824D01*
X114493587Y-109267337D01*
X114529094Y-109057852D01*
X114602853Y-108617328D01*
X114684655Y-108123503D01*
X114766840Y-107622717D01*
X114841748Y-107161306D01*
X114879349Y-106928376D01*
X114961614Y-106420393D01*
X115048431Y-105886077D01*
X115131540Y-105376215D01*
X115202685Y-104941592D01*
X115242450Y-104691941D01*
X115289309Y-104372777D01*
X115322503Y-104114324D01*
X115339322Y-103938265D01*
X115337057Y-103866286D01*
X115288372Y-103849279D01*
X115144901Y-103856379D01*
X114960413Y-103895040D01*
X114781693Y-103954450D01*
X114655525Y-104023795D01*
X114622548Y-104060316D01*
X114560614Y-104180540D01*
X114494151Y-104381470D01*
X114418488Y-104678298D01*
X114328957Y-105086218D01*
X114128882Y-106042537D01*
X114432326Y-106317262D01*
X114735769Y-106591988D01*
X114692815Y-107107040D01*
X114689461Y-107144914D01*
X114654436Y-107422525D01*
X114606928Y-107673026D01*
X114556212Y-107846227D01*
X114543820Y-107876694D01*
X114486052Y-108045436D01*
X114462563Y-108162554D01*
X114461371Y-108180123D01*
X114397496Y-108330165D01*
X114253497Y-108517461D01*
X114053290Y-108714725D01*
X113820793Y-108894674D01*
X113683583Y-108997326D01*
X113541227Y-109132096D01*
X113473839Y-109235427D01*
X113469355Y-109255464D01*
X113441472Y-109395028D01*
X113397704Y-109625378D01*
X113343106Y-109919646D01*
X113282736Y-110250965D01*
X113263236Y-110359555D01*
X113207855Y-110675475D01*
X113163137Y-110941752D01*
X113133250Y-111133092D01*
X113122362Y-111224207D01*
X111894683Y-111224207D01*
X111954759Y-111215198D01*
X112036564Y-111202220D01*
X112216744Y-111168500D01*
X112326007Y-111140638D01*
X112329476Y-111138754D01*
X112376837Y-111059552D01*
X112439992Y-110894789D01*
X112509219Y-110678783D01*
X112574794Y-110445849D01*
X112626996Y-110230305D01*
X112656101Y-110066467D01*
X112652388Y-109988652D01*
X112650823Y-109987415D01*
X112618652Y-110028008D01*
X112581702Y-110152599D01*
X112573398Y-110187298D01*
X112518738Y-110300625D01*
X112432036Y-110310690D01*
X112366642Y-110296816D01*
X112409037Y-110336920D01*
X112462736Y-110437946D01*
X112449799Y-110630127D01*
X112442055Y-110669322D01*
X112406934Y-110807126D01*
X112378756Y-110862814D01*
X112353987Y-110855336D01*
X112324623Y-110836901D01*
X112253020Y-110791948D01*
X112126883Y-110693112D01*
X112019206Y-110594483D01*
X112005511Y-110575628D01*
X112292714Y-110575628D01*
X112324623Y-110607538D01*
X112356533Y-110575628D01*
X112324623Y-110543718D01*
X112292714Y-110575628D01*
X112005511Y-110575628D01*
X111973618Y-110531717D01*
X111984330Y-110507971D01*
X112069347Y-110479899D01*
X112113385Y-110472699D01*
X112165075Y-110416080D01*
X112163221Y-110400826D01*
X112101256Y-110352261D01*
X112033288Y-110337567D01*
X112041640Y-110292850D01*
X112127116Y-110238525D01*
X112267325Y-110195701D01*
X112347203Y-110179237D01*
X112454536Y-110142127D01*
X112434947Y-110108118D01*
X112424118Y-110105660D01*
X112288838Y-110074960D01*
X112177292Y-110031261D01*
X112155506Y-109929924D01*
X112181221Y-109841708D01*
X112292714Y-109841708D01*
X112318386Y-109879490D01*
X112424118Y-109905527D01*
X112496540Y-109891940D01*
X112516080Y-109841708D01*
X112493331Y-109816784D01*
X112384676Y-109777889D01*
X112344132Y-109784468D01*
X112292714Y-109841708D01*
X112181221Y-109841708D01*
X112198139Y-109783670D01*
X112277637Y-109642635D01*
X112362974Y-109586432D01*
X112490366Y-109618896D01*
X112621860Y-109713109D01*
X112683179Y-109827999D01*
X112684455Y-109839871D01*
X112705153Y-109845374D01*
X112739447Y-109745980D01*
X112742887Y-109732364D01*
X112788863Y-109500552D01*
X112782202Y-109371275D01*
X112722352Y-109331156D01*
X112677537Y-109337465D01*
X112515415Y-109415046D01*
X112330090Y-109557051D01*
X112157537Y-109733093D01*
X112033735Y-109912785D01*
X112017349Y-109947074D01*
X111938024Y-110155507D01*
X111854779Y-110428023D01*
X111783161Y-110714864D01*
X111664306Y-111258754D01*
X111336551Y-111258754D01*
X111435672Y-110842216D01*
X111539116Y-110436381D01*
X111579776Y-110285051D01*
X111669832Y-109958742D01*
X111739726Y-109729328D01*
X111797734Y-109577328D01*
X111852130Y-109483261D01*
X111911189Y-109427649D01*
X111983187Y-109391011D01*
X112006005Y-109381435D01*
X112151963Y-109307046D01*
X112177902Y-109256290D01*
X112081525Y-109225816D01*
X111962822Y-109218544D01*
X111860533Y-109212277D01*
X111786004Y-109208562D01*
X111458739Y-109157934D01*
X111152332Y-109065783D01*
X110976598Y-108983674D01*
X110621973Y-108728013D01*
X110364716Y-108399695D01*
X110211281Y-108012531D01*
X110168122Y-107580335D01*
X110173612Y-107545756D01*
X111159551Y-107545756D01*
X111212112Y-107703769D01*
X111237151Y-107752938D01*
X111252516Y-107749832D01*
X111235918Y-107630606D01*
X111227099Y-107478389D01*
X111255670Y-107363388D01*
X111722792Y-107363388D01*
X111739774Y-107549233D01*
X111860180Y-107700150D01*
X111984229Y-107768350D01*
X112182353Y-107789896D01*
X112415787Y-107706129D01*
X112488031Y-107663885D01*
X112631903Y-107508226D01*
X112675628Y-107288283D01*
X112626290Y-107130688D01*
X112490161Y-107020696D01*
X112299744Y-106974142D01*
X112087652Y-106998718D01*
X111886496Y-107102119D01*
X111807583Y-107180147D01*
X111722792Y-107363388D01*
X111255670Y-107363388D01*
X111297517Y-107194952D01*
X111464708Y-106934232D01*
X111709342Y-106722269D01*
X112012088Y-106585098D01*
X112059411Y-106572754D01*
X112396369Y-106540224D01*
X112683992Y-106603309D01*
X112911766Y-106743443D01*
X113069178Y-106942057D01*
X113145714Y-107180586D01*
X113130862Y-107440463D01*
X113014108Y-107703120D01*
X112784938Y-107949991D01*
X112751888Y-107976088D01*
X112583367Y-108083537D01*
X112399175Y-108141862D01*
X112182353Y-108165903D01*
X112143558Y-108170205D01*
X111946265Y-108178918D01*
X111784740Y-108165826D01*
X111662036Y-108115467D01*
X111530042Y-108015728D01*
X111516585Y-108004433D01*
X111398511Y-107911445D01*
X111359713Y-107900882D01*
X111387199Y-107968444D01*
X111484838Y-108084315D01*
X111695053Y-108193632D01*
X111962822Y-108242246D01*
X112255794Y-108229115D01*
X112541617Y-108153200D01*
X112787939Y-108013462D01*
X112985881Y-107824016D01*
X113160921Y-107548388D01*
X113226452Y-107266453D01*
X113179306Y-106995688D01*
X113123801Y-106913237D01*
X113016316Y-106753570D01*
X112950764Y-106694221D01*
X112669309Y-106537404D01*
X112351730Y-106479580D01*
X112025296Y-106514991D01*
X111717278Y-106637882D01*
X111454947Y-106842498D01*
X111265573Y-107123083D01*
X111238147Y-107184928D01*
X111166751Y-107388874D01*
X111159551Y-107545756D01*
X110173612Y-107545756D01*
X110241693Y-107116918D01*
X110329760Y-106922695D01*
X110497131Y-106674262D01*
X110711409Y-106418165D01*
X110943349Y-106189136D01*
X111163709Y-106021906D01*
X111469816Y-105870403D01*
X111930588Y-105732853D01*
X112401034Y-105681550D01*
X112796540Y-105679170D01*
X112823613Y-105598649D01*
X113081166Y-105598649D01*
X113084562Y-105666184D01*
X113123801Y-105687956D01*
X113196179Y-105682732D01*
X113235246Y-105673656D01*
X113305525Y-105626927D01*
X113373561Y-105524009D01*
X113452068Y-105342804D01*
X113553759Y-105061213D01*
X113611763Y-104889467D01*
X113683033Y-104662447D01*
X113726615Y-104501569D01*
X113734727Y-104433806D01*
X113727532Y-104427532D01*
X113641210Y-104431771D01*
X113530865Y-104536291D01*
X113411633Y-104722428D01*
X113298652Y-104971514D01*
X113192715Y-105251219D01*
X113116315Y-105466583D01*
X113081166Y-105598649D01*
X112823613Y-105598649D01*
X112956447Y-105203566D01*
X112961526Y-105188632D01*
X113068277Y-104923458D01*
X113193381Y-104679011D01*
X113310816Y-104506484D01*
X113452496Y-104325537D01*
X113513077Y-104203550D01*
X113487617Y-104163227D01*
X113383005Y-104213890D01*
X113206130Y-104364859D01*
X113139534Y-104425266D01*
X113020108Y-104510582D01*
X112953532Y-104524804D01*
X112945583Y-104505236D01*
X112961419Y-104388700D01*
X113020874Y-104203948D01*
X113110509Y-103982556D01*
X113216887Y-103756101D01*
X113326569Y-103556162D01*
X113426117Y-103414313D01*
X113576560Y-103281922D01*
X113838731Y-103175546D01*
X113852579Y-103173250D01*
X113995970Y-103160813D01*
X114103458Y-103193709D01*
G37*
%TD*%
M02*
