M48
; DRILL file {KiCad 9.0.5} date 2025-11-19T10:45:22-0700
; FORMAT={-:-/ absolute / metric / decimal}
; #@! TF.CreationDate,2025-11-19T10:45:22-07:00
; #@! TF.GenerationSoftware,Kicad,Pcbnew,9.0.5
; #@! TF.FileFunction,Plated,1,2,PTH
FMAT,2
METRIC
; #@! TA.AperFunction,Plated,PTH,ViaDrill
T1C0.300
; #@! TA.AperFunction,Plated,PTH,ComponentDrill
T2C0.500
; #@! TA.AperFunction,Plated,PTH,ComponentDrill
T3C0.800
; #@! TA.AperFunction,Plated,PTH,ComponentDrill
T4C0.900
; #@! TA.AperFunction,Plated,PTH,ComponentDrill
T5C1.000
; #@! TA.AperFunction,Plated,PTH,ComponentDrill
T6C1.067
; #@! TA.AperFunction,Plated,PTH,ComponentDrill
T7C1.100
; #@! TA.AperFunction,Plated,PTH,ComponentDrill
T8C1.200
; #@! TA.AperFunction,Plated,PTH,ComponentDrill
T9C1.270
%
G90
G05
T1
X146.5Y-121.75
X146.5Y-123.0
X147.0Y-126.0
T2
X131.484Y-127.094
X137.963Y-129.0
X149.537Y-104.0
X156.037Y-129.0
T3
X124.25Y-97.75
X126.75Y-97.75
X136.33Y-82.38
X136.33Y-90.0
X138.87Y-82.38
X138.87Y-90.0
X141.41Y-82.38
X141.41Y-90.0
X143.95Y-82.38
X143.95Y-90.0
X148.5Y-82.5
X148.5Y-90.12
X151.04Y-82.5
X151.04Y-90.12
X153.58Y-82.5
X153.58Y-90.12
X156.12Y-82.5
X156.12Y-90.12
T4
X123.775Y-140.65
X125.045Y-138.11
X126.315Y-140.65
X127.585Y-138.11
X138.175Y-140.65
X139.445Y-138.11
X140.715Y-140.65
X141.985Y-138.11
X152.575Y-140.65
X153.845Y-138.11
X155.115Y-140.65
X156.385Y-138.11
X166.975Y-140.65
X168.245Y-138.11
X169.515Y-140.65
X170.785Y-138.11
T5
X184.964Y-98.58
X184.964Y-121.58
X187.25Y-93.5
X187.25Y-103.66
X187.25Y-116.5
X187.25Y-126.66
T6
X124.16Y-79.564
X124.16Y-82.564
T7
X139.0Y-104.0
X139.0Y-110.5
X143.5Y-104.0
X143.5Y-110.5
T8
X175.439Y-93.5
X175.439Y-103.66
X175.439Y-116.5
X175.439Y-126.66
X177.344Y-90.96
X177.344Y-98.58
X177.344Y-106.2
X177.344Y-113.96
X177.344Y-121.58
X177.344Y-129.2
T9
X122.25Y-103.75
X125.99Y-128.584
X126.0Y-108.26
X126.0Y-110.8
X126.0Y-113.34
X126.0Y-115.88
X126.0Y-118.42
X126.0Y-120.96
X126.0Y-123.5
X126.0Y-126.04
X134.84Y-98.0
X135.75Y-124.25
X137.38Y-98.0
X139.92Y-98.0
X142.46Y-98.0
X145.0Y-98.0
X145.75Y-133.25
X147.54Y-98.0
X148.29Y-133.25
X150.08Y-98.0
X152.62Y-98.0
X155.164Y-98.01
X156.0Y-106.59
X156.0Y-109.13
X156.0Y-111.67
X156.0Y-114.21
X156.0Y-116.75
X156.0Y-119.29
M30
