%TF.GenerationSoftware,KiCad,Pcbnew,9.0.5*%
%TF.CreationDate,2025-11-19T12:00:21-07:00*%
%TF.ProjectId,UniversalSolenoidRelay,556e6976-6572-4736-916c-536f6c656e6f,rev?*%
%TF.SameCoordinates,Original*%
%TF.FileFunction,Legend,Bot*%
%TF.FilePolarity,Positive*%
%FSLAX46Y46*%
G04 Gerber Fmt 4.6, Leading zero omitted, Abs format (unit mm)*
G04 Created by KiCad (PCBNEW 9.0.5) date 2025-11-19 12:00:21*
%MOMM*%
%LPD*%
G01*
G04 APERTURE LIST*
%ADD10C,0.150000*%
%ADD11C,0.508000*%
%ADD12C,0.120000*%
%ADD13C,0.000000*%
G04 APERTURE END LIST*
D10*
X144174819Y-122133333D02*
X143698628Y-121800000D01*
X144174819Y-121561905D02*
X143174819Y-121561905D01*
X143174819Y-121561905D02*
X143174819Y-121942857D01*
X143174819Y-121942857D02*
X143222438Y-122038095D01*
X143222438Y-122038095D02*
X143270057Y-122085714D01*
X143270057Y-122085714D02*
X143365295Y-122133333D01*
X143365295Y-122133333D02*
X143508152Y-122133333D01*
X143508152Y-122133333D02*
X143603390Y-122085714D01*
X143603390Y-122085714D02*
X143651009Y-122038095D01*
X143651009Y-122038095D02*
X143698628Y-121942857D01*
X143698628Y-121942857D02*
X143698628Y-121561905D01*
X143174819Y-122990476D02*
X143174819Y-122800000D01*
X143174819Y-122800000D02*
X143222438Y-122704762D01*
X143222438Y-122704762D02*
X143270057Y-122657143D01*
X143270057Y-122657143D02*
X143412914Y-122561905D01*
X143412914Y-122561905D02*
X143603390Y-122514286D01*
X143603390Y-122514286D02*
X143984342Y-122514286D01*
X143984342Y-122514286D02*
X144079580Y-122561905D01*
X144079580Y-122561905D02*
X144127200Y-122609524D01*
X144127200Y-122609524D02*
X144174819Y-122704762D01*
X144174819Y-122704762D02*
X144174819Y-122895238D01*
X144174819Y-122895238D02*
X144127200Y-122990476D01*
X144127200Y-122990476D02*
X144079580Y-123038095D01*
X144079580Y-123038095D02*
X143984342Y-123085714D01*
X143984342Y-123085714D02*
X143746247Y-123085714D01*
X143746247Y-123085714D02*
X143651009Y-123038095D01*
X143651009Y-123038095D02*
X143603390Y-122990476D01*
X143603390Y-122990476D02*
X143555771Y-122895238D01*
X143555771Y-122895238D02*
X143555771Y-122704762D01*
X143555771Y-122704762D02*
X143603390Y-122609524D01*
X143603390Y-122609524D02*
X143651009Y-122561905D01*
X143651009Y-122561905D02*
X143746247Y-122514286D01*
X116389166Y-129904819D02*
X116722499Y-129428628D01*
X116960594Y-129904819D02*
X116960594Y-128904819D01*
X116960594Y-128904819D02*
X116579642Y-128904819D01*
X116579642Y-128904819D02*
X116484404Y-128952438D01*
X116484404Y-128952438D02*
X116436785Y-129000057D01*
X116436785Y-129000057D02*
X116389166Y-129095295D01*
X116389166Y-129095295D02*
X116389166Y-129238152D01*
X116389166Y-129238152D02*
X116436785Y-129333390D01*
X116436785Y-129333390D02*
X116484404Y-129381009D01*
X116484404Y-129381009D02*
X116579642Y-129428628D01*
X116579642Y-129428628D02*
X116960594Y-129428628D01*
X116008213Y-129000057D02*
X115960594Y-128952438D01*
X115960594Y-128952438D02*
X115865356Y-128904819D01*
X115865356Y-128904819D02*
X115627261Y-128904819D01*
X115627261Y-128904819D02*
X115532023Y-128952438D01*
X115532023Y-128952438D02*
X115484404Y-129000057D01*
X115484404Y-129000057D02*
X115436785Y-129095295D01*
X115436785Y-129095295D02*
X115436785Y-129190533D01*
X115436785Y-129190533D02*
X115484404Y-129333390D01*
X115484404Y-129333390D02*
X116055832Y-129904819D01*
X116055832Y-129904819D02*
X115436785Y-129904819D01*
X139929166Y-129874819D02*
X140262499Y-129398628D01*
X140500594Y-129874819D02*
X140500594Y-128874819D01*
X140500594Y-128874819D02*
X140119642Y-128874819D01*
X140119642Y-128874819D02*
X140024404Y-128922438D01*
X140024404Y-128922438D02*
X139976785Y-128970057D01*
X139976785Y-128970057D02*
X139929166Y-129065295D01*
X139929166Y-129065295D02*
X139929166Y-129208152D01*
X139929166Y-129208152D02*
X139976785Y-129303390D01*
X139976785Y-129303390D02*
X140024404Y-129351009D01*
X140024404Y-129351009D02*
X140119642Y-129398628D01*
X140119642Y-129398628D02*
X140500594Y-129398628D01*
X139072023Y-129208152D02*
X139072023Y-129874819D01*
X139310118Y-128827200D02*
X139548213Y-129541485D01*
X139548213Y-129541485D02*
X138929166Y-129541485D01*
X144674819Y-96670833D02*
X144198628Y-96337500D01*
X144674819Y-96099405D02*
X143674819Y-96099405D01*
X143674819Y-96099405D02*
X143674819Y-96480357D01*
X143674819Y-96480357D02*
X143722438Y-96575595D01*
X143722438Y-96575595D02*
X143770057Y-96623214D01*
X143770057Y-96623214D02*
X143865295Y-96670833D01*
X143865295Y-96670833D02*
X144008152Y-96670833D01*
X144008152Y-96670833D02*
X144103390Y-96623214D01*
X144103390Y-96623214D02*
X144151009Y-96575595D01*
X144151009Y-96575595D02*
X144198628Y-96480357D01*
X144198628Y-96480357D02*
X144198628Y-96099405D01*
X144103390Y-97242262D02*
X144055771Y-97147024D01*
X144055771Y-97147024D02*
X144008152Y-97099405D01*
X144008152Y-97099405D02*
X143912914Y-97051786D01*
X143912914Y-97051786D02*
X143865295Y-97051786D01*
X143865295Y-97051786D02*
X143770057Y-97099405D01*
X143770057Y-97099405D02*
X143722438Y-97147024D01*
X143722438Y-97147024D02*
X143674819Y-97242262D01*
X143674819Y-97242262D02*
X143674819Y-97432738D01*
X143674819Y-97432738D02*
X143722438Y-97527976D01*
X143722438Y-97527976D02*
X143770057Y-97575595D01*
X143770057Y-97575595D02*
X143865295Y-97623214D01*
X143865295Y-97623214D02*
X143912914Y-97623214D01*
X143912914Y-97623214D02*
X144008152Y-97575595D01*
X144008152Y-97575595D02*
X144055771Y-97527976D01*
X144055771Y-97527976D02*
X144103390Y-97432738D01*
X144103390Y-97432738D02*
X144103390Y-97242262D01*
X144103390Y-97242262D02*
X144151009Y-97147024D01*
X144151009Y-97147024D02*
X144198628Y-97099405D01*
X144198628Y-97099405D02*
X144293866Y-97051786D01*
X144293866Y-97051786D02*
X144484342Y-97051786D01*
X144484342Y-97051786D02*
X144579580Y-97099405D01*
X144579580Y-97099405D02*
X144627200Y-97147024D01*
X144627200Y-97147024D02*
X144674819Y-97242262D01*
X144674819Y-97242262D02*
X144674819Y-97432738D01*
X144674819Y-97432738D02*
X144627200Y-97527976D01*
X144627200Y-97527976D02*
X144579580Y-97575595D01*
X144579580Y-97575595D02*
X144484342Y-97623214D01*
X144484342Y-97623214D02*
X144293866Y-97623214D01*
X144293866Y-97623214D02*
X144198628Y-97575595D01*
X144198628Y-97575595D02*
X144151009Y-97527976D01*
X144151009Y-97527976D02*
X144103390Y-97432738D01*
D11*
%TO.C,J7*%
X162268601Y-118060400D02*
G75*
G02*
X161506601Y-118060400I-381000J0D01*
G01*
X161506601Y-118060400D02*
G75*
G02*
X162268601Y-118060400I381000J0D01*
G01*
%TO.C,J9*%
X162281000Y-92102600D02*
G75*
G02*
X161519000Y-92102600I-381000J0D01*
G01*
X161519000Y-92102600D02*
G75*
G02*
X162281000Y-92102600I381000J0D01*
G01*
%TO.C,J1*%
X92945300Y-103136999D02*
G75*
G02*
X92183300Y-103136999I-381000J0D01*
G01*
X92183300Y-103136999D02*
G75*
G02*
X92945300Y-103136999I381000J0D01*
G01*
%TO.C,J4*%
X110622400Y-146237500D02*
G75*
G02*
X109860400Y-146237500I-381000J0D01*
G01*
X109860400Y-146237500D02*
G75*
G02*
X110622400Y-146237500I381000J0D01*
G01*
%TO.C,J2*%
X93980999Y-128715500D02*
G75*
G02*
X93218999Y-128715500I-381000J0D01*
G01*
X93218999Y-128715500D02*
G75*
G02*
X93980999Y-128715500I381000J0D01*
G01*
%TO.C,J5*%
X144208392Y-146170229D02*
G75*
G02*
X143446392Y-146170229I-381000J0D01*
G01*
X143446392Y-146170229D02*
G75*
G02*
X144208392Y-146170229I381000J0D01*
G01*
%TO.C,J10*%
X162281000Y-103502600D02*
G75*
G02*
X161519000Y-103502600I-381000J0D01*
G01*
X161519000Y-103502600D02*
G75*
G02*
X162281000Y-103502600I381000J0D01*
G01*
%TO.C,J6*%
X133408392Y-146170229D02*
G75*
G02*
X132646392Y-146170229I-381000J0D01*
G01*
X132646392Y-146170229D02*
G75*
G02*
X133408392Y-146170229I381000J0D01*
G01*
%TO.C,J8*%
X162196700Y-129488000D02*
G75*
G02*
X161434700Y-129488000I-381000J0D01*
G01*
X161434700Y-129488000D02*
G75*
G02*
X162196700Y-129488000I381000J0D01*
G01*
%TO.C,J3*%
X120178400Y-146237500D02*
G75*
G02*
X119416400Y-146237500I-381000J0D01*
G01*
X119416400Y-146237500D02*
G75*
G02*
X120178400Y-146237500I381000J0D01*
G01*
D12*
%TO.C,R6*%
X144665000Y-122038748D02*
X144665000Y-122561252D01*
X146135000Y-122038748D02*
X146135000Y-122561252D01*
%TO.C,R2*%
X116623752Y-130565000D02*
X116101248Y-130565000D01*
X116623752Y-132035000D02*
X116101248Y-132035000D01*
%TO.C,R4*%
X140023752Y-130365000D02*
X139501248Y-130365000D01*
X140023752Y-131835000D02*
X139501248Y-131835000D01*
D13*
%TO.C,G\u002A\u002A\u002A*%
G36*
X128489597Y-98597280D02*
G01*
X128495966Y-98680719D01*
X128481594Y-98697440D01*
X128398155Y-98703808D01*
X128381433Y-98689437D01*
X128375065Y-98605998D01*
X128389437Y-98589276D01*
X128472876Y-98582908D01*
X128489597Y-98597280D01*
G37*
G36*
X128640651Y-102000535D02*
G01*
X128570751Y-102091109D01*
X128503853Y-102144692D01*
X128467425Y-102138821D01*
X128476272Y-102103935D01*
X128542944Y-102007688D01*
X128585096Y-101973265D01*
X128646270Y-101959976D01*
X128640651Y-102000535D01*
G37*
G36*
X127953125Y-98762995D02*
G01*
X128159691Y-98802475D01*
X128375891Y-98867432D01*
X128486261Y-98937408D01*
X128479948Y-99007367D01*
X128425674Y-99033525D01*
X128276384Y-99040758D01*
X128087564Y-99013288D01*
X127900982Y-98961057D01*
X127758403Y-98894007D01*
X127701596Y-98822082D01*
X127714304Y-98771980D01*
X127787580Y-98746315D01*
X127953125Y-98762995D01*
G37*
G36*
X129975967Y-95535988D02*
G01*
X130024056Y-95580042D01*
X130022692Y-95591611D01*
X129981303Y-95756184D01*
X129915572Y-95876921D01*
X129847364Y-95912662D01*
X129795310Y-95874445D01*
X129714513Y-95762096D01*
X129689710Y-95707680D01*
X129743807Y-95707680D01*
X129775716Y-95739589D01*
X129807626Y-95707680D01*
X129775716Y-95675770D01*
X129743807Y-95707680D01*
X129689710Y-95707680D01*
X129655893Y-95633489D01*
X129649874Y-95545226D01*
X129651790Y-95542465D01*
X129731710Y-95511791D01*
X129859143Y-95511435D01*
X129975967Y-95535988D01*
G37*
G36*
X118421684Y-92115002D02*
G01*
X118734064Y-92280503D01*
X119003926Y-92523722D01*
X119206441Y-92834727D01*
X119218534Y-92860928D01*
X119323380Y-93191966D01*
X119316547Y-93501444D01*
X119197701Y-93827449D01*
X119115787Y-93958174D01*
X118881653Y-94185633D01*
X118591052Y-94341535D01*
X118286200Y-94399388D01*
X118187354Y-94389738D01*
X117932130Y-94311244D01*
X117659932Y-94174949D01*
X117417393Y-94006447D01*
X117251150Y-93831332D01*
X117204364Y-93756786D01*
X117044836Y-93388455D01*
X117016776Y-93167321D01*
X117561739Y-93167321D01*
X117619303Y-93380518D01*
X117745188Y-93571518D01*
X117920993Y-93720059D01*
X118128319Y-93805879D01*
X118348763Y-93808716D01*
X118563927Y-93708308D01*
X118670166Y-93581162D01*
X118747593Y-93328595D01*
X118756586Y-93252337D01*
X118752715Y-93106057D01*
X118693551Y-92985945D01*
X118558101Y-92837603D01*
X118408910Y-92714159D01*
X118164384Y-92612394D01*
X117926703Y-92630300D01*
X117711006Y-92769101D01*
X117590897Y-92952189D01*
X117561739Y-93167321D01*
X117016776Y-93167321D01*
X116999025Y-93027424D01*
X117064220Y-92690756D01*
X117237711Y-92395514D01*
X117516789Y-92158760D01*
X117768682Y-92056891D01*
X118091614Y-92037154D01*
X118421684Y-92115002D01*
G37*
G36*
X117965212Y-90719517D02*
G01*
X118435459Y-90800750D01*
X118869441Y-90956388D01*
X119346891Y-91244813D01*
X119757796Y-91617273D01*
X120087469Y-92052846D01*
X120329229Y-92534410D01*
X120476389Y-93044844D01*
X120522266Y-93567029D01*
X120460176Y-94083842D01*
X120283435Y-94578164D01*
X120081936Y-94904077D01*
X119738423Y-95263091D01*
X119323493Y-95536387D01*
X118857813Y-95714046D01*
X118362053Y-95786148D01*
X117856881Y-95742773D01*
X117412611Y-95611024D01*
X116904484Y-95351711D01*
X116460549Y-95001346D01*
X116093301Y-94575011D01*
X115815239Y-94087787D01*
X115638860Y-93554755D01*
X115595700Y-93163582D01*
X116928265Y-93163582D01*
X116957013Y-93387804D01*
X117087830Y-93751889D01*
X117324689Y-94050875D01*
X117674386Y-94295069D01*
X117870494Y-94386147D01*
X118248876Y-94476916D01*
X118602347Y-94449166D01*
X118919286Y-94304809D01*
X119188074Y-94045760D01*
X119245025Y-93962063D01*
X119369154Y-93645551D01*
X119393860Y-93296724D01*
X119326506Y-92941929D01*
X119174455Y-92607510D01*
X118945069Y-92319812D01*
X118645713Y-92105181D01*
X118295854Y-91975231D01*
X117922854Y-91943457D01*
X117577637Y-92026051D01*
X117277431Y-92221546D01*
X117164766Y-92334602D01*
X117006634Y-92564467D01*
X116932944Y-92826916D01*
X116928265Y-93163582D01*
X115595700Y-93163582D01*
X115576658Y-92990997D01*
X115591522Y-92700973D01*
X115703779Y-92178036D01*
X115919085Y-91713715D01*
X116229044Y-91320125D01*
X116625261Y-91009382D01*
X117099340Y-90793603D01*
X117502441Y-90716710D01*
X117965212Y-90719517D01*
G37*
G36*
X125300238Y-99530485D02*
G01*
X125607482Y-99537675D01*
X125660259Y-99539436D01*
X125975871Y-99553267D01*
X126198489Y-99573119D01*
X126358537Y-99604686D01*
X126486443Y-99653660D01*
X126612632Y-99725733D01*
X126780499Y-99863294D01*
X126876354Y-100041633D01*
X126850652Y-100219475D01*
X126701677Y-100384133D01*
X126531407Y-100508166D01*
X126669768Y-100732039D01*
X126734387Y-100842924D01*
X126795098Y-101007124D01*
X126771252Y-101144725D01*
X126662240Y-101301698D01*
X126511177Y-101444332D01*
X126254961Y-101576196D01*
X125915990Y-101650781D01*
X125476088Y-101673788D01*
X125302096Y-101671656D01*
X125025326Y-101654064D01*
X124855894Y-101615305D01*
X124780670Y-101551267D01*
X124786524Y-101457839D01*
X124793079Y-101443760D01*
X124890704Y-101376769D01*
X125092817Y-101355670D01*
X125359904Y-101355670D01*
X125723204Y-101355670D01*
X125962525Y-101353640D01*
X125993132Y-101352996D01*
X126235977Y-101305818D01*
X126378604Y-101182094D01*
X126425214Y-100978418D01*
X126416058Y-100866507D01*
X126354551Y-100763665D01*
X126203897Y-100682313D01*
X126084930Y-100634796D01*
X125895329Y-100583214D01*
X125785772Y-100613929D01*
X125735363Y-100739567D01*
X125723204Y-100972755D01*
X125723204Y-101355670D01*
X125359904Y-101355670D01*
X125339315Y-100972755D01*
X125318067Y-100577578D01*
X125303470Y-100347720D01*
X125302198Y-100334564D01*
X125659385Y-100334564D01*
X125952679Y-100334564D01*
X126023377Y-100331167D01*
X126224129Y-100294802D01*
X126416068Y-100230651D01*
X126559985Y-100153788D01*
X126616671Y-100079288D01*
X126615890Y-100075499D01*
X126556171Y-100016828D01*
X126430476Y-99933000D01*
X126384014Y-99908613D01*
X126178116Y-99832964D01*
X125951833Y-99782928D01*
X125659385Y-99742843D01*
X125659385Y-100038704D01*
X125659385Y-100334564D01*
X125302198Y-100334564D01*
X125273850Y-100041339D01*
X125273395Y-100038704D01*
X125238959Y-99839069D01*
X125200473Y-99752666D01*
X125081210Y-99736614D01*
X124923021Y-99789196D01*
X124783189Y-99887207D01*
X124713614Y-100003867D01*
X124670841Y-100102741D01*
X124541878Y-100143107D01*
X124439040Y-100128529D01*
X124348978Y-100075866D01*
X124343765Y-100018026D01*
X124397461Y-99887108D01*
X124499375Y-99738006D01*
X124620942Y-99610265D01*
X124733596Y-99543427D01*
X124829851Y-99534234D01*
X125030694Y-99529406D01*
X125300238Y-99530485D01*
G37*
G36*
X112412681Y-92256544D02*
G01*
X112565456Y-92275415D01*
X112783855Y-92312465D01*
X113082649Y-92369958D01*
X113476604Y-92450158D01*
X113980490Y-92555329D01*
X113993402Y-92558040D01*
X114364102Y-92635461D01*
X114690341Y-92702817D01*
X114952017Y-92756019D01*
X115129027Y-92790978D01*
X115201265Y-92803606D01*
X115259449Y-92863057D01*
X115325388Y-93029367D01*
X115392219Y-93282307D01*
X115453546Y-93601650D01*
X115540123Y-94017094D01*
X115699998Y-94472597D01*
X115926977Y-94860728D01*
X116235734Y-95211692D01*
X116338038Y-95306922D01*
X116534307Y-95462556D01*
X116745256Y-95584253D01*
X116998911Y-95684176D01*
X117323300Y-95774489D01*
X117746448Y-95867356D01*
X117815506Y-95881069D01*
X118272507Y-95946495D01*
X118670695Y-95946513D01*
X119056826Y-95877579D01*
X119477656Y-95736151D01*
X119498505Y-95727885D01*
X119860998Y-95560321D01*
X120130579Y-95373612D01*
X120339920Y-95139377D01*
X120521691Y-94829237D01*
X120586074Y-94697970D01*
X120672065Y-94496375D01*
X120720014Y-94315112D01*
X120740803Y-94104896D01*
X120745314Y-93816442D01*
X120745762Y-93759463D01*
X121221965Y-93759463D01*
X121240534Y-93858426D01*
X121288460Y-93970614D01*
X121410133Y-94016474D01*
X121449691Y-94019100D01*
X121614456Y-94043454D01*
X121850463Y-94087875D01*
X122120658Y-94145626D01*
X122174871Y-94157807D01*
X122516505Y-94231973D01*
X122871255Y-94305513D01*
X123170440Y-94364129D01*
X123283261Y-94385433D01*
X123558597Y-94438398D01*
X123915836Y-94507950D01*
X124340181Y-94591141D01*
X124816837Y-94685025D01*
X125331009Y-94786657D01*
X125867902Y-94893090D01*
X126412719Y-95001377D01*
X126950667Y-95108574D01*
X127466948Y-95211734D01*
X127946769Y-95307910D01*
X128375333Y-95394156D01*
X128737846Y-95467527D01*
X129019511Y-95525076D01*
X129205534Y-95563857D01*
X129281118Y-95580924D01*
X129335097Y-95565042D01*
X129360892Y-95448398D01*
X129341770Y-95339336D01*
X129311818Y-95302639D01*
X129539324Y-95302639D01*
X129582880Y-95593092D01*
X129595858Y-95674897D01*
X129629578Y-95855077D01*
X129657440Y-95964340D01*
X129659324Y-95967809D01*
X129738526Y-96015170D01*
X129903289Y-96078325D01*
X130119295Y-96147552D01*
X130352229Y-96213127D01*
X130567773Y-96265329D01*
X130731611Y-96294434D01*
X130809426Y-96290721D01*
X130810663Y-96289156D01*
X130770070Y-96256985D01*
X130645479Y-96220035D01*
X130610780Y-96211731D01*
X130497453Y-96157071D01*
X130487388Y-96070369D01*
X130501262Y-96004975D01*
X130461158Y-96047370D01*
X130360132Y-96101069D01*
X130167951Y-96088132D01*
X130128756Y-96080388D01*
X129990952Y-96045267D01*
X129935264Y-96017089D01*
X129942742Y-95992320D01*
X129961177Y-95962956D01*
X130190540Y-95962956D01*
X130222450Y-95994866D01*
X130254360Y-95962956D01*
X130222450Y-95931047D01*
X130190540Y-95962956D01*
X129961177Y-95962956D01*
X130006130Y-95891353D01*
X130104966Y-95765216D01*
X130203595Y-95657539D01*
X130266361Y-95611951D01*
X130290107Y-95622663D01*
X130318179Y-95707680D01*
X130325379Y-95751718D01*
X130381998Y-95803408D01*
X130397252Y-95801554D01*
X130445817Y-95739589D01*
X130460511Y-95671621D01*
X130505228Y-95679973D01*
X130559553Y-95765449D01*
X130602377Y-95905658D01*
X130618841Y-95985536D01*
X130655951Y-96092869D01*
X130689960Y-96073280D01*
X130692418Y-96062451D01*
X130892551Y-96062451D01*
X130906138Y-96134873D01*
X130956370Y-96154413D01*
X130981294Y-96131664D01*
X131020189Y-96023009D01*
X131013610Y-95982465D01*
X130956370Y-95931047D01*
X130918588Y-95956719D01*
X130892551Y-96062451D01*
X130692418Y-96062451D01*
X130723118Y-95927171D01*
X130766817Y-95815625D01*
X130868154Y-95793839D01*
X131014408Y-95836472D01*
X131155443Y-95915970D01*
X131211646Y-96001307D01*
X131179182Y-96128699D01*
X131084969Y-96260193D01*
X130970079Y-96321512D01*
X130958207Y-96322788D01*
X130952704Y-96343486D01*
X131052098Y-96377780D01*
X131065714Y-96381220D01*
X131297526Y-96427196D01*
X131426803Y-96420535D01*
X131466922Y-96360685D01*
X131460613Y-96315870D01*
X131383032Y-96153748D01*
X131241027Y-95968423D01*
X131064985Y-95795870D01*
X130885293Y-95672068D01*
X130851004Y-95655682D01*
X130642571Y-95576357D01*
X130370055Y-95493112D01*
X130083214Y-95421494D01*
X129539324Y-95302639D01*
X129311818Y-95302639D01*
X129281118Y-95265026D01*
X129239572Y-95253835D01*
X129074793Y-95213881D01*
X128823988Y-95155701D01*
X128513142Y-95085096D01*
X128168236Y-95007865D01*
X127815254Y-94929807D01*
X127480178Y-94856721D01*
X127188991Y-94794407D01*
X126967676Y-94748664D01*
X126838144Y-94722196D01*
X126505175Y-94651168D01*
X126135199Y-94569278D01*
X125787023Y-94489438D01*
X125786780Y-94489381D01*
X125407940Y-94404354D01*
X124932330Y-94303565D01*
X124388971Y-94192755D01*
X123806886Y-94077660D01*
X123215096Y-93964020D01*
X122642623Y-93857573D01*
X122118489Y-93764057D01*
X121773992Y-93704286D01*
X121517682Y-93663144D01*
X121352301Y-93646158D01*
X121259872Y-93655261D01*
X121222419Y-93692386D01*
X121221965Y-93759463D01*
X120745762Y-93759463D01*
X120746476Y-93668650D01*
X120758027Y-93426826D01*
X120783571Y-93291699D01*
X120825088Y-93249171D01*
X120832098Y-93249561D01*
X120937369Y-93265294D01*
X121145391Y-93301395D01*
X121437384Y-93354298D01*
X121794567Y-93420440D01*
X122198158Y-93496255D01*
X122629376Y-93578180D01*
X123069441Y-93662651D01*
X123499572Y-93746102D01*
X123900988Y-93824970D01*
X124254908Y-93895690D01*
X124542551Y-93954698D01*
X124598095Y-93966291D01*
X124940978Y-94036801D01*
X125296357Y-94108465D01*
X125595566Y-94167412D01*
X125863509Y-94219792D01*
X126226601Y-94291979D01*
X126552852Y-94357981D01*
X126724547Y-94392763D01*
X127024801Y-94452799D01*
X127393673Y-94525993D01*
X127799882Y-94606139D01*
X128212149Y-94687036D01*
X128462260Y-94737321D01*
X128958376Y-94843042D01*
X129472166Y-94958903D01*
X129955862Y-95074005D01*
X130361697Y-95177449D01*
X130513027Y-95218109D01*
X130839336Y-95308165D01*
X131068750Y-95378059D01*
X131220750Y-95436067D01*
X131314817Y-95490463D01*
X131370429Y-95549522D01*
X131407067Y-95621520D01*
X131416643Y-95644338D01*
X131491032Y-95790296D01*
X131541788Y-95816235D01*
X131572262Y-95719858D01*
X131579534Y-95601155D01*
X132555832Y-95601155D01*
X132568963Y-95894127D01*
X132644878Y-96179950D01*
X132784616Y-96426272D01*
X132974062Y-96624214D01*
X133249690Y-96799254D01*
X133531625Y-96864785D01*
X133802390Y-96817639D01*
X133884841Y-96762134D01*
X135110122Y-96762134D01*
X135115346Y-96834512D01*
X135124422Y-96873579D01*
X135171151Y-96943858D01*
X135274069Y-97011894D01*
X135455274Y-97090401D01*
X135736865Y-97192092D01*
X135908611Y-97250096D01*
X136135631Y-97321366D01*
X136296509Y-97364948D01*
X136364272Y-97373060D01*
X136370546Y-97365865D01*
X136366307Y-97279543D01*
X136261787Y-97169198D01*
X136075650Y-97049966D01*
X135826564Y-96936985D01*
X135546859Y-96831048D01*
X135331495Y-96754648D01*
X135199429Y-96719499D01*
X135131894Y-96722895D01*
X135110122Y-96762134D01*
X133884841Y-96762134D01*
X134044508Y-96654649D01*
X134103857Y-96589097D01*
X134260674Y-96307642D01*
X134318498Y-95990063D01*
X134283087Y-95663629D01*
X134160196Y-95355611D01*
X133955580Y-95093280D01*
X133674995Y-94903906D01*
X133613150Y-94876480D01*
X133409204Y-94805084D01*
X133252322Y-94797884D01*
X133094309Y-94850445D01*
X133045140Y-94875484D01*
X133048246Y-94890849D01*
X133167472Y-94874251D01*
X133319689Y-94865432D01*
X133603126Y-94935850D01*
X133863846Y-95103041D01*
X134075809Y-95347675D01*
X134212980Y-95650421D01*
X134225324Y-95697744D01*
X134257854Y-96034702D01*
X134194769Y-96322325D01*
X134054635Y-96550099D01*
X133856021Y-96707511D01*
X133617492Y-96784047D01*
X133357615Y-96769195D01*
X133094958Y-96652441D01*
X132848087Y-96423271D01*
X132821990Y-96390221D01*
X132714541Y-96221700D01*
X132656216Y-96037508D01*
X132632175Y-95820686D01*
X133008182Y-95820686D01*
X133091949Y-96054120D01*
X133134193Y-96126364D01*
X133289852Y-96270236D01*
X133509795Y-96313961D01*
X133667390Y-96264623D01*
X133777382Y-96128494D01*
X133823936Y-95938077D01*
X133799360Y-95725985D01*
X133695959Y-95524829D01*
X133617931Y-95445916D01*
X133434690Y-95361125D01*
X133248845Y-95378107D01*
X133097928Y-95498513D01*
X133029728Y-95622562D01*
X133008182Y-95820686D01*
X132632175Y-95820686D01*
X132627873Y-95781891D01*
X132619160Y-95584598D01*
X132632252Y-95423073D01*
X132682611Y-95300369D01*
X132782350Y-95168375D01*
X132793645Y-95154918D01*
X132886633Y-95036844D01*
X132897196Y-94998046D01*
X132829634Y-95025532D01*
X132713763Y-95123171D01*
X132604446Y-95333386D01*
X132555832Y-95601155D01*
X131579534Y-95601155D01*
X131585801Y-95498866D01*
X131589516Y-95424337D01*
X131640144Y-95097072D01*
X131732295Y-94790665D01*
X131814404Y-94614931D01*
X132070065Y-94260306D01*
X132398383Y-94003049D01*
X132785547Y-93849614D01*
X133217743Y-93806455D01*
X133681160Y-93880026D01*
X133875383Y-93968093D01*
X134123816Y-94135464D01*
X134379913Y-94349742D01*
X134608942Y-94581682D01*
X134776172Y-94802042D01*
X134927675Y-95108149D01*
X135065225Y-95568921D01*
X135116528Y-96039367D01*
X135118908Y-96434873D01*
X135594512Y-96594780D01*
X135609446Y-96599859D01*
X135874620Y-96706610D01*
X136119067Y-96831714D01*
X136291594Y-96949149D01*
X136472541Y-97090829D01*
X136594528Y-97151410D01*
X136634851Y-97125950D01*
X136584188Y-97021338D01*
X136433219Y-96844463D01*
X136372812Y-96777867D01*
X136287496Y-96658441D01*
X136273274Y-96591865D01*
X136292842Y-96583916D01*
X136409378Y-96599752D01*
X136594130Y-96659207D01*
X136815522Y-96748842D01*
X137041977Y-96855220D01*
X137241916Y-96964902D01*
X137383765Y-97064450D01*
X137516156Y-97214893D01*
X137622532Y-97477064D01*
X137624828Y-97490912D01*
X137637265Y-97634303D01*
X137604369Y-97741791D01*
X137505460Y-97848348D01*
X137319860Y-97988947D01*
X137278165Y-98021395D01*
X137239543Y-98083016D01*
X137250223Y-98181237D01*
X137308990Y-98357118D01*
X137364206Y-98560691D01*
X137414050Y-98838137D01*
X137445415Y-99122001D01*
X137456715Y-99299671D01*
X137457297Y-99490203D01*
X137427314Y-99635656D01*
X137354290Y-99785218D01*
X137225749Y-99988073D01*
X137139829Y-100115137D01*
X136999684Y-100289279D01*
X136849590Y-100414518D01*
X136666010Y-100500446D01*
X136425407Y-100556652D01*
X136104243Y-100592724D01*
X135678983Y-100618253D01*
X135503346Y-100627328D01*
X135085134Y-100651808D01*
X134609233Y-100682528D01*
X134121723Y-100716457D01*
X133668681Y-100750561D01*
X133468889Y-100765886D01*
X132974204Y-100801012D01*
X132454408Y-100834727D01*
X131960258Y-100863820D01*
X131542511Y-100885079D01*
X130565084Y-100928939D01*
X129532209Y-101786309D01*
X129450926Y-101853623D01*
X129137135Y-102110556D01*
X128851832Y-102339740D01*
X128612312Y-102527567D01*
X128435866Y-102660428D01*
X128339787Y-102724715D01*
X128333502Y-102727590D01*
X128209702Y-102758982D01*
X127983504Y-102796720D01*
X127677363Y-102837764D01*
X127313731Y-102879073D01*
X126915061Y-102917608D01*
X126895122Y-102919369D01*
X126420906Y-102958921D01*
X126040139Y-102984210D01*
X125720693Y-102995790D01*
X125430444Y-102994210D01*
X125137265Y-102980023D01*
X124809031Y-102953782D01*
X124090621Y-102885528D01*
X123408359Y-102813686D01*
X122777754Y-102740246D01*
X122211419Y-102666938D01*
X122054377Y-102644014D01*
X123301219Y-102644014D01*
X123340893Y-102665311D01*
X123473690Y-102691040D01*
X123710924Y-102723760D01*
X124063907Y-102766031D01*
X124110713Y-102771399D01*
X124512724Y-102812601D01*
X124861984Y-102835939D01*
X125203397Y-102842375D01*
X125581867Y-102832871D01*
X126042299Y-102808386D01*
X126288753Y-102791572D01*
X126741161Y-102748839D01*
X127083424Y-102697963D01*
X127311186Y-102639910D01*
X127420093Y-102575644D01*
X127405788Y-102506132D01*
X127405211Y-102505643D01*
X127323507Y-102484963D01*
X127135838Y-102458537D01*
X126863020Y-102428651D01*
X126525867Y-102397592D01*
X126145194Y-102367647D01*
X124939797Y-102280400D01*
X124744730Y-102424316D01*
X124688579Y-102462801D01*
X124547391Y-102527856D01*
X124365328Y-102560020D01*
X124099373Y-102568935D01*
X123858725Y-102574502D01*
X123593293Y-102590958D01*
X123393807Y-102614382D01*
X123343357Y-102624587D01*
X123301219Y-102644014D01*
X122054377Y-102644014D01*
X121721968Y-102595491D01*
X121322012Y-102527635D01*
X121024166Y-102465100D01*
X120841043Y-102409616D01*
X120752488Y-102357926D01*
X120569777Y-102227621D01*
X120467916Y-102149303D01*
X127446319Y-102149303D01*
X127447763Y-102153438D01*
X127519190Y-102176083D01*
X127665067Y-102185318D01*
X127692814Y-102184989D01*
X127767481Y-102175994D01*
X127821907Y-102151993D01*
X128364848Y-102151993D01*
X128423420Y-102232484D01*
X128481878Y-102281025D01*
X128556165Y-102280238D01*
X128666235Y-102192165D01*
X128812812Y-102055608D01*
X128682076Y-101924872D01*
X128551341Y-101794136D01*
X128439261Y-101965191D01*
X128380278Y-102063857D01*
X128364848Y-102151993D01*
X127821907Y-102151993D01*
X127839359Y-102144297D01*
X127920967Y-102076153D01*
X128024823Y-101957818D01*
X128163445Y-101775546D01*
X128349352Y-101515592D01*
X128367964Y-101488976D01*
X128767267Y-101488976D01*
X128842073Y-101571556D01*
X128933834Y-101644704D01*
X129016212Y-101664669D01*
X129041797Y-101579037D01*
X129052916Y-101534393D01*
X129137525Y-101483308D01*
X129181563Y-101476108D01*
X129233254Y-101419489D01*
X129229130Y-101396065D01*
X129165804Y-101356836D01*
X129070497Y-101377930D01*
X129001056Y-101451398D01*
X128976735Y-101496250D01*
X128903712Y-101547127D01*
X128889653Y-101507103D01*
X128942449Y-101405289D01*
X129008566Y-101298230D01*
X129041797Y-101213831D01*
X129018495Y-101166688D01*
X128943296Y-101199711D01*
X128837048Y-101318285D01*
X128774662Y-101412349D01*
X128767267Y-101488976D01*
X128367964Y-101488976D01*
X128595063Y-101164212D01*
X128619522Y-101129176D01*
X128738796Y-100962150D01*
X129240791Y-100962150D01*
X129328983Y-100968696D01*
X129429743Y-100950074D01*
X129580502Y-100874997D01*
X129622769Y-100841920D01*
X129661943Y-100792744D01*
X129599628Y-100781298D01*
X129537046Y-100766234D01*
X129436714Y-100677374D01*
X129435345Y-100675669D01*
X130865111Y-100675669D01*
X130888309Y-100699395D01*
X130972510Y-100711475D01*
X131134329Y-100713177D01*
X131390385Y-100705770D01*
X131757292Y-100690522D01*
X131833917Y-100687059D01*
X132237105Y-100665923D01*
X132642942Y-100640499D01*
X133008026Y-100613682D01*
X133288950Y-100588366D01*
X133351264Y-100582038D01*
X133677591Y-100554534D01*
X134000757Y-100534941D01*
X134259008Y-100527155D01*
X134448238Y-100520142D01*
X134599774Y-100500286D01*
X134657877Y-100472274D01*
X134602912Y-100453960D01*
X134439580Y-100433064D01*
X134187775Y-100412093D01*
X133867536Y-100392701D01*
X133498903Y-100376545D01*
X133033199Y-100360792D01*
X132501718Y-100347543D01*
X132073563Y-100344869D01*
X131734887Y-100354095D01*
X131471846Y-100376542D01*
X131270594Y-100413534D01*
X131117287Y-100466395D01*
X130998079Y-100536448D01*
X130899125Y-100625015D01*
X130886299Y-100639030D01*
X130865111Y-100675669D01*
X129435345Y-100675669D01*
X129394377Y-100624629D01*
X129336773Y-100641054D01*
X129326087Y-100669879D01*
X129363670Y-100751105D01*
X129387369Y-100795227D01*
X129316847Y-100881124D01*
X129262211Y-100923909D01*
X129240791Y-100962150D01*
X128738796Y-100962150D01*
X128842355Y-100817131D01*
X129044373Y-100546399D01*
X129212901Y-100333083D01*
X129329023Y-100200416D01*
X129590637Y-100200416D01*
X129622820Y-100288799D01*
X129724083Y-100405061D01*
X129820895Y-100488629D01*
X129863544Y-100504166D01*
X129848216Y-100437018D01*
X129837974Y-100352771D01*
X129905973Y-100204032D01*
X129959111Y-100124244D01*
X129942623Y-100051927D01*
X129882101Y-100059609D01*
X129803968Y-100149941D01*
X129803850Y-100150162D01*
X129735763Y-100238094D01*
X129681105Y-100208734D01*
X129652266Y-100176248D01*
X129594203Y-100190836D01*
X129590637Y-100200416D01*
X129329023Y-100200416D01*
X129335265Y-100193285D01*
X129398789Y-100143107D01*
X129479929Y-100101440D01*
X129563962Y-99983559D01*
X129633615Y-99876047D01*
X129715313Y-99824011D01*
X129756063Y-99812995D01*
X129830705Y-99728283D01*
X129862112Y-99700354D01*
X130006098Y-99662192D01*
X130246590Y-99638441D01*
X130564208Y-99629439D01*
X130939572Y-99635521D01*
X131353302Y-99657026D01*
X131786018Y-99694289D01*
X131985973Y-99714242D01*
X132328147Y-99746614D01*
X132735292Y-99783765D01*
X133172500Y-99822521D01*
X133604862Y-99859708D01*
X133945962Y-99891175D01*
X134378950Y-99937795D01*
X134786367Y-99988413D01*
X135134294Y-100038754D01*
X135388809Y-100084543D01*
X135463692Y-100099920D01*
X135785225Y-100154383D01*
X136100562Y-100192544D01*
X136350925Y-100206926D01*
X136473117Y-100203910D01*
X136737482Y-100158832D01*
X136905299Y-100046767D01*
X136993541Y-99851171D01*
X137019184Y-99555495D01*
X137017953Y-99451042D01*
X136996122Y-99271413D01*
X136926340Y-99172552D01*
X136782159Y-99130675D01*
X136537135Y-99122001D01*
X136452201Y-99118419D01*
X136240010Y-99095064D01*
X135986637Y-99055545D01*
X135725627Y-99006418D01*
X135490528Y-98954241D01*
X135314886Y-98905569D01*
X135232249Y-98866960D01*
X135230379Y-98865318D01*
X135147083Y-98843006D01*
X134964480Y-98813120D01*
X134707881Y-98779365D01*
X134402601Y-98745450D01*
X134098532Y-98711957D01*
X133734171Y-98666387D01*
X133405455Y-98619909D01*
X133158128Y-98578656D01*
X133057562Y-98560452D01*
X132751947Y-98511878D01*
X132400990Y-98462859D01*
X132062315Y-98421650D01*
X131910546Y-98402808D01*
X131582810Y-98350219D01*
X131282189Y-98287848D01*
X131058759Y-98225484D01*
X130909952Y-98179234D01*
X130662261Y-98122744D01*
X130463366Y-98100540D01*
X130460666Y-98100532D01*
X130225897Y-98083253D01*
X129999083Y-98042915D01*
X129855569Y-98006078D01*
X129637826Y-97953240D01*
X129509356Y-97934991D01*
X129446672Y-97954437D01*
X129426287Y-98014680D01*
X129424711Y-98118826D01*
X129424668Y-98127401D01*
X129407996Y-98289844D01*
X129370301Y-98391273D01*
X129346089Y-98432710D01*
X129291092Y-98576410D01*
X129234096Y-98770996D01*
X129210152Y-98855403D01*
X129112748Y-99126821D01*
X129001321Y-99369361D01*
X128950516Y-99466678D01*
X128878586Y-99620304D01*
X128850339Y-99705673D01*
X128846140Y-99718940D01*
X128793343Y-99823547D01*
X128687590Y-100014562D01*
X128538454Y-100275180D01*
X128355509Y-100588595D01*
X128148329Y-100938001D01*
X128070023Y-101069324D01*
X127870907Y-101405403D01*
X127699447Y-101697886D01*
X127565175Y-101930329D01*
X127477622Y-102086283D01*
X127446319Y-102149303D01*
X120467916Y-102149303D01*
X120320211Y-102035736D01*
X120019443Y-101795162D01*
X119683122Y-101518788D01*
X119326900Y-101219503D01*
X118966427Y-100910197D01*
X118617354Y-100603759D01*
X118295332Y-100313078D01*
X118077181Y-100118564D01*
X117841121Y-99920274D01*
X117641058Y-99764699D01*
X117538236Y-99696525D01*
X118064912Y-99696525D01*
X118080548Y-99720061D01*
X118174897Y-99819401D01*
X118341776Y-99981437D01*
X118566328Y-100192600D01*
X118833701Y-100439324D01*
X119129038Y-100708040D01*
X119437486Y-100985182D01*
X119744189Y-101257181D01*
X120034293Y-101510470D01*
X120292943Y-101731482D01*
X120777224Y-102139204D01*
X122203224Y-102103053D01*
X122405259Y-102097591D01*
X122800261Y-102084819D01*
X123142300Y-102070980D01*
X123412711Y-102056979D01*
X123592835Y-102043723D01*
X123664008Y-102032118D01*
X123665819Y-102009628D01*
X123615157Y-101905455D01*
X123506565Y-101744603D01*
X123358247Y-101552937D01*
X123188406Y-101356322D01*
X123176640Y-101343357D01*
X123081733Y-101227518D01*
X123042802Y-101158836D01*
X123040038Y-101148629D01*
X122984322Y-101062890D01*
X122879520Y-100934817D01*
X122868217Y-100921828D01*
X122731966Y-100746176D01*
X122625895Y-100580248D01*
X122565240Y-100475939D01*
X122431522Y-100268968D01*
X122261282Y-100021010D01*
X122072431Y-99756580D01*
X121882881Y-99500192D01*
X121710544Y-99276363D01*
X121573332Y-99109606D01*
X121489156Y-99024437D01*
X121375030Y-98968978D01*
X121193803Y-98937001D01*
X121151028Y-98940603D01*
X120962254Y-98969787D01*
X120678917Y-99023987D01*
X120322129Y-99098694D01*
X119913005Y-99189399D01*
X119472657Y-99291592D01*
X119022199Y-99400766D01*
X118824759Y-99449774D01*
X118516945Y-99527037D01*
X118305804Y-99582367D01*
X118173184Y-99621372D01*
X118100931Y-99649661D01*
X118070891Y-99672842D01*
X118064912Y-99696525D01*
X117538236Y-99696525D01*
X117505130Y-99674575D01*
X117501614Y-99672807D01*
X117388017Y-99632061D01*
X117164445Y-99564515D01*
X116843931Y-99473688D01*
X116439504Y-99363101D01*
X115964197Y-99236274D01*
X115431040Y-99096725D01*
X114853065Y-98947976D01*
X114243304Y-98793545D01*
X113951077Y-98720090D01*
X113186732Y-98527489D01*
X112534332Y-98362185D01*
X111984976Y-98221760D01*
X111529763Y-98103795D01*
X111159790Y-98005874D01*
X110866157Y-97925577D01*
X110639961Y-97860488D01*
X110472301Y-97808188D01*
X110354276Y-97766259D01*
X110276984Y-97732284D01*
X110231524Y-97703844D01*
X110172273Y-97634323D01*
X110116699Y-97552599D01*
X110289566Y-97552599D01*
X110292052Y-97581474D01*
X110312461Y-97610640D01*
X110359627Y-97642616D01*
X110442384Y-97679919D01*
X110569568Y-97725066D01*
X110750014Y-97780575D01*
X110992555Y-97848964D01*
X111306028Y-97932750D01*
X111699266Y-98034451D01*
X112181105Y-98156584D01*
X112760380Y-98301667D01*
X113445924Y-98472218D01*
X114246574Y-98670754D01*
X114357456Y-98698242D01*
X114966375Y-98849686D01*
X115539264Y-98992983D01*
X116063565Y-99124937D01*
X116526720Y-99242353D01*
X116916171Y-99342035D01*
X117219358Y-99420790D01*
X117423725Y-99475421D01*
X117516713Y-99502735D01*
X117572101Y-99520453D01*
X117717200Y-99520611D01*
X117893120Y-99439865D01*
X118011954Y-99377688D01*
X118240388Y-99276254D01*
X118484037Y-99183023D01*
X118499391Y-99177761D01*
X118709098Y-99113693D01*
X118991519Y-99036832D01*
X119318659Y-98953754D01*
X119662527Y-98871035D01*
X119823703Y-98834311D01*
X122213154Y-98834311D01*
X122216951Y-98844534D01*
X122271780Y-98935734D01*
X122378420Y-99097835D01*
X122519697Y-99306117D01*
X122678439Y-99535860D01*
X122837471Y-99762341D01*
X122979618Y-99960842D01*
X123087708Y-100106640D01*
X123144567Y-100175016D01*
X123218022Y-100260879D01*
X123307193Y-100404711D01*
X123376914Y-100529468D01*
X123542638Y-100789506D01*
X123739388Y-101066407D01*
X123947423Y-101335157D01*
X124146998Y-101570740D01*
X124318373Y-101748140D01*
X124441803Y-101842343D01*
X124575132Y-101881395D01*
X124811782Y-101925305D01*
X125124849Y-101970647D01*
X125488619Y-102014570D01*
X125877377Y-102054221D01*
X126265410Y-102086749D01*
X126627004Y-102109301D01*
X126936445Y-102119026D01*
X127224308Y-102121499D01*
X127542726Y-101595961D01*
X127733212Y-101278833D01*
X127957162Y-100899025D01*
X128161341Y-100545449D01*
X128336441Y-100234670D01*
X128473154Y-99983254D01*
X128562172Y-99807766D01*
X128594184Y-99724773D01*
X128592014Y-99715061D01*
X128554034Y-99684888D01*
X128460876Y-99652525D01*
X128302305Y-99616246D01*
X128068082Y-99574321D01*
X127747971Y-99525023D01*
X127331734Y-99466624D01*
X126809136Y-99397397D01*
X126169937Y-99315614D01*
X126004830Y-99294705D01*
X125525225Y-99233681D01*
X125051752Y-99173053D01*
X124614540Y-99116702D01*
X124243715Y-99068505D01*
X123969405Y-99032341D01*
X123727968Y-99002116D01*
X123461691Y-98975404D01*
X123291294Y-98966658D01*
X123223019Y-98974648D01*
X123263110Y-98998145D01*
X123417806Y-99035917D01*
X123693351Y-99086736D01*
X123800204Y-99112730D01*
X123940168Y-99206933D01*
X123975416Y-99364505D01*
X123910430Y-99595960D01*
X123883692Y-99657747D01*
X123813704Y-99769405D01*
X123712411Y-99815182D01*
X123531772Y-99824011D01*
X123319615Y-99805836D01*
X123114594Y-99715949D01*
X122989959Y-99537619D01*
X122930218Y-99256223D01*
X122912479Y-99126298D01*
X122872284Y-98968875D01*
X122826759Y-98898574D01*
X122732890Y-98879108D01*
X122574470Y-98856797D01*
X122404390Y-98838684D01*
X122268625Y-98829584D01*
X122213154Y-98834311D01*
X119823703Y-98834311D01*
X119995131Y-98795251D01*
X120288477Y-98732978D01*
X120514574Y-98690791D01*
X120645429Y-98675268D01*
X120715118Y-98672194D01*
X120753451Y-98649865D01*
X120671303Y-98605669D01*
X120467675Y-98539297D01*
X120141569Y-98450442D01*
X119691986Y-98338795D01*
X119117927Y-98204049D01*
X118915187Y-98157423D01*
X117862628Y-97915211D01*
X116926303Y-97699413D01*
X116099262Y-97508340D01*
X115374554Y-97340303D01*
X114745231Y-97193614D01*
X114204343Y-97066582D01*
X113744939Y-96957520D01*
X113360070Y-96864738D01*
X113042786Y-96786548D01*
X112786138Y-96721259D01*
X112583175Y-96667184D01*
X112426948Y-96622633D01*
X112310508Y-96585918D01*
X112226903Y-96555349D01*
X112169185Y-96529237D01*
X112130404Y-96505894D01*
X112115409Y-96495367D01*
X111978294Y-96411978D01*
X111887621Y-96377780D01*
X111887012Y-96377789D01*
X111800159Y-96415334D01*
X111637690Y-96514571D01*
X111422317Y-96658915D01*
X111176753Y-96831784D01*
X110923711Y-97016593D01*
X110685903Y-97196759D01*
X110486040Y-97355699D01*
X110346837Y-97476828D01*
X110291004Y-97543563D01*
X110289566Y-97552599D01*
X110116699Y-97552599D01*
X110067945Y-97480903D01*
X109949656Y-97285275D01*
X109949553Y-97285094D01*
X109819576Y-96997942D01*
X109751529Y-96715990D01*
X109749870Y-96487533D01*
X109840693Y-96487533D01*
X109847666Y-96684678D01*
X109864260Y-96813619D01*
X109906872Y-96995847D01*
X109957378Y-97099502D01*
X109971509Y-97111753D01*
X110006171Y-97110984D01*
X110012174Y-97021311D01*
X109991797Y-96824514D01*
X109980867Y-96747079D01*
X109939032Y-96542843D01*
X109895585Y-96425551D01*
X109859736Y-96404136D01*
X109840693Y-96487533D01*
X109749870Y-96487533D01*
X109749757Y-96471941D01*
X109806329Y-96329417D01*
X112034008Y-96329417D01*
X112321194Y-96453950D01*
X112475146Y-96508952D01*
X112749953Y-96590924D01*
X113128125Y-96694223D01*
X113598598Y-96816044D01*
X114150309Y-96953584D01*
X114772197Y-97104039D01*
X115453198Y-97264606D01*
X116182249Y-97432481D01*
X116269088Y-97452274D01*
X116671766Y-97544480D01*
X117152916Y-97655168D01*
X117676128Y-97775936D01*
X118204993Y-97898384D01*
X118703103Y-98014112D01*
X118940516Y-98069335D01*
X119381854Y-98171717D01*
X119794020Y-98266998D01*
X120153232Y-98349697D01*
X120435711Y-98414333D01*
X120617676Y-98455423D01*
X120652515Y-98462654D01*
X120893823Y-98499476D01*
X121217171Y-98534311D01*
X121584531Y-98563525D01*
X121957877Y-98583485D01*
X122011782Y-98585649D01*
X122400479Y-98604818D01*
X122788610Y-98629316D01*
X123133833Y-98656218D01*
X123393807Y-98682602D01*
X123399517Y-98683308D01*
X123730289Y-98722971D01*
X124106142Y-98766237D01*
X124446822Y-98803866D01*
X124487206Y-98808269D01*
X124826441Y-98849564D01*
X125228569Y-98904352D01*
X125666523Y-98968362D01*
X126113236Y-99037322D01*
X126541639Y-99106960D01*
X126924666Y-99173005D01*
X127235248Y-99231185D01*
X127446319Y-99277229D01*
X127451580Y-99278551D01*
X127698306Y-99328918D01*
X128005477Y-99376079D01*
X128307877Y-99409985D01*
X128818430Y-99453889D01*
X128898204Y-99193222D01*
X128912353Y-99144440D01*
X128959111Y-98937048D01*
X128977978Y-98772001D01*
X128993932Y-98666094D01*
X129041797Y-98611449D01*
X129070344Y-98571830D01*
X129095838Y-98434807D01*
X129105616Y-98232444D01*
X129105616Y-97853440D01*
X128802475Y-97815849D01*
X128725177Y-97805736D01*
X128446590Y-97764178D01*
X128180239Y-97718588D01*
X128017124Y-97691869D01*
X127728860Y-97654216D01*
X127446319Y-97626094D01*
X127411343Y-97623300D01*
X126854061Y-97570988D01*
X126376194Y-97511001D01*
X125993817Y-97445660D01*
X125723003Y-97377286D01*
X125606138Y-97346252D01*
X125357326Y-97298243D01*
X125051339Y-97252573D01*
X124729646Y-97215975D01*
X124494855Y-97191167D01*
X124209883Y-97153848D01*
X123982676Y-97115913D01*
X123847979Y-97082618D01*
X123668295Y-97036812D01*
X123457626Y-97015971D01*
X123260947Y-96997208D01*
X123062911Y-96947452D01*
X123057289Y-96945361D01*
X122899275Y-96902375D01*
X122665568Y-96855489D01*
X122404611Y-96814490D01*
X122132950Y-96777897D01*
X121811911Y-96734622D01*
X121543053Y-96698350D01*
X121429560Y-96682578D01*
X121149038Y-96641783D01*
X120819252Y-96592218D01*
X120490038Y-96541314D01*
X120475459Y-96539051D01*
X120141873Y-96497215D01*
X119733640Y-96460060D01*
X119301092Y-96431549D01*
X118894561Y-96415647D01*
X118627924Y-96407181D01*
X117910207Y-96355546D01*
X117272618Y-96265233D01*
X117159990Y-96239132D01*
X119720256Y-96239132D01*
X119897735Y-96276120D01*
X119910394Y-96278501D01*
X120031882Y-96298945D01*
X120263557Y-96336650D01*
X120593018Y-96389660D01*
X121007862Y-96456015D01*
X121495688Y-96533758D01*
X122044093Y-96620930D01*
X122640676Y-96715574D01*
X123273035Y-96815732D01*
X123928768Y-96919444D01*
X124595472Y-97024754D01*
X125260746Y-97129703D01*
X125912188Y-97232334D01*
X126537395Y-97330687D01*
X127123967Y-97422805D01*
X127659500Y-97506731D01*
X128131593Y-97580505D01*
X128527844Y-97642170D01*
X128835851Y-97689768D01*
X129043212Y-97721341D01*
X129137525Y-97734930D01*
X129174649Y-97736860D01*
X129224556Y-97715130D01*
X129254623Y-97639553D01*
X129271946Y-97485533D01*
X129281533Y-97274376D01*
X129488528Y-97274376D01*
X129488663Y-97511305D01*
X129504094Y-97667640D01*
X129556814Y-97764406D01*
X129668815Y-97822627D01*
X129862089Y-97863326D01*
X130158631Y-97907528D01*
X130198362Y-97913514D01*
X130451485Y-97953221D01*
X130783642Y-98007064D01*
X131156254Y-98068734D01*
X131530741Y-98131920D01*
X131740226Y-98167427D01*
X132180750Y-98241186D01*
X132674575Y-98322988D01*
X133175361Y-98405173D01*
X133636772Y-98480081D01*
X133869702Y-98517682D01*
X134377685Y-98599947D01*
X134912001Y-98686764D01*
X135421863Y-98769873D01*
X135856486Y-98841018D01*
X136106137Y-98880783D01*
X136425301Y-98927642D01*
X136683754Y-98960836D01*
X136859813Y-98977655D01*
X136931792Y-98975390D01*
X136948799Y-98926705D01*
X136941699Y-98783234D01*
X136903038Y-98598746D01*
X136843628Y-98420026D01*
X136774283Y-98293858D01*
X136737762Y-98260881D01*
X136617538Y-98198947D01*
X136416608Y-98132484D01*
X136119780Y-98056821D01*
X135711860Y-97967290D01*
X134755541Y-97767215D01*
X134480816Y-98070659D01*
X134206090Y-98374102D01*
X133691038Y-98331148D01*
X133653164Y-98327794D01*
X133375553Y-98292769D01*
X133125052Y-98245261D01*
X132951851Y-98194545D01*
X132921384Y-98182153D01*
X132752642Y-98124385D01*
X132635524Y-98100896D01*
X132617955Y-98099704D01*
X132467913Y-98035829D01*
X132280617Y-97891830D01*
X132083353Y-97691623D01*
X131903404Y-97459126D01*
X131800752Y-97321916D01*
X131665982Y-97179560D01*
X131562651Y-97112172D01*
X131542614Y-97107688D01*
X131403050Y-97079805D01*
X131172700Y-97036037D01*
X130878432Y-96981439D01*
X130547113Y-96921069D01*
X130438523Y-96901569D01*
X130122603Y-96846188D01*
X129856326Y-96801470D01*
X129664986Y-96771583D01*
X129573871Y-96760695D01*
X129550508Y-96767705D01*
X129513999Y-96837737D01*
X129494378Y-96997989D01*
X129488530Y-97266947D01*
X129488528Y-97274376D01*
X129281533Y-97274376D01*
X129283617Y-97228477D01*
X129286165Y-97151690D01*
X129288957Y-96917834D01*
X129276579Y-96777741D01*
X129244424Y-96704623D01*
X129187888Y-96671693D01*
X129161370Y-96664114D01*
X128991779Y-96624913D01*
X128707518Y-96567669D01*
X128306694Y-96492037D01*
X127787409Y-96397669D01*
X127147768Y-96284221D01*
X126385876Y-96151346D01*
X125499837Y-95998698D01*
X125325490Y-95968809D01*
X124686844Y-95859345D01*
X124155210Y-95768294D01*
X123715492Y-95693114D01*
X123352596Y-95631263D01*
X123051427Y-95580199D01*
X122796891Y-95537379D01*
X122573891Y-95500263D01*
X122367335Y-95466306D01*
X122162126Y-95432968D01*
X121943170Y-95397706D01*
X121695372Y-95357978D01*
X121662017Y-95352650D01*
X121353145Y-95304776D01*
X121088731Y-95266283D01*
X120895931Y-95240978D01*
X120801905Y-95232671D01*
X120734529Y-95269613D01*
X120612618Y-95385565D01*
X120472562Y-95552468D01*
X120361852Y-95686469D01*
X120161585Y-95894784D01*
X119975987Y-96053882D01*
X119720256Y-96239132D01*
X117159990Y-96239132D01*
X116726186Y-96138600D01*
X116281941Y-95978009D01*
X115950910Y-95785818D01*
X115814683Y-95665609D01*
X115614851Y-95451062D01*
X115440275Y-95225368D01*
X115198521Y-94870694D01*
X113999179Y-94727942D01*
X113620861Y-94682265D01*
X113263873Y-94637902D01*
X112963179Y-94599239D01*
X112742275Y-94569301D01*
X112624656Y-94551108D01*
X112564875Y-94541923D01*
X112455106Y-94565645D01*
X112385334Y-94685729D01*
X112371695Y-94722014D01*
X112337739Y-94830857D01*
X112328743Y-94934240D01*
X112348684Y-95063758D01*
X112401537Y-95251006D01*
X112491278Y-95527579D01*
X112505418Y-95570716D01*
X112587429Y-95851537D01*
X112611589Y-96040573D01*
X112571308Y-96160437D01*
X112459994Y-96233743D01*
X112271056Y-96283104D01*
X112034008Y-96329417D01*
X109806329Y-96329417D01*
X109818602Y-96298496D01*
X109821177Y-96295327D01*
X109837360Y-96236796D01*
X109766739Y-96184957D01*
X109589916Y-96125101D01*
X109375520Y-96051843D01*
X109255248Y-95966867D01*
X109221411Y-95862483D01*
X109519400Y-95862483D01*
X109580688Y-95917262D01*
X109747584Y-95959498D01*
X109768292Y-95963831D01*
X109896589Y-95974785D01*
X109897895Y-95973923D01*
X111113317Y-95973923D01*
X111120840Y-96127897D01*
X111135627Y-96186323D01*
X111144852Y-96184326D01*
X111235679Y-96141020D01*
X111378320Y-96058923D01*
X111580809Y-95973512D01*
X111890415Y-95931285D01*
X111986555Y-95929922D01*
X112126985Y-95909446D01*
X112184718Y-95844778D01*
X112171188Y-95711280D01*
X112097827Y-95484313D01*
X112077375Y-95419153D01*
X112023645Y-95159044D01*
X112002098Y-94901917D01*
X112001099Y-94836495D01*
X111977393Y-94652696D01*
X111922324Y-94591786D01*
X111752257Y-94638464D01*
X111539498Y-94785450D01*
X111328870Y-95014025D01*
X111232246Y-95151413D01*
X111163658Y-95298010D01*
X111129441Y-95475246D01*
X111115168Y-95731561D01*
X111114494Y-95756358D01*
X111113317Y-95973923D01*
X109897895Y-95973923D01*
X109977665Y-95921264D01*
X110057826Y-95775856D01*
X110113294Y-95687535D01*
X110258747Y-95510338D01*
X110458015Y-95300171D01*
X110684953Y-95085804D01*
X110859523Y-94929543D01*
X111045601Y-94761341D01*
X111178184Y-94639529D01*
X111236269Y-94583254D01*
X111287521Y-94542792D01*
X111421521Y-94452822D01*
X111603229Y-94338458D01*
X111759923Y-94233158D01*
X111904598Y-94093198D01*
X111927004Y-93983915D01*
X111826596Y-93906358D01*
X111766356Y-93877860D01*
X111630580Y-93780723D01*
X111564891Y-93735129D01*
X111388820Y-93718185D01*
X111176617Y-93803060D01*
X110947398Y-93984064D01*
X110927740Y-94003773D01*
X110789659Y-94153817D01*
X110606642Y-94365309D01*
X110397002Y-94615647D01*
X110179050Y-94882231D01*
X109971097Y-95142460D01*
X109791454Y-95373734D01*
X109658433Y-95553453D01*
X109590343Y-95659014D01*
X109544137Y-95757737D01*
X109519400Y-95862483D01*
X109221411Y-95862483D01*
X109214560Y-95841348D01*
X109229952Y-95643861D01*
X109265398Y-95427558D01*
X109307637Y-95263183D01*
X109356419Y-95190328D01*
X109419984Y-95189278D01*
X109432814Y-95192229D01*
X109528351Y-95146334D01*
X109638369Y-95009590D01*
X109651827Y-94988159D01*
X109799037Y-94774696D01*
X109997606Y-94509712D01*
X110217279Y-94231630D01*
X110427796Y-93978873D01*
X110598902Y-93789862D01*
X110640417Y-93744527D01*
X110747612Y-93592569D01*
X110791565Y-93470767D01*
X110804644Y-93368614D01*
X110888246Y-93234455D01*
X111063603Y-93146404D01*
X111347596Y-93092990D01*
X111528583Y-93064736D01*
X111772833Y-93006651D01*
X111952676Y-92940895D01*
X111957685Y-92938345D01*
X112091390Y-92854798D01*
X112142828Y-92755859D01*
X112141275Y-92586516D01*
X112148624Y-92390078D01*
X112205094Y-92283222D01*
X112244935Y-92264288D01*
X112310764Y-92253590D01*
X112412681Y-92256544D01*
G37*
D12*
%TO.C,R8*%
X145165000Y-96576248D02*
X145165000Y-97098752D01*
X146635000Y-96576248D02*
X146635000Y-97098752D01*
%TD*%
M02*
