%TF.GenerationSoftware,KiCad,Pcbnew,9.0.0*%
%TF.CreationDate,2025-04-03T15:03:45-06:00*%
%TF.ProjectId,Midi Bass Sch,4d696469-2042-4617-9373-205363682e6b,rev?*%
%TF.SameCoordinates,Original*%
%TF.FileFunction,Plated,1,2,PTH,Mixed*%
%TF.FilePolarity,Positive*%
%FSLAX46Y46*%
G04 Gerber Fmt 4.6, Leading zero omitted, Abs format (unit mm)*
G04 Created by KiCad (PCBNEW 9.0.0) date 2025-04-03 15:03:45*
%MOMM*%
%LPD*%
G01*
G04 APERTURE LIST*
%TA.AperFunction,ViaDrill*%
%ADD10C,0.300000*%
%TD*%
G04 aperture for slot hole*
%TA.AperFunction,ComponentDrill*%
%ADD11C,0.304800*%
%TD*%
%TA.AperFunction,ComponentDrill*%
%ADD12C,0.381000*%
%TD*%
G04 aperture for slot hole*
%TA.AperFunction,ComponentDrill*%
%ADD13C,0.762000*%
%TD*%
%TA.AperFunction,ComponentDrill*%
%ADD14C,0.800000*%
%TD*%
%TA.AperFunction,ComponentDrill*%
%ADD15C,0.850000*%
%TD*%
%TA.AperFunction,ComponentDrill*%
%ADD16C,1.000000*%
%TD*%
%TA.AperFunction,ComponentDrill*%
%ADD17C,1.100000*%
%TD*%
%TA.AperFunction,ComponentDrill*%
%ADD18C,1.422400*%
%TD*%
%TA.AperFunction,ComponentDrill*%
%ADD19C,4.064000*%
%TD*%
G04 APERTURE END LIST*
D10*
X115325000Y-187325000D03*
X116595000Y-188595000D03*
X117865000Y-194945000D03*
X121130000Y-186055000D03*
X125095000Y-142240000D03*
X125730000Y-139700000D03*
X126044750Y-197020250D03*
X126365000Y-173355000D03*
X130175000Y-175895000D03*
X130810000Y-140970000D03*
X130810000Y-145415000D03*
X130810000Y-147320000D03*
X132715000Y-145415000D03*
X133985000Y-163830000D03*
X135025000Y-186055000D03*
X135255000Y-149860000D03*
X136525000Y-139700000D03*
X136525000Y-151130000D03*
X136803000Y-197618500D03*
X141605000Y-151130000D03*
X142875000Y-152400000D03*
X157226000Y-186182000D03*
X170180000Y-189865000D03*
X170815000Y-167005000D03*
X172720000Y-198755000D03*
X176530000Y-181610000D03*
X177165000Y-189065000D03*
X177165000Y-189865000D03*
X177800000Y-191770000D03*
X179070000Y-180975000D03*
X179070000Y-187325000D03*
X182245000Y-190500000D03*
X188595000Y-189865000D03*
X189865000Y-186690000D03*
D11*
%TO.C,J1*%
X89154000Y-171196000D02*
X89154000Y-170434000D01*
X89154000Y-181356000D02*
X89154000Y-180594000D01*
X91440000Y-176276000D02*
X91440000Y-175514000D01*
D12*
%TO.C,C1*%
X115198000Y-200830000D03*
%TO.C,C3*%
X161460000Y-183515000D03*
%TO.C,R17*%
X165735000Y-156505000D03*
%TO.C,R18*%
X170815000Y-156505000D03*
%TO.C,R19*%
X172085000Y-175355000D03*
D13*
%TO.C,J1*%
X99250500Y-168275000D02*
X98869500Y-168275000D01*
X99250500Y-175895000D02*
X98869500Y-175895000D01*
X99250500Y-183515000D02*
X98869500Y-183515000D01*
X101155500Y-170815000D02*
X100774500Y-170815000D01*
X101155500Y-180975000D02*
X100774500Y-180975000D01*
D14*
%TO.C,C4*%
X104775000Y-215940000D03*
X104775000Y-218440000D03*
%TO.C,C6*%
X120015000Y-215940000D03*
X120015000Y-218440000D03*
D15*
%TO.C,L1*%
X106760000Y-206375000D03*
X116760000Y-206375000D03*
D16*
%TO.C,TP7*%
X103505000Y-206375000D03*
%TO.C,J4*%
X107315000Y-129540000D03*
X107315000Y-132080000D03*
X109855000Y-129540000D03*
X109855000Y-132080000D03*
X112395000Y-129540000D03*
X112395000Y-132080000D03*
%TO.C,SW1*%
X114685000Y-175895000D03*
%TO.C,J4*%
X114935000Y-129540000D03*
X114935000Y-132080000D03*
%TO.C,SW1*%
X117225000Y-175895000D03*
%TO.C,J4*%
X117475000Y-129540000D03*
X117475000Y-132080000D03*
%TO.C,SW1*%
X119765000Y-175895000D03*
%TO.C,J4*%
X120015000Y-129540000D03*
X120015000Y-132080000D03*
%TO.C,TP8*%
X120650000Y-206375000D03*
%TO.C,TP2*%
X121040000Y-198755000D03*
%TO.C,SW1*%
X122305000Y-175895000D03*
%TO.C,J4*%
X122555000Y-129540000D03*
X122555000Y-132080000D03*
%TO.C,SW1*%
X124845000Y-175895000D03*
%TO.C,J4*%
X125095000Y-129540000D03*
X125095000Y-132080000D03*
%TO.C,TP5*%
X126365000Y-154695000D03*
%TO.C,TP4*%
X127390000Y-183515000D03*
%TO.C,TP3*%
X127390000Y-191135000D03*
%TO.C,J4*%
X127635000Y-129540000D03*
X127635000Y-132080000D03*
X130175000Y-129540000D03*
X130175000Y-132080000D03*
X132715000Y-129540000D03*
X132715000Y-132080000D03*
%TO.C,TP1*%
X135010000Y-191135000D03*
%TO.C,J4*%
X135255000Y-129540000D03*
X135255000Y-132080000D03*
X137795000Y-129540000D03*
X137795000Y-132080000D03*
X140335000Y-129540000D03*
X140335000Y-132080000D03*
%TO.C,J2*%
X142630000Y-183515000D03*
X142630000Y-186055000D03*
X142630000Y-188595000D03*
X142630000Y-191135000D03*
X142630000Y-193675000D03*
X142630000Y-196215000D03*
%TO.C,J4*%
X142875000Y-129540000D03*
X142875000Y-132080000D03*
X145415000Y-129540000D03*
X145415000Y-132080000D03*
X147955000Y-129540000D03*
X147955000Y-132080000D03*
%TO.C,J3*%
X149860000Y-144535000D03*
X149860000Y-147075000D03*
X149860000Y-149615000D03*
X149860000Y-152155000D03*
X149860000Y-154695000D03*
X149860000Y-157235000D03*
%TO.C,J4*%
X150495000Y-129540000D03*
X150495000Y-132080000D03*
X153035000Y-129540000D03*
X153035000Y-132080000D03*
X155575000Y-129540000D03*
X155575000Y-132080000D03*
X158115000Y-129540000D03*
X158115000Y-132080000D03*
%TO.C,J6*%
X165100000Y-187325000D03*
X165100000Y-189865000D03*
X165100000Y-192405000D03*
X165100000Y-194945000D03*
X165100000Y-197485000D03*
X165100000Y-200025000D03*
%TO.C,TP6*%
X167202500Y-181695000D03*
%TO.C,J8*%
X193675000Y-129540000D03*
X193675000Y-132080000D03*
X193675000Y-134620000D03*
X193675000Y-137160000D03*
X193675000Y-139700000D03*
X193675000Y-142240000D03*
X193675000Y-144780000D03*
X193675000Y-147320000D03*
X193675000Y-149860000D03*
X193675000Y-152400000D03*
X193675000Y-154940000D03*
X193675000Y-157480000D03*
X193675000Y-160020000D03*
X193675000Y-162560000D03*
X193675000Y-165100000D03*
X193675000Y-167640000D03*
X193675000Y-170180000D03*
X193675000Y-172720000D03*
X193675000Y-175260000D03*
X193675000Y-177800000D03*
X193675000Y-180340000D03*
%TO.C,J7*%
X193675000Y-196215000D03*
X193675000Y-198755000D03*
X193675000Y-201295000D03*
X193675000Y-203835000D03*
X193675000Y-206375000D03*
X193675000Y-208915000D03*
X193675000Y-211455000D03*
X193675000Y-213995000D03*
X193675000Y-216535000D03*
X193675000Y-219075000D03*
D17*
%TO.C,SW2*%
X101990000Y-195235000D03*
X101990000Y-199735000D03*
X108490000Y-195235000D03*
X108490000Y-199735000D03*
%TO.C,SW3*%
X111705000Y-145415000D03*
X111705000Y-151915000D03*
X116205000Y-145415000D03*
X116205000Y-151915000D03*
%TO.C,SW4*%
X160580000Y-171105000D03*
X160580000Y-175605000D03*
X167080000Y-171105000D03*
X167080000Y-175605000D03*
D18*
%TO.C,J9*%
X90170000Y-215265000D03*
X90170000Y-220345000D03*
D19*
%TO.C,REF\u002A\u002A*%
X89535000Y-131445000D03*
X89535000Y-227330000D03*
X199390000Y-131445000D03*
X199390000Y-227330000D03*
M02*
