%TF.GenerationSoftware,KiCad,Pcbnew,9.0.0*%
%TF.CreationDate,2025-04-03T15:03:38-06:00*%
%TF.ProjectId,Midi Bass Sch,4d696469-2042-4617-9373-205363682e6b,rev?*%
%TF.SameCoordinates,Original*%
%TF.FileFunction,Legend,Bot*%
%TF.FilePolarity,Positive*%
%FSLAX46Y46*%
G04 Gerber Fmt 4.6, Leading zero omitted, Abs format (unit mm)*
G04 Created by KiCad (PCBNEW 9.0.0) date 2025-04-03 15:03:38*
%MOMM*%
%LPD*%
G01*
G04 APERTURE LIST*
%ADD10C,0.150000*%
%ADD11C,0.120000*%
G04 APERTURE END LIST*
D10*
X172344819Y-189103095D02*
X173154342Y-189103095D01*
X173154342Y-189103095D02*
X173249580Y-189150714D01*
X173249580Y-189150714D02*
X173297200Y-189198333D01*
X173297200Y-189198333D02*
X173344819Y-189293571D01*
X173344819Y-189293571D02*
X173344819Y-189484047D01*
X173344819Y-189484047D02*
X173297200Y-189579285D01*
X173297200Y-189579285D02*
X173249580Y-189626904D01*
X173249580Y-189626904D02*
X173154342Y-189674523D01*
X173154342Y-189674523D02*
X172344819Y-189674523D01*
X172344819Y-190055476D02*
X172344819Y-190674523D01*
X172344819Y-190674523D02*
X172725771Y-190341190D01*
X172725771Y-190341190D02*
X172725771Y-190484047D01*
X172725771Y-190484047D02*
X172773390Y-190579285D01*
X172773390Y-190579285D02*
X172821009Y-190626904D01*
X172821009Y-190626904D02*
X172916247Y-190674523D01*
X172916247Y-190674523D02*
X173154342Y-190674523D01*
X173154342Y-190674523D02*
X173249580Y-190626904D01*
X173249580Y-190626904D02*
X173297200Y-190579285D01*
X173297200Y-190579285D02*
X173344819Y-190484047D01*
X173344819Y-190484047D02*
X173344819Y-190198333D01*
X173344819Y-190198333D02*
X173297200Y-190103095D01*
X173297200Y-190103095D02*
X173249580Y-190055476D01*
X99644580Y-217235833D02*
X99692200Y-217188214D01*
X99692200Y-217188214D02*
X99739819Y-217045357D01*
X99739819Y-217045357D02*
X99739819Y-216950119D01*
X99739819Y-216950119D02*
X99692200Y-216807262D01*
X99692200Y-216807262D02*
X99596961Y-216712024D01*
X99596961Y-216712024D02*
X99501723Y-216664405D01*
X99501723Y-216664405D02*
X99311247Y-216616786D01*
X99311247Y-216616786D02*
X99168390Y-216616786D01*
X99168390Y-216616786D02*
X98977914Y-216664405D01*
X98977914Y-216664405D02*
X98882676Y-216712024D01*
X98882676Y-216712024D02*
X98787438Y-216807262D01*
X98787438Y-216807262D02*
X98739819Y-216950119D01*
X98739819Y-216950119D02*
X98739819Y-217045357D01*
X98739819Y-217045357D02*
X98787438Y-217188214D01*
X98787438Y-217188214D02*
X98835057Y-217235833D01*
X98739819Y-218140595D02*
X98739819Y-217664405D01*
X98739819Y-217664405D02*
X99216009Y-217616786D01*
X99216009Y-217616786D02*
X99168390Y-217664405D01*
X99168390Y-217664405D02*
X99120771Y-217759643D01*
X99120771Y-217759643D02*
X99120771Y-217997738D01*
X99120771Y-217997738D02*
X99168390Y-218092976D01*
X99168390Y-218092976D02*
X99216009Y-218140595D01*
X99216009Y-218140595D02*
X99311247Y-218188214D01*
X99311247Y-218188214D02*
X99549342Y-218188214D01*
X99549342Y-218188214D02*
X99644580Y-218140595D01*
X99644580Y-218140595D02*
X99692200Y-218092976D01*
X99692200Y-218092976D02*
X99739819Y-217997738D01*
X99739819Y-217997738D02*
X99739819Y-217759643D01*
X99739819Y-217759643D02*
X99692200Y-217664405D01*
X99692200Y-217664405D02*
X99644580Y-217616786D01*
X122504580Y-217235833D02*
X122552200Y-217188214D01*
X122552200Y-217188214D02*
X122599819Y-217045357D01*
X122599819Y-217045357D02*
X122599819Y-216950119D01*
X122599819Y-216950119D02*
X122552200Y-216807262D01*
X122552200Y-216807262D02*
X122456961Y-216712024D01*
X122456961Y-216712024D02*
X122361723Y-216664405D01*
X122361723Y-216664405D02*
X122171247Y-216616786D01*
X122171247Y-216616786D02*
X122028390Y-216616786D01*
X122028390Y-216616786D02*
X121837914Y-216664405D01*
X121837914Y-216664405D02*
X121742676Y-216712024D01*
X121742676Y-216712024D02*
X121647438Y-216807262D01*
X121647438Y-216807262D02*
X121599819Y-216950119D01*
X121599819Y-216950119D02*
X121599819Y-217045357D01*
X121599819Y-217045357D02*
X121647438Y-217188214D01*
X121647438Y-217188214D02*
X121695057Y-217235833D01*
X121599819Y-217569167D02*
X121599819Y-218235833D01*
X121599819Y-218235833D02*
X122599819Y-217807262D01*
D11*
%TO.C,U3*%
X175800000Y-184005000D02*
X175330000Y-184345000D01*
X175330000Y-183665000D01*
X175800000Y-184005000D01*
G36*
X175800000Y-184005000D02*
G01*
X175330000Y-184345000D01*
X175330000Y-183665000D01*
X175800000Y-184005000D01*
G37*
D10*
X185515000Y-195040000D02*
X184840000Y-195040000D01*
X185515000Y-195040000D02*
X185515000Y-194365000D01*
X175165000Y-195040000D02*
X175840000Y-195040000D01*
X175165000Y-195040000D02*
X175165000Y-194365000D01*
X185515000Y-184690000D02*
X185515000Y-185365000D01*
X185515000Y-184690000D02*
X184840000Y-184690000D01*
X175165000Y-184690000D02*
X175165000Y-185365000D01*
X175165000Y-184690000D02*
X175780000Y-184690000D01*
D11*
%TO.C,C5*%
X101700000Y-217663752D02*
X101700000Y-217141248D01*
X100230000Y-217663752D02*
X100230000Y-217141248D01*
%TO.C,C7*%
X124560000Y-217663752D02*
X124560000Y-217141248D01*
X123090000Y-217663752D02*
X123090000Y-217141248D01*
%TD*%
M02*
