%TF.GenerationSoftware,KiCad,Pcbnew,9.0.0*%
%TF.CreationDate,2025-04-03T15:03:38-06:00*%
%TF.ProjectId,Midi Bass Sch,4d696469-2042-4617-9373-205363682e6b,rev?*%
%TF.SameCoordinates,Original*%
%TF.FileFunction,Soldermask,Bot*%
%TF.FilePolarity,Negative*%
%FSLAX46Y46*%
G04 Gerber Fmt 4.6, Leading zero omitted, Abs format (unit mm)*
G04 Created by KiCad (PCBNEW 9.0.0) date 2025-04-03 15:03:38*
%MOMM*%
%LPD*%
G01*
G04 APERTURE LIST*
G04 Aperture macros list*
%AMRoundRect*
0 Rectangle with rounded corners*
0 $1 Rounding radius*
0 $2 $3 $4 $5 $6 $7 $8 $9 X,Y pos of 4 corners*
0 Add a 4 corners polygon primitive as box body*
4,1,4,$2,$3,$4,$5,$6,$7,$8,$9,$2,$3,0*
0 Add four circle primitives for the rounded corners*
1,1,$1+$1,$2,$3*
1,1,$1+$1,$4,$5*
1,1,$1+$1,$6,$7*
1,1,$1+$1,$8,$9*
0 Add four rect primitives between the rounded corners*
20,1,$1+$1,$2,$3,$4,$5,0*
20,1,$1+$1,$4,$5,$6,$7,0*
20,1,$1+$1,$6,$7,$8,$9,0*
20,1,$1+$1,$8,$9,$2,$3,0*%
G04 Aperture macros list end*
%ADD10RoundRect,1.746250X-1.746250X-1.746250X1.746250X-1.746250X1.746250X1.746250X-1.746250X1.746250X0*%
%ADD11R,1.778000X0.550000*%
%ADD12R,0.550000X1.905000*%
%ADD13R,1.700000X1.700000*%
%ADD14O,1.700000X1.700000*%
%ADD15RoundRect,0.190500X-0.508000X-0.444500X0.508000X-0.444500X0.508000X0.444500X-0.508000X0.444500X0*%
%ADD16RoundRect,0.095250X-0.222250X0.603250X-0.222250X-0.603250X0.222250X-0.603250X0.222250X0.603250X0*%
%ADD17R,1.600000X1.600000*%
%ADD18C,1.600000*%
%ADD19RoundRect,0.250000X0.450000X-0.350000X0.450000X0.350000X-0.450000X0.350000X-0.450000X-0.350000X0*%
%ADD20C,2.000000*%
%ADD21C,2.311400*%
%ADD22RoundRect,0.250000X-0.337500X-0.475000X0.337500X-0.475000X0.337500X0.475000X-0.337500X0.475000X0*%
%ADD23RoundRect,0.250000X-0.475000X0.337500X-0.475000X-0.337500X0.475000X-0.337500X0.475000X0.337500X0*%
%ADD24O,1.600000X1.600000*%
G04 APERTURE END LIST*
D10*
%TO.C,REF\u002A\u002A*%
X199390000Y-131445000D03*
%TD*%
%TO.C,REF\u002A\u002A*%
X199390000Y-227330000D03*
%TD*%
%TO.C,REF\u002A\u002A*%
X89535000Y-227330000D03*
%TD*%
%TO.C,REF\u002A\u002A*%
X89535000Y-131445000D03*
%TD*%
D11*
%TO.C,U3*%
X174498000Y-185865000D03*
X174498000Y-186665000D03*
X174498000Y-187465000D03*
X174498000Y-188265000D03*
X174498000Y-189065000D03*
X174498000Y-189865000D03*
X174498000Y-190665000D03*
X174498000Y-191465000D03*
X174498000Y-192265000D03*
X174498000Y-193065000D03*
X174498000Y-193865000D03*
D12*
X176340000Y-195707000D03*
X177140000Y-195707000D03*
X177940000Y-195707000D03*
X178740000Y-195707000D03*
X179540000Y-195707000D03*
X180340000Y-195707000D03*
X181140000Y-195707000D03*
X181940000Y-195707000D03*
X182740000Y-195707000D03*
X183540000Y-195707000D03*
X184340000Y-195707000D03*
D11*
X186182000Y-193865000D03*
X186182000Y-193065000D03*
X186182000Y-192265000D03*
X186182000Y-191465000D03*
X186182000Y-190665000D03*
X186182000Y-189865000D03*
X186182000Y-189065000D03*
X186182000Y-188265000D03*
X186182000Y-187465000D03*
X186182000Y-186665000D03*
X186182000Y-185865000D03*
D12*
X184340000Y-184023000D03*
X183540000Y-184023000D03*
X182740000Y-184023000D03*
X181940000Y-184023000D03*
X181140000Y-184023000D03*
X180340000Y-184023000D03*
X179540000Y-184023000D03*
X178740000Y-184023000D03*
X177940000Y-184023000D03*
X177140000Y-184023000D03*
X176340000Y-184023000D03*
%TD*%
D13*
%TO.C,J4*%
X158115000Y-129540000D03*
D14*
X158115000Y-132080000D03*
X155575000Y-129540000D03*
X155575000Y-132080000D03*
X153035000Y-129540000D03*
X153035000Y-132080000D03*
X150495000Y-129540000D03*
X150495000Y-132080000D03*
X147955000Y-129540000D03*
X147955000Y-132080000D03*
X145415000Y-129540000D03*
X145415000Y-132080000D03*
X142875000Y-129540000D03*
X142875000Y-132080000D03*
X140335000Y-129540000D03*
X140335000Y-132080000D03*
X137795000Y-129540000D03*
X137795000Y-132080000D03*
X135255000Y-129540000D03*
X135255000Y-132080000D03*
X132715000Y-129540000D03*
X132715000Y-132080000D03*
X130175000Y-129540000D03*
X130175000Y-132080000D03*
X127635000Y-129540000D03*
X127635000Y-132080000D03*
X125095000Y-129540000D03*
X125095000Y-132080000D03*
X122555000Y-129540000D03*
X122555000Y-132080000D03*
X120015000Y-129540000D03*
X120015000Y-132080000D03*
X117475000Y-129540000D03*
X117475000Y-132080000D03*
X114935000Y-129540000D03*
X114935000Y-132080000D03*
X112395000Y-129540000D03*
X112395000Y-132080000D03*
X109855000Y-129540000D03*
X109855000Y-132080000D03*
X107315000Y-129540000D03*
X107315000Y-132080000D03*
%TD*%
D13*
%TO.C,J8*%
X193675000Y-129540000D03*
D14*
X193675000Y-132080000D03*
X193675000Y-134620000D03*
X193675000Y-137160000D03*
X193675000Y-139700000D03*
X193675000Y-142240000D03*
X193675000Y-144780000D03*
X193675000Y-147320000D03*
X193675000Y-149860000D03*
X193675000Y-152400000D03*
X193675000Y-154940000D03*
X193675000Y-157480000D03*
X193675000Y-160020000D03*
X193675000Y-162560000D03*
X193675000Y-165100000D03*
X193675000Y-167640000D03*
X193675000Y-170180000D03*
X193675000Y-172720000D03*
X193675000Y-175260000D03*
X193675000Y-177800000D03*
X193675000Y-180340000D03*
%TD*%
D15*
%TO.C,J1*%
X99060000Y-183515000D03*
X99060000Y-175895000D03*
X99060000Y-168275000D03*
X100965000Y-180975000D03*
X100965000Y-170815000D03*
D16*
X91440000Y-175895000D03*
X89154000Y-170815000D03*
X89154000Y-180975000D03*
%TD*%
D13*
%TO.C,TP8*%
X120650000Y-206375000D03*
%TD*%
%TO.C,TP4*%
X127390000Y-183515000D03*
%TD*%
D17*
%TO.C,C4*%
X104775000Y-215940000D03*
D18*
X104775000Y-218440000D03*
%TD*%
D19*
%TO.C,R17*%
X165735000Y-156505000D03*
%TD*%
D13*
%TO.C,TP7*%
X103505000Y-206375000D03*
%TD*%
%TO.C,SW1*%
X124845000Y-175895000D03*
D14*
X122305000Y-175895000D03*
X119765000Y-175895000D03*
X117225000Y-175895000D03*
X114685000Y-175895000D03*
%TD*%
D17*
%TO.C,C6*%
X120015000Y-215940000D03*
D18*
X120015000Y-218440000D03*
%TD*%
D13*
%TO.C,TP3*%
X127390000Y-191135000D03*
%TD*%
D19*
%TO.C,R19*%
X172085000Y-175355000D03*
%TD*%
D13*
%TO.C,J2*%
X142630000Y-183515000D03*
D14*
X142630000Y-186055000D03*
X142630000Y-188595000D03*
X142630000Y-191135000D03*
X142630000Y-193675000D03*
X142630000Y-196215000D03*
%TD*%
D13*
%TO.C,J7*%
X193675000Y-196215000D03*
D14*
X193675000Y-198755000D03*
X193675000Y-201295000D03*
X193675000Y-203835000D03*
X193675000Y-206375000D03*
X193675000Y-208915000D03*
X193675000Y-211455000D03*
X193675000Y-213995000D03*
X193675000Y-216535000D03*
X193675000Y-219075000D03*
%TD*%
D20*
%TO.C,SW4*%
X160580000Y-171105000D03*
X167080000Y-171105000D03*
X160580000Y-175605000D03*
X167080000Y-175605000D03*
%TD*%
%TO.C,SW2*%
X101990000Y-195235000D03*
X108490000Y-195235000D03*
X101990000Y-199735000D03*
X108490000Y-199735000D03*
%TD*%
D21*
%TO.C,J9*%
X90170000Y-215265000D03*
X90170000Y-220345000D03*
%TD*%
D22*
%TO.C,C3*%
X161460000Y-183515000D03*
%TD*%
D13*
%TO.C,J3*%
X149860000Y-144535000D03*
D14*
X149860000Y-147075000D03*
X149860000Y-149615000D03*
X149860000Y-152155000D03*
X149860000Y-154695000D03*
X149860000Y-157235000D03*
%TD*%
D20*
%TO.C,SW3*%
X116205000Y-145415000D03*
X116205000Y-151915000D03*
X111705000Y-145415000D03*
X111705000Y-151915000D03*
%TD*%
D13*
%TO.C,TP2*%
X121040000Y-198755000D03*
%TD*%
D23*
%TO.C,C1*%
X115198000Y-200830000D03*
%TD*%
D13*
%TO.C,TP6*%
X167202500Y-181695000D03*
%TD*%
%TO.C,TP1*%
X135010000Y-191135000D03*
%TD*%
%TO.C,TP5*%
X126365000Y-154695000D03*
%TD*%
D19*
%TO.C,R18*%
X170815000Y-156505000D03*
%TD*%
D18*
%TO.C,L1*%
X106760000Y-206375000D03*
D24*
X116760000Y-206375000D03*
%TD*%
D13*
%TO.C,J6*%
X165100000Y-187325000D03*
D14*
X165100000Y-189865000D03*
X165100000Y-192405000D03*
X165100000Y-194945000D03*
X165100000Y-197485000D03*
X165100000Y-200025000D03*
%TD*%
D23*
%TO.C,C5*%
X100965000Y-216365000D03*
X100965000Y-218440000D03*
%TD*%
%TO.C,C7*%
X123825000Y-216365000D03*
X123825000Y-218440000D03*
%TD*%
M02*
