%TF.GenerationSoftware,KiCad,Pcbnew,9.0.5*%
%TF.CreationDate,2025-11-19T12:00:21-07:00*%
%TF.ProjectId,UniversalSolenoidRelay,556e6976-6572-4736-916c-536f6c656e6f,rev?*%
%TF.SameCoordinates,Original*%
%TF.FileFunction,Soldermask,Bot*%
%TF.FilePolarity,Negative*%
%FSLAX46Y46*%
G04 Gerber Fmt 4.6, Leading zero omitted, Abs format (unit mm)*
G04 Created by KiCad (PCBNEW 9.0.5) date 2025-11-19 12:00:21*
%MOMM*%
%LPD*%
G01*
G04 APERTURE LIST*
G04 Aperture macros list*
%AMRoundRect*
0 Rectangle with rounded corners*
0 $1 Rounding radius*
0 $2 $3 $4 $5 $6 $7 $8 $9 X,Y pos of 4 corners*
0 Add a 4 corners polygon primitive as box body*
4,1,4,$2,$3,$4,$5,$6,$7,$8,$9,$2,$3,0*
0 Add four circle primitives for the rounded corners*
1,1,$1+$1,$2,$3*
1,1,$1+$1,$4,$5*
1,1,$1+$1,$6,$7*
1,1,$1+$1,$8,$9*
0 Add four rect primitives between the rounded corners*
20,1,$1+$1,$2,$3,$4,$5,0*
20,1,$1+$1,$4,$5,$6,$7,0*
20,1,$1+$1,$6,$7,$8,$9,0*
20,1,$1+$1,$8,$9,$2,$3,0*%
G04 Aperture macros list end*
%ADD10C,1.574800*%
%ADD11R,2.000000X1.905000*%
%ADD12O,2.000000X1.905000*%
%ADD13C,3.200000*%
%ADD14RoundRect,0.250000X-0.475000X0.337500X-0.475000X-0.337500X0.475000X-0.337500X0.475000X0.337500X0*%
%ADD15R,1.905000X2.000000*%
%ADD16O,1.905000X2.000000*%
%ADD17RoundRect,0.250000X-0.337500X-0.475000X0.337500X-0.475000X0.337500X0.475000X-0.337500X0.475000X0*%
%ADD18RoundRect,0.250000X0.337500X0.475000X-0.337500X0.475000X-0.337500X-0.475000X0.337500X-0.475000X0*%
G04 APERTURE END LIST*
D10*
%TO.C,J7*%
X161887601Y-122657800D03*
X158887602Y-122657800D03*
%TD*%
D11*
%TO.C,Q2*%
X133729992Y-131030230D03*
D12*
X133729992Y-133570230D03*
X133729992Y-136110230D03*
%TD*%
D10*
%TO.C,J9*%
X161900000Y-96700000D03*
X158900001Y-96700000D03*
%TD*%
D13*
%TO.C,REF\u002A\u002A*%
X88534001Y-86200000D03*
%TD*%
%TO.C,REF\u002A\u002A*%
X164734001Y-149800000D03*
%TD*%
%TO.C,REF\u002A\u002A*%
X164734001Y-86200000D03*
%TD*%
D10*
%TO.C,J1*%
X92564300Y-98539599D03*
X95564299Y-98539599D03*
%TD*%
%TO.C,J4*%
X105644000Y-146237500D03*
X105644000Y-143237501D03*
%TD*%
D14*
%TO.C,R1*%
X98100000Y-134762500D03*
%TD*%
D15*
%TO.C,Q4*%
X145760000Y-102500000D03*
D16*
X148300000Y-102500000D03*
X150840000Y-102500000D03*
%TD*%
D17*
%TO.C,R7*%
X148778500Y-115244000D03*
%TD*%
%TO.C,R5*%
X148446000Y-140894000D03*
%TD*%
D15*
%TO.C,Q3*%
X145420000Y-128445000D03*
D16*
X147960000Y-128445000D03*
X150500000Y-128445000D03*
%TD*%
D10*
%TO.C,J5*%
X139229992Y-146170229D03*
X139229992Y-143170230D03*
%TD*%
%TO.C,J10*%
X161900000Y-108100000D03*
X158900001Y-108100000D03*
%TD*%
%TO.C,J6*%
X128429992Y-146170229D03*
X128429992Y-143170230D03*
%TD*%
D14*
%TO.C,R3*%
X120100000Y-133962500D03*
%TD*%
D10*
%TO.C,J8*%
X161815700Y-134085400D03*
X158815701Y-134085400D03*
%TD*%
D13*
%TO.C,REF\u002A\u002A*%
X88534001Y-149800000D03*
%TD*%
D10*
%TO.C,J3*%
X115200000Y-146237500D03*
X115200000Y-143237501D03*
%TD*%
D11*
%TO.C,Q1*%
X110400000Y-131237500D03*
D12*
X110400000Y-133777500D03*
X110400000Y-136317500D03*
%TD*%
D14*
%TO.C,R6*%
X145400000Y-121262500D03*
X145400000Y-123337500D03*
%TD*%
D18*
%TO.C,R2*%
X117400000Y-131300000D03*
X115325000Y-131300000D03*
%TD*%
%TO.C,R4*%
X140800000Y-131100000D03*
X138725000Y-131100000D03*
%TD*%
D14*
%TO.C,R8*%
X145900000Y-95800000D03*
X145900000Y-97875000D03*
%TD*%
M02*
