M48
; DRILL file {KiCad 9.0.5} date 2025-11-19T12:00:23-0700
; FORMAT={-:-/ absolute / metric / decimal}
; #@! TF.CreationDate,2025-11-19T12:00:23-07:00
; #@! TF.GenerationSoftware,Kicad,Pcbnew,9.0.5
; #@! TF.FileFunction,Plated,1,2,PTH
FMAT,2
METRIC
; #@! TA.AperFunction,Plated,PTH,ComponentDrill
T1C0.500
; #@! TA.AperFunction,Plated,PTH,ComponentDrill
T2C1.067
; #@! TA.AperFunction,Plated,PTH,ComponentDrill
T3C1.100
%
G90
G05
T1
X98.1Y-134.762
X120.1Y-133.963
X148.446Y-140.894
X148.778Y-115.244
T2
X92.564Y-98.54
X95.564Y-98.54
X105.644Y-143.238
X105.644Y-146.237
X115.2Y-143.238
X115.2Y-146.237
X128.43Y-143.17
X128.43Y-146.17
X139.23Y-143.17
X139.23Y-146.17
X158.816Y-134.085
X158.888Y-122.658
X158.9Y-96.7
X158.9Y-108.1
X161.816Y-134.085
X161.888Y-122.658
X161.9Y-96.7
X161.9Y-108.1
T3
X110.4Y-131.237
X110.4Y-133.778
X110.4Y-136.317
X133.73Y-131.03
X133.73Y-133.57
X133.73Y-136.11
X145.42Y-128.445
X145.76Y-102.5
X147.96Y-128.445
X148.3Y-102.5
X150.5Y-128.445
X150.84Y-102.5
M30
